<?xml version="1.0" encoding="UTF-8" standalone="no"?><svg xmlns="http://www.w3.org/2000/svg" xmlns:xlink="http://www.w3.org/1999/xlink" contentStyleType="text/css" height="801px" preserveAspectRatio="none" style="width:626px;height:801px;background:#FFFFFF;" version="1.1" viewBox="0 0 626 801" width="626px" zoomAndPan="magnify"><defs/><g><rect height="26.2969" style="stroke:#00000000;stroke-width:1.0;fill:none;" width="91" x="260.618" y="5"/><text fill="#000000" font-family="sans-serif" font-size="14" font-weight="bold" lengthAdjust="spacing" textLength="81" x="265.618" y="22.9951">Connect 4</text><!--MD5=[dd91eae41778c45e12552e5329e240e8]
class Turn--><g id="elem_Turn"><rect codeLine="3" fill="#F1F1F1" height="64.2969" id="Turn" rx="2.5" ry="2.5" style="stroke:#181818;stroke-width:0.5;" width="163" x="293.736" y="153.2969"/><ellipse cx="354.986" cy="169.2969" fill="#ADD1B2" rx="11" ry="11" style="stroke:#181818;stroke-width:1.0;"/><path d="M357.3298,164.9688 C356.3923,164.5313 355.7985,164.3906 354.9235,164.3906 C352.2985,164.3906 350.2985,166.4688 350.2985,169.1875 L350.2985,170.3125 C350.2985,172.8906 352.4079,174.7813 355.2985,174.7813 C356.5173,174.7813 357.6735,174.4844 358.4235,173.9375 C359.0016,173.5313 359.3298,173.0781 359.3298,172.6875 C359.3298,172.2344 358.9391,171.8438 358.4704,171.8438 C358.2516,171.8438 358.0485,171.9219 357.861,172.1094 C357.4079,172.5938 357.4079,172.5938 357.2204,172.6875 C356.7985,172.9531 356.111,173.0781 355.3454,173.0781 C353.2985,173.0781 352.0016,171.9844 352.0016,170.2813 L352.0016,169.1875 C352.0016,167.4063 353.2516,166.0938 354.986,166.0938 C355.5641,166.0938 356.1735,166.25 356.6423,166.5 C357.1266,166.7813 357.2985,167 357.3923,167.4063 C357.4548,167.8125 357.486,167.9375 357.6266,168.0625 C357.7673,168.2031 358.0016,168.3125 358.2204,168.3125 C358.486,168.3125 358.7516,168.1719 358.9235,167.9531 C359.0329,167.7969 359.0641,167.6094 359.0641,167.1875 L359.0641,165.7656 C359.0641,165.3281 359.0485,165.2031 358.9548,165.0469 C358.7985,164.7813 358.5173,164.6406 358.2204,164.6406 C357.9235,164.6406 357.7204,164.7344 357.5016,165.0469 L357.3298,164.9688 Z " fill="#000000"/><text fill="#000000" font-family="sans-serif" font-size="14" lengthAdjust="spacing" textLength="32" x="375.486" y="174.1436">Turn</text><line style="stroke:#181818;stroke-width:0.5;" x1="294.736" x2="455.736" y1="185.2969" y2="185.2969"/><rect fill="none" height="6" style="stroke:#C82930;stroke-width:1.0;" width="6" x="301.736" y="193.2969"/><text fill="#000000" font-family="sans-serif" font-size="14" lengthAdjust="spacing" textLength="137" x="313.736" y="202.292">playerTurn: "value"</text><line style="stroke:#181818;stroke-width:0.5;" x1="294.736" x2="455.736" y1="209.5938" y2="209.5938"/></g><!--MD5=[8c7d7abc12e214c3cc12c9ab70edee11]
class Coordinate--><g id="elem_Coordinate"><rect codeLine="6" fill="#F1F1F1" height="80.5938" id="Coordinate" rx="2.5" ry="2.5" style="stroke:#181818;stroke-width:0.5;" width="112" x="507.236" y="714.2969"/><ellipse cx="522.236" cy="730.2969" fill="#ADD1B2" rx="11" ry="11" style="stroke:#181818;stroke-width:1.0;"/><path d="M524.5798,725.9688 C523.6423,725.5313 523.0485,725.3906 522.1735,725.3906 C519.5485,725.3906 517.5485,727.4688 517.5485,730.1875 L517.5485,731.3125 C517.5485,733.8906 519.6579,735.7813 522.5485,735.7813 C523.7673,735.7813 524.9235,735.4844 525.6735,734.9375 C526.2516,734.5313 526.5798,734.0781 526.5798,733.6875 C526.5798,733.2344 526.1891,732.8438 525.7204,732.8438 C525.5016,732.8438 525.2985,732.9219 525.111,733.1094 C524.6579,733.5938 524.6579,733.5938 524.4704,733.6875 C524.0485,733.9531 523.361,734.0781 522.5954,734.0781 C520.5485,734.0781 519.2516,732.9844 519.2516,731.2813 L519.2516,730.1875 C519.2516,728.4063 520.5016,727.0938 522.236,727.0938 C522.8141,727.0938 523.4235,727.25 523.8923,727.5 C524.3766,727.7813 524.5485,728 524.6423,728.4063 C524.7048,728.8125 524.736,728.9375 524.8766,729.0625 C525.0173,729.2031 525.2516,729.3125 525.4704,729.3125 C525.736,729.3125 526.0016,729.1719 526.1735,728.9531 C526.2829,728.7969 526.3141,728.6094 526.3141,728.1875 L526.3141,726.7656 C526.3141,726.3281 526.2985,726.2031 526.2048,726.0469 C526.0485,725.7813 525.7673,725.6406 525.4704,725.6406 C525.1735,725.6406 524.9704,725.7344 524.7516,726.0469 L524.5798,725.9688 Z " fill="#000000"/><text fill="#000000" font-family="sans-serif" font-size="14" lengthAdjust="spacing" textLength="80" x="536.236" y="735.1436">Coordinate</text><line style="stroke:#181818;stroke-width:0.5;" x1="508.236" x2="618.236" y1="746.2969" y2="746.2969"/><text fill="#000000" font-family="sans-serif" font-size="14" lengthAdjust="spacing" textLength="42" x="513.236" y="763.292">Row x</text><text fill="#000000" font-family="sans-serif" font-size="14" lengthAdjust="spacing" textLength="67" x="513.236" y="779.5889">Column Y</text><line style="stroke:#181818;stroke-width:0.5;" x1="508.236" x2="618.236" y1="786.8906" y2="786.8906"/></g><!--MD5=[18eee71c88ab61f27581b8cbdd3ef5ee]
class Color--><g id="elem_Color"><rect codeLine="10" fill="#F1F1F1" height="80.5938" id="Color" rx="2.5" ry="2.5" style="stroke:#181818;stroke-width:0.5;" width="70" x="402.236" y="714.2969"/><ellipse cx="417.236" cy="730.2969" fill="#EB937F" rx="11" ry="11" style="stroke:#181818;stroke-width:1.0;"/><path d="M416.0329,731.1719 L417.486,731.1719 L417.486,731.2813 C417.486,731.6875 417.5173,731.8438 417.5954,732 C417.7516,732.25 418.0329,732.4063 418.3298,732.4063 C418.5798,732.4063 418.8454,732.2656 419.0016,732.0469 C419.1266,731.8906 419.1579,731.7344 419.1579,731.2813 L419.1579,729.3594 C419.1579,729.2031 419.1579,729.1563 419.1423,729 C419.0798,728.5313 418.7673,728.2188 418.3141,728.2188 C418.0641,728.2188 417.7985,728.3594 417.6266,728.5781 C417.5173,728.75 417.486,728.9063 417.486,729.3594 L417.486,729.4844 L416.0329,729.4844 L416.0329,727.0781 L420.0173,727.0781 L420.0173,727.9375 C420.0173,728.3438 420.0485,728.5156 420.1266,728.6719 C420.2985,728.9219 420.5798,729.0781 420.861,729.0781 C421.1266,729.0781 421.3923,728.9375 421.5641,728.7188 C421.6735,728.5469 421.7048,728.4063 421.7048,727.9375 L421.7048,725.3906 L414.0798,725.3906 C413.6423,725.3906 413.5173,725.4063 413.361,725.5 C413.111,725.6563 412.9548,725.9531 412.9548,726.2344 C412.9548,726.5156 413.0954,726.7656 413.3141,726.9375 C413.4704,727.0469 413.6579,727.0781 414.0798,727.0781 L414.3298,727.0781 L414.3298,733.5938 L414.0798,733.5938 C413.6735,733.5938 413.5173,733.6094 413.361,733.7188 C413.111,733.8906 412.9548,734.1563 412.9548,734.4531 C412.9548,734.7188 413.0954,734.9688 413.3141,735.125 C413.4548,735.25 413.6891,735.2969 414.0798,735.2969 L422.0798,735.2969 L422.0798,732.7188 C422.0798,732.2813 422.0485,732.1406 421.9704,731.9844 C421.7985,731.7344 421.5173,731.5781 421.236,731.5781 C420.9704,731.5781 420.7048,731.6875 420.5329,731.9375 C420.4235,732.0938 420.3923,732.2344 420.3923,732.7188 L420.3923,733.5938 L416.0329,733.5938 L416.0329,731.1719 Z " fill="#000000"/><text fill="#000000" font-family="sans-serif" font-size="14" lengthAdjust="spacing" textLength="38" x="431.236" y="735.1436">Color</text><line style="stroke:#181818;stroke-width:0.5;" x1="403.236" x2="471.236" y1="746.2969" y2="746.2969"/><text fill="#000000" font-family="sans-serif" font-size="14" lengthAdjust="spacing" textLength="28" x="408.236" y="763.292">Red</text><text fill="#000000" font-family="sans-serif" font-size="14" lengthAdjust="spacing" textLength="42" x="408.236" y="779.5889">Yelow</text><line style="stroke:#181818;stroke-width:0.5;" x1="403.236" x2="471.236" y1="786.8906" y2="786.8906"/></g><!--MD5=[10b1f240992e2c34b6908209bf85bfd2]
class Connect4--><g id="elem_Connect4"><rect fill="#F1F1F1" height="48" id="Connect4" rx="2.5" ry="2.5" style="stroke:#181818;stroke-width:0.5;" width="101" x="324.736" y="44.2969"/><ellipse cx="339.736" cy="60.2969" fill="#ADD1B2" rx="11" ry="11" style="stroke:#181818;stroke-width:1.0;"/><path d="M342.0798,55.9688 C341.1423,55.5313 340.5485,55.3906 339.6735,55.3906 C337.0485,55.3906 335.0485,57.4688 335.0485,60.1875 L335.0485,61.3125 C335.0485,63.8906 337.1579,65.7813 340.0485,65.7813 C341.2673,65.7813 342.4235,65.4844 343.1735,64.9375 C343.7516,64.5313 344.0798,64.0781 344.0798,63.6875 C344.0798,63.2344 343.6891,62.8438 343.2204,62.8438 C343.0016,62.8438 342.7985,62.9219 342.611,63.1094 C342.1579,63.5938 342.1579,63.5938 341.9704,63.6875 C341.5485,63.9531 340.861,64.0781 340.0954,64.0781 C338.0485,64.0781 336.7516,62.9844 336.7516,61.2813 L336.7516,60.1875 C336.7516,58.4063 338.0016,57.0938 339.736,57.0938 C340.3141,57.0938 340.9235,57.25 341.3923,57.5 C341.8766,57.7813 342.0485,58 342.1423,58.4063 C342.2048,58.8125 342.236,58.9375 342.3766,59.0625 C342.5173,59.2031 342.7516,59.3125 342.9704,59.3125 C343.236,59.3125 343.5016,59.1719 343.6735,58.9531 C343.7829,58.7969 343.8141,58.6094 343.8141,58.1875 L343.8141,56.7656 C343.8141,56.3281 343.7985,56.2031 343.7048,56.0469 C343.5485,55.7813 343.2673,55.6406 342.9704,55.6406 C342.6735,55.6406 342.4704,55.7344 342.2516,56.0469 L342.0798,55.9688 Z " fill="#000000"/><text fill="#000000" font-family="sans-serif" font-size="14" lengthAdjust="spacing" textLength="69" x="353.736" y="65.1436">Connect4</text><line style="stroke:#181818;stroke-width:0.5;" x1="325.736" x2="424.736" y1="76.2969" y2="76.2969"/><line style="stroke:#181818;stroke-width:0.5;" x1="325.736" x2="424.736" y1="84.2969" y2="84.2969"/></g><!--MD5=[9563755d011c5cec7ec66dc53565a59e]
class Board--><g id="elem_Board"><rect fill="#F1F1F1" height="48" id="Board" rx="2.5" ry="2.5" style="stroke:#181818;stroke-width:0.5;" width="74" x="473.236" y="387.2969"/><ellipse cx="488.236" cy="403.2969" fill="#ADD1B2" rx="11" ry="11" style="stroke:#181818;stroke-width:1.0;"/><path d="M490.5798,398.9688 C489.6423,398.5313 489.0485,398.3906 488.1735,398.3906 C485.5485,398.3906 483.5485,400.4688 483.5485,403.1875 L483.5485,404.3125 C483.5485,406.8906 485.6579,408.7813 488.5485,408.7813 C489.7673,408.7813 490.9235,408.4844 491.6735,407.9375 C492.2516,407.5313 492.5798,407.0781 492.5798,406.6875 C492.5798,406.2344 492.1891,405.8438 491.7204,405.8438 C491.5016,405.8438 491.2985,405.9219 491.111,406.1094 C490.6579,406.5938 490.6579,406.5938 490.4704,406.6875 C490.0485,406.9531 489.361,407.0781 488.5954,407.0781 C486.5485,407.0781 485.2516,405.9844 485.2516,404.2813 L485.2516,403.1875 C485.2516,401.4063 486.5016,400.0938 488.236,400.0938 C488.8141,400.0938 489.4235,400.25 489.8923,400.5 C490.3766,400.7813 490.5485,401 490.6423,401.4063 C490.7048,401.8125 490.736,401.9375 490.8766,402.0625 C491.0173,402.2031 491.2516,402.3125 491.4704,402.3125 C491.736,402.3125 492.0016,402.1719 492.1735,401.9531 C492.2829,401.7969 492.3141,401.6094 492.3141,401.1875 L492.3141,399.7656 C492.3141,399.3281 492.2985,399.2031 492.2048,399.0469 C492.0485,398.7813 491.7673,398.6406 491.4704,398.6406 C491.1735,398.6406 490.9704,398.7344 490.7516,399.0469 L490.5798,398.9688 Z " fill="#000000"/><text fill="#000000" font-family="sans-serif" font-size="14" lengthAdjust="spacing" textLength="42" x="502.236" y="408.1436">Board</text><line style="stroke:#181818;stroke-width:0.5;" x1="474.236" x2="546.236" y1="419.2969" y2="419.2969"/><line style="stroke:#181818;stroke-width:0.5;" x1="474.236" x2="546.236" y1="427.2969" y2="427.2969"/></g><!--MD5=[2cb47ba637a0d19583e6199456f6ad0b]
class Player--><g id="elem_Player"><rect fill="#F1F1F1" height="48" id="Player" rx="2.5" ry="2.5" style="stroke:#181818;stroke-width:0.5;" width="76" x="312.236" y="278.2969"/><ellipse cx="327.236" cy="294.2969" fill="#ADD1B2" rx="11" ry="11" style="stroke:#181818;stroke-width:1.0;"/><path d="M329.5798,289.9688 C328.6423,289.5313 328.0485,289.3906 327.1735,289.3906 C324.5485,289.3906 322.5485,291.4688 322.5485,294.1875 L322.5485,295.3125 C322.5485,297.8906 324.6579,299.7813 327.5485,299.7813 C328.7673,299.7813 329.9235,299.4844 330.6735,298.9375 C331.2516,298.5313 331.5798,298.0781 331.5798,297.6875 C331.5798,297.2344 331.1891,296.8438 330.7204,296.8438 C330.5016,296.8438 330.2985,296.9219 330.111,297.1094 C329.6579,297.5938 329.6579,297.5938 329.4704,297.6875 C329.0485,297.9531 328.361,298.0781 327.5954,298.0781 C325.5485,298.0781 324.2516,296.9844 324.2516,295.2813 L324.2516,294.1875 C324.2516,292.4063 325.5016,291.0938 327.236,291.0938 C327.8141,291.0938 328.4235,291.25 328.8923,291.5 C329.3766,291.7813 329.5485,292 329.6423,292.4063 C329.7048,292.8125 329.736,292.9375 329.8766,293.0625 C330.0173,293.2031 330.2516,293.3125 330.4704,293.3125 C330.736,293.3125 331.0016,293.1719 331.1735,292.9531 C331.2829,292.7969 331.3141,292.6094 331.3141,292.1875 L331.3141,290.7656 C331.3141,290.3281 331.2985,290.2031 331.2048,290.0469 C331.0485,289.7813 330.7673,289.6406 330.4704,289.6406 C330.1735,289.6406 329.9704,289.7344 329.7516,290.0469 L329.5798,289.9688 Z " fill="#000000"/><text fill="#000000" font-family="sans-serif" font-size="14" lengthAdjust="spacing" textLength="44" x="341.236" y="299.1436">Player</text><line style="stroke:#181818;stroke-width:0.5;" x1="313.236" x2="387.236" y1="310.2969" y2="310.2969"/><line style="stroke:#181818;stroke-width:0.5;" x1="313.236" x2="387.236" y1="318.2969" y2="318.2969"/></g><!--MD5=[d8c8cfd5ca149094f5b67f9f607a5ec7]
class Token--><g id="elem_Token"><rect fill="#F1F1F1" height="48" id="Token" rx="2.5" ry="2.5" style="stroke:#181818;stroke-width:0.5;" width="77" x="404.736" y="605.2969"/><ellipse cx="419.736" cy="621.2969" fill="#ADD1B2" rx="11" ry="11" style="stroke:#181818;stroke-width:1.0;"/><path d="M422.0798,616.9688 C421.1423,616.5313 420.5485,616.3906 419.6735,616.3906 C417.0485,616.3906 415.0485,618.4688 415.0485,621.1875 L415.0485,622.3125 C415.0485,624.8906 417.1579,626.7813 420.0485,626.7813 C421.2673,626.7813 422.4235,626.4844 423.1735,625.9375 C423.7516,625.5313 424.0798,625.0781 424.0798,624.6875 C424.0798,624.2344 423.6891,623.8438 423.2204,623.8438 C423.0016,623.8438 422.7985,623.9219 422.611,624.1094 C422.1579,624.5938 422.1579,624.5938 421.9704,624.6875 C421.5485,624.9531 420.861,625.0781 420.0954,625.0781 C418.0485,625.0781 416.7516,623.9844 416.7516,622.2813 L416.7516,621.1875 C416.7516,619.4063 418.0016,618.0938 419.736,618.0938 C420.3141,618.0938 420.9235,618.25 421.3923,618.5 C421.8766,618.7813 422.0485,619 422.1423,619.4063 C422.2048,619.8125 422.236,619.9375 422.3766,620.0625 C422.5173,620.2031 422.7516,620.3125 422.9704,620.3125 C423.236,620.3125 423.5016,620.1719 423.6735,619.9531 C423.7829,619.7969 423.8141,619.6094 423.8141,619.1875 L423.8141,617.7656 C423.8141,617.3281 423.7985,617.2031 423.7048,617.0469 C423.5485,616.7813 423.2673,616.6406 422.9704,616.6406 C422.6735,616.6406 422.4704,616.7344 422.2516,617.0469 L422.0798,616.9688 Z " fill="#000000"/><text fill="#000000" font-family="sans-serif" font-size="14" lengthAdjust="spacing" textLength="45" x="433.736" y="626.1436">Token</text><line style="stroke:#181818;stroke-width:0.5;" x1="405.736" x2="480.736" y1="637.2969" y2="637.2969"/><line style="stroke:#181818;stroke-width:0.5;" x1="405.736" x2="480.736" y1="645.2969" y2="645.2969"/></g><g id="elem_GMN242988"><path d="M168.736,609.2969 L168.736,649.5625 A0,0 0 0 0 168.736,649.5625 L369.736,649.5625 A0,0 0 0 0 369.736,649.5625 L369.736,633.2969 L404.526,629.2969 L369.736,625.2969 L369.736,619.2969 L359.736,609.2969 L168.736,609.2969 A0,0 0 0 0 168.736,609.2969 " fill="#FEFFDD" style="stroke:#181818;stroke-width:0.5;"/><path d="M359.736,609.2969 L359.736,619.2969 L369.736,619.2969 L359.736,609.2969 " fill="#FEFFDD" style="stroke:#181818;stroke-width:0.5;"/><text fill="#000000" font-family="sans-serif" font-size="13" lengthAdjust="spacing" textLength="160" x="174.736" y="626.3638">Player one 21 red tokens</text><text fill="#000000" font-family="sans-serif" font-size="13" lengthAdjust="spacing" textLength="180" x="174.736" y="641.4966">Player two 21 yellow tokens</text></g><!--MD5=[0992d3fdc9d3d7c02b735131bb70871d]
class Goal--><g id="elem_Goal"><rect fill="#F1F1F1" height="48" id="Goal" rx="2.5" ry="2.5" style="stroke:#181818;stroke-width:0.5;" width="64" x="318.236" y="387.2969"/><ellipse cx="333.236" cy="403.2969" fill="#ADD1B2" rx="11" ry="11" style="stroke:#181818;stroke-width:1.0;"/><path d="M335.5798,398.9688 C334.6423,398.5313 334.0485,398.3906 333.1735,398.3906 C330.5485,398.3906 328.5485,400.4688 328.5485,403.1875 L328.5485,404.3125 C328.5485,406.8906 330.6579,408.7813 333.5485,408.7813 C334.7673,408.7813 335.9235,408.4844 336.6735,407.9375 C337.2516,407.5313 337.5798,407.0781 337.5798,406.6875 C337.5798,406.2344 337.1891,405.8438 336.7204,405.8438 C336.5016,405.8438 336.2985,405.9219 336.111,406.1094 C335.6579,406.5938 335.6579,406.5938 335.4704,406.6875 C335.0485,406.9531 334.361,407.0781 333.5954,407.0781 C331.5485,407.0781 330.2516,405.9844 330.2516,404.2813 L330.2516,403.1875 C330.2516,401.4063 331.5016,400.0938 333.236,400.0938 C333.8141,400.0938 334.4235,400.25 334.8923,400.5 C335.3766,400.7813 335.5485,401 335.6423,401.4063 C335.7048,401.8125 335.736,401.9375 335.8766,402.0625 C336.0173,402.2031 336.2516,402.3125 336.4704,402.3125 C336.736,402.3125 337.0016,402.1719 337.1735,401.9531 C337.2829,401.7969 337.3141,401.6094 337.3141,401.1875 L337.3141,399.7656 C337.3141,399.3281 337.2985,399.2031 337.2048,399.0469 C337.0485,398.7813 336.7673,398.6406 336.4704,398.6406 C336.1735,398.6406 335.9704,398.7344 335.7516,399.0469 L335.5798,398.9688 Z " fill="#000000"/><text fill="#000000" font-family="sans-serif" font-size="14" lengthAdjust="spacing" textLength="32" x="347.236" y="408.1436">Goal</text><line style="stroke:#181818;stroke-width:0.5;" x1="319.236" x2="381.236" y1="419.2969" y2="419.2969"/><line style="stroke:#181818;stroke-width:0.5;" x1="319.236" x2="381.236" y1="427.2969" y2="427.2969"/></g><g id="elem_GMN242994"><path d="M93.2364,391.2969 L93.2364,431.5625 A0,0 0 0 0 93.2364,431.5625 L283.2364,431.5625 A0,0 0 0 0 283.2364,431.5625 L283.2364,415.2969 L318.159,411.2969 L283.2364,407.2969 L283.2364,401.2969 L273.2364,391.2969 L93.2364,391.2969 A0,0 0 0 0 93.2364,391.2969 " fill="#FEFFDD" style="stroke:#181818;stroke-width:0.5;"/><path d="M273.2364,391.2969 L273.2364,401.2969 L283.2364,401.2969 L273.2364,391.2969 " fill="#FEFFDD" style="stroke:#181818;stroke-width:0.5;"/><text fill="#000000" font-family="sans-serif" font-size="13" lengthAdjust="spacing" textLength="156" x="99.2364" y="408.3638">Four consecutive tokens</text><text fill="#000000" font-family="sans-serif" font-size="13" lengthAdjust="spacing" textLength="169" x="99.2364" y="423.4966">inserted of the same color</text></g><!--MD5=[5655ee3e2a0d028d03fe20f829576392]
class Square--><g id="elem_Square"><rect fill="#F1F1F1" height="48" id="Square" rx="2.5" ry="2.5" style="stroke:#181818;stroke-width:0.5;" width="81" x="519.736" y="605.2969"/><ellipse cx="534.736" cy="621.2969" fill="#ADD1B2" rx="11" ry="11" style="stroke:#181818;stroke-width:1.0;"/><path d="M537.0798,616.9688 C536.1423,616.5313 535.5485,616.3906 534.6735,616.3906 C532.0485,616.3906 530.0485,618.4688 530.0485,621.1875 L530.0485,622.3125 C530.0485,624.8906 532.1579,626.7813 535.0485,626.7813 C536.2673,626.7813 537.4235,626.4844 538.1735,625.9375 C538.7516,625.5313 539.0798,625.0781 539.0798,624.6875 C539.0798,624.2344 538.6891,623.8438 538.2204,623.8438 C538.0016,623.8438 537.7985,623.9219 537.611,624.1094 C537.1579,624.5938 537.1579,624.5938 536.9704,624.6875 C536.5485,624.9531 535.861,625.0781 535.0954,625.0781 C533.0485,625.0781 531.7516,623.9844 531.7516,622.2813 L531.7516,621.1875 C531.7516,619.4063 533.0016,618.0938 534.736,618.0938 C535.3141,618.0938 535.9235,618.25 536.3923,618.5 C536.8766,618.7813 537.0485,619 537.1423,619.4063 C537.2048,619.8125 537.236,619.9375 537.3766,620.0625 C537.5173,620.2031 537.7516,620.3125 537.9704,620.3125 C538.236,620.3125 538.5016,620.1719 538.6735,619.9531 C538.7829,619.7969 538.8141,619.6094 538.8141,619.1875 L538.8141,617.7656 C538.8141,617.3281 538.7985,617.2031 538.7048,617.0469 C538.5485,616.7813 538.2673,616.6406 537.9704,616.6406 C537.6735,616.6406 537.4704,616.7344 537.2516,617.0469 L537.0798,616.9688 Z " fill="#000000"/><text fill="#000000" font-family="sans-serif" font-size="14" lengthAdjust="spacing" textLength="49" x="548.736" y="626.1436">Square</text><line style="stroke:#181818;stroke-width:0.5;" x1="520.736" x2="599.736" y1="637.2969" y2="637.2969"/><line style="stroke:#181818;stroke-width:0.5;" x1="520.736" x2="599.736" y1="645.2969" y2="645.2969"/></g><!--MD5=[f04eddc513368489aea0358c3d51bf6a]
class Insertion--><g id="elem_Insertion"><rect fill="#F1F1F1" height="48" id="Insertion" rx="2.5" ry="2.5" style="stroke:#181818;stroke-width:0.5;" width="96" x="462.236" y="496.2969"/><ellipse cx="477.236" cy="512.2969" fill="#ADD1B2" rx="11" ry="11" style="stroke:#181818;stroke-width:1.0;"/><path d="M479.5798,507.9688 C478.6423,507.5313 478.0485,507.3906 477.1735,507.3906 C474.5485,507.3906 472.5485,509.4688 472.5485,512.1875 L472.5485,513.3125 C472.5485,515.8906 474.6579,517.7813 477.5485,517.7813 C478.7673,517.7813 479.9235,517.4844 480.6735,516.9375 C481.2516,516.5313 481.5798,516.0781 481.5798,515.6875 C481.5798,515.2344 481.1891,514.8438 480.7204,514.8438 C480.5016,514.8438 480.2985,514.9219 480.111,515.1094 C479.6579,515.5938 479.6579,515.5938 479.4704,515.6875 C479.0485,515.9531 478.361,516.0781 477.5954,516.0781 C475.5485,516.0781 474.2516,514.9844 474.2516,513.2813 L474.2516,512.1875 C474.2516,510.4063 475.5016,509.0938 477.236,509.0938 C477.8141,509.0938 478.4235,509.25 478.8923,509.5 C479.3766,509.7813 479.5485,510 479.6423,510.4063 C479.7048,510.8125 479.736,510.9375 479.8766,511.0625 C480.0173,511.2031 480.2516,511.3125 480.4704,511.3125 C480.736,511.3125 481.0016,511.1719 481.1735,510.9531 C481.2829,510.7969 481.3141,510.6094 481.3141,510.1875 L481.3141,508.7656 C481.3141,508.3281 481.2985,508.2031 481.2048,508.0469 C481.0485,507.7813 480.7673,507.6406 480.4704,507.6406 C480.1735,507.6406 479.9704,507.7344 479.7516,508.0469 L479.5798,507.9688 Z " fill="#000000"/><text fill="#000000" font-family="sans-serif" font-size="14" lengthAdjust="spacing" textLength="64" x="491.236" y="517.1436">Insertion</text><line style="stroke:#181818;stroke-width:0.5;" x1="463.236" x2="557.236" y1="528.2969" y2="528.2969"/><line style="stroke:#181818;stroke-width:0.5;" x1="463.236" x2="557.236" y1="536.2969" y2="536.2969"/></g><!--MD5=[a135607b44036ad87f368405615013d9]
class Diagonal--><g id="elem_Diagonal"><rect fill="#F1F1F1" height="48" id="Diagonal" rx="2.5" ry="2.5" style="stroke:#181818;stroke-width:0.5;" width="94" x="69.2364" y="496.2969"/><ellipse cx="84.2364" cy="512.2969" fill="#ADD1B2" rx="11" ry="11" style="stroke:#181818;stroke-width:1.0;"/><path d="M86.5802,507.9688 C85.6427,507.5313 85.0489,507.3906 84.1739,507.3906 C81.5489,507.3906 79.5489,509.4688 79.5489,512.1875 L79.5489,513.3125 C79.5489,515.8906 81.6583,517.7813 84.5489,517.7813 C85.7677,517.7813 86.9239,517.4844 87.6739,516.9375 C88.252,516.5313 88.5802,516.0781 88.5802,515.6875 C88.5802,515.2344 88.1895,514.8438 87.7208,514.8438 C87.502,514.8438 87.2989,514.9219 87.1114,515.1094 C86.6583,515.5938 86.6583,515.5938 86.4708,515.6875 C86.0489,515.9531 85.3614,516.0781 84.5958,516.0781 C82.5489,516.0781 81.252,514.9844 81.252,513.2813 L81.252,512.1875 C81.252,510.4063 82.502,509.0938 84.2364,509.0938 C84.8145,509.0938 85.4239,509.25 85.8927,509.5 C86.377,509.7813 86.5489,510 86.6427,510.4063 C86.7052,510.8125 86.7364,510.9375 86.877,511.0625 C87.0177,511.2031 87.252,511.3125 87.4708,511.3125 C87.7364,511.3125 88.002,511.1719 88.1739,510.9531 C88.2833,510.7969 88.3145,510.6094 88.3145,510.1875 L88.3145,508.7656 C88.3145,508.3281 88.2989,508.2031 88.2052,508.0469 C88.0489,507.7813 87.7677,507.6406 87.4708,507.6406 C87.1739,507.6406 86.9708,507.7344 86.752,508.0469 L86.5802,507.9688 Z " fill="#000000"/><text fill="#000000" font-family="sans-serif" font-size="14" lengthAdjust="spacing" textLength="62" x="98.2364" y="517.1436">Diagonal</text><line style="stroke:#181818;stroke-width:0.5;" x1="70.2364" x2="162.2364" y1="528.2969" y2="528.2969"/><line style="stroke:#181818;stroke-width:0.5;" x1="70.2364" x2="162.2364" y1="536.2969" y2="536.2969"/></g><!--MD5=[9ddfc9bd1e3a4b04466623ab197feef8]
class Vertical--><g id="elem_Vertical"><rect fill="#F1F1F1" height="48" id="Vertical" rx="2.5" ry="2.5" style="stroke:#181818;stroke-width:0.5;" width="88" x="198.236" y="496.2969"/><ellipse cx="213.236" cy="512.2969" fill="#ADD1B2" rx="11" ry="11" style="stroke:#181818;stroke-width:1.0;"/><path d="M215.5798,507.9688 C214.6423,507.5313 214.0485,507.3906 213.1735,507.3906 C210.5485,507.3906 208.5485,509.4688 208.5485,512.1875 L208.5485,513.3125 C208.5485,515.8906 210.6579,517.7813 213.5485,517.7813 C214.7673,517.7813 215.9235,517.4844 216.6735,516.9375 C217.2516,516.5313 217.5798,516.0781 217.5798,515.6875 C217.5798,515.2344 217.1891,514.8438 216.7204,514.8438 C216.5016,514.8438 216.2985,514.9219 216.111,515.1094 C215.6579,515.5938 215.6579,515.5938 215.4704,515.6875 C215.0485,515.9531 214.361,516.0781 213.5954,516.0781 C211.5485,516.0781 210.2516,514.9844 210.2516,513.2813 L210.2516,512.1875 C210.2516,510.4063 211.5016,509.0938 213.236,509.0938 C213.8141,509.0938 214.4235,509.25 214.8923,509.5 C215.3766,509.7813 215.5485,510 215.6423,510.4063 C215.7048,510.8125 215.736,510.9375 215.8766,511.0625 C216.0173,511.2031 216.2516,511.3125 216.4704,511.3125 C216.736,511.3125 217.0016,511.1719 217.1735,510.9531 C217.2829,510.7969 217.3141,510.6094 217.3141,510.1875 L217.3141,508.7656 C217.3141,508.3281 217.2985,508.2031 217.2048,508.0469 C217.0485,507.7813 216.7673,507.6406 216.4704,507.6406 C216.1735,507.6406 215.9704,507.7344 215.7516,508.0469 L215.5798,507.9688 Z " fill="#000000"/><text fill="#000000" font-family="sans-serif" font-size="14" lengthAdjust="spacing" textLength="56" x="227.236" y="517.1436">Vertical</text><line style="stroke:#181818;stroke-width:0.5;" x1="199.236" x2="285.236" y1="528.2969" y2="528.2969"/><line style="stroke:#181818;stroke-width:0.5;" x1="199.236" x2="285.236" y1="536.2969" y2="536.2969"/></g><!--MD5=[2808de09be71fab9caf2df132bae0681]
class Horizontal--><g id="elem_Horizontal"><rect fill="#F1F1F1" height="48" id="Horizontal" rx="2.5" ry="2.5" style="stroke:#181818;stroke-width:0.5;" width="106" x="321.236" y="496.2969"/><ellipse cx="336.236" cy="512.2969" fill="#ADD1B2" rx="11" ry="11" style="stroke:#181818;stroke-width:1.0;"/><path d="M338.5798,507.9688 C337.6423,507.5313 337.0485,507.3906 336.1735,507.3906 C333.5485,507.3906 331.5485,509.4688 331.5485,512.1875 L331.5485,513.3125 C331.5485,515.8906 333.6579,517.7813 336.5485,517.7813 C337.7673,517.7813 338.9235,517.4844 339.6735,516.9375 C340.2516,516.5313 340.5798,516.0781 340.5798,515.6875 C340.5798,515.2344 340.1891,514.8438 339.7204,514.8438 C339.5016,514.8438 339.2985,514.9219 339.111,515.1094 C338.6579,515.5938 338.6579,515.5938 338.4704,515.6875 C338.0485,515.9531 337.361,516.0781 336.5954,516.0781 C334.5485,516.0781 333.2516,514.9844 333.2516,513.2813 L333.2516,512.1875 C333.2516,510.4063 334.5016,509.0938 336.236,509.0938 C336.8141,509.0938 337.4235,509.25 337.8923,509.5 C338.3766,509.7813 338.5485,510 338.6423,510.4063 C338.7048,510.8125 338.736,510.9375 338.8766,511.0625 C339.0173,511.2031 339.2516,511.3125 339.4704,511.3125 C339.736,511.3125 340.0016,511.1719 340.1735,510.9531 C340.2829,510.7969 340.3141,510.6094 340.3141,510.1875 L340.3141,508.7656 C340.3141,508.3281 340.2985,508.2031 340.2048,508.0469 C340.0485,507.7813 339.7673,507.6406 339.4704,507.6406 C339.1735,507.6406 338.9704,507.7344 338.7516,508.0469 L338.5798,507.9688 Z " fill="#000000"/><text fill="#000000" font-family="sans-serif" font-size="14" lengthAdjust="spacing" textLength="74" x="350.236" y="517.1436">Horizontal</text><line style="stroke:#181818;stroke-width:0.5;" x1="322.236" x2="426.236" y1="528.2969" y2="528.2969"/><line style="stroke:#181818;stroke-width:0.5;" x1="322.236" x2="426.236" y1="536.2969" y2="536.2969"/></g><!--MD5=[5426a1d26e36fcd61d30da6b8a6545ec]
link Connect4 to Board--><g id="link_Connect4_Board"><path codeLine="14" d="M424.0262,99.3712 C424.0262,99.3712 462.606,132.1679 474.236,153.2969 C513.142,223.9789 515.233,321.5349 512.976,373.7779 " fill="none" id="Connect4-Board" style="stroke:#181818;stroke-width:1.0;"/><polygon fill="#181818" points="512.271,386.9489,516.7469,378.1758,512.5386,381.956,508.7584,377.7477,512.271,386.9489" style="stroke:#181818;stroke-width:1.0;"/><line style="stroke:#181818;stroke-width:1.0;" x1="512.5386" x2="512.9665" y1="381.956" y2="373.9674"/><polygon fill="#181818" points="414.302,92.3399,416.8203,99.097,424.0262,99.3712,421.5079,92.6142,414.302,92.3399" style="stroke:#181818;stroke-width:1.0;"/></g><!--MD5=[46750473935a00282743b47f522de7be]
link Connect4 to Player--><g id="link_Connect4_Player"><path codeLine="15" d="M324.0212,99.2883 C324.0212,99.2883 286.211,131.7519 276.236,153.2969 C264.286,179.1089 266.187,190.6869 276.236,217.2969 C283.601,236.7969 297.783,254.7009 311.777,268.9249 " fill="none" id="Connect4-Player" style="stroke:#181818;stroke-width:1.0;"/><polygon fill="#181818" points="321.35,278.1579,317.6493,269.0307,317.7513,274.6866,312.0954,274.7886,321.35,278.1579" style="stroke:#181818;stroke-width:1.0;"/><line style="stroke:#181818;stroke-width:1.0;" x1="317.7513" x2="311.993" y1="274.6866" y2="269.1329"/><polygon fill="#181818" points="333.807,92.3429,326.599,92.5536,324.0212,99.2883,331.2292,99.0775,333.807,92.3429" style="stroke:#181818;stroke-width:1.0;"/><text fill="#000000" font-family="sans-serif" font-size="13" lengthAdjust="spacing" textLength="8" x="304.923" y="267.1343">2</text></g><!--MD5=[6824fd9902778444ee49992acd2ffe7e]
link Connect4 to Turn--><g id="link_Connect4_Turn"><path codeLine="16" d="M375.236,104.5689 C375.236,104.5689 375.236,128.6309 375.236,139.9199 " fill="none" id="Connect4-Turn" style="stroke:#181818;stroke-width:1.0;"/><polygon fill="#181818" points="375.236,153.2089,379.236,144.2089,375.236,148.2089,371.236,144.2089,375.236,153.2089" style="stroke:#181818;stroke-width:1.0;"/><line style="stroke:#181818;stroke-width:1.0;" x1="375.236" x2="375.236" y1="148.2089" y2="140.2094"/><polygon fill="#181818" points="375.236,92.5689,371.236,98.5689,375.236,104.5689,379.236,98.5689,375.236,92.5689" style="stroke:#181818;stroke-width:1.0;"/></g><!--MD5=[525e20984b3f0335f86e1ed389de5b3d]
link Player to Token--><g id="link_Player_Token"><path codeLine="17" d="M300.0166,304.1082 C300.0166,304.1082 133.166,324.5549 75.2364,387.2969 C27.3517,439.1599 6,490.1089 51.2364,544.2969 C148.501,660.8089 241.569,562.6749 387.236,605.2969 C388.825,605.7619 390.43,606.2569 392.044,606.7759 " fill="none" id="Player-Token" style="stroke:#181818;stroke-width:1.0;"/><polygon fill="#181818" points="404.447,611.1439,397.287,604.3812,399.731,609.4829,394.6293,611.9269,404.447,611.1439" style="stroke:#181818;stroke-width:1.0;"/><line style="stroke:#181818;stroke-width:1.0;" x1="399.731" x2="392.1845" y1="609.4829" y2="606.8254"/><polygon fill="#181818" points="312,303.4779,305.7982,299.7986,300.0166,304.1082,306.2184,307.7875,312,303.4779" style="stroke:#181818;stroke-width:1.0;"/><text fill="#000000" font-family="sans-serif" font-size="13" lengthAdjust="spacing" textLength="16" x="380.6976" y="603.973">21</text></g><!--MD5=[d81713d91ad05be3b975338c4816ee0b]
link Turn to Player--><g id="link_Turn_Player"><path codeLine="22" d="M368.471,217.4179 C364.697,234.7789 360.032,256.2369 356.365,273.1029 " fill="none" id="Turn-to-Player" style="stroke:#181818;stroke-width:1.0;"/><polygon fill="#181818" points="355.262,278.1809,361.0837,270.2369,356.3249,273.2951,353.2666,268.5363,355.262,278.1809" style="stroke:#181818;stroke-width:1.0;"/><text fill="#000000" font-family="sans-serif" font-size="13" lengthAdjust="spacing" textLength="8" x="347.5249" y="267.1632">2</text></g><!--MD5=[1571e4e0b7cdbae74b04c97a95677c54]
link Player to Goal--><g id="link_Player_Goal"><path codeLine="23" d="M350.236,326.5139 C350.236,342.7789 350.236,364.6119 350.236,381.9129 " fill="none" id="Player-to-Goal" style="stroke:#181818;stroke-width:1.0;"/><polygon fill="#181818" points="350.236,387.1249,354.236,378.1249,350.236,382.1249,346.236,378.1249,350.236,387.1249" style="stroke:#181818;stroke-width:1.0;"/></g><!--MD5=[c1f7e88598f78d9459764ed93737eb14]
link Player to Board--><g id="link_Player_Board"><path codeLine="28" d="M384.954,326.5139 C410.429,343.5499 445.037,366.6949 471.425,384.3419 " fill="none" id="Player-to-Board" style="stroke:#181818;stroke-width:1.0;"/><polygon fill="#181818" points="475.587,387.1249,470.3305,378.796,471.4311,384.3448,465.8824,385.4454,475.587,387.1249" style="stroke:#181818;stroke-width:1.0;"/></g><!--MD5=[4ad96441c8a01d959d4bf4f2a5e1a798]
link Board to Square--><g id="link_Board_Square"><path codeLine="29" d="M543.5075,444.1752 C543.5075,444.1752 569.7,477.3969 576.236,496.2969 C587.081,527.6509 580.706,565.4039 573.028,592.4879 " fill="none" id="Board-Square" style="stroke:#181818;stroke-width:1.0;"/><polygon fill="#181818" points="569.102,605.2199,575.576,597.7978,570.5751,600.4418,567.9311,595.4409,569.102,605.2199" style="stroke:#181818;stroke-width:1.0;"/><line style="stroke:#181818;stroke-width:1.0;" x1="570.5751" x2="572.933" y1="600.4418" y2="592.7974"/><polygon fill="#181818" points="535.383,435.3439,536.5015,442.4677,543.5075,444.1752,542.389,437.0514,535.383,435.3439" style="stroke:#181818;stroke-width:1.0;"/><text fill="#000000" font-family="sans-serif" font-size="13" lengthAdjust="spacing" textLength="24" x="582.236" y="524.8638">6x7</text></g><!--MD5=[d1718f8040beedd4df7f7517ac9b645a]
link Square to Coordinate--><g id="link_Square_Coordinate"><path codeLine="30" d="M561.0924,665.5223 C561.0924,665.5223 561.674,689.4979 561.953,700.9727 " fill="none" id="Square-Coordinate" style="stroke:#181818;stroke-width:1.0;"/><polygon fill="#181818" points="562.273,714.1526,566.0532,705.0581,562.1516,709.154,558.0556,705.2524,562.273,714.1526" style="stroke:#181818;stroke-width:1.0;"/><line style="stroke:#181818;stroke-width:1.0;" x1="562.1516" x2="561.9575" y1="709.154" y2="701.1565"/><polygon fill="#181818" points="560.801,653.5259,556.9479,659.6213,561.0924,665.5223,564.9455,659.427,560.801,653.5259" style="stroke:#181818;stroke-width:1.0;"/></g><!--MD5=[d9a3abe5fcc93a7ea7e1f4e2ed37734f]
link Board to Insertion--><g id="link_Board_Insertion"><path codeLine="31" d="M510.236,435.5139 C510.236,451.7789 510.236,473.6119 510.236,490.9129 " fill="none" id="Board-to-Insertion" style="stroke:#181818;stroke-width:1.0;"/><polygon fill="#181818" points="510.236,496.1249,514.236,487.1249,510.236,491.1249,506.236,487.1249,510.236,496.1249" style="stroke:#181818;stroke-width:1.0;"/><text fill="#000000" font-family="sans-serif" font-size="13" lengthAdjust="spacing" textLength="32" x="474.136" y="485.0928">7..42</text></g><!--MD5=[304335c530676c0c2555e056aeeb939b]
link Token to Color--><g id="link_Token_Color"><path codeLine="32" d="M442.108,653.5259 C441.351,669.1099 440.329,690.1439 439.417,708.9224 " fill="none" id="Token-to-Color" style="stroke:#181818;stroke-width:1.0;"/><polygon fill="#181818" points="439.162,714.1526,443.5942,705.3573,439.4047,709.1585,435.6036,704.969,439.162,714.1526" style="stroke:#181818;stroke-width:1.0;"/></g><!--MD5=[672a3da9421bc45597ac3a174d283bca]
reverse link Token to Square--><g id="link_Token_Square"><path codeLine="33" d="M487.364,629.2969 C498.121,629.2969 508.877,629.2969 519.634,629.2969 " fill="none" id="Token-backto-Square" style="stroke:#181818;stroke-width:1.0;"/><polygon fill="#181818" points="482.084,629.2969,491.084,633.2969,487.084,629.2969,491.084,625.2969,482.084,629.2969" style="stroke:#181818;stroke-width:1.0;"/><text fill="#000000" font-family="sans-serif" font-size="13" lengthAdjust="spacing" textLength="24" x="487.7726" y="624.9174">0..1</text></g><!--MD5=[5a16bdf27515cf253385e973d6fbc781]
reverse link Goal to Diagonal--><g id="link_Goal_Diagonal"><path codeLine="35" d="M300.047,435.3699 C243.772,461.1529 197.142,482.4289 163.525,497.7539 " fill="none" id="Goal-backto-Diagonal" style="stroke:#181818;stroke-width:1.0;"/><polygon fill="none" points="297.137,429.0039,318.235,427.0339,302.97,441.7309,297.137,429.0039" style="stroke:#181818;stroke-width:1.0;"/></g><!--MD5=[3e26d6834a71a9527f7b0beabb13c375]
reverse link Goal to Vertical--><g id="link_Goal_Vertical"><path codeLine="36" d="M312.147,450.0339 C296.636,465.4009 279.203,482.6729 265.625,496.1249 " fill="none" id="Goal-backto-Vertical" style="stroke:#181818;stroke-width:1.0;"/><polygon fill="none" points="307.668,444.6179,326.802,435.5139,317.521,454.5629,307.668,444.6179" style="stroke:#181818;stroke-width:1.0;"/></g><!--MD5=[9c078bc154f9dba995e32f4ec3d43872]
reverse link Goal to Horizontal--><g id="link_Goal_Horizontal"><path codeLine="37" d="M359.9,455.3829 C363.024,469.3089 366.367,484.2139 369.039,496.1249 " fill="none" id="Goal-backto-Horizontal" style="stroke:#181818;stroke-width:1.0;"/><polygon fill="none" points="352.991,456.5619,355.444,435.5139,366.652,453.4969,352.991,456.5619" style="stroke:#181818;stroke-width:1.0;"/></g><!--MD5=[2a92216d381d9bf6f84ed4cf13521a84]
link Goal to Insertion--><g id="link_Goal_Insertion"><path codeLine="38" d="M382.615,433.9499 C408.271,451.1079 444.201,475.1359 471.403,493.3269 " fill="none" id="Goal-to-Insertion" style="stroke:#181818;stroke-width:1.0;stroke-dasharray:7.0,7.0;"/><polygon fill="#181818" points="475.691,496.1949,470.4345,487.866,471.5351,493.4148,465.9864,494.5154,475.691,496.1949" style="stroke:#181818;stroke-width:1.0;"/><text fill="#000000" font-family="sans-serif" font-size="13" lengthAdjust="spacing" textLength="32" x="430.7388" y="485.1808">4..21</text></g><!--MD5=[7fb48484a6529a4579ebfc4fca9fe8e9]
link Insertion to Square--><g id="link_Insertion_Square"><path codeLine="39" d="M521.086,544.5139 C528.752,560.9199 539.064,582.9889 547.181,600.3589 " fill="none" id="Insertion-to-Square" style="stroke:#181818;stroke-width:1.0;"/><polygon fill="#181818" points="549.408,605.1249,549.2212,595.2778,547.291,600.5952,541.9736,598.665,549.408,605.1249" style="stroke:#181818;stroke-width:1.0;"/></g><!--MD5=[cc6ad3ef1f9fa149e91a2830a7d28e41]
link Insertion to Token--><g id="link_Insertion_Token"><path codeLine="40" d="M495.698,544.5139 C485.338,561.0599 471.37,583.3669 460.452,600.8029 " fill="none" id="Insertion-to-Token" style="stroke:#181818;stroke-width:1.0;"/><polygon fill="#181818" points="457.746,605.1249,465.9128,599.6201,460.3997,600.8872,459.1326,595.3741,457.746,605.1249" style="stroke:#181818;stroke-width:1.0;"/></g><!--MD5=[364eaeb5627a49c2e7a47c965d90ca6e]
@startuml
title Connect 4

class Turn{
-playerTurn: "value"
}
class Coordinate{
Row x
Column Y
}
enum Color{
Red
Yelow
}
Connect4 *- -> Board
Connect4 *- -> "2" Player
Connect4  *- -> Turn
Player*- -> "21" Token
note left
Player one 21 red tokens
Player two 21 yellow tokens
end note
Turn - -> "2" Player
Player - -> Goal
note left
Four consecutive tokens
inserted of the same color
end note
Player - -> Board
Board *- -> Square : "6x7"
Square *- -> Coordinate
Board - -> "7..42" Insertion
Token - -> Color
Square -left-> "0..1" Token

Goal<|- - Diagonal
Goal<|- - Vertical
Goal<|- - Horizontal
Goal..> "4..21" Insertion
Insertion - ->Square
Insertion - -> Token
@enduml

PlantUML version 1.2022.3(Tue Mar 29 16:10:57 UTC 2022)
(GPL source distribution)
Java Runtime: Java(TM) SE Runtime Environment
JVM: Java HotSpot(TM) 64-Bit Server VM
Default Encoding: UTF-8
Language: en
Country: US
--></g></svg>