<?xml version="1.0" encoding="UTF-8" standalone="no"?><svg xmlns="http://www.w3.org/2000/svg" xmlns:xlink="http://www.w3.org/1999/xlink" contentStyleType="text/css" height="953px" preserveAspectRatio="none" style="width:990px;height:953px;background:#FFFFFF;" version="1.1" viewBox="0 0 990 953" width="990px" zoomAndPan="magnify"><defs/><g><rect height="26.2969" style="stroke:#00000000;stroke-width:1.0;fill:none;" width="111" x="432.75" y="5"/><text fill="#000000" font-family="sans-serif" font-size="14" font-weight="bold" lengthAdjust="spacing" textLength="101" x="437.75" y="22.9951">Restaurante</text><!--MD5=[fe9b79eeb773063b60029e9ad14aea1e]
class Restaurante--><g id="elem_Restaurante"><rect codeLine="2" fill="#F1F1F1" height="48" id="Restaurante" rx="2.5" ry="2.5" style="stroke:#181818;stroke-width:0.5;" width="120" x="584" y="44.2969"/><ellipse cx="599" cy="60.2969" fill="#ADD1B2" rx="11" ry="11" style="stroke:#181818;stroke-width:1.0;"/><path d="M601.3438,55.9688 C600.4063,55.5313 599.8125,55.3906 598.9375,55.3906 C596.3125,55.3906 594.3125,57.4688 594.3125,60.1875 L594.3125,61.3125 C594.3125,63.8906 596.4219,65.7813 599.3125,65.7813 C600.5313,65.7813 601.6875,65.4844 602.4375,64.9375 C603.0156,64.5313 603.3438,64.0781 603.3438,63.6875 C603.3438,63.2344 602.9531,62.8438 602.4844,62.8438 C602.2656,62.8438 602.0625,62.9219 601.875,63.1094 C601.4219,63.5938 601.4219,63.5938 601.2344,63.6875 C600.8125,63.9531 600.125,64.0781 599.3594,64.0781 C597.3125,64.0781 596.0156,62.9844 596.0156,61.2813 L596.0156,60.1875 C596.0156,58.4063 597.2656,57.0938 599,57.0938 C599.5781,57.0938 600.1875,57.25 600.6563,57.5 C601.1406,57.7813 601.3125,58 601.4063,58.4063 C601.4688,58.8125 601.5,58.9375 601.6406,59.0625 C601.7813,59.2031 602.0156,59.3125 602.2344,59.3125 C602.5,59.3125 602.7656,59.1719 602.9375,58.9531 C603.0469,58.7969 603.0781,58.6094 603.0781,58.1875 L603.0781,56.7656 C603.0781,56.3281 603.0625,56.2031 602.9688,56.0469 C602.8125,55.7813 602.5313,55.6406 602.2344,55.6406 C601.9375,55.6406 601.7344,55.7344 601.5156,56.0469 L601.3438,55.9688 Z " fill="#000000"/><text fill="#000000" font-family="sans-serif" font-size="14" lengthAdjust="spacing" textLength="88" x="613" y="65.1436">Restaurante</text><line style="stroke:#181818;stroke-width:0.5;" x1="585" x2="703" y1="76.2969" y2="76.2969"/><line style="stroke:#181818;stroke-width:0.5;" x1="585" x2="703" y1="84.2969" y2="84.2969"/></g><!--MD5=[87a7e5105a1a0f27406a53268f236c57]
class Cocina--><g id="elem_Cocina"><rect codeLine="3" fill="#F1F1F1" height="48" id="Cocina" rx="2.5" ry="2.5" style="stroke:#181818;stroke-width:0.5;" width="80" x="895" y="476.2969"/><ellipse cx="910" cy="492.2969" fill="#ADD1B2" rx="11" ry="11" style="stroke:#181818;stroke-width:1.0;"/><path d="M912.3438,487.9688 C911.4063,487.5313 910.8125,487.3906 909.9375,487.3906 C907.3125,487.3906 905.3125,489.4688 905.3125,492.1875 L905.3125,493.3125 C905.3125,495.8906 907.4219,497.7813 910.3125,497.7813 C911.5313,497.7813 912.6875,497.4844 913.4375,496.9375 C914.0156,496.5313 914.3438,496.0781 914.3438,495.6875 C914.3438,495.2344 913.9531,494.8438 913.4844,494.8438 C913.2656,494.8438 913.0625,494.9219 912.875,495.1094 C912.4219,495.5938 912.4219,495.5938 912.2344,495.6875 C911.8125,495.9531 911.125,496.0781 910.3594,496.0781 C908.3125,496.0781 907.0156,494.9844 907.0156,493.2813 L907.0156,492.1875 C907.0156,490.4063 908.2656,489.0938 910,489.0938 C910.5781,489.0938 911.1875,489.25 911.6563,489.5 C912.1406,489.7813 912.3125,490 912.4063,490.4063 C912.4688,490.8125 912.5,490.9375 912.6406,491.0625 C912.7813,491.2031 913.0156,491.3125 913.2344,491.3125 C913.5,491.3125 913.7656,491.1719 913.9375,490.9531 C914.0469,490.7969 914.0781,490.6094 914.0781,490.1875 L914.0781,488.7656 C914.0781,488.3281 914.0625,488.2031 913.9688,488.0469 C913.8125,487.7813 913.5313,487.6406 913.2344,487.6406 C912.9375,487.6406 912.7344,487.7344 912.5156,488.0469 L912.3438,487.9688 Z " fill="#000000"/><text fill="#000000" font-family="sans-serif" font-size="14" lengthAdjust="spacing" textLength="48" x="924" y="497.1436">Cocina</text><line style="stroke:#181818;stroke-width:0.5;" x1="896" x2="974" y1="508.2969" y2="508.2969"/><line style="stroke:#181818;stroke-width:0.5;" x1="896" x2="974" y1="516.2969" y2="516.2969"/></g><!--MD5=[cbfe0d4e2bba4e12bfdf7402c000e889]
class Comedor--><g id="elem_Comedor"><rect codeLine="4" fill="#F1F1F1" height="48" id="Comedor" rx="2.5" ry="2.5" style="stroke:#181818;stroke-width:0.5;" width="98" x="370" y="608.7969"/><ellipse cx="385" cy="624.7969" fill="#ADD1B2" rx="11" ry="11" style="stroke:#181818;stroke-width:1.0;"/><path d="M387.3438,620.4688 C386.4063,620.0313 385.8125,619.8906 384.9375,619.8906 C382.3125,619.8906 380.3125,621.9688 380.3125,624.6875 L380.3125,625.8125 C380.3125,628.3906 382.4219,630.2813 385.3125,630.2813 C386.5313,630.2813 387.6875,629.9844 388.4375,629.4375 C389.0156,629.0313 389.3438,628.5781 389.3438,628.1875 C389.3438,627.7344 388.9531,627.3438 388.4844,627.3438 C388.2656,627.3438 388.0625,627.4219 387.875,627.6094 C387.4219,628.0938 387.4219,628.0938 387.2344,628.1875 C386.8125,628.4531 386.125,628.5781 385.3594,628.5781 C383.3125,628.5781 382.0156,627.4844 382.0156,625.7813 L382.0156,624.6875 C382.0156,622.9063 383.2656,621.5938 385,621.5938 C385.5781,621.5938 386.1875,621.75 386.6563,622 C387.1406,622.2813 387.3125,622.5 387.4063,622.9063 C387.4688,623.3125 387.5,623.4375 387.6406,623.5625 C387.7813,623.7031 388.0156,623.8125 388.2344,623.8125 C388.5,623.8125 388.7656,623.6719 388.9375,623.4531 C389.0469,623.2969 389.0781,623.1094 389.0781,622.6875 L389.0781,621.2656 C389.0781,620.8281 389.0625,620.7031 388.9688,620.5469 C388.8125,620.2813 388.5313,620.1406 388.2344,620.1406 C387.9375,620.1406 387.7344,620.2344 387.5156,620.5469 L387.3438,620.4688 Z " fill="#000000"/><text fill="#000000" font-family="sans-serif" font-size="14" lengthAdjust="spacing" textLength="66" x="399" y="629.6436">Comedor</text><line style="stroke:#181818;stroke-width:0.5;" x1="371" x2="467" y1="640.7969" y2="640.7969"/><line style="stroke:#181818;stroke-width:0.5;" x1="371" x2="467" y1="648.7969" y2="648.7969"/></g><!--MD5=[ac17753575e69cc5e4b1ebe13284b57a]
class Terraza--><g id="elem_Terraza"><rect codeLine="5" fill="#F1F1F1" height="48" id="Terraza" rx="2.5" ry="2.5" style="stroke:#181818;stroke-width:0.5;" width="86" x="249" y="608.7969"/><ellipse cx="264" cy="624.7969" fill="#ADD1B2" rx="11" ry="11" style="stroke:#181818;stroke-width:1.0;"/><path d="M266.3438,620.4688 C265.4063,620.0313 264.8125,619.8906 263.9375,619.8906 C261.3125,619.8906 259.3125,621.9688 259.3125,624.6875 L259.3125,625.8125 C259.3125,628.3906 261.4219,630.2813 264.3125,630.2813 C265.5313,630.2813 266.6875,629.9844 267.4375,629.4375 C268.0156,629.0313 268.3438,628.5781 268.3438,628.1875 C268.3438,627.7344 267.9531,627.3438 267.4844,627.3438 C267.2656,627.3438 267.0625,627.4219 266.875,627.6094 C266.4219,628.0938 266.4219,628.0938 266.2344,628.1875 C265.8125,628.4531 265.125,628.5781 264.3594,628.5781 C262.3125,628.5781 261.0156,627.4844 261.0156,625.7813 L261.0156,624.6875 C261.0156,622.9063 262.2656,621.5938 264,621.5938 C264.5781,621.5938 265.1875,621.75 265.6563,622 C266.1406,622.2813 266.3125,622.5 266.4063,622.9063 C266.4688,623.3125 266.5,623.4375 266.6406,623.5625 C266.7813,623.7031 267.0156,623.8125 267.2344,623.8125 C267.5,623.8125 267.7656,623.6719 267.9375,623.4531 C268.0469,623.2969 268.0781,623.1094 268.0781,622.6875 L268.0781,621.2656 C268.0781,620.8281 268.0625,620.7031 267.9688,620.5469 C267.8125,620.2813 267.5313,620.1406 267.2344,620.1406 C266.9375,620.1406 266.7344,620.2344 266.5156,620.5469 L266.3438,620.4688 Z " fill="#000000"/><text fill="#000000" font-family="sans-serif" font-size="14" lengthAdjust="spacing" textLength="54" x="278" y="629.6436">Terraza</text><line style="stroke:#181818;stroke-width:0.5;" x1="250" x2="334" y1="640.7969" y2="640.7969"/><line style="stroke:#181818;stroke-width:0.5;" x1="250" x2="334" y1="648.7969" y2="648.7969"/></g><!--MD5=[e54d1ddad44fdb9ba256a8749f08d4fc]
class Equipo--><g id="elem_Equipo"><rect codeLine="6" fill="#F1F1F1" height="48" id="Equipo" rx="2.5" ry="2.5" style="stroke:#181818;stroke-width:0.5;" width="81" x="477.5" y="152.2969"/><ellipse cx="492.5" cy="168.2969" fill="#A9DCDF" rx="11" ry="11" style="stroke:#181818;stroke-width:1.0;"/><path d="M494.5781,170.1094 L494.9688,171.0938 L494.5781,171.0938 C494.125,171.0938 494.0156,171.1094 493.8594,171.2188 C493.6094,171.375 493.4531,171.6563 493.4531,171.9531 C493.4531,172.2188 493.5938,172.4688 493.8125,172.625 C493.9531,172.75 494.1563,172.7969 494.5781,172.7969 L496.9375,172.7969 C497.2969,172.7969 497.5156,172.7656 497.6563,172.6719 C497.9063,172.5313 498.0625,172.2344 498.0625,171.9531 C498.0625,171.6719 497.9219,171.4219 497.7031,171.2656 C497.5313,171.125 497.375,171.0938 496.9063,171.0938 L493.5156,162.8906 L489.8438,162.8906 C489.3906,162.8906 489.2656,162.9063 489.1094,163 C488.8594,163.1719 488.7031,163.4531 488.7031,163.7344 C488.7031,164.0156 488.8438,164.2656 489.0625,164.4375 C489.2344,164.5469 489.4063,164.5781 489.8438,164.5781 L490.9219,164.5781 L488.2813,171.0938 C487.8594,171.0938 487.7031,171.1094 487.5469,171.2188 C487.2969,171.375 487.1406,171.6563 487.1406,171.9531 C487.1406,172.5156 487.5156,172.7969 488.2656,172.7969 L490.5313,172.7969 C490.8906,172.7969 491.1094,172.7656 491.2344,172.6719 C491.5,172.5313 491.6406,172.2344 491.6406,171.9531 C491.6406,171.6719 491.5156,171.4219 491.2969,171.25 C491.125,171.125 490.9844,171.0938 490.5313,171.0938 L490.1406,171.0938 L490.5313,170.1094 L494.5781,170.1094 Z M493.875,168.4063 L491.2031,168.4063 L492.5469,165.1406 L493.875,168.4063 Z " fill="#000000"/><text fill="#000000" font-family="sans-serif" font-size="14" font-style="italic" lengthAdjust="spacing" textLength="49" x="506.5" y="173.1436">Equipo</text><line style="stroke:#181818;stroke-width:0.5;" x1="478.5" x2="557.5" y1="184.2969" y2="184.2969"/><line style="stroke:#181818;stroke-width:0.5;" x1="478.5" x2="557.5" y1="192.2969" y2="192.2969"/></g><!--MD5=[89bf876b63e207e617eefe0108caca8d]
class Comensal--><g id="elem_Comensal"><rect codeLine="7" fill="#F1F1F1" height="48" id="Comensal" rx="2.5" ry="2.5" style="stroke:#181818;stroke-width:0.5;" width="102" x="636" y="476.2969"/><ellipse cx="651" cy="492.2969" fill="#ADD1B2" rx="11" ry="11" style="stroke:#181818;stroke-width:1.0;"/><path d="M653.3438,487.9688 C652.4063,487.5313 651.8125,487.3906 650.9375,487.3906 C648.3125,487.3906 646.3125,489.4688 646.3125,492.1875 L646.3125,493.3125 C646.3125,495.8906 648.4219,497.7813 651.3125,497.7813 C652.5313,497.7813 653.6875,497.4844 654.4375,496.9375 C655.0156,496.5313 655.3438,496.0781 655.3438,495.6875 C655.3438,495.2344 654.9531,494.8438 654.4844,494.8438 C654.2656,494.8438 654.0625,494.9219 653.875,495.1094 C653.4219,495.5938 653.4219,495.5938 653.2344,495.6875 C652.8125,495.9531 652.125,496.0781 651.3594,496.0781 C649.3125,496.0781 648.0156,494.9844 648.0156,493.2813 L648.0156,492.1875 C648.0156,490.4063 649.2656,489.0938 651,489.0938 C651.5781,489.0938 652.1875,489.25 652.6563,489.5 C653.1406,489.7813 653.3125,490 653.4063,490.4063 C653.4688,490.8125 653.5,490.9375 653.6406,491.0625 C653.7813,491.2031 654.0156,491.3125 654.2344,491.3125 C654.5,491.3125 654.7656,491.1719 654.9375,490.9531 C655.0469,490.7969 655.0781,490.6094 655.0781,490.1875 L655.0781,488.7656 C655.0781,488.3281 655.0625,488.2031 654.9688,488.0469 C654.8125,487.7813 654.5313,487.6406 654.2344,487.6406 C653.9375,487.6406 653.7344,487.7344 653.5156,488.0469 L653.3438,487.9688 Z " fill="#000000"/><text fill="#000000" font-family="sans-serif" font-size="14" lengthAdjust="spacing" textLength="70" x="665" y="497.1436">Comensal</text><line style="stroke:#181818;stroke-width:0.5;" x1="637" x2="737" y1="508.2969" y2="508.2969"/><line style="stroke:#181818;stroke-width:0.5;" x1="637" x2="737" y1="516.2969" y2="516.2969"/></g><!--MD5=[f0268dd29ee89052933f031546cb1cab]
class Menu--><g id="elem_Menu"><rect codeLine="8" fill="#F1F1F1" height="96.8906" id="Menu" rx="2.5" ry="2.5" style="stroke:#181818;stroke-width:0.5;" width="81" x="574.5" y="584.2969"/><ellipse cx="594.45" cy="600.2969" fill="#EB937F" rx="11" ry="11" style="stroke:#181818;stroke-width:1.0;"/><path d="M593.2469,601.1719 L594.7,601.1719 L594.7,601.2813 C594.7,601.6875 594.7313,601.8438 594.8094,602 C594.9656,602.25 595.2469,602.4063 595.5438,602.4063 C595.7938,602.4063 596.0594,602.2656 596.2156,602.0469 C596.3406,601.8906 596.3719,601.7344 596.3719,601.2813 L596.3719,599.3594 C596.3719,599.2031 596.3719,599.1563 596.3563,599 C596.2938,598.5313 595.9813,598.2188 595.5281,598.2188 C595.2781,598.2188 595.0125,598.3594 594.8406,598.5781 C594.7313,598.75 594.7,598.9063 594.7,599.3594 L594.7,599.4844 L593.2469,599.4844 L593.2469,597.0781 L597.2313,597.0781 L597.2313,597.9375 C597.2313,598.3438 597.2625,598.5156 597.3406,598.6719 C597.5125,598.9219 597.7938,599.0781 598.075,599.0781 C598.3406,599.0781 598.6063,598.9375 598.7781,598.7188 C598.8875,598.5469 598.9188,598.4063 598.9188,597.9375 L598.9188,595.3906 L591.2938,595.3906 C590.8563,595.3906 590.7313,595.4063 590.575,595.5 C590.325,595.6563 590.1688,595.9531 590.1688,596.2344 C590.1688,596.5156 590.3094,596.7656 590.5281,596.9375 C590.6844,597.0469 590.8719,597.0781 591.2938,597.0781 L591.5438,597.0781 L591.5438,603.5938 L591.2938,603.5938 C590.8875,603.5938 590.7313,603.6094 590.575,603.7188 C590.325,603.8906 590.1688,604.1563 590.1688,604.4531 C590.1688,604.7188 590.3094,604.9688 590.5281,605.125 C590.6688,605.25 590.9031,605.2969 591.2938,605.2969 L599.2938,605.2969 L599.2938,602.7188 C599.2938,602.2813 599.2625,602.1406 599.1844,601.9844 C599.0125,601.7344 598.7313,601.5781 598.45,601.5781 C598.1844,601.5781 597.9188,601.6875 597.7469,601.9375 C597.6375,602.0938 597.6063,602.2344 597.6063,602.7188 L597.6063,603.5938 L593.2469,603.5938 L593.2469,601.1719 Z " fill="#000000"/><text fill="#000000" font-family="sans-serif" font-size="14" lengthAdjust="spacing" textLength="38" x="609.55" y="605.1436">Menu</text><line style="stroke:#181818;stroke-width:0.5;" x1="575.5" x2="654.5" y1="616.2969" y2="616.2969"/><text fill="#000000" font-family="sans-serif" font-size="14" lengthAdjust="spacing" textLength="69" x="580.5" y="633.292">Desayuno</text><text fill="#000000" font-family="sans-serif" font-size="14" lengthAdjust="spacing" textLength="54" x="580.5" y="649.5889">Comida</text><text fill="#000000" font-family="sans-serif" font-size="14" lengthAdjust="spacing" textLength="36" x="580.5" y="665.8857">Cena</text><line style="stroke:#181818;stroke-width:0.5;" x1="575.5" x2="654.5" y1="673.1875" y2="673.1875"/></g><!--MD5=[3e810361228f291838b77424283ffc08]
class Carta--><g id="elem_Carta"><rect codeLine="13" fill="#F1F1F1" height="48" id="Carta" rx="2.5" ry="2.5" style="stroke:#181818;stroke-width:0.5;" width="71" x="912.5" y="608.7969"/><ellipse cx="927.5" cy="624.7969" fill="#ADD1B2" rx="11" ry="11" style="stroke:#181818;stroke-width:1.0;"/><path d="M929.8438,620.4688 C928.9063,620.0313 928.3125,619.8906 927.4375,619.8906 C924.8125,619.8906 922.8125,621.9688 922.8125,624.6875 L922.8125,625.8125 C922.8125,628.3906 924.9219,630.2813 927.8125,630.2813 C929.0313,630.2813 930.1875,629.9844 930.9375,629.4375 C931.5156,629.0313 931.8438,628.5781 931.8438,628.1875 C931.8438,627.7344 931.4531,627.3438 930.9844,627.3438 C930.7656,627.3438 930.5625,627.4219 930.375,627.6094 C929.9219,628.0938 929.9219,628.0938 929.7344,628.1875 C929.3125,628.4531 928.625,628.5781 927.8594,628.5781 C925.8125,628.5781 924.5156,627.4844 924.5156,625.7813 L924.5156,624.6875 C924.5156,622.9063 925.7656,621.5938 927.5,621.5938 C928.0781,621.5938 928.6875,621.75 929.1563,622 C929.6406,622.2813 929.8125,622.5 929.9063,622.9063 C929.9688,623.3125 930,623.4375 930.1406,623.5625 C930.2813,623.7031 930.5156,623.8125 930.7344,623.8125 C931,623.8125 931.2656,623.6719 931.4375,623.4531 C931.5469,623.2969 931.5781,623.1094 931.5781,622.6875 L931.5781,621.2656 C931.5781,620.8281 931.5625,620.7031 931.4688,620.5469 C931.3125,620.2813 931.0313,620.1406 930.7344,620.1406 C930.4375,620.1406 930.2344,620.2344 930.0156,620.5469 L929.8438,620.4688 Z " fill="#000000"/><text fill="#000000" font-family="sans-serif" font-size="14" lengthAdjust="spacing" textLength="39" x="941.5" y="629.6436">Carta</text><line style="stroke:#181818;stroke-width:0.5;" x1="913.5" x2="982.5" y1="640.7969" y2="640.7969"/><line style="stroke:#181818;stroke-width:0.5;" x1="913.5" x2="982.5" y1="648.7969" y2="648.7969"/></g><!--MD5=[10f054697b8e206f7cee2707e402a581]
class Plato--><g id="elem_Plato"><rect codeLine="14" fill="#F1F1F1" height="48" id="Plato" rx="2.5" ry="2.5" style="stroke:#181818;stroke-width:0.5;" width="69" x="699.5" y="741.2969"/><ellipse cx="714.5" cy="757.2969" fill="#ADD1B2" rx="11" ry="11" style="stroke:#181818;stroke-width:1.0;"/><path d="M716.8438,752.9688 C715.9063,752.5313 715.3125,752.3906 714.4375,752.3906 C711.8125,752.3906 709.8125,754.4688 709.8125,757.1875 L709.8125,758.3125 C709.8125,760.8906 711.9219,762.7813 714.8125,762.7813 C716.0313,762.7813 717.1875,762.4844 717.9375,761.9375 C718.5156,761.5313 718.8438,761.0781 718.8438,760.6875 C718.8438,760.2344 718.4531,759.8438 717.9844,759.8438 C717.7656,759.8438 717.5625,759.9219 717.375,760.1094 C716.9219,760.5938 716.9219,760.5938 716.7344,760.6875 C716.3125,760.9531 715.625,761.0781 714.8594,761.0781 C712.8125,761.0781 711.5156,759.9844 711.5156,758.2813 L711.5156,757.1875 C711.5156,755.4063 712.7656,754.0938 714.5,754.0938 C715.0781,754.0938 715.6875,754.25 716.1563,754.5 C716.6406,754.7813 716.8125,755 716.9063,755.4063 C716.9688,755.8125 717,755.9375 717.1406,756.0625 C717.2813,756.2031 717.5156,756.3125 717.7344,756.3125 C718,756.3125 718.2656,756.1719 718.4375,755.9531 C718.5469,755.7969 718.5781,755.6094 718.5781,755.1875 L718.5781,753.7656 C718.5781,753.3281 718.5625,753.2031 718.4688,753.0469 C718.3125,752.7813 718.0313,752.6406 717.7344,752.6406 C717.4375,752.6406 717.2344,752.7344 717.0156,753.0469 L716.8438,752.9688 Z " fill="#000000"/><text fill="#000000" font-family="sans-serif" font-size="14" lengthAdjust="spacing" textLength="37" x="728.5" y="762.1436">Plato</text><line style="stroke:#181818;stroke-width:0.5;" x1="700.5" x2="767.5" y1="773.2969" y2="773.2969"/><line style="stroke:#181818;stroke-width:0.5;" x1="700.5" x2="767.5" y1="781.2969" y2="781.2969"/></g><!--MD5=[52e8bf6fc0668e8147db1210ed0f20d1]
class JefeDePersonal--><g id="elem_JefeDePersonal"><rect codeLine="15" fill="#F1F1F1" height="48" id="JefeDePersonal" rx="2.5" ry="2.5" style="stroke:#181818;stroke-width:0.5;" width="141" x="201.5" y="260.2969"/><ellipse cx="216.5" cy="276.2969" fill="#ADD1B2" rx="11" ry="11" style="stroke:#181818;stroke-width:1.0;"/><path d="M218.8438,271.9688 C217.9063,271.5313 217.3125,271.3906 216.4375,271.3906 C213.8125,271.3906 211.8125,273.4688 211.8125,276.1875 L211.8125,277.3125 C211.8125,279.8906 213.9219,281.7813 216.8125,281.7813 C218.0313,281.7813 219.1875,281.4844 219.9375,280.9375 C220.5156,280.5313 220.8438,280.0781 220.8438,279.6875 C220.8438,279.2344 220.4531,278.8438 219.9844,278.8438 C219.7656,278.8438 219.5625,278.9219 219.375,279.1094 C218.9219,279.5938 218.9219,279.5938 218.7344,279.6875 C218.3125,279.9531 217.625,280.0781 216.8594,280.0781 C214.8125,280.0781 213.5156,278.9844 213.5156,277.2813 L213.5156,276.1875 C213.5156,274.4063 214.7656,273.0938 216.5,273.0938 C217.0781,273.0938 217.6875,273.25 218.1563,273.5 C218.6406,273.7813 218.8125,274 218.9063,274.4063 C218.9688,274.8125 219,274.9375 219.1406,275.0625 C219.2813,275.2031 219.5156,275.3125 219.7344,275.3125 C220,275.3125 220.2656,275.1719 220.4375,274.9531 C220.5469,274.7969 220.5781,274.6094 220.5781,274.1875 L220.5781,272.7656 C220.5781,272.3281 220.5625,272.2031 220.4688,272.0469 C220.3125,271.7813 220.0313,271.6406 219.7344,271.6406 C219.4375,271.6406 219.2344,271.7344 219.0156,272.0469 L218.8438,271.9688 Z " fill="#000000"/><text fill="#000000" font-family="sans-serif" font-size="14" lengthAdjust="spacing" textLength="109" x="230.5" y="281.1436">JefeDePersonal</text><line style="stroke:#181818;stroke-width:0.5;" x1="202.5" x2="341.5" y1="292.2969" y2="292.2969"/><line style="stroke:#181818;stroke-width:0.5;" x1="202.5" x2="341.5" y1="300.2969" y2="300.2969"/></g><!--MD5=[d8433e2e5dce43d5d7392ba0461fd576]
class JefeDeCocina--><g id="elem_JefeDeCocina"><rect codeLine="16" fill="#F1F1F1" height="48" id="JefeDeCocina" rx="2.5" ry="2.5" style="stroke:#181818;stroke-width:0.5;" width="128" x="378" y="260.2969"/><ellipse cx="393" cy="276.2969" fill="#ADD1B2" rx="11" ry="11" style="stroke:#181818;stroke-width:1.0;"/><path d="M395.3438,271.9688 C394.4063,271.5313 393.8125,271.3906 392.9375,271.3906 C390.3125,271.3906 388.3125,273.4688 388.3125,276.1875 L388.3125,277.3125 C388.3125,279.8906 390.4219,281.7813 393.3125,281.7813 C394.5313,281.7813 395.6875,281.4844 396.4375,280.9375 C397.0156,280.5313 397.3438,280.0781 397.3438,279.6875 C397.3438,279.2344 396.9531,278.8438 396.4844,278.8438 C396.2656,278.8438 396.0625,278.9219 395.875,279.1094 C395.4219,279.5938 395.4219,279.5938 395.2344,279.6875 C394.8125,279.9531 394.125,280.0781 393.3594,280.0781 C391.3125,280.0781 390.0156,278.9844 390.0156,277.2813 L390.0156,276.1875 C390.0156,274.4063 391.2656,273.0938 393,273.0938 C393.5781,273.0938 394.1875,273.25 394.6563,273.5 C395.1406,273.7813 395.3125,274 395.4063,274.4063 C395.4688,274.8125 395.5,274.9375 395.6406,275.0625 C395.7813,275.2031 396.0156,275.3125 396.2344,275.3125 C396.5,275.3125 396.7656,275.1719 396.9375,274.9531 C397.0469,274.7969 397.0781,274.6094 397.0781,274.1875 L397.0781,272.7656 C397.0781,272.3281 397.0625,272.2031 396.9688,272.0469 C396.8125,271.7813 396.5313,271.6406 396.2344,271.6406 C395.9375,271.6406 395.7344,271.7344 395.5156,272.0469 L395.3438,271.9688 Z " fill="#000000"/><text fill="#000000" font-family="sans-serif" font-size="14" lengthAdjust="spacing" textLength="96" x="407" y="281.1436">JefeDeCocina</text><line style="stroke:#181818;stroke-width:0.5;" x1="379" x2="505" y1="292.2969" y2="292.2969"/><line style="stroke:#181818;stroke-width:0.5;" x1="379" x2="505" y1="300.2969" y2="300.2969"/></g><!--MD5=[5ae9ae39a93830c34da1e7f0c8e0d5da]
class Camarero--><g id="elem_Camarero"><rect codeLine="17" fill="#F1F1F1" height="48" id="Camarero" rx="2.5" ry="2.5" style="stroke:#181818;stroke-width:0.5;" width="102" x="368" y="476.2969"/><ellipse cx="383" cy="492.2969" fill="#ADD1B2" rx="11" ry="11" style="stroke:#181818;stroke-width:1.0;"/><path d="M385.3438,487.9688 C384.4063,487.5313 383.8125,487.3906 382.9375,487.3906 C380.3125,487.3906 378.3125,489.4688 378.3125,492.1875 L378.3125,493.3125 C378.3125,495.8906 380.4219,497.7813 383.3125,497.7813 C384.5313,497.7813 385.6875,497.4844 386.4375,496.9375 C387.0156,496.5313 387.3438,496.0781 387.3438,495.6875 C387.3438,495.2344 386.9531,494.8438 386.4844,494.8438 C386.2656,494.8438 386.0625,494.9219 385.875,495.1094 C385.4219,495.5938 385.4219,495.5938 385.2344,495.6875 C384.8125,495.9531 384.125,496.0781 383.3594,496.0781 C381.3125,496.0781 380.0156,494.9844 380.0156,493.2813 L380.0156,492.1875 C380.0156,490.4063 381.2656,489.0938 383,489.0938 C383.5781,489.0938 384.1875,489.25 384.6563,489.5 C385.1406,489.7813 385.3125,490 385.4063,490.4063 C385.4688,490.8125 385.5,490.9375 385.6406,491.0625 C385.7813,491.2031 386.0156,491.3125 386.2344,491.3125 C386.5,491.3125 386.7656,491.1719 386.9375,490.9531 C387.0469,490.7969 387.0781,490.6094 387.0781,490.1875 L387.0781,488.7656 C387.0781,488.3281 387.0625,488.2031 386.9688,488.0469 C386.8125,487.7813 386.5313,487.6406 386.2344,487.6406 C385.9375,487.6406 385.7344,487.7344 385.5156,488.0469 L385.3438,487.9688 Z " fill="#000000"/><text fill="#000000" font-family="sans-serif" font-size="14" lengthAdjust="spacing" textLength="70" x="397" y="497.1436">Camarero</text><line style="stroke:#181818;stroke-width:0.5;" x1="369" x2="469" y1="508.2969" y2="508.2969"/><line style="stroke:#181818;stroke-width:0.5;" x1="369" x2="469" y1="516.2969" y2="516.2969"/></g><!--MD5=[59506a8c2e0bd16391dc79e79fac83ed]
class Cocinero--><g id="elem_Cocinero"><rect codeLine="18" fill="#F1F1F1" height="48" id="Cocinero" rx="2.5" ry="2.5" style="stroke:#181818;stroke-width:0.5;" width="96" x="505" y="476.2969"/><ellipse cx="520" cy="492.2969" fill="#ADD1B2" rx="11" ry="11" style="stroke:#181818;stroke-width:1.0;"/><path d="M522.3438,487.9688 C521.4063,487.5313 520.8125,487.3906 519.9375,487.3906 C517.3125,487.3906 515.3125,489.4688 515.3125,492.1875 L515.3125,493.3125 C515.3125,495.8906 517.4219,497.7813 520.3125,497.7813 C521.5313,497.7813 522.6875,497.4844 523.4375,496.9375 C524.0156,496.5313 524.3438,496.0781 524.3438,495.6875 C524.3438,495.2344 523.9531,494.8438 523.4844,494.8438 C523.2656,494.8438 523.0625,494.9219 522.875,495.1094 C522.4219,495.5938 522.4219,495.5938 522.2344,495.6875 C521.8125,495.9531 521.125,496.0781 520.3594,496.0781 C518.3125,496.0781 517.0156,494.9844 517.0156,493.2813 L517.0156,492.1875 C517.0156,490.4063 518.2656,489.0938 520,489.0938 C520.5781,489.0938 521.1875,489.25 521.6563,489.5 C522.1406,489.7813 522.3125,490 522.4063,490.4063 C522.4688,490.8125 522.5,490.9375 522.6406,491.0625 C522.7813,491.2031 523.0156,491.3125 523.2344,491.3125 C523.5,491.3125 523.7656,491.1719 523.9375,490.9531 C524.0469,490.7969 524.0781,490.6094 524.0781,490.1875 L524.0781,488.7656 C524.0781,488.3281 524.0625,488.2031 523.9688,488.0469 C523.8125,487.7813 523.5313,487.6406 523.2344,487.6406 C522.9375,487.6406 522.7344,487.7344 522.5156,488.0469 L522.3438,487.9688 Z " fill="#000000"/><text fill="#000000" font-family="sans-serif" font-size="14" lengthAdjust="spacing" textLength="64" x="534" y="497.1436">Cocinero</text><line style="stroke:#181818;stroke-width:0.5;" x1="506" x2="600" y1="508.2969" y2="508.2969"/><line style="stroke:#181818;stroke-width:0.5;" x1="506" x2="600" y1="516.2969" y2="516.2969"/></g><!--MD5=[268a25248fa13cb6a0386339b471b79a]
class Ingrediente--><g id="elem_Ingrediente"><rect codeLine="19" fill="#F1F1F1" height="96.8906" id="Ingrediente" rx="2.5" ry="2.5" style="stroke:#181818;stroke-width:0.5;" width="116" x="676" y="849.2969"/><ellipse cx="691" cy="865.2969" fill="#EB937F" rx="11" ry="11" style="stroke:#181818;stroke-width:1.0;"/><path d="M689.7969,866.1719 L691.25,866.1719 L691.25,866.2813 C691.25,866.6875 691.2813,866.8438 691.3594,867 C691.5156,867.25 691.7969,867.4063 692.0938,867.4063 C692.3438,867.4063 692.6094,867.2656 692.7656,867.0469 C692.8906,866.8906 692.9219,866.7344 692.9219,866.2813 L692.9219,864.3594 C692.9219,864.2031 692.9219,864.1563 692.9063,864 C692.8438,863.5313 692.5313,863.2188 692.0781,863.2188 C691.8281,863.2188 691.5625,863.3594 691.3906,863.5781 C691.2813,863.75 691.25,863.9063 691.25,864.3594 L691.25,864.4844 L689.7969,864.4844 L689.7969,862.0781 L693.7813,862.0781 L693.7813,862.9375 C693.7813,863.3438 693.8125,863.5156 693.8906,863.6719 C694.0625,863.9219 694.3438,864.0781 694.625,864.0781 C694.8906,864.0781 695.1563,863.9375 695.3281,863.7188 C695.4375,863.5469 695.4688,863.4063 695.4688,862.9375 L695.4688,860.3906 L687.8438,860.3906 C687.4063,860.3906 687.2813,860.4063 687.125,860.5 C686.875,860.6563 686.7188,860.9531 686.7188,861.2344 C686.7188,861.5156 686.8594,861.7656 687.0781,861.9375 C687.2344,862.0469 687.4219,862.0781 687.8438,862.0781 L688.0938,862.0781 L688.0938,868.5938 L687.8438,868.5938 C687.4375,868.5938 687.2813,868.6094 687.125,868.7188 C686.875,868.8906 686.7188,869.1563 686.7188,869.4531 C686.7188,869.7188 686.8594,869.9688 687.0781,870.125 C687.2188,870.25 687.4531,870.2969 687.8438,870.2969 L695.8438,870.2969 L695.8438,867.7188 C695.8438,867.2813 695.8125,867.1406 695.7344,866.9844 C695.5625,866.7344 695.2813,866.5781 695,866.5781 C694.7344,866.5781 694.4688,866.6875 694.2969,866.9375 C694.1875,867.0938 694.1563,867.2344 694.1563,867.7188 L694.1563,868.5938 L689.7969,868.5938 L689.7969,866.1719 Z " fill="#000000"/><text fill="#000000" font-family="sans-serif" font-size="14" lengthAdjust="spacing" textLength="84" x="705" y="870.1436">Ingrediente</text><line style="stroke:#181818;stroke-width:0.5;" x1="677" x2="791" y1="881.2969" y2="881.2969"/><text fill="#000000" font-family="sans-serif" font-size="14" lengthAdjust="spacing" textLength="54" x="682" y="898.292">Cebolla</text><text fill="#000000" font-family="sans-serif" font-size="14" lengthAdjust="spacing" textLength="37" x="682" y="914.5889">Trigo</text><text fill="#000000" font-family="sans-serif" font-size="14" lengthAdjust="spacing" textLength="15" x="682" y="930.8857">...</text><line style="stroke:#181818;stroke-width:0.5;" x1="677" x2="791" y1="938.1875" y2="938.1875"/></g><!--MD5=[829e13fafe0b309cecb17e207d487efa]
class Envio--><g id="elem_Envio"><rect codeLine="24" fill="#F1F1F1" height="48" id="Envio" rx="2.5" ry="2.5" style="stroke:#181818;stroke-width:0.5;" width="71" x="806.5" y="608.7969"/><ellipse cx="821.5" cy="624.7969" fill="#ADD1B2" rx="11" ry="11" style="stroke:#181818;stroke-width:1.0;"/><path d="M823.8438,620.4688 C822.9063,620.0313 822.3125,619.8906 821.4375,619.8906 C818.8125,619.8906 816.8125,621.9688 816.8125,624.6875 L816.8125,625.8125 C816.8125,628.3906 818.9219,630.2813 821.8125,630.2813 C823.0313,630.2813 824.1875,629.9844 824.9375,629.4375 C825.5156,629.0313 825.8438,628.5781 825.8438,628.1875 C825.8438,627.7344 825.4531,627.3438 824.9844,627.3438 C824.7656,627.3438 824.5625,627.4219 824.375,627.6094 C823.9219,628.0938 823.9219,628.0938 823.7344,628.1875 C823.3125,628.4531 822.625,628.5781 821.8594,628.5781 C819.8125,628.5781 818.5156,627.4844 818.5156,625.7813 L818.5156,624.6875 C818.5156,622.9063 819.7656,621.5938 821.5,621.5938 C822.0781,621.5938 822.6875,621.75 823.1563,622 C823.6406,622.2813 823.8125,622.5 823.9063,622.9063 C823.9688,623.3125 824,623.4375 824.1406,623.5625 C824.2813,623.7031 824.5156,623.8125 824.7344,623.8125 C825,623.8125 825.2656,623.6719 825.4375,623.4531 C825.5469,623.2969 825.5781,623.1094 825.5781,622.6875 L825.5781,621.2656 C825.5781,620.8281 825.5625,620.7031 825.4688,620.5469 C825.3125,620.2813 825.0313,620.1406 824.7344,620.1406 C824.4375,620.1406 824.2344,620.2344 824.0156,620.5469 L823.8438,620.4688 Z " fill="#000000"/><text fill="#000000" font-family="sans-serif" font-size="14" lengthAdjust="spacing" textLength="39" x="835.5" y="629.6436">Envio</text><line style="stroke:#181818;stroke-width:0.5;" x1="807.5" x2="876.5" y1="640.7969" y2="640.7969"/><line style="stroke:#181818;stroke-width:0.5;" x1="807.5" x2="876.5" y1="648.7969" y2="648.7969"/></g><!--MD5=[70956c9b0a480da294331bfe4769ea93]
class Critico--><g id="elem_Critico"><rect codeLine="25" fill="#F1F1F1" height="48" id="Critico" rx="2.5" ry="2.5" style="stroke:#181818;stroke-width:0.5;" width="80" x="691" y="608.7969"/><ellipse cx="706" cy="624.7969" fill="#ADD1B2" rx="11" ry="11" style="stroke:#181818;stroke-width:1.0;"/><path d="M708.3438,620.4688 C707.4063,620.0313 706.8125,619.8906 705.9375,619.8906 C703.3125,619.8906 701.3125,621.9688 701.3125,624.6875 L701.3125,625.8125 C701.3125,628.3906 703.4219,630.2813 706.3125,630.2813 C707.5313,630.2813 708.6875,629.9844 709.4375,629.4375 C710.0156,629.0313 710.3438,628.5781 710.3438,628.1875 C710.3438,627.7344 709.9531,627.3438 709.4844,627.3438 C709.2656,627.3438 709.0625,627.4219 708.875,627.6094 C708.4219,628.0938 708.4219,628.0938 708.2344,628.1875 C707.8125,628.4531 707.125,628.5781 706.3594,628.5781 C704.3125,628.5781 703.0156,627.4844 703.0156,625.7813 L703.0156,624.6875 C703.0156,622.9063 704.2656,621.5938 706,621.5938 C706.5781,621.5938 707.1875,621.75 707.6563,622 C708.1406,622.2813 708.3125,622.5 708.4063,622.9063 C708.4688,623.3125 708.5,623.4375 708.6406,623.5625 C708.7813,623.7031 709.0156,623.8125 709.2344,623.8125 C709.5,623.8125 709.7656,623.6719 709.9375,623.4531 C710.0469,623.2969 710.0781,623.1094 710.0781,622.6875 L710.0781,621.2656 C710.0781,620.8281 710.0625,620.7031 709.9688,620.5469 C709.8125,620.2813 709.5313,620.1406 709.2344,620.1406 C708.9375,620.1406 708.7344,620.2344 708.5156,620.5469 L708.3438,620.4688 Z " fill="#000000"/><text fill="#000000" font-family="sans-serif" font-size="14" lengthAdjust="spacing" textLength="48" x="720" y="629.6436">Critico</text><line style="stroke:#181818;stroke-width:0.5;" x1="692" x2="770" y1="640.7969" y2="640.7969"/><line style="stroke:#181818;stroke-width:0.5;" x1="692" x2="770" y1="648.7969" y2="648.7969"/></g><!--MD5=[8831de083a354ec2f3d5c9addd03da61]
class Entrevista--><g id="elem_Entrevista"><rect codeLine="26" fill="#F1F1F1" height="48" id="Entrevista" rx="2.5" ry="2.5" style="stroke:#181818;stroke-width:0.5;" width="106" x="541" y="260.2969"/><ellipse cx="556" cy="276.2969" fill="#ADD1B2" rx="11" ry="11" style="stroke:#181818;stroke-width:1.0;"/><path d="M558.3438,271.9688 C557.4063,271.5313 556.8125,271.3906 555.9375,271.3906 C553.3125,271.3906 551.3125,273.4688 551.3125,276.1875 L551.3125,277.3125 C551.3125,279.8906 553.4219,281.7813 556.3125,281.7813 C557.5313,281.7813 558.6875,281.4844 559.4375,280.9375 C560.0156,280.5313 560.3438,280.0781 560.3438,279.6875 C560.3438,279.2344 559.9531,278.8438 559.4844,278.8438 C559.2656,278.8438 559.0625,278.9219 558.875,279.1094 C558.4219,279.5938 558.4219,279.5938 558.2344,279.6875 C557.8125,279.9531 557.125,280.0781 556.3594,280.0781 C554.3125,280.0781 553.0156,278.9844 553.0156,277.2813 L553.0156,276.1875 C553.0156,274.4063 554.2656,273.0938 556,273.0938 C556.5781,273.0938 557.1875,273.25 557.6563,273.5 C558.1406,273.7813 558.3125,274 558.4063,274.4063 C558.4688,274.8125 558.5,274.9375 558.6406,275.0625 C558.7813,275.2031 559.0156,275.3125 559.2344,275.3125 C559.5,275.3125 559.7656,275.1719 559.9375,274.9531 C560.0469,274.7969 560.0781,274.6094 560.0781,274.1875 L560.0781,272.7656 C560.0781,272.3281 560.0625,272.2031 559.9688,272.0469 C559.8125,271.7813 559.5313,271.6406 559.2344,271.6406 C558.9375,271.6406 558.7344,271.7344 558.5156,272.0469 L558.3438,271.9688 Z " fill="#000000"/><text fill="#000000" font-family="sans-serif" font-size="14" lengthAdjust="spacing" textLength="74" x="570" y="281.1436">Entrevista</text><line style="stroke:#181818;stroke-width:0.5;" x1="542" x2="646" y1="292.2969" y2="292.2969"/><line style="stroke:#181818;stroke-width:0.5;" x1="542" x2="646" y1="300.2969" y2="300.2969"/></g><!--MD5=[82f72405d3bc99316490fd00ed542541]
class Ensayo--><g id="elem_Ensayo"><rect codeLine="27" fill="#F1F1F1" height="48" id="Ensayo" rx="2.5" ry="2.5" style="stroke:#181818;stroke-width:0.5;" width="83" x="511.5" y="368.2969"/><ellipse cx="526.5" cy="384.2969" fill="#A9DCDF" rx="11" ry="11" style="stroke:#181818;stroke-width:1.0;"/><path d="M528.5781,386.1094 L528.9688,387.0938 L528.5781,387.0938 C528.125,387.0938 528.0156,387.1094 527.8594,387.2188 C527.6094,387.375 527.4531,387.6563 527.4531,387.9531 C527.4531,388.2188 527.5938,388.4688 527.8125,388.625 C527.9531,388.75 528.1563,388.7969 528.5781,388.7969 L530.9375,388.7969 C531.2969,388.7969 531.5156,388.7656 531.6563,388.6719 C531.9063,388.5313 532.0625,388.2344 532.0625,387.9531 C532.0625,387.6719 531.9219,387.4219 531.7031,387.2656 C531.5313,387.125 531.375,387.0938 530.9063,387.0938 L527.5156,378.8906 L523.8438,378.8906 C523.3906,378.8906 523.2656,378.9063 523.1094,379 C522.8594,379.1719 522.7031,379.4531 522.7031,379.7344 C522.7031,380.0156 522.8438,380.2656 523.0625,380.4375 C523.2344,380.5469 523.4063,380.5781 523.8438,380.5781 L524.9219,380.5781 L522.2813,387.0938 C521.8594,387.0938 521.7031,387.1094 521.5469,387.2188 C521.2969,387.375 521.1406,387.6563 521.1406,387.9531 C521.1406,388.5156 521.5156,388.7969 522.2656,388.7969 L524.5313,388.7969 C524.8906,388.7969 525.1094,388.7656 525.2344,388.6719 C525.5,388.5313 525.6406,388.2344 525.6406,387.9531 C525.6406,387.6719 525.5156,387.4219 525.2969,387.25 C525.125,387.125 524.9844,387.0938 524.5313,387.0938 L524.1406,387.0938 L524.5313,386.1094 L528.5781,386.1094 Z M527.875,384.4063 L525.2031,384.4063 L526.5469,381.1406 L527.875,384.4063 Z " fill="#000000"/><text fill="#000000" font-family="sans-serif" font-size="14" font-style="italic" lengthAdjust="spacing" textLength="51" x="540.5" y="389.1436">Ensayo</text><line style="stroke:#181818;stroke-width:0.5;" x1="512.5" x2="593.5" y1="400.2969" y2="400.2969"/><line style="stroke:#181818;stroke-width:0.5;" x1="512.5" x2="593.5" y1="408.2969" y2="408.2969"/></g><!--MD5=[f8ee293aa2dcf772bab405924dc5c6e1]
class Reglas--><g id="elem_Reglas"><rect codeLine="28" fill="#F1F1F1" height="48" id="Reglas" rx="2.5" ry="2.5" style="stroke:#181818;stroke-width:0.5;" width="80" x="387" y="368.2969"/><ellipse cx="402" cy="384.2969" fill="#A9DCDF" rx="11" ry="11" style="stroke:#181818;stroke-width:1.0;"/><path d="M404.0781,386.1094 L404.4688,387.0938 L404.0781,387.0938 C403.625,387.0938 403.5156,387.1094 403.3594,387.2188 C403.1094,387.375 402.9531,387.6563 402.9531,387.9531 C402.9531,388.2188 403.0938,388.4688 403.3125,388.625 C403.4531,388.75 403.6563,388.7969 404.0781,388.7969 L406.4375,388.7969 C406.7969,388.7969 407.0156,388.7656 407.1563,388.6719 C407.4063,388.5313 407.5625,388.2344 407.5625,387.9531 C407.5625,387.6719 407.4219,387.4219 407.2031,387.2656 C407.0313,387.125 406.875,387.0938 406.4063,387.0938 L403.0156,378.8906 L399.3438,378.8906 C398.8906,378.8906 398.7656,378.9063 398.6094,379 C398.3594,379.1719 398.2031,379.4531 398.2031,379.7344 C398.2031,380.0156 398.3438,380.2656 398.5625,380.4375 C398.7344,380.5469 398.9063,380.5781 399.3438,380.5781 L400.4219,380.5781 L397.7813,387.0938 C397.3594,387.0938 397.2031,387.1094 397.0469,387.2188 C396.7969,387.375 396.6406,387.6563 396.6406,387.9531 C396.6406,388.5156 397.0156,388.7969 397.7656,388.7969 L400.0313,388.7969 C400.3906,388.7969 400.6094,388.7656 400.7344,388.6719 C401,388.5313 401.1406,388.2344 401.1406,387.9531 C401.1406,387.6719 401.0156,387.4219 400.7969,387.25 C400.625,387.125 400.4844,387.0938 400.0313,387.0938 L399.6406,387.0938 L400.0313,386.1094 L404.0781,386.1094 Z M403.375,384.4063 L400.7031,384.4063 L402.0469,381.1406 L403.375,384.4063 Z " fill="#000000"/><text fill="#000000" font-family="sans-serif" font-size="14" font-style="italic" lengthAdjust="spacing" textLength="48" x="416" y="389.1436">Reglas</text><line style="stroke:#181818;stroke-width:0.5;" x1="388" x2="466" y1="400.2969" y2="400.2969"/><line style="stroke:#181818;stroke-width:0.5;" x1="388" x2="466" y1="408.2969" y2="408.2969"/></g><!--MD5=[e0d396efec75ea9087344e0c07480403]
link Restaurante to Cocina--><g id="link_Restaurante_Cocina"><path codeLine="29" d="M715.9896,77.4917 C715.9896,77.4917 830.45,108.0169 868,152.2969 C944.664,242.7009 943.775,394.2729 938.724,463.2079 " fill="none" id="Restaurante-Cocina" style="stroke:#181818;stroke-width:1.0;"/><polygon fill="#181818" points="937.645,476.2319,942.3741,467.5927,938.0576,471.2489,934.4014,466.9325,937.645,476.2319" style="stroke:#181818;stroke-width:1.0;"/><line style="stroke:#181818;stroke-width:1.0;" x1="938.0576" x2="938.7185" y1="471.2489" y2="463.2764"/><polygon fill="#181818" points="704.178,75.3739,709.3779,80.37,715.9896,77.4917,710.7898,72.4956,704.178,75.3739" style="stroke:#181818;stroke-width:1.0;"/></g><!--MD5=[e3c5de339ffdfb8bc5455029b2a34e1a]
link Restaurante to Comedor--><g id="link_Restaurante_Comedor"><path codeLine="30" d="M572.032,80.8589 C572.032,80.8589 77,178.8889 77,283.2969 C77,283.2969 77,283.2969 77,393.2969 C77,542.1069 230.189,498.8189 352,584.2969 C359.784,589.7589 368.058,595.5979 376.041,601.2479 " fill="none" id="Restaurante-Comedor" style="stroke:#181818;stroke-width:1.0;"/><polygon fill="#181818" points="386.67,608.7819,381.6404,600.3141,382.5907,605.8906,377.0143,606.8409,386.67,608.7819" style="stroke:#181818;stroke-width:1.0;"/><line style="stroke:#181818;stroke-width:1.0;" x1="382.5907" x2="376.064" y1="605.8906" y2="601.2649"/><polygon fill="#181818" points="583.858,78.8229,577.2663,75.8989,572.032,80.8589,578.6237,83.7829,583.858,78.8229" style="stroke:#181818;stroke-width:1.0;"/></g><!--MD5=[0979d2efdce91807240638d5e5b77262]
link Restaurante to Terraza--><g id="link_Restaurante_Terraza"><path codeLine="31" d="M571.9936,69.1098 C571.9936,69.1098 289.638,85.9439 152,152.2969 C73.469,190.1559 6,196.1169 6,283.2969 C6,283.2969 6,283.2969 6,393.2969 C6,512.1359 153.449,583.2769 236.604,613.9479 " fill="none" id="Restaurante-Terraza" style="stroke:#181818;stroke-width:1.0;"/><polygon fill="#181818" points="248.873,618.3529,241.754,611.547,244.1671,616.6634,239.0508,619.0765,248.873,618.3529" style="stroke:#181818;stroke-width:1.0;"/><line style="stroke:#181818;stroke-width:1.0;" x1="244.1671" x2="236.6375" y1="616.6634" y2="613.9604"/><polygon fill="#181818" points="583.991,68.8619,577.9096,64.9867,571.9936,69.1098,578.0749,72.985,583.991,68.8619" style="stroke:#181818;stroke-width:1.0;"/></g><!--MD5=[b7934f3175ff53b0d69cf011c386cadb]
link Restaurante to Envio--><g id="link_Restaurante_Envio"><path codeLine="32" d="M699.7629,98.6392 C699.7629,98.6392 842,199.5429 842,283.2969 C842,283.2969 842,283.2969 842,393.2969 C842,464.9689 842,548.7549 842,595.5079 " fill="none" id="Restaurante-Envio" style="stroke:#181818;stroke-width:1.0;"/><polygon fill="#181818" points="842,608.7729,846,599.7729,842,603.7729,838,599.7729,842,608.7729" style="stroke:#181818;stroke-width:1.0;"/><line style="stroke:#181818;stroke-width:1.0;" x1="842" x2="842" y1="603.7729" y2="595.7734"/><polygon fill="#181818" points="689.425,92.5459,692.5628,99.0385,699.7629,98.6392,696.625,92.1466,689.425,92.5459" style="stroke:#181818;stroke-width:1.0;"/></g><!--MD5=[2ca8ed700eac1095696a5a1dc1e0aa40]
link Restaurante to Equipo--><g id="link_Restaurante_Equipo"><path codeLine="33" d="M607.4774,100.0222 C607.4774,100.0222 571.899,129.9539 555.842,143.4609 " fill="none" id="Restaurante-Equipo" style="stroke:#181818;stroke-width:1.0;"/><polygon fill="#181818" points="545.722,151.9749,555.184,149.2417,549.5481,148.756,550.0338,143.12,545.722,151.9749" style="stroke:#181818;stroke-width:1.0;"/><line style="stroke:#181818;stroke-width:1.0;" x1="549.5481" x2="555.67" y1="148.756" y2="143.6064"/><polygon fill="#181818" points="616.66,92.2969,609.4936,93.0987,607.4774,100.0222,614.6438,99.2204,616.66,92.2969" style="stroke:#181818;stroke-width:1.0;"/></g><!--MD5=[3aa47716b51ae3f2fbc63164d85233b2]
link Restaurante to Comensal--><g id="link_Restaurante_Comensal"><path codeLine="34" d="M656.5923,103.7108 C656.5923,103.7108 689.441,204.7839 697,260.2969 C706.72,331.6779 698.676,416.0589 692.479,463.0479 " fill="none" id="Restaurante-Comensal" style="stroke:#181818;stroke-width:1.0;"/><polygon fill="#181818" points="690.677,476.0979,695.8708,467.7298,691.3611,471.1449,687.946,466.6352,690.677,476.0979" style="stroke:#181818;stroke-width:1.0;"/><line style="stroke:#181818;stroke-width:1.0;" x1="691.3611" x2="692.455" y1="471.1449" y2="463.2204"/><polygon fill="none" points="652.607,92.3919,650.8267,99.3798,656.5923,103.7108,658.3726,96.7229,652.607,92.3919" style="stroke:#181818;stroke-width:1.0;"/></g><!--MD5=[39c708d71b6eb63c398c10a08d313495]
reverse link Comensal to Critico--><g id="link_Comensal_Critico"><path codeLine="35" d="M701.221,543.4759 C708.502,565.0709 717.088,590.5339 723.165,608.5579 " fill="none" id="Comensal-backto-Critico" style="stroke:#181818;stroke-width:1.0;"/><polygon fill="none" points="694.522,545.5159,694.765,524.3269,707.788,541.0429,694.522,545.5159" style="stroke:#181818;stroke-width:1.0;"/></g><!--MD5=[97b64afbe43f11f5f3e6de3f206cf313]
link Comensal to Menu--><g id="link_Comensal_Menu"><path codeLine="36" d="M674.294,524.3269 C665.883,539.5719 654.499,560.2059 643.954,579.3179 " fill="none" id="Comensal-to-Menu" style="stroke:#181818;stroke-width:1.0;stroke-dasharray:7.0,7.0;"/><polygon fill="#181818" points="641.294,584.1399,649.1448,578.193,643.71,579.7623,642.1407,574.3275,641.294,584.1399" style="stroke:#181818;stroke-width:1.0;"/></g><!--MD5=[6980badd2eea70b59582d69ba513153e]
link Menu to Carta--><g id="link_Menu_Carta"><path codeLine="37" d="M650.088,584.1679 C661.484,572.1269 675.19,560.8139 690.5,554.2969 C766.971,521.7449 801.596,520.4439 877.5,554.2969 C900.325,564.4769 918.846,586.1029 931.167,604.0839 " fill="none" id="Menu-to-Carta" style="stroke:#181818;stroke-width:1.0;"/><polygon fill="#181818" points="934.164,608.5669,932.4845,598.8623,931.3839,604.411,925.8352,603.3104,934.164,608.5669" style="stroke:#181818;stroke-width:1.0;"/></g><!--MD5=[034ac87b122d08f883c9a7942efb2dc3]
link Carta to Plato--><g id="link_Carta_Plato"><path codeLine="38" d="M915.8482,664.9081 C915.8482,664.9081 901.648,676.7159 895,681.2969 C858.721,706.2959 813.931,728.7919 780.81,744.0359 " fill="none" id="Carta-Plato" style="stroke:#181818;stroke-width:1.0;"/><polygon fill="#181818" points="768.73,749.5139,778.5786,749.4398,773.2837,747.4489,775.2746,742.154,768.73,749.5139" style="stroke:#181818;stroke-width:1.0;"/><line style="stroke:#181818;stroke-width:1.0;" x1="773.2837" x2="780.57" y1="747.4489" y2="744.1454"/><polygon fill="none" points="924.803,656.9199,917.6629,657.9291,915.8482,664.9081,922.9884,663.8989,924.803,656.9199" style="stroke:#181818;stroke-width:1.0;"/></g><!--MD5=[405dabca789be43d3ff0968d97757bdf]
link Plato to Ingrediente--><g id="link_Plato_Ingrediente"><path codeLine="39" d="M734,801.3269 C734,801.3269 734,824.3769 734,835.8449 " fill="none" id="Plato-Ingrediente" style="stroke:#181818;stroke-width:1.0;"/><polygon fill="#181818" points="734,849.1396,738,840.1396,734,844.1396,730,840.1396,734,849.1396" style="stroke:#181818;stroke-width:1.0;"/><line style="stroke:#181818;stroke-width:1.0;" x1="734" x2="734" y1="844.1396" y2="836.1399"/><polygon fill="none" points="734,789.3269,730,795.3269,734,801.3269,738,795.3269,734,789.3269" style="stroke:#181818;stroke-width:1.0;"/></g><!--MD5=[e7a0ffd8c68dda27de682d620d077d54]
link Comensal to Terraza--><g id="link_Comensal_Terraza"><path codeLine="40" d="M635.931,518.9519 C629.913,520.8439 623.839,522.6699 618,524.2969 C501.257,556.8329 461.351,532.0469 352,584.2969 C340.672,589.7099 329.531,597.5989 319.983,605.3989 " fill="none" id="Comensal-to-Terraza" style="stroke:#181818;stroke-width:1.0;stroke-dasharray:7.0,7.0;"/><polygon fill="#181818" points="315.993,608.7289,325.466,606.0339,319.832,605.5254,320.3404,599.8915,315.993,608.7289" style="stroke:#181818;stroke-width:1.0;"/></g><!--MD5=[b5e0103c6d4f97d493e1352368196e88]
link Comensal to Comedor--><g id="link_Comensal_Comedor"><path codeLine="41" d="M639.704,524.3269 C592.393,547.3649 519.811,582.7079 470.928,606.5109 " fill="none" id="Comensal-to-Comedor" style="stroke:#181818;stroke-width:1.0;stroke-dasharray:7.0,7.0;"/><polygon fill="#181818" points="466.273,608.7779,476.1158,608.4325,470.768,606.5882,472.6123,601.2404,466.273,608.7779" style="stroke:#181818;stroke-width:1.0;"/></g><!--MD5=[a56d7e859f9ef5d5919c5637e92cf22c]
link Comensal to Envio--><g id="link_Comensal_Envio"><path codeLine="42" d="M715.509,524.2999 C735.856,540.8209 763.793,563.7139 788,584.2969 C795.929,591.0389 804.42,598.4269 812.266,605.3249 " fill="none" id="Comensal-to-Envio" style="stroke:#181818;stroke-width:1.0;stroke-dasharray:7.0,7.0;"/><polygon fill="#181818" points="816.061,608.6669,811.9495,599.7173,812.3083,605.3627,806.6628,605.7216,816.061,608.6669" style="stroke:#181818;stroke-width:1.0;"/></g><!--MD5=[b6610a8e4d5a4827152030a58ebd830a]
link Equipo to JefeDePersonal--><g id="link_Equipo_JefeDePersonal"><path codeLine="43" d="M466.3576,199.5495 C466.3576,199.5495 377.644,237.7759 337.656,255.0059 " fill="none" id="Equipo-JefeDePersonal" style="stroke:#181818;stroke-width:1.0;"/><polygon fill="#181818" points="325.606,260.1989,335.4542,260.3109,330.1979,258.2203,332.2884,252.9639,325.606,260.1989" style="stroke:#181818;stroke-width:1.0;"/><line style="stroke:#181818;stroke-width:1.0;" x1="330.1979" x2="337.5445" y1="258.2203" y2="255.0544"/><polygon fill="none" points="477.378,194.8009,470.2849,193.5017,466.3576,199.5495,473.4507,200.8487,477.378,194.8009" style="stroke:#181818;stroke-width:1.0;"/></g><!--MD5=[7940fbad33b57f7b773769ff38585736]
link Equipo to Camarero--><g id="link_Equipo_Camarero"><path codeLine="44" d="M465.2677,182.6071 C465.2677,182.6071 218.193,216.5679 184,260.2969 C118.633,343.8969 265.654,429.6749 355.636,472.1029 " fill="none" id="Equipo-Camarero" style="stroke:#181818;stroke-width:1.0;"/><polygon fill="#181818" points="367.657,477.6739,361.1731,470.2605,363.1205,475.5715,357.8094,477.5189,367.657,477.6739" style="stroke:#181818;stroke-width:1.0;"/><line style="stroke:#181818;stroke-width:1.0;" x1="363.1205" x2="355.862" y1="475.5715" y2="472.2069"/><polygon fill="none" points="477.193,181.2699,470.7846,177.9634,465.2677,182.6071,471.6761,185.9136,477.193,181.2699" style="stroke:#181818;stroke-width:1.0;"/></g><!--MD5=[aeb5b1f464f91bf04867f8c4d41f77b5]
link Equipo to Entrevista--><g id="link_Equipo_Entrevista"><path codeLine="45" d="M534.491,200.2969 C546.162,216.5759 561.87,238.4839 574.217,255.7049 " fill="none" id="Equipo-to-Entrevista" style="stroke:#181818;stroke-width:1.0;"/><polygon fill="#181818" points="577.279,259.9749,575.2852,250.3299,574.3654,255.9115,568.7838,254.9917,577.279,259.9749" style="stroke:#181818;stroke-width:1.0;"/></g><!--MD5=[666f906c0052649cabe6f23ef7d9ebef]
link JefeDePersonal to Reglas--><g id="link_JefeDePersonal_Reglas"><path codeLine="46" d="M315.5384,315.0706 C315.5384,315.0706 361.696,346.6379 382.414,360.8059 " fill="none" id="JefeDePersonal-Reglas" style="stroke:#181818;stroke-width:1.0;"/><polygon fill="#181818" points="393.166,368.1589,387.9948,359.7768,389.0387,365.3365,383.479,366.3804,393.166,368.1589" style="stroke:#181818;stroke-width:1.0;"/><line style="stroke:#181818;stroke-width:1.0;" x1="389.0387" x2="382.4345" y1="365.3365" y2="360.8199"/><polygon fill="none" points="305.633,308.2969,308.3278,314.9855,315.5384,315.0706,312.8436,308.3819,305.633,308.2969" style="stroke:#181818;stroke-width:1.0;"/></g><!--MD5=[12118ee2524ca584f5712f998d2c4c6e]
link JefeDePersonal to Entrevista--><g id="link_JefeDePersonal_Entrevista"><path codeLine="47" d="M308.398,260.2349 C327.992,248.7189 353.096,236.1799 377.5,230.2969 C432.805,216.9659 450.732,214.9069 505.5,230.2969 C524.823,235.7269 544.105,246.6729 559.715,257.2989 " fill="none" id="JefeDePersonal-to-Entrevista" style="stroke:#181818;stroke-width:1.0;"/><polygon fill="#181818" points="564.017,260.2829,558.9019,251.8665,559.9087,257.433,554.3421,258.4398,564.017,260.2829" style="stroke:#181818;stroke-width:1.0;"/></g><!--MD5=[4d675047f054e624df26a346c0f974fd]
link Entrevista to Ensayo--><g id="link_Entrevista_Ensayo"><path codeLine="48" d="M585.104,308.2969 C578.861,324.4379 570.477,346.1129 563.842,363.2659 " fill="none" id="Entrevista-to-Ensayo" style="stroke:#181818;stroke-width:1.0;"/><polygon fill="#181818" points="562.021,367.9749,568.9968,361.0223,563.8236,363.3111,561.5348,358.138,562.021,367.9749" style="stroke:#181818;stroke-width:1.0;"/></g><!--MD5=[bd434add90342b32468dcb75b16cda05]
reverse link Ensayo to Cocinero--><g id="link_Ensayo_Cocinero"><path codeLine="49" d="M553,421.4279 C553,438.4509 553,459.9009 553,475.9749 " fill="none" id="Ensayo-backto-Cocinero" style="stroke:#181818;stroke-width:1.0;stroke-dasharray:7.0,7.0;"/><polygon fill="#181818" points="553,416.2969,549,425.2969,553,421.2969,557,425.2969,553,416.2969" style="stroke:#181818;stroke-width:1.0;"/></g><!--MD5=[19e89c4af737a2c68e5c1de4fdd0b567]
reverse link Ensayo to Camarero--><g id="link_Ensayo_Camarero"><path codeLine="50" d="M519.917,419.4669 C498.033,436.7789 469.591,459.2769 448.482,475.9749 " fill="none" id="Ensayo-backto-Camarero" style="stroke:#181818;stroke-width:1.0;stroke-dasharray:7.0,7.0;"/><polygon fill="#181818" points="523.924,416.2969,514.3836,418.7425,520.0023,419.3985,519.3462,425.0172,523.924,416.2969" style="stroke:#181818;stroke-width:1.0;"/></g><!--MD5=[e2ac50f218fa6c3d3ecf35c21d497e22]
reverse link Reglas to Camarero--><g id="link_Reglas_Camarero"><path codeLine="51" d="M424.877,421.4279 C423.592,438.4509 421.973,459.9009 420.76,475.9749 " fill="none" id="Reglas-backto-Camarero" style="stroke:#181818;stroke-width:1.0;stroke-dasharray:7.0,7.0;"/><polygon fill="#181818" points="425.264,416.2969,420.599,424.9708,424.8883,421.2827,428.5764,425.572,425.264,416.2969" style="stroke:#181818;stroke-width:1.0;"/></g><!--MD5=[00d230d7c629645854c4e268d6b1f0c9]
link Camarero to Terraza--><g id="link_Camarero_Terraza"><path codeLine="52" d="M396.587,524.3269 C374.687,546.8309 341.36,581.0759 318.236,604.8379 " fill="none" id="Camarero-to-Terraza" style="stroke:#181818;stroke-width:1.0;"/><polygon fill="#181818" points="314.616,608.5579,323.7597,604.8982,318.1033,604.9748,318.0268,599.3185,314.616,608.5579" style="stroke:#181818;stroke-width:1.0;"/></g><!--MD5=[51bc403d3b86170c2ce5ed5e07a83b8e]
link Camarero to Comedor--><g id="link_Camarero_Comedor"><path codeLine="53" d="M419,524.3269 C419,546.3679 419,579.6719 419,603.3579 " fill="none" id="Camarero-to-Comedor" style="stroke:#181818;stroke-width:1.0;"/><polygon fill="#181818" points="419,608.5579,423,599.5579,419,603.5579,415,599.5579,419,608.5579" style="stroke:#181818;stroke-width:1.0;"/></g><!--MD5=[4d4fdb537906e5e156df11cc6c8c0633]
link Camarero to Comensal--><g id="link_Camarero_Comensal"><path codeLine="54" d="M447.842,476.2929 C463.543,464.7929 483.925,452.2499 504.5,446.2969 C545.485,434.4379 559.484,434.5449 600.5,446.2969 C619.478,451.7349 638.336,462.6819 653.577,473.3059 " fill="none" id="Camarero-to-Comensal" style="stroke:#181818;stroke-width:1.0;"/><polygon fill="#181818" points="657.777,476.2899,652.7555,467.8173,653.7005,473.3946,648.1232,474.3396,657.777,476.2899" style="stroke:#181818;stroke-width:1.0;"/></g><!--MD5=[028318c83581ce50ae5647dd58e1e568]
link Equipo to JefeDeCocina--><g id="link_Equipo_JefeDeCocina"><path codeLine="55" d="M494.5166,210.0491 C494.5166,210.0491 475.073,237.1689 466.354,249.3299 " fill="none" id="Equipo-JefeDeCocina" style="stroke:#181818;stroke-width:1.0;"/><polygon fill="#181818" points="458.721,259.9749,467.2161,254.9915,461.6345,255.9114,460.7146,250.3299,458.721,259.9749" style="stroke:#181818;stroke-width:1.0;"/><line style="stroke:#181818;stroke-width:1.0;" x1="461.6345" x2="466.296" y1="255.9114" y2="249.4104"/><polygon fill="none" points="501.509,200.2969,494.762,202.8422,494.5166,210.0491,501.2635,207.5038,501.509,200.2969" style="stroke:#181818;stroke-width:1.0;"/></g><!--MD5=[19034d78dda71599ff341c2ea272abbc]
link Equipo to Cocinero--><g id="link_Equipo_Cocinero"><path codeLine="56" d="M569.9671,191.9453 C569.9671,191.9453 644.043,225.9939 664,260.2969 C705.24,331.1799 634.307,419.9739 588.069,466.8449 " fill="none" id="Equipo-Cocinero" style="stroke:#181818;stroke-width:1.0;"/><polygon fill="#181818" points="578.626,476.1889,587.8367,472.7012,582.1799,472.6718,582.2093,467.015,578.626,476.1889" style="stroke:#181818;stroke-width:1.0;"/><line style="stroke:#181818;stroke-width:1.0;" x1="582.1799" x2="587.8665" y1="472.6718" y2="467.0449"/><polygon fill="none" points="558.65,187.9549,562.9784,193.7224,569.9671,191.9453,565.6387,186.1777,558.65,187.9549" style="stroke:#181818;stroke-width:1.0;"/></g><!--MD5=[17412c3f83358bfcf563f7e9758df065]
link JefeDeCocina to Reglas--><g id="link_JefeDeCocina_Reglas"><path codeLine="57" d="M437.0636,320.1785 C437.0636,320.1785 433.659,344.2369 432.133,355.0209 " fill="none" id="JefeDeCocina-Reglas" style="stroke:#181818;stroke-width:1.0;"/><polygon fill="#181818" points="430.3,367.9749,435.5216,359.6241,431.0006,363.0242,427.6005,358.5032,430.3,367.9749" style="stroke:#181818;stroke-width:1.0;"/><line style="stroke:#181818;stroke-width:1.0;" x1="431.0006" x2="432.122" y1="363.0242" y2="355.1034"/><polygon fill="none" points="438.745,308.2969,433.9438,313.6772,437.0636,320.1785,441.8649,314.7981,438.745,308.2969" style="stroke:#181818;stroke-width:1.0;"/></g><!--MD5=[47009b048c9ff294161651a4cc917396]
link JefeDeCocina to Entrevista--><g id="link_JefeDeCocina_Entrevista"><path codeLine="58" d="M506.125,284.2969 C515.966,284.2969 525.807,284.2969 535.648,284.2969 " fill="none" id="JefeDeCocina-to-Entrevista" style="stroke:#181818;stroke-width:1.0;"/><polygon fill="#181818" points="540.794,284.2969,531.794,280.2969,535.794,284.2969,531.794,288.2969,540.794,284.2969" style="stroke:#181818;stroke-width:1.0;"/></g><!--MD5=[aafc6b2c38dcf2be1bd0dd9b264413e8]
reverse link Reglas to Cocinero--><g id="link_Reglas_Cocinero"><path codeLine="59" d="M458.364,419.6829 C478.907,436.9649 505.512,459.3459 525.278,475.9749 " fill="none" id="Reglas-backto-Cocinero" style="stroke:#181818;stroke-width:1.0;stroke-dasharray:7.0,7.0;"/><polygon fill="#181818" points="454.34,416.2969,458.6518,425.1517,458.1661,419.5157,463.802,419.03,454.34,416.2969" style="stroke:#181818;stroke-width:1.0;"/></g><!--MD5=[b0bb15627c41694b89cfd8387f5a057f]
link Cocinero to Cocina--><g id="link_Cocinero_Cocina"><path codeLine="60" d="M581.07,476.0219 C596.134,464.6029 615.65,452.2159 635.5,446.2969 C727.071,418.9929 758.781,419.4929 850.5,446.2969 C868.983,451.6979 887.267,462.5119 902.075,473.0529 " fill="none" id="Cocinero-to-Cocina" style="stroke:#181818;stroke-width:1.0;"/><polygon fill="#181818" points="906.157,476.0139,901.2205,467.4915,902.1097,473.078,896.5231,473.9672,906.157,476.0139" style="stroke:#181818;stroke-width:1.0;"/></g><!--MD5=[ce68631941081de7dcdf7b66666739c5]
link Cocinero to Plato--><g id="link_Cocinero_Plato"><path codeLine="61" d="M546.323,524.5659 C537.278,561.1989 525.612,633.1029 557,681.2969 C587.525,728.1669 652.101,749.0879 694.237,758.0459 " fill="none" id="Cocinero-to-Plato" style="stroke:#181818;stroke-width:1.0;"/><polygon fill="#181818" points="699.26,759.0799,691.2519,753.3466,694.3628,758.0713,689.6381,761.1822,699.26,759.0799" style="stroke:#181818;stroke-width:1.0;"/></g><!--MD5=[d47e4249daaabcc252b2f50e5d772798]
link Cocina to Carta--><g id="link_Cocina_Carta"><path codeLine="62" d="M937.294,524.3269 C939.49,546.3679 942.807,579.6719 945.167,603.3579 " fill="none" id="Cocina-to-Carta" style="stroke:#181818;stroke-width:1.0;"/><polygon fill="#181818" points="945.685,608.5579,948.7731,599.2057,945.1893,603.5825,940.8125,599.9988,945.685,608.5579" style="stroke:#181818;stroke-width:1.0;"/></g><!--MD5=[291b2278c79f59cdc00abe9b49a5564b]
link Comedor to Carta--><g id="link_Comedor_Carta"><path codeLine="63" d="M454.509,608.7799 C484.875,589.7819 530.518,564.7689 574.5,554.2969 C640.002,538.7009 816.005,526.8709 877.5,554.2969 C900.325,564.4769 918.846,586.1029 931.167,604.0839 " fill="none" id="Comedor-to-Carta" style="stroke:#181818;stroke-width:1.0;"/><polygon fill="#181818" points="934.164,608.5669,932.4845,598.8623,931.3839,604.411,925.8352,603.3104,934.164,608.5669" style="stroke:#181818;stroke-width:1.0;"/></g><!--MD5=[66e024fa9fdca60ccc0fe31e1bb8db1b]
@startuml
title Restaurante
class Restaurante
class Cocina
class Comedor
class Terraza
abstract Equipo
class Comensal
enum Menu{
Desayuno
Comida
Cena
}
class Carta
class Plato
class JefeDePersonal
class JefeDeCocina
class Camarero
class Cocinero
enum Ingrediente{
Cebolla
Trigo
...
}
class Envio
class Critico
class Entrevista
abstract Ensayo
abstract Reglas
Restaurante *- -> Cocina
Restaurante *- -> Comedor
Restaurante *- -> Terraza
Restaurante *- -> Envio
Restaurante *- -> Equipo
Restaurante o- -> Comensal
Comensal <|-down- Critico
Comensal ..> Menu
Menu -> Carta
Carta o- -> Plato
Plato o- -> Ingrediente
Comensal ..> Terraza
Comensal ..> Comedor
Comensal ..> Envio
Equipo o- -> JefeDePersonal
Equipo o- -> Camarero
Equipo -> Entrevista
JefeDePersonal o- -> Reglas
JefeDePersonal -> Entrevista
Entrevista -> Ensayo
Ensayo <.. Cocinero
Ensayo <.. Camarero
Reglas <.. Camarero
Camarero -> Terraza
Camarero -> Comedor
Camarero -> Comensal
Equipo o- -> JefeDeCocina
Equipo o- -> Cocinero
JefeDeCocina o- -> Reglas
JefeDeCocina -> Entrevista
Reglas <.. Cocinero
Cocinero -> Cocina
Cocinero -> Plato
Cocina -> Carta
Comedor -> Carta
@enduml

PlantUML version 1.2022.4beta2(Unknown compile time)
(GPL source distribution)
Java Runtime: Java(TM) SE Runtime Environment
JVM: Java HotSpot(TM) 64-Bit Server VM
Default Encoding: UTF-8
Language: en
Country: US
--></g></svg>