<?xml version="1.0" encoding="UTF-8" standalone="no"?><svg xmlns="http://www.w3.org/2000/svg" xmlns:xlink="http://www.w3.org/1999/xlink" contentStyleType="text/css" height="1471px" preserveAspectRatio="none" style="width:802px;height:1471px;background:#FFFFFF;" version="1.1" viewBox="0 0 802 1471" width="802px" zoomAndPan="magnify"><defs/><g><rect height="26.2969" style="stroke:#00000000;stroke-width:1.0;fill:none;" width="78" x="355" y="5"/><text fill="#000000" font-family="sans-serif" font-size="14" font-weight="bold" lengthAdjust="spacing" textLength="68" x="360" y="22.9951">Klondike</text><!--MD5=[ce135f397e71694d574a1221b16fe9d6]
class Klondike--><g id="elem_Klondike"><rect codeLine="3" fill="#F1F1F1" height="48" id="Klondike" rx="2.5" ry="2.5" style="stroke:#181818;stroke-width:0.5;" width="95" x="518.5" y="44.2969"/><ellipse cx="533.5" cy="60.2969" fill="#ADD1B2" rx="11" ry="11" style="stroke:#181818;stroke-width:1.0;"/><path d="M535.8438,55.9688 C534.9063,55.5313 534.3125,55.3906 533.4375,55.3906 C530.8125,55.3906 528.8125,57.4688 528.8125,60.1875 L528.8125,61.3125 C528.8125,63.8906 530.9219,65.7813 533.8125,65.7813 C535.0313,65.7813 536.1875,65.4844 536.9375,64.9375 C537.5156,64.5313 537.8438,64.0781 537.8438,63.6875 C537.8438,63.2344 537.4531,62.8438 536.9844,62.8438 C536.7656,62.8438 536.5625,62.9219 536.375,63.1094 C535.9219,63.5938 535.9219,63.5938 535.7344,63.6875 C535.3125,63.9531 534.625,64.0781 533.8594,64.0781 C531.8125,64.0781 530.5156,62.9844 530.5156,61.2813 L530.5156,60.1875 C530.5156,58.4063 531.7656,57.0938 533.5,57.0938 C534.0781,57.0938 534.6875,57.25 535.1563,57.5 C535.6406,57.7813 535.8125,58 535.9063,58.4063 C535.9688,58.8125 536,58.9375 536.1406,59.0625 C536.2813,59.2031 536.5156,59.3125 536.7344,59.3125 C537,59.3125 537.2656,59.1719 537.4375,58.9531 C537.5469,58.7969 537.5781,58.6094 537.5781,58.1875 L537.5781,56.7656 C537.5781,56.3281 537.5625,56.2031 537.4688,56.0469 C537.3125,55.7813 537.0313,55.6406 536.7344,55.6406 C536.4375,55.6406 536.2344,55.7344 536.0156,56.0469 L535.8438,55.9688 Z " fill="#000000"/><text fill="#000000" font-family="sans-serif" font-size="14" lengthAdjust="spacing" textLength="63" x="547.5" y="65.1436">Klondike</text><line style="stroke:#181818;stroke-width:0.5;" x1="519.5" x2="612.5" y1="76.2969" y2="76.2969"/><line style="stroke:#181818;stroke-width:0.5;" x1="519.5" x2="612.5" y1="84.2969" y2="84.2969"/></g><!--MD5=[2cb47ba637a0d19583e6199456f6ad0b]
class Player--><g id="elem_Player"><rect codeLine="4" fill="#F1F1F1" height="48" id="Player" rx="2.5" ry="2.5" style="stroke:#181818;stroke-width:0.5;" width="76" x="419" y="153.2969"/><ellipse cx="434" cy="169.2969" fill="#ADD1B2" rx="11" ry="11" style="stroke:#181818;stroke-width:1.0;"/><path d="M436.3438,164.9688 C435.4063,164.5313 434.8125,164.3906 433.9375,164.3906 C431.3125,164.3906 429.3125,166.4688 429.3125,169.1875 L429.3125,170.3125 C429.3125,172.8906 431.4219,174.7813 434.3125,174.7813 C435.5313,174.7813 436.6875,174.4844 437.4375,173.9375 C438.0156,173.5313 438.3438,173.0781 438.3438,172.6875 C438.3438,172.2344 437.9531,171.8438 437.4844,171.8438 C437.2656,171.8438 437.0625,171.9219 436.875,172.1094 C436.4219,172.5938 436.4219,172.5938 436.2344,172.6875 C435.8125,172.9531 435.125,173.0781 434.3594,173.0781 C432.3125,173.0781 431.0156,171.9844 431.0156,170.2813 L431.0156,169.1875 C431.0156,167.4063 432.2656,166.0938 434,166.0938 C434.5781,166.0938 435.1875,166.25 435.6563,166.5 C436.1406,166.7813 436.3125,167 436.4063,167.4063 C436.4688,167.8125 436.5,167.9375 436.6406,168.0625 C436.7813,168.2031 437.0156,168.3125 437.2344,168.3125 C437.5,168.3125 437.7656,168.1719 437.9375,167.9531 C438.0469,167.7969 438.0781,167.6094 438.0781,167.1875 L438.0781,165.7656 C438.0781,165.3281 438.0625,165.2031 437.9688,165.0469 C437.8125,164.7813 437.5313,164.6406 437.2344,164.6406 C436.9375,164.6406 436.7344,164.7344 436.5156,165.0469 L436.3438,164.9688 Z " fill="#000000"/><text fill="#000000" font-family="sans-serif" font-size="14" lengthAdjust="spacing" textLength="44" x="448" y="174.1436">Player</text><line style="stroke:#181818;stroke-width:0.5;" x1="420" x2="494" y1="185.2969" y2="185.2969"/><line style="stroke:#181818;stroke-width:0.5;" x1="420" x2="494" y1="193.2969" y2="193.2969"/></g><!--MD5=[ad95966b0706fca9a66cca207a930344]
class Playmat--><g id="elem_Playmat"><rect codeLine="5" fill="#F1F1F1" height="48" id="Playmat" rx="2.5" ry="2.5" style="stroke:#181818;stroke-width:0.5;" width="90" x="384" y="529.2969"/><ellipse cx="399" cy="545.2969" fill="#ADD1B2" rx="11" ry="11" style="stroke:#181818;stroke-width:1.0;"/><path d="M401.3438,540.9688 C400.4063,540.5313 399.8125,540.3906 398.9375,540.3906 C396.3125,540.3906 394.3125,542.4688 394.3125,545.1875 L394.3125,546.3125 C394.3125,548.8906 396.4219,550.7813 399.3125,550.7813 C400.5313,550.7813 401.6875,550.4844 402.4375,549.9375 C403.0156,549.5313 403.3438,549.0781 403.3438,548.6875 C403.3438,548.2344 402.9531,547.8438 402.4844,547.8438 C402.2656,547.8438 402.0625,547.9219 401.875,548.1094 C401.4219,548.5938 401.4219,548.5938 401.2344,548.6875 C400.8125,548.9531 400.125,549.0781 399.3594,549.0781 C397.3125,549.0781 396.0156,547.9844 396.0156,546.2813 L396.0156,545.1875 C396.0156,543.4063 397.2656,542.0938 399,542.0938 C399.5781,542.0938 400.1875,542.25 400.6563,542.5 C401.1406,542.7813 401.3125,543 401.4063,543.4063 C401.4688,543.8125 401.5,543.9375 401.6406,544.0625 C401.7813,544.2031 402.0156,544.3125 402.2344,544.3125 C402.5,544.3125 402.7656,544.1719 402.9375,543.9531 C403.0469,543.7969 403.0781,543.6094 403.0781,543.1875 L403.0781,541.7656 C403.0781,541.3281 403.0625,541.2031 402.9688,541.0469 C402.8125,540.7813 402.5313,540.6406 402.2344,540.6406 C401.9375,540.6406 401.7344,540.7344 401.5156,541.0469 L401.3438,540.9688 Z " fill="#000000"/><text fill="#000000" font-family="sans-serif" font-size="14" lengthAdjust="spacing" textLength="58" x="413" y="550.1436">Playmat</text><line style="stroke:#181818;stroke-width:0.5;" x1="385" x2="473" y1="561.2969" y2="561.2969"/><line style="stroke:#181818;stroke-width:0.5;" x1="385" x2="473" y1="569.2969" y2="569.2969"/></g><!--MD5=[30299a58ba6b78debaaed5ddbb42f29a]
class Deck--><g id="elem_Deck"><rect codeLine="6" fill="#F1F1F1" height="48" id="Deck" rx="2.5" ry="2.5" style="stroke:#181818;stroke-width:0.5;" width="69" x="576.5" y="788.2969"/><ellipse cx="591.5" cy="804.2969" fill="#ADD1B2" rx="11" ry="11" style="stroke:#181818;stroke-width:1.0;"/><path d="M593.8438,799.9688 C592.9063,799.5313 592.3125,799.3906 591.4375,799.3906 C588.8125,799.3906 586.8125,801.4688 586.8125,804.1875 L586.8125,805.3125 C586.8125,807.8906 588.9219,809.7813 591.8125,809.7813 C593.0313,809.7813 594.1875,809.4844 594.9375,808.9375 C595.5156,808.5313 595.8438,808.0781 595.8438,807.6875 C595.8438,807.2344 595.4531,806.8438 594.9844,806.8438 C594.7656,806.8438 594.5625,806.9219 594.375,807.1094 C593.9219,807.5938 593.9219,807.5938 593.7344,807.6875 C593.3125,807.9531 592.625,808.0781 591.8594,808.0781 C589.8125,808.0781 588.5156,806.9844 588.5156,805.2813 L588.5156,804.1875 C588.5156,802.4063 589.7656,801.0938 591.5,801.0938 C592.0781,801.0938 592.6875,801.25 593.1563,801.5 C593.6406,801.7813 593.8125,802 593.9063,802.4063 C593.9688,802.8125 594,802.9375 594.1406,803.0625 C594.2813,803.2031 594.5156,803.3125 594.7344,803.3125 C595,803.3125 595.2656,803.1719 595.4375,802.9531 C595.5469,802.7969 595.5781,802.6094 595.5781,802.1875 L595.5781,800.7656 C595.5781,800.3281 595.5625,800.2031 595.4688,800.0469 C595.3125,799.7813 595.0313,799.6406 594.7344,799.6406 C594.4375,799.6406 594.2344,799.7344 594.0156,800.0469 L593.8438,799.9688 Z " fill="#000000"/><text fill="#000000" font-family="sans-serif" font-size="14" lengthAdjust="spacing" textLength="37" x="605.5" y="809.1436">Deck</text><line style="stroke:#181818;stroke-width:0.5;" x1="577.5" x2="644.5" y1="820.2969" y2="820.2969"/><line style="stroke:#181818;stroke-width:0.5;" x1="577.5" x2="644.5" y1="828.2969" y2="828.2969"/></g><!--MD5=[0992d3fdc9d3d7c02b735131bb70871d]
class Goal--><g id="elem_Goal"><rect codeLine="7" fill="#F1F1F1" height="48" id="Goal" rx="2.5" ry="2.5" style="stroke:#181818;stroke-width:0.5;" width="64" x="340" y="262.2969"/><ellipse cx="355" cy="278.2969" fill="#ADD1B2" rx="11" ry="11" style="stroke:#181818;stroke-width:1.0;"/><path d="M357.3438,273.9688 C356.4063,273.5313 355.8125,273.3906 354.9375,273.3906 C352.3125,273.3906 350.3125,275.4688 350.3125,278.1875 L350.3125,279.3125 C350.3125,281.8906 352.4219,283.7813 355.3125,283.7813 C356.5313,283.7813 357.6875,283.4844 358.4375,282.9375 C359.0156,282.5313 359.3438,282.0781 359.3438,281.6875 C359.3438,281.2344 358.9531,280.8438 358.4844,280.8438 C358.2656,280.8438 358.0625,280.9219 357.875,281.1094 C357.4219,281.5938 357.4219,281.5938 357.2344,281.6875 C356.8125,281.9531 356.125,282.0781 355.3594,282.0781 C353.3125,282.0781 352.0156,280.9844 352.0156,279.2813 L352.0156,278.1875 C352.0156,276.4063 353.2656,275.0938 355,275.0938 C355.5781,275.0938 356.1875,275.25 356.6563,275.5 C357.1406,275.7813 357.3125,276 357.4063,276.4063 C357.4688,276.8125 357.5,276.9375 357.6406,277.0625 C357.7813,277.2031 358.0156,277.3125 358.2344,277.3125 C358.5,277.3125 358.7656,277.1719 358.9375,276.9531 C359.0469,276.7969 359.0781,276.6094 359.0781,276.1875 L359.0781,274.7656 C359.0781,274.3281 359.0625,274.2031 358.9688,274.0469 C358.8125,273.7813 358.5313,273.6406 358.2344,273.6406 C357.9375,273.6406 357.7344,273.7344 357.5156,274.0469 L357.3438,273.9688 Z " fill="#000000"/><text fill="#000000" font-family="sans-serif" font-size="14" lengthAdjust="spacing" textLength="32" x="369" y="283.1436">Goal</text><line style="stroke:#181818;stroke-width:0.5;" x1="341" x2="403" y1="294.2969" y2="294.2969"/><line style="stroke:#181818;stroke-width:0.5;" x1="341" x2="403" y1="302.2969" y2="302.2969"/></g><!--MD5=[a4cb0f987c11031dc931233a0e7767af]
class Stock--><g id="elem_Stock"><rect codeLine="8" fill="#F1F1F1" height="64.2969" id="Stock" rx="2.5" ry="2.5" style="stroke:#181818;stroke-width:0.5;" width="151" x="154.5" y="780.2969"/><ellipse cx="204.75" cy="796.2969" fill="#ADD1B2" rx="11" ry="11" style="stroke:#181818;stroke-width:1.0;"/><path d="M207.0938,791.9688 C206.1563,791.5313 205.5625,791.3906 204.6875,791.3906 C202.0625,791.3906 200.0625,793.4688 200.0625,796.1875 L200.0625,797.3125 C200.0625,799.8906 202.1719,801.7813 205.0625,801.7813 C206.2813,801.7813 207.4375,801.4844 208.1875,800.9375 C208.7656,800.5313 209.0938,800.0781 209.0938,799.6875 C209.0938,799.2344 208.7031,798.8438 208.2344,798.8438 C208.0156,798.8438 207.8125,798.9219 207.625,799.1094 C207.1719,799.5938 207.1719,799.5938 206.9844,799.6875 C206.5625,799.9531 205.875,800.0781 205.1094,800.0781 C203.0625,800.0781 201.7656,798.9844 201.7656,797.2813 L201.7656,796.1875 C201.7656,794.4063 203.0156,793.0938 204.75,793.0938 C205.3281,793.0938 205.9375,793.25 206.4063,793.5 C206.8906,793.7813 207.0625,794 207.1563,794.4063 C207.2188,794.8125 207.25,794.9375 207.3906,795.0625 C207.5313,795.2031 207.7656,795.3125 207.9844,795.3125 C208.25,795.3125 208.5156,795.1719 208.6875,794.9531 C208.7969,794.7969 208.8281,794.6094 208.8281,794.1875 L208.8281,792.7656 C208.8281,792.3281 208.8125,792.2031 208.7188,792.0469 C208.5625,791.7813 208.2813,791.6406 207.9844,791.6406 C207.6875,791.6406 207.4844,791.7344 207.2656,792.0469 L207.0938,791.9688 Z " fill="#000000"/><text fill="#000000" font-family="sans-serif" font-size="14" lengthAdjust="spacing" textLength="42" x="225.25" y="801.1436">Stock</text><line style="stroke:#181818;stroke-width:0.5;" x1="155.5" x2="304.5" y1="812.2969" y2="812.2969"/><text fill="#000000" font-family="sans-serif" font-size="14" lengthAdjust="spacing" text-decoration="underline" textLength="139" x="160.5" y="829.292">maxCards = 52 : int</text><line style="stroke:#181818;stroke-width:0.5;" x1="155.5" x2="304.5" y1="836.5938" y2="836.5938"/></g><!--MD5=[d01ad859d436f6e28b36a553834670aa]
class Foundation--><g id="elem_Foundation"><rect codeLine="11" fill="#F1F1F1" height="48" id="Foundation" rx="2.5" ry="2.5" style="stroke:#181818;stroke-width:0.5;" width="112" x="7" y="788.2969"/><ellipse cx="22" cy="804.2969" fill="#ADD1B2" rx="11" ry="11" style="stroke:#181818;stroke-width:1.0;"/><path d="M24.3438,799.9688 C23.4063,799.5313 22.8125,799.3906 21.9375,799.3906 C19.3125,799.3906 17.3125,801.4688 17.3125,804.1875 L17.3125,805.3125 C17.3125,807.8906 19.4219,809.7813 22.3125,809.7813 C23.5313,809.7813 24.6875,809.4844 25.4375,808.9375 C26.0156,808.5313 26.3438,808.0781 26.3438,807.6875 C26.3438,807.2344 25.9531,806.8438 25.4844,806.8438 C25.2656,806.8438 25.0625,806.9219 24.875,807.1094 C24.4219,807.5938 24.4219,807.5938 24.2344,807.6875 C23.8125,807.9531 23.125,808.0781 22.3594,808.0781 C20.3125,808.0781 19.0156,806.9844 19.0156,805.2813 L19.0156,804.1875 C19.0156,802.4063 20.2656,801.0938 22,801.0938 C22.5781,801.0938 23.1875,801.25 23.6563,801.5 C24.1406,801.7813 24.3125,802 24.4063,802.4063 C24.4688,802.8125 24.5,802.9375 24.6406,803.0625 C24.7813,803.2031 25.0156,803.3125 25.2344,803.3125 C25.5,803.3125 25.7656,803.1719 25.9375,802.9531 C26.0469,802.7969 26.0781,802.6094 26.0781,802.1875 L26.0781,800.7656 C26.0781,800.3281 26.0625,800.2031 25.9688,800.0469 C25.8125,799.7813 25.5313,799.6406 25.2344,799.6406 C24.9375,799.6406 24.7344,799.7344 24.5156,800.0469 L24.3438,799.9688 Z " fill="#000000"/><text fill="#000000" font-family="sans-serif" font-size="14" lengthAdjust="spacing" textLength="80" x="36" y="809.1436">Foundation</text><line style="stroke:#181818;stroke-width:0.5;" x1="8" x2="118" y1="820.2969" y2="820.2969"/><line style="stroke:#181818;stroke-width:0.5;" x1="8" x2="118" y1="828.2969" y2="828.2969"/></g><!--MD5=[c033d16283544a66478df33ee92fe5a6]
class Tableau--><g id="elem_Tableau"><rect codeLine="14" fill="#F1F1F1" height="48" id="Tableau" rx="2.5" ry="2.5" style="stroke:#181818;stroke-width:0.5;" width="88" x="341" y="788.2969"/><ellipse cx="356" cy="804.2969" fill="#ADD1B2" rx="11" ry="11" style="stroke:#181818;stroke-width:1.0;"/><path d="M358.3438,799.9688 C357.4063,799.5313 356.8125,799.3906 355.9375,799.3906 C353.3125,799.3906 351.3125,801.4688 351.3125,804.1875 L351.3125,805.3125 C351.3125,807.8906 353.4219,809.7813 356.3125,809.7813 C357.5313,809.7813 358.6875,809.4844 359.4375,808.9375 C360.0156,808.5313 360.3438,808.0781 360.3438,807.6875 C360.3438,807.2344 359.9531,806.8438 359.4844,806.8438 C359.2656,806.8438 359.0625,806.9219 358.875,807.1094 C358.4219,807.5938 358.4219,807.5938 358.2344,807.6875 C357.8125,807.9531 357.125,808.0781 356.3594,808.0781 C354.3125,808.0781 353.0156,806.9844 353.0156,805.2813 L353.0156,804.1875 C353.0156,802.4063 354.2656,801.0938 356,801.0938 C356.5781,801.0938 357.1875,801.25 357.6563,801.5 C358.1406,801.7813 358.3125,802 358.4063,802.4063 C358.4688,802.8125 358.5,802.9375 358.6406,803.0625 C358.7813,803.2031 359.0156,803.3125 359.2344,803.3125 C359.5,803.3125 359.7656,803.1719 359.9375,802.9531 C360.0469,802.7969 360.0781,802.6094 360.0781,802.1875 L360.0781,800.7656 C360.0781,800.3281 360.0625,800.2031 359.9688,800.0469 C359.8125,799.7813 359.5313,799.6406 359.2344,799.6406 C358.9375,799.6406 358.7344,799.7344 358.5156,800.0469 L358.3438,799.9688 Z " fill="#000000"/><text fill="#000000" font-family="sans-serif" font-size="14" lengthAdjust="spacing" textLength="56" x="370" y="809.1436">Tableau</text><line style="stroke:#181818;stroke-width:0.5;" x1="342" x2="428" y1="820.2969" y2="820.2969"/><line style="stroke:#181818;stroke-width:0.5;" x1="342" x2="428" y1="828.2969" y2="828.2969"/></g><!--MD5=[c3c256aac7e3870d53c0042288b21bdc]
class Waste--><g id="elem_Waste"><rect codeLine="17" fill="#F1F1F1" height="48" id="Waste" rx="2.5" ry="2.5" style="stroke:#181818;stroke-width:0.5;" width="77" x="464.5" y="788.2969"/><ellipse cx="479.5" cy="804.2969" fill="#ADD1B2" rx="11" ry="11" style="stroke:#181818;stroke-width:1.0;"/><path d="M481.8438,799.9688 C480.9063,799.5313 480.3125,799.3906 479.4375,799.3906 C476.8125,799.3906 474.8125,801.4688 474.8125,804.1875 L474.8125,805.3125 C474.8125,807.8906 476.9219,809.7813 479.8125,809.7813 C481.0313,809.7813 482.1875,809.4844 482.9375,808.9375 C483.5156,808.5313 483.8438,808.0781 483.8438,807.6875 C483.8438,807.2344 483.4531,806.8438 482.9844,806.8438 C482.7656,806.8438 482.5625,806.9219 482.375,807.1094 C481.9219,807.5938 481.9219,807.5938 481.7344,807.6875 C481.3125,807.9531 480.625,808.0781 479.8594,808.0781 C477.8125,808.0781 476.5156,806.9844 476.5156,805.2813 L476.5156,804.1875 C476.5156,802.4063 477.7656,801.0938 479.5,801.0938 C480.0781,801.0938 480.6875,801.25 481.1563,801.5 C481.6406,801.7813 481.8125,802 481.9063,802.4063 C481.9688,802.8125 482,802.9375 482.1406,803.0625 C482.2813,803.2031 482.5156,803.3125 482.7344,803.3125 C483,803.3125 483.2656,803.1719 483.4375,802.9531 C483.5469,802.7969 483.5781,802.6094 483.5781,802.1875 L483.5781,800.7656 C483.5781,800.3281 483.5625,800.2031 483.4688,800.0469 C483.3125,799.7813 483.0313,799.6406 482.7344,799.6406 C482.4375,799.6406 482.2344,799.7344 482.0156,800.0469 L481.8438,799.9688 Z " fill="#000000"/><text fill="#000000" font-family="sans-serif" font-size="14" lengthAdjust="spacing" textLength="45" x="493.5" y="809.1436">Waste</text><line style="stroke:#181818;stroke-width:0.5;" x1="465.5" x2="540.5" y1="820.2969" y2="820.2969"/><line style="stroke:#181818;stroke-width:0.5;" x1="465.5" x2="540.5" y1="828.2969" y2="828.2969"/></g><!--MD5=[5e305716458bbdabbd2d7f572ed2bae2]
class Card--><g id="elem_Card"><rect codeLine="20" fill="#F1F1F1" height="96.8906" id="Card" rx="2.5" ry="2.5" style="stroke:#181818;stroke-width:0.5;" width="177" x="522.5" y="905.2969"/><ellipse cx="590.25" cy="921.2969" fill="#ADD1B2" rx="11" ry="11" style="stroke:#181818;stroke-width:1.0;"/><path d="M592.5938,916.9688 C591.6563,916.5313 591.0625,916.3906 590.1875,916.3906 C587.5625,916.3906 585.5625,918.4688 585.5625,921.1875 L585.5625,922.3125 C585.5625,924.8906 587.6719,926.7813 590.5625,926.7813 C591.7813,926.7813 592.9375,926.4844 593.6875,925.9375 C594.2656,925.5313 594.5938,925.0781 594.5938,924.6875 C594.5938,924.2344 594.2031,923.8438 593.7344,923.8438 C593.5156,923.8438 593.3125,923.9219 593.125,924.1094 C592.6719,924.5938 592.6719,924.5938 592.4844,924.6875 C592.0625,924.9531 591.375,925.0781 590.6094,925.0781 C588.5625,925.0781 587.2656,923.9844 587.2656,922.2813 L587.2656,921.1875 C587.2656,919.4063 588.5156,918.0938 590.25,918.0938 C590.8281,918.0938 591.4375,918.25 591.9063,918.5 C592.3906,918.7813 592.5625,919 592.6563,919.4063 C592.7188,919.8125 592.75,919.9375 592.8906,920.0625 C593.0313,920.2031 593.2656,920.3125 593.4844,920.3125 C593.75,920.3125 594.0156,920.1719 594.1875,919.9531 C594.2969,919.7969 594.3281,919.6094 594.3281,919.1875 L594.3281,917.7656 C594.3281,917.3281 594.3125,917.2031 594.2188,917.0469 C594.0625,916.7813 593.7813,916.6406 593.4844,916.6406 C593.1875,916.6406 592.9844,916.7344 592.7656,917.0469 L592.5938,916.9688 Z " fill="#000000"/><text fill="#000000" font-family="sans-serif" font-size="14" lengthAdjust="spacing" textLength="33" x="610.75" y="926.1436">Card</text><line style="stroke:#181818;stroke-width:0.5;" x1="523.5" x2="698.5" y1="937.2969" y2="937.2969"/><rect fill="none" height="6" style="stroke:#C82930;stroke-width:1.0;" width="6" x="530.5" y="945.2969"/><text fill="#000000" font-family="sans-serif" font-size="14" lengthAdjust="spacing" textLength="81" x="542.5" y="954.292">rank : Rank</text><rect fill="none" height="6" style="stroke:#C82930;stroke-width:1.0;" width="6" x="530.5" y="961.5938"/><text fill="#000000" font-family="sans-serif" font-size="14" lengthAdjust="spacing" textLength="67" x="542.5" y="970.5889">suit : Suit</text><rect fill="none" height="6" style="stroke:#C82930;stroke-width:1.0;" width="6" x="530.5" y="977.8906"/><text fill="#000000" font-family="sans-serif" font-size="14" lengthAdjust="spacing" textLength="151" x="542.5" y="986.8857">IsTurnedUp : boolean</text><line style="stroke:#181818;stroke-width:0.5;" x1="523.5" x2="698.5" y1="994.1875" y2="994.1875"/></g><!--MD5=[9d65f55e1ae89a5b4cf38812aa4a03f3]
class Pile--><g id="elem_Pile"><rect codeLine="25" fill="#F1F1F1" height="80.5938" id="Pile" rx="2.5" ry="2.5" style="stroke:#181818;stroke-width:0.5;" width="178" x="296" y="638.2969"/><ellipse cx="368.25" cy="654.2969" fill="#A9DCDF" rx="11" ry="11" style="stroke:#181818;stroke-width:1.0;"/><path d="M370.3281,656.1094 L370.7188,657.0938 L370.3281,657.0938 C369.875,657.0938 369.7656,657.1094 369.6094,657.2188 C369.3594,657.375 369.2031,657.6563 369.2031,657.9531 C369.2031,658.2188 369.3438,658.4688 369.5625,658.625 C369.7031,658.75 369.9063,658.7969 370.3281,658.7969 L372.6875,658.7969 C373.0469,658.7969 373.2656,658.7656 373.4063,658.6719 C373.6563,658.5313 373.8125,658.2344 373.8125,657.9531 C373.8125,657.6719 373.6719,657.4219 373.4531,657.2656 C373.2813,657.125 373.125,657.0938 372.6563,657.0938 L369.2656,648.8906 L365.5938,648.8906 C365.1406,648.8906 365.0156,648.9063 364.8594,649 C364.6094,649.1719 364.4531,649.4531 364.4531,649.7344 C364.4531,650.0156 364.5938,650.2656 364.8125,650.4375 C364.9844,650.5469 365.1563,650.5781 365.5938,650.5781 L366.6719,650.5781 L364.0313,657.0938 C363.6094,657.0938 363.4531,657.1094 363.2969,657.2188 C363.0469,657.375 362.8906,657.6563 362.8906,657.9531 C362.8906,658.5156 363.2656,658.7969 364.0156,658.7969 L366.2813,658.7969 C366.6406,658.7969 366.8594,658.7656 366.9844,658.6719 C367.25,658.5313 367.3906,658.2344 367.3906,657.9531 C367.3906,657.6719 367.2656,657.4219 367.0469,657.25 C366.875,657.125 366.7344,657.0938 366.2813,657.0938 L365.8906,657.0938 L366.2813,656.1094 L370.3281,656.1094 Z M369.625,654.4063 L366.9531,654.4063 L368.2969,651.1406 L369.625,654.4063 Z " fill="#000000"/><text fill="#000000" font-family="sans-serif" font-size="14" font-style="italic" lengthAdjust="spacing" textLength="25" x="388.75" y="659.1436">Pile</text><line style="stroke:#181818;stroke-width:0.5;" x1="297" x2="473" y1="670.2969" y2="670.2969"/><rect fill="none" height="6" style="stroke:#C82930;stroke-width:1.0;" width="6" x="304" y="678.2969"/><text fill="#000000" font-family="sans-serif" font-size="14" lengthAdjust="spacing" textLength="96" x="316" y="687.292">cardList : List</text><line style="stroke:#181818;stroke-width:0.5;" x1="297" x2="473" y1="694.5938" y2="694.5938"/><polygon fill="#FFFF44" points="307,700.5938,311,704.5938,307,708.5938,303,704.5938" style="stroke:#B38D22;stroke-width:1.0;"/><text fill="#000000" font-family="sans-serif" font-size="14" lengthAdjust="spacing" textLength="152" x="316" y="711.5889">validMove() : boolean</text></g><!--MD5=[8afaa0cc9be9ac1cdc24999fa1642fa3]
class Suit--><g id="elem_Suit"><rect codeLine="29" fill="#F1F1F1" height="64.2969" id="Suit" rx="2.5" ry="2.5" style="stroke:#181818;stroke-width:0.5;" width="109" x="463.5" y="1161.2969"/><ellipse cx="501" cy="1177.2969" fill="#A9DCDF" rx="11" ry="11" style="stroke:#181818;stroke-width:1.0;"/><path d="M503.0781,1179.1094 L503.4688,1180.0938 L503.0781,1180.0938 C502.625,1180.0938 502.5156,1180.1094 502.3594,1180.2188 C502.1094,1180.375 501.9531,1180.6563 501.9531,1180.9531 C501.9531,1181.2188 502.0938,1181.4688 502.3125,1181.625 C502.4531,1181.75 502.6563,1181.7969 503.0781,1181.7969 L505.4375,1181.7969 C505.7969,1181.7969 506.0156,1181.7656 506.1563,1181.6719 C506.4063,1181.5313 506.5625,1181.2344 506.5625,1180.9531 C506.5625,1180.6719 506.4219,1180.4219 506.2031,1180.2656 C506.0313,1180.125 505.875,1180.0938 505.4063,1180.0938 L502.0156,1171.8906 L498.3438,1171.8906 C497.8906,1171.8906 497.7656,1171.9063 497.6094,1172 C497.3594,1172.1719 497.2031,1172.4531 497.2031,1172.7344 C497.2031,1173.0156 497.3438,1173.2656 497.5625,1173.4375 C497.7344,1173.5469 497.9063,1173.5781 498.3438,1173.5781 L499.4219,1173.5781 L496.7813,1180.0938 C496.3594,1180.0938 496.2031,1180.1094 496.0469,1180.2188 C495.7969,1180.375 495.6406,1180.6563 495.6406,1180.9531 C495.6406,1181.5156 496.0156,1181.7969 496.7656,1181.7969 L499.0313,1181.7969 C499.3906,1181.7969 499.6094,1181.7656 499.7344,1181.6719 C500,1181.5313 500.1406,1181.2344 500.1406,1180.9531 C500.1406,1180.6719 500.0156,1180.4219 499.7969,1180.25 C499.625,1180.125 499.4844,1180.0938 499.0313,1180.0938 L498.6406,1180.0938 L499.0313,1179.1094 L503.0781,1179.1094 Z M502.375,1177.4063 L499.7031,1177.4063 L501.0469,1174.1406 L502.375,1177.4063 Z " fill="#000000"/><text fill="#000000" font-family="sans-serif" font-size="14" font-style="italic" lengthAdjust="spacing" textLength="27" x="520" y="1182.1436">Suit</text><line style="stroke:#181818;stroke-width:0.5;" x1="464.5" x2="571.5" y1="1193.2969" y2="1193.2969"/><rect fill="none" height="6" style="stroke:#C82930;stroke-width:1.0;" width="6" x="471.5" y="1201.2969"/><text fill="#000000" font-family="sans-serif" font-size="14" lengthAdjust="spacing" textLength="83" x="483.5" y="1210.292">color :Color</text><line style="stroke:#181818;stroke-width:0.5;" x1="464.5" x2="571.5" y1="1217.5938" y2="1217.5938"/></g><!--MD5=[1981719fa3982d92ef7fd3f06d73b3e7]
class Move--><g id="elem_Move"><rect codeLine="32" fill="#F1F1F1" height="96.8906" id="Move" rx="2.5" ry="2.5" style="stroke:#181818;stroke-width:0.5;" width="147" x="364.5" y="371.2969"/><ellipse cx="414.75" cy="387.2969" fill="#ADD1B2" rx="11" ry="11" style="stroke:#181818;stroke-width:1.0;"/><path d="M417.0938,382.9688 C416.1563,382.5313 415.5625,382.3906 414.6875,382.3906 C412.0625,382.3906 410.0625,384.4688 410.0625,387.1875 L410.0625,388.3125 C410.0625,390.8906 412.1719,392.7813 415.0625,392.7813 C416.2813,392.7813 417.4375,392.4844 418.1875,391.9375 C418.7656,391.5313 419.0938,391.0781 419.0938,390.6875 C419.0938,390.2344 418.7031,389.8438 418.2344,389.8438 C418.0156,389.8438 417.8125,389.9219 417.625,390.1094 C417.1719,390.5938 417.1719,390.5938 416.9844,390.6875 C416.5625,390.9531 415.875,391.0781 415.1094,391.0781 C413.0625,391.0781 411.7656,389.9844 411.7656,388.2813 L411.7656,387.1875 C411.7656,385.4063 413.0156,384.0938 414.75,384.0938 C415.3281,384.0938 415.9375,384.25 416.4063,384.5 C416.8906,384.7813 417.0625,385 417.1563,385.4063 C417.2188,385.8125 417.25,385.9375 417.3906,386.0625 C417.5313,386.2031 417.7656,386.3125 417.9844,386.3125 C418.25,386.3125 418.5156,386.1719 418.6875,385.9531 C418.7969,385.7969 418.8281,385.6094 418.8281,385.1875 L418.8281,383.7656 C418.8281,383.3281 418.8125,383.2031 418.7188,383.0469 C418.5625,382.7813 418.2813,382.6406 417.9844,382.6406 C417.6875,382.6406 417.4844,382.7344 417.2656,383.0469 L417.0938,382.9688 Z " fill="#000000"/><text fill="#000000" font-family="sans-serif" font-size="14" lengthAdjust="spacing" textLength="38" x="435.25" y="392.1436">Move</text><line style="stroke:#181818;stroke-width:0.5;" x1="365.5" x2="510.5" y1="403.2969" y2="403.2969"/><rect fill="none" height="6" style="stroke:#C82930;stroke-width:1.0;" width="6" x="372.5" y="411.2969"/><text fill="#000000" font-family="sans-serif" font-size="14" lengthAdjust="spacing" textLength="80" x="384.5" y="420.292">origin : Pile</text><rect fill="none" height="6" style="stroke:#C82930;stroke-width:1.0;" width="6" x="372.5" y="427.5938"/><text fill="#000000" font-family="sans-serif" font-size="14" lengthAdjust="spacing" textLength="103" x="384.5" y="436.5889">cardList : Card</text><rect fill="none" height="6" style="stroke:#C82930;stroke-width:1.0;" width="6" x="372.5" y="443.8906"/><text fill="#000000" font-family="sans-serif" font-size="14" lengthAdjust="spacing" textLength="121" x="384.5" y="452.8857">destination : Pile</text><line style="stroke:#181818;stroke-width:0.5;" x1="365.5" x2="510.5" y1="460.1875" y2="460.1875"/></g><!--MD5=[18eee71c88ab61f27581b8cbdd3ef5ee]
class Color--><g id="elem_Color"><rect codeLine="37" fill="#F1F1F1" height="80.5938" id="Color" rx="2.5" ry="2.5" style="stroke:#181818;stroke-width:0.5;" width="70" x="275" y="1384.2969"/><ellipse cx="290" cy="1400.2969" fill="#EB937F" rx="11" ry="11" style="stroke:#181818;stroke-width:1.0;"/><path d="M288.7969,1401.1719 L290.25,1401.1719 L290.25,1401.2813 C290.25,1401.6875 290.2813,1401.8438 290.3594,1402 C290.5156,1402.25 290.7969,1402.4063 291.0938,1402.4063 C291.3438,1402.4063 291.6094,1402.2656 291.7656,1402.0469 C291.8906,1401.8906 291.9219,1401.7344 291.9219,1401.2813 L291.9219,1399.3594 C291.9219,1399.2031 291.9219,1399.1563 291.9063,1399 C291.8438,1398.5313 291.5313,1398.2188 291.0781,1398.2188 C290.8281,1398.2188 290.5625,1398.3594 290.3906,1398.5781 C290.2813,1398.75 290.25,1398.9063 290.25,1399.3594 L290.25,1399.4844 L288.7969,1399.4844 L288.7969,1397.0781 L292.7813,1397.0781 L292.7813,1397.9375 C292.7813,1398.3438 292.8125,1398.5156 292.8906,1398.6719 C293.0625,1398.9219 293.3438,1399.0781 293.625,1399.0781 C293.8906,1399.0781 294.1563,1398.9375 294.3281,1398.7188 C294.4375,1398.5469 294.4688,1398.4063 294.4688,1397.9375 L294.4688,1395.3906 L286.8438,1395.3906 C286.4063,1395.3906 286.2813,1395.4063 286.125,1395.5 C285.875,1395.6563 285.7188,1395.9531 285.7188,1396.2344 C285.7188,1396.5156 285.8594,1396.7656 286.0781,1396.9375 C286.2344,1397.0469 286.4219,1397.0781 286.8438,1397.0781 L287.0938,1397.0781 L287.0938,1403.5938 L286.8438,1403.5938 C286.4375,1403.5938 286.2813,1403.6094 286.125,1403.7188 C285.875,1403.8906 285.7188,1404.1563 285.7188,1404.4531 C285.7188,1404.7188 285.8594,1404.9688 286.0781,1405.125 C286.2188,1405.25 286.4531,1405.2969 286.8438,1405.2969 L294.8438,1405.2969 L294.8438,1402.7188 C294.8438,1402.2813 294.8125,1402.1406 294.7344,1401.9844 C294.5625,1401.7344 294.2813,1401.5781 294,1401.5781 C293.7344,1401.5781 293.4688,1401.6875 293.2969,1401.9375 C293.1875,1402.0938 293.1563,1402.2344 293.1563,1402.7188 L293.1563,1403.5938 L288.7969,1403.5938 L288.7969,1401.1719 Z " fill="#000000"/><text fill="#000000" font-family="sans-serif" font-size="14" lengthAdjust="spacing" textLength="38" x="304" y="1405.1436">Color</text><line style="stroke:#181818;stroke-width:0.5;" x1="276" x2="344" y1="1416.2969" y2="1416.2969"/><text fill="#000000" font-family="sans-serif" font-size="14" lengthAdjust="spacing" textLength="30" x="281" y="1433.292">RED</text><text fill="#000000" font-family="sans-serif" font-size="14" lengthAdjust="spacing" textLength="48" x="281" y="1449.5889">BLACK</text><line style="stroke:#181818;stroke-width:0.5;" x1="276" x2="344" y1="1456.8906" y2="1456.8906"/></g><!--MD5=[0f690a215a17a0cf4b9f948ca5dd1b3e]
class Rank--><g id="elem_Rank"><rect codeLine="41" fill="#F1F1F1" height="259.8594" id="Rank" rx="2.5" ry="2.5" style="stroke:#181818;stroke-width:0.5;" width="68" x="608" y="1063.2969"/><ellipse cx="623" cy="1079.2969" fill="#EB937F" rx="11" ry="11" style="stroke:#181818;stroke-width:1.0;"/><path d="M621.7969,1080.1719 L623.25,1080.1719 L623.25,1080.2813 C623.25,1080.6875 623.2813,1080.8438 623.3594,1081 C623.5156,1081.25 623.7969,1081.4063 624.0938,1081.4063 C624.3438,1081.4063 624.6094,1081.2656 624.7656,1081.0469 C624.8906,1080.8906 624.9219,1080.7344 624.9219,1080.2813 L624.9219,1078.3594 C624.9219,1078.2031 624.9219,1078.1563 624.9063,1078 C624.8438,1077.5313 624.5313,1077.2188 624.0781,1077.2188 C623.8281,1077.2188 623.5625,1077.3594 623.3906,1077.5781 C623.2813,1077.75 623.25,1077.9063 623.25,1078.3594 L623.25,1078.4844 L621.7969,1078.4844 L621.7969,1076.0781 L625.7813,1076.0781 L625.7813,1076.9375 C625.7813,1077.3438 625.8125,1077.5156 625.8906,1077.6719 C626.0625,1077.9219 626.3438,1078.0781 626.625,1078.0781 C626.8906,1078.0781 627.1563,1077.9375 627.3281,1077.7188 C627.4375,1077.5469 627.4688,1077.4063 627.4688,1076.9375 L627.4688,1074.3906 L619.8438,1074.3906 C619.4063,1074.3906 619.2813,1074.4063 619.125,1074.5 C618.875,1074.6563 618.7188,1074.9531 618.7188,1075.2344 C618.7188,1075.5156 618.8594,1075.7656 619.0781,1075.9375 C619.2344,1076.0469 619.4219,1076.0781 619.8438,1076.0781 L620.0938,1076.0781 L620.0938,1082.5938 L619.8438,1082.5938 C619.4375,1082.5938 619.2813,1082.6094 619.125,1082.7188 C618.875,1082.8906 618.7188,1083.1563 618.7188,1083.4531 C618.7188,1083.7188 618.8594,1083.9688 619.0781,1084.125 C619.2188,1084.25 619.4531,1084.2969 619.8438,1084.2969 L627.8438,1084.2969 L627.8438,1081.7188 C627.8438,1081.2813 627.8125,1081.1406 627.7344,1080.9844 C627.5625,1080.7344 627.2813,1080.5781 627,1080.5781 C626.7344,1080.5781 626.4688,1080.6875 626.2969,1080.9375 C626.1875,1081.0938 626.1563,1081.2344 626.1563,1081.7188 L626.1563,1082.5938 L621.7969,1082.5938 L621.7969,1080.1719 Z " fill="#000000"/><text fill="#000000" font-family="sans-serif" font-size="14" lengthAdjust="spacing" textLength="36" x="637" y="1084.1436">Rank</text><line style="stroke:#181818;stroke-width:0.5;" x1="609" x2="675" y1="1095.2969" y2="1095.2969"/><text fill="#000000" font-family="sans-serif" font-size="14" lengthAdjust="spacing" textLength="10" x="614" y="1112.292">A</text><text fill="#000000" font-family="sans-serif" font-size="14" lengthAdjust="spacing" textLength="8" x="614" y="1128.5889">2</text><text fill="#000000" font-family="sans-serif" font-size="14" lengthAdjust="spacing" textLength="9" x="614" y="1144.8857">3</text><text fill="#000000" font-family="sans-serif" font-size="14" lengthAdjust="spacing" textLength="8" x="614" y="1161.1826">4</text><text fill="#000000" font-family="sans-serif" font-size="14" lengthAdjust="spacing" textLength="9" x="614" y="1177.4795">5</text><text fill="#000000" font-family="sans-serif" font-size="14" lengthAdjust="spacing" textLength="9" x="614" y="1193.7764">6</text><text fill="#000000" font-family="sans-serif" font-size="14" lengthAdjust="spacing" textLength="9" x="614" y="1210.0732">7</text><text fill="#000000" font-family="sans-serif" font-size="14" lengthAdjust="spacing" textLength="8" x="614" y="1226.3701">8</text><text fill="#000000" font-family="sans-serif" font-size="14" lengthAdjust="spacing" textLength="9" x="614" y="1242.667">9</text><text fill="#000000" font-family="sans-serif" font-size="14" lengthAdjust="spacing" textLength="9" x="614" y="1258.9639">1</text><text fill="#000000" font-family="sans-serif" font-size="14" lengthAdjust="spacing" textLength="4" x="614" y="1275.2607">J</text><text fill="#000000" font-family="sans-serif" font-size="14" lengthAdjust="spacing" textLength="11" x="614" y="1291.5576">Q</text><text fill="#000000" font-family="sans-serif" font-size="14" lengthAdjust="spacing" textLength="10" x="614" y="1307.8545">K</text><line style="stroke:#181818;stroke-width:0.5;" x1="609" x2="675" y1="1315.1563" y2="1315.1563"/></g><!--MD5=[a7ca736ec2eaa3f5c977a8fac7fd0779]
class Club--><g id="elem_Club"><rect fill="#F1F1F1" height="48" id="Club" rx="2.5" ry="2.5" style="stroke:#181818;stroke-width:0.5;" width="64" x="380" y="1400.7969"/><ellipse cx="395" cy="1416.7969" fill="#ADD1B2" rx="11" ry="11" style="stroke:#181818;stroke-width:1.0;"/><path d="M397.3438,1412.4688 C396.4063,1412.0313 395.8125,1411.8906 394.9375,1411.8906 C392.3125,1411.8906 390.3125,1413.9688 390.3125,1416.6875 L390.3125,1417.8125 C390.3125,1420.3906 392.4219,1422.2813 395.3125,1422.2813 C396.5313,1422.2813 397.6875,1421.9844 398.4375,1421.4375 C399.0156,1421.0313 399.3438,1420.5781 399.3438,1420.1875 C399.3438,1419.7344 398.9531,1419.3438 398.4844,1419.3438 C398.2656,1419.3438 398.0625,1419.4219 397.875,1419.6094 C397.4219,1420.0938 397.4219,1420.0938 397.2344,1420.1875 C396.8125,1420.4531 396.125,1420.5781 395.3594,1420.5781 C393.3125,1420.5781 392.0156,1419.4844 392.0156,1417.7813 L392.0156,1416.6875 C392.0156,1414.9063 393.2656,1413.5938 395,1413.5938 C395.5781,1413.5938 396.1875,1413.75 396.6563,1414 C397.1406,1414.2813 397.3125,1414.5 397.4063,1414.9063 C397.4688,1415.3125 397.5,1415.4375 397.6406,1415.5625 C397.7813,1415.7031 398.0156,1415.8125 398.2344,1415.8125 C398.5,1415.8125 398.7656,1415.6719 398.9375,1415.4531 C399.0469,1415.2969 399.0781,1415.1094 399.0781,1414.6875 L399.0781,1413.2656 C399.0781,1412.8281 399.0625,1412.7031 398.9688,1412.5469 C398.8125,1412.2813 398.5313,1412.1406 398.2344,1412.1406 C397.9375,1412.1406 397.7344,1412.2344 397.5156,1412.5469 L397.3438,1412.4688 Z " fill="#000000"/><text fill="#000000" font-family="sans-serif" font-size="14" lengthAdjust="spacing" textLength="32" x="409" y="1421.6436">Club</text><line style="stroke:#181818;stroke-width:0.5;" x1="381" x2="443" y1="1432.7969" y2="1432.7969"/><line style="stroke:#181818;stroke-width:0.5;" x1="381" x2="443" y1="1440.7969" y2="1440.7969"/></g><!--MD5=[e07683d003131b9e2f36793e1d14f746]
class Spade--><g id="elem_Spade"><rect fill="#F1F1F1" height="48" id="Spade" rx="2.5" ry="2.5" style="stroke:#181818;stroke-width:0.5;" width="77" x="479.5" y="1400.7969"/><ellipse cx="494.5" cy="1416.7969" fill="#ADD1B2" rx="11" ry="11" style="stroke:#181818;stroke-width:1.0;"/><path d="M496.8438,1412.4688 C495.9063,1412.0313 495.3125,1411.8906 494.4375,1411.8906 C491.8125,1411.8906 489.8125,1413.9688 489.8125,1416.6875 L489.8125,1417.8125 C489.8125,1420.3906 491.9219,1422.2813 494.8125,1422.2813 C496.0313,1422.2813 497.1875,1421.9844 497.9375,1421.4375 C498.5156,1421.0313 498.8438,1420.5781 498.8438,1420.1875 C498.8438,1419.7344 498.4531,1419.3438 497.9844,1419.3438 C497.7656,1419.3438 497.5625,1419.4219 497.375,1419.6094 C496.9219,1420.0938 496.9219,1420.0938 496.7344,1420.1875 C496.3125,1420.4531 495.625,1420.5781 494.8594,1420.5781 C492.8125,1420.5781 491.5156,1419.4844 491.5156,1417.7813 L491.5156,1416.6875 C491.5156,1414.9063 492.7656,1413.5938 494.5,1413.5938 C495.0781,1413.5938 495.6875,1413.75 496.1563,1414 C496.6406,1414.2813 496.8125,1414.5 496.9063,1414.9063 C496.9688,1415.3125 497,1415.4375 497.1406,1415.5625 C497.2813,1415.7031 497.5156,1415.8125 497.7344,1415.8125 C498,1415.8125 498.2656,1415.6719 498.4375,1415.4531 C498.5469,1415.2969 498.5781,1415.1094 498.5781,1414.6875 L498.5781,1413.2656 C498.5781,1412.8281 498.5625,1412.7031 498.4688,1412.5469 C498.3125,1412.2813 498.0313,1412.1406 497.7344,1412.1406 C497.4375,1412.1406 497.2344,1412.2344 497.0156,1412.5469 L496.8438,1412.4688 Z " fill="#000000"/><text fill="#000000" font-family="sans-serif" font-size="14" lengthAdjust="spacing" textLength="45" x="508.5" y="1421.6436">Spade</text><line style="stroke:#181818;stroke-width:0.5;" x1="480.5" x2="555.5" y1="1432.7969" y2="1432.7969"/><line style="stroke:#181818;stroke-width:0.5;" x1="480.5" x2="555.5" y1="1440.7969" y2="1440.7969"/></g><!--MD5=[c0ff7312a1fc0055a007a9765d4a1220]
class Diamond--><g id="elem_Diamond"><rect fill="#F1F1F1" height="48" id="Diamond" rx="2.5" ry="2.5" style="stroke:#181818;stroke-width:0.5;" width="96" x="592" y="1400.7969"/><ellipse cx="607" cy="1416.7969" fill="#ADD1B2" rx="11" ry="11" style="stroke:#181818;stroke-width:1.0;"/><path d="M609.3438,1412.4688 C608.4063,1412.0313 607.8125,1411.8906 606.9375,1411.8906 C604.3125,1411.8906 602.3125,1413.9688 602.3125,1416.6875 L602.3125,1417.8125 C602.3125,1420.3906 604.4219,1422.2813 607.3125,1422.2813 C608.5313,1422.2813 609.6875,1421.9844 610.4375,1421.4375 C611.0156,1421.0313 611.3438,1420.5781 611.3438,1420.1875 C611.3438,1419.7344 610.9531,1419.3438 610.4844,1419.3438 C610.2656,1419.3438 610.0625,1419.4219 609.875,1419.6094 C609.4219,1420.0938 609.4219,1420.0938 609.2344,1420.1875 C608.8125,1420.4531 608.125,1420.5781 607.3594,1420.5781 C605.3125,1420.5781 604.0156,1419.4844 604.0156,1417.7813 L604.0156,1416.6875 C604.0156,1414.9063 605.2656,1413.5938 607,1413.5938 C607.5781,1413.5938 608.1875,1413.75 608.6563,1414 C609.1406,1414.2813 609.3125,1414.5 609.4063,1414.9063 C609.4688,1415.3125 609.5,1415.4375 609.6406,1415.5625 C609.7813,1415.7031 610.0156,1415.8125 610.2344,1415.8125 C610.5,1415.8125 610.7656,1415.6719 610.9375,1415.4531 C611.0469,1415.2969 611.0781,1415.1094 611.0781,1414.6875 L611.0781,1413.2656 C611.0781,1412.8281 611.0625,1412.7031 610.9688,1412.5469 C610.8125,1412.2813 610.5313,1412.1406 610.2344,1412.1406 C609.9375,1412.1406 609.7344,1412.2344 609.5156,1412.5469 L609.3438,1412.4688 Z " fill="#000000"/><text fill="#000000" font-family="sans-serif" font-size="14" lengthAdjust="spacing" textLength="64" x="621" y="1421.6436">Diamond</text><line style="stroke:#181818;stroke-width:0.5;" x1="593" x2="687" y1="1432.7969" y2="1432.7969"/><line style="stroke:#181818;stroke-width:0.5;" x1="593" x2="687" y1="1440.7969" y2="1440.7969"/></g><!--MD5=[9bb5813e59df3e2529d11a5afaed7800]
class Heart--><g id="elem_Heart"><rect fill="#F1F1F1" height="48" id="Heart" rx="2.5" ry="2.5" style="stroke:#181818;stroke-width:0.5;" width="72" x="723" y="1400.7969"/><ellipse cx="738" cy="1416.7969" fill="#ADD1B2" rx="11" ry="11" style="stroke:#181818;stroke-width:1.0;"/><path d="M740.3438,1412.4688 C739.4063,1412.0313 738.8125,1411.8906 737.9375,1411.8906 C735.3125,1411.8906 733.3125,1413.9688 733.3125,1416.6875 L733.3125,1417.8125 C733.3125,1420.3906 735.4219,1422.2813 738.3125,1422.2813 C739.5313,1422.2813 740.6875,1421.9844 741.4375,1421.4375 C742.0156,1421.0313 742.3438,1420.5781 742.3438,1420.1875 C742.3438,1419.7344 741.9531,1419.3438 741.4844,1419.3438 C741.2656,1419.3438 741.0625,1419.4219 740.875,1419.6094 C740.4219,1420.0938 740.4219,1420.0938 740.2344,1420.1875 C739.8125,1420.4531 739.125,1420.5781 738.3594,1420.5781 C736.3125,1420.5781 735.0156,1419.4844 735.0156,1417.7813 L735.0156,1416.6875 C735.0156,1414.9063 736.2656,1413.5938 738,1413.5938 C738.5781,1413.5938 739.1875,1413.75 739.6563,1414 C740.1406,1414.2813 740.3125,1414.5 740.4063,1414.9063 C740.4688,1415.3125 740.5,1415.4375 740.6406,1415.5625 C740.7813,1415.7031 741.0156,1415.8125 741.2344,1415.8125 C741.5,1415.8125 741.7656,1415.6719 741.9375,1415.4531 C742.0469,1415.2969 742.0781,1415.1094 742.0781,1414.6875 L742.0781,1413.2656 C742.0781,1412.8281 742.0625,1412.7031 741.9688,1412.5469 C741.8125,1412.2813 741.5313,1412.1406 741.2344,1412.1406 C740.9375,1412.1406 740.7344,1412.2344 740.5156,1412.5469 L740.3438,1412.4688 Z " fill="#000000"/><text fill="#000000" font-family="sans-serif" font-size="14" lengthAdjust="spacing" textLength="40" x="752" y="1421.6436">Heart</text><line style="stroke:#181818;stroke-width:0.5;" x1="724" x2="794" y1="1432.7969" y2="1432.7969"/><line style="stroke:#181818;stroke-width:0.5;" x1="724" x2="794" y1="1440.7969" y2="1440.7969"/></g><!--MD5=[d0e37a71a001f6053d69fd29d330fd4f]
link Klondike to Player--><g id="link_Klondike_Player"><path codeLine="57" d="M533.7882,100.926 C533.7882,100.926 503.61,130.5469 490.048,143.8569 " fill="none" id="Klondike-Player" style="stroke:#181818;stroke-width:1.0;"/><polygon fill="#181818" points="480.605,153.1269,489.8313,149.6807,484.1747,149.6258,484.2296,143.9692,480.605,153.1269" style="stroke:#181818;stroke-width:1.0;"/><line style="stroke:#181818;stroke-width:1.0;" x1="484.1747" x2="489.8825" y1="149.6258" y2="144.0169"/><polygon fill="#181818" points="542.349,92.5169,535.2656,93.8678,533.7882,100.926,540.8716,99.575,542.349,92.5169" style="stroke:#181818;stroke-width:1.0;"/></g><!--MD5=[7d7afaf8cc2ad62f66d9fb1ba9e5e8a9]
link Klondike to Deck--><g id="link_Klondike_Deck"><path codeLine="58" d="M601.1225,101.0221 C601.1225,101.0221 637,148.0069 637,176.2969 C637,176.2969 637,176.2969 637,679.7969 C637,712.6939 629.072,749.3559 621.972,775.5939 " fill="none" id="Klondike-Deck" style="stroke:#181818;stroke-width:1.0;"/><polygon fill="#181818" points="618.381,788.2899,624.6796,780.7184,619.7419,783.4786,616.9816,778.5409,618.381,788.2899" style="stroke:#181818;stroke-width:1.0;"/><line style="stroke:#181818;stroke-width:1.0;" x1="619.7419" x2="621.9195" y1="783.4786" y2="775.7804"/><polygon fill="#181818" points="592.842,92.3369,594.0871,99.4397,601.1225,101.0221,599.8773,93.9194,592.842,92.3369" style="stroke:#181818;stroke-width:1.0;"/></g><!--MD5=[c271a9ac9b63afec1b9b138249f1ed9e]
link Klondike to Playmat--><g id="link_Klondike_Playmat"><path codeLine="59" d="M566,104.6769 C566,104.6769 566,152.7869 566,176.2969 C566,176.2969 566,176.2969 566,420.7969 C566,467.8539 523.411,503.3169 485.724,525.4849 " fill="none" id="Klondike-Playmat" style="stroke:#181818;stroke-width:1.0;"/><polygon fill="#181818" points="474.239,531.9359,484.0448,531.0163,478.5985,529.4874,480.1273,524.0411,474.239,531.9359" style="stroke:#181818;stroke-width:1.0;"/><line style="stroke:#181818;stroke-width:1.0;" x1="478.5985" x2="485.573" y1="529.4874" y2="525.5699"/><polygon fill="#181818" points="566,92.6769,562,98.6769,566,104.6769,570,98.6769,566,92.6769" style="stroke:#181818;stroke-width:1.0;"/></g><!--MD5=[c905f1b8e8f3426bca82a4905da2e16e]
link Deck to Card--><g id="link_Deck_Card"><path codeLine="60" d="M611,848.3329 C611,848.3329 611,877.4559 611,891.9969 " fill="none" id="Deck-Card" style="stroke:#181818;stroke-width:1.0;"/><polygon fill="#181818" points="611,905.1269,615,896.1269,611,900.1269,607,896.1269,611,905.1269" style="stroke:#181818;stroke-width:1.0;"/><line style="stroke:#181818;stroke-width:1.0;" x1="611" x2="611" y1="900.1269" y2="892.1269"/><polygon fill="#181818" points="611,836.3329,607,842.3329,611,848.3329,615,842.3329,611,836.3329" style="stroke:#181818;stroke-width:1.0;"/><text fill="#000000" font-family="sans-serif" font-size="13" lengthAdjust="spacing" textLength="16" x="593.875" y="894.3119">52</text></g><!--MD5=[7e30d075c7e28ae86a5e6e748d3cd0b6]
link Player to Move--><g id="link_Player_Move"><path codeLine="61" d="M455.178,201.3569 C452.206,238.9769 446.238,314.5169 442.181,365.8769 " fill="none" id="Player-to-Move" style="stroke:#181818;stroke-width:1.0;stroke-dasharray:7.0,7.0;"/><polygon fill="#181818" points="441.77,371.0769,446.4525,362.4123,442.1558,366.0918,438.4763,361.7951,441.77,371.0769" style="stroke:#181818;stroke-width:1.0;"/></g><!--MD5=[1571e4e0b7cdbae74b04c97a95677c54]
link Player to Goal--><g id="link_Player_Goal"><path codeLine="62" d="M438.556,201.5169 C425.413,218.0569 407.692,240.3669 393.841,257.8069 " fill="none" id="Player-to-Goal" style="stroke:#181818;stroke-width:1.0;"/><polygon fill="#181818" points="390.408,262.1269,399.1416,257.5744,393.521,258.2142,392.8813,252.5936,390.408,262.1269" style="stroke:#181818;stroke-width:1.0;"/></g><!--MD5=[cd0c3954e43c16945db51e1325833371]
link Goal to Foundation--><g id="link_Goal_Foundation"><path codeLine="63" d="M339.801,287.5369 C264.648,289.9469 84,307.3569 84,418.7969 C84,418.7969 84,418.7969 84,679.7969 C84,715.7759 76.2394,756.6079 70.1536,783.0959 " fill="none" id="Goal-to-Foundation" style="stroke:#181818;stroke-width:1.0;"/><polygon fill="#181818" points="68.9616,788.1959,74.9059,780.3431,70.1001,783.3272,67.116,778.5215,68.9616,788.1959" style="stroke:#181818;stroke-width:1.0;"/><text fill="#000000" font-family="sans-serif" font-size="13" lengthAdjust="spacing" textLength="54" x="85" y="557.8638">Complet</text><text fill="#000000" font-family="sans-serif" font-size="13" lengthAdjust="spacing" textLength="8" x="61.4643" y="777.182">4</text></g><!--MD5=[4b1f7a9ffece4d2d0cb1da7affd14ba5]
link Goal to Move--><g id="link_Goal_Move"><path codeLine="64" d="M383.648,310.5069 C391.392,325.9369 401.885,346.8369 411.587,366.1669 " fill="none" id="Goal-to-Move" style="stroke:#181818;stroke-width:1.0;stroke-dasharray:7.0,7.0;"/><polygon fill="#181818" points="414.034,371.0469,413.5717,361.2089,411.7911,366.5782,406.4218,364.7975,414.034,371.0469" style="stroke:#181818;stroke-width:1.0;"/><text fill="#000000" font-family="sans-serif" font-size="13" lengthAdjust="spacing" textLength="8" x="402.1013" y="360.2206">n</text></g><!--MD5=[f81c0a59776e1b7925b84961fffe2b84]
link Move to Deck--><g id="link_Move_Deck"><path codeLine="65" d="M461.89,468.3439 C471.197,487.2149 481.813,509.1779 491,529.2969 C533.071,621.4299 578.926,732.4699 599.675,783.3559 " fill="none" id="Move-to-Deck" style="stroke:#181818;stroke-width:1.0;stroke-dasharray:7.0,7.0;"/><polygon fill="#181818" points="601.604,788.0899,601.9112,778.2458,599.7168,783.4597,594.5029,781.2653,601.604,788.0899" style="stroke:#181818;stroke-width:1.0;"/></g><!--MD5=[42e56c2bcaeee41f3cf38eca74c52657]
link Move to Playmat--><g id="link_Move_Playmat"><path codeLine="66" d="M434.725,468.6439 C433.461,487.1169 432.057,507.6319 430.956,523.7229 " fill="none" id="Move-to-Playmat" style="stroke:#181818;stroke-width:1.0;"/><polygon fill="#181818" points="430.594,528.9999,435.1992,520.294,430.9354,524.0115,427.2179,519.7478,430.594,528.9999" style="stroke:#181818;stroke-width:1.0;"/></g><!--MD5=[9a29ee8244e002eac4030b803ab1ddd0]
link Playmat to Pile--><g id="link_Playmat_Pile"><path codeLine="67" d="M416.6967,588.8299 C416.6967,588.8299 407.811,613.7699 403.511,625.8399 " fill="none" id="Playmat-Pile" style="stroke:#181818;stroke-width:1.0;"/><polygon fill="#181818" points="399.124,638.1529,405.9125,631.0173,400.8021,633.4429,398.3765,628.3324,399.124,638.1529" style="stroke:#181818;stroke-width:1.0;"/><line style="stroke:#181818;stroke-width:1.0;" x1="400.8021" x2="403.487" y1="633.4429" y2="625.9069"/><polygon fill="none" points="420.724,577.5259,414.9423,581.8354,416.6967,588.8299,422.4783,584.5203,420.724,577.5259" style="stroke:#181818;stroke-width:1.0;"/></g><!--MD5=[a3b0419bdb877a6921c502f7ab916277]
reverse link Pile to Stock--><g id="link_Pile_Stock"><path codeLine="69" d="M322.605,732.7319 C303.716,748.7569 283.583,765.8379 266.929,779.9669 " fill="none" id="Pile-backto-Stock" style="stroke:#181818;stroke-width:1.0;"/><polygon fill="none" points="318.295,727.2089,338.074,719.6079,327.352,737.8849,318.295,727.2089" style="stroke:#181818;stroke-width:1.0;"/><text fill="#000000" font-family="sans-serif" font-size="13" lengthAdjust="spacing" textLength="32" x="239.0494" y="769.1761">0..24</text></g><!--MD5=[0cc7312144b7b0e8e85651666602557e]
reverse link Pile to Waste--><g id="link_Pile_Waste"><path codeLine="70" d="M434.143,734.5619 C450.93,753.2699 468.813,773.1979 482.146,788.0569 " fill="none" id="Pile-backto-Waste" style="stroke:#181818;stroke-width:1.0;"/><polygon fill="none" points="428.872,739.1689,420.724,719.6079,439.291,729.8189,428.872,739.1689" style="stroke:#181818;stroke-width:1.0;"/><text fill="#000000" font-family="sans-serif" font-size="13" lengthAdjust="spacing" textLength="32" x="441.1628" y="777.4033">0..24</text></g><!--MD5=[6d28caff8698f66462643c822ec8500b]
reverse link Pile to Foundation--><g id="link_Pile_Foundation"><path codeLine="71" d="M277.11,723.1999 C233.548,740.8069 182.835,761.4099 137,780.2969 C130.818,782.8439 124.353,785.5259 117.928,788.2029 " fill="none" id="Pile-backto-Foundation" style="stroke:#181818;stroke-width:1.0;"/><polygon fill="none" points="274.774,716.5939,295.94,715.5949,280.016,729.5749,274.774,716.5939" style="stroke:#181818;stroke-width:1.0;"/><text fill="#000000" font-family="sans-serif" font-size="13" lengthAdjust="spacing" textLength="8" x="122.9783" y="777.1908">4</text></g><!--MD5=[b0173922ba304e58e67aa3279a656791]
reverse link Pile to Tableau--><g id="link_Pile_Tableau"><path codeLine="72" d="M385,739.6129 C385,756.7979 385,774.5289 385,788.0569 " fill="none" id="Pile-backto-Tableau" style="stroke:#181818;stroke-width:1.0;"/><polygon fill="none" points="378,739.6079,385,719.6079,392,739.6079,378,739.6079" style="stroke:#181818;stroke-width:1.0;"/><text fill="#000000" font-family="sans-serif" font-size="13" lengthAdjust="spacing" textLength="8" x="376.025" y="777.4033">7</text></g><!--MD5=[2fb295418b017cf8d88f7757ed0fe80f]
link Pile to Deck--><g id="link_Pile_Deck"><path codeLine="73" d="M464.5357,725.4286 C464.5357,725.4286 528.587,762.4499 559,780.2969 C561.02,781.4819 563.082,782.6959 565.164,783.9239 " fill="none" id="Pile-Deck" style="stroke:#181818;stroke-width:1.0;"/><polygon fill="#181818" points="576.355,790.5529,570.6501,782.5246,572.0531,788.0047,566.5729,789.4077,576.355,790.5529" style="stroke:#181818;stroke-width:1.0;"/><line style="stroke:#181818;stroke-width:1.0;" x1="572.0531" x2="565.17" y1="788.0047" y2="783.9279"/><polygon fill="none" points="454.138,719.4379,457.3399,725.8991,464.5357,725.4286,461.3337,718.9673,454.138,719.4379" style="stroke:#181818;stroke-width:1.0;"/><text fill="#000000" font-family="sans-serif" font-size="13" lengthAdjust="spacing" textLength="32" x="545.435" y="777.1589">0..52</text></g><!--MD5=[988cd1dee8ea1cf2960e884b4b0ffb8b]
reverse link Suit to Club--><g id="link_Suit_Club"><path codeLine="75" d="M495.041,1244.0059 C472.621,1292.5469 439.493,1364.2709 422.659,1400.7184 " fill="none" id="Suit-backto-Club" style="stroke:#181818;stroke-width:1.0;"/><polygon fill="none" points="488.742,1240.9479,503.483,1225.7269,501.452,1246.8189,488.742,1240.9479" style="stroke:#181818;stroke-width:1.0;"/></g><!--MD5=[87a89b153beae7d393e9829af90018d5]
reverse link Suit to Spade--><g id="link_Suit_Spade"><path codeLine="76" d="M518,1245.9549 C518,1294.4489 518,1364.7559 518,1400.7184 " fill="none" id="Suit-backto-Spade" style="stroke:#181818;stroke-width:1.0;"/><polygon fill="none" points="511,1245.7269,518,1225.7269,525,1245.7269,511,1245.7269" style="stroke:#181818;stroke-width:1.0;"/></g><!--MD5=[1f6eb2bb0d8a343fbbac7006c87fddfb]
reverse link Suit to Diamond--><g id="link_Suit_Diamond"><path codeLine="77" d="M544.253,1243.6829 C570.059,1292.2289 608.314,1364.1899 627.732,1400.7184 " fill="none" id="Suit-backto-Diamond" style="stroke:#181818;stroke-width:1.0;"/><polygon fill="none" points="537.915,1246.6719,534.708,1225.7269,550.277,1240.1009,537.915,1246.6719" style="stroke:#181818;stroke-width:1.0;"/></g><!--MD5=[4dce8a7c926835c26b617333aef55021]
reverse link Suit to Heart--><g id="link_Suit_Heart"><path codeLine="78" d="M537.815,1243.7419 C550.14,1269.8219 568.035,1300.9499 591,1323.2969 C632.464,1363.6459 657.107,1353.3639 706,1384.2969 C713.855,1389.2666 722.046,1395.0459 729.573,1400.6249 " fill="none" id="Suit-backto-Heart" style="stroke:#181818;stroke-width:1.0;"/><polygon fill="none" points="531.401,1246.5459,529.659,1225.4279,544.19,1240.8499,531.401,1246.5459" style="stroke:#181818;stroke-width:1.0;"/></g><!--MD5=[01ae9f68263e6bc4031c0aece6e20929]
link Card to Suit--><g id="link_Card_Suit"><path codeLine="79" d="M587.9168,1013.7469 C587.9168,1013.7469 549.764,1111.1789 535.068,1148.7109 " fill="none" id="Card-Suit" style="stroke:#181818;stroke-width:1.0;"/><polygon fill="#181818" points="530.166,1161.2279,537.173,1154.3068,531.9897,1156.5723,529.7241,1151.3889,530.166,1161.2279" style="stroke:#181818;stroke-width:1.0;"/><line style="stroke:#181818;stroke-width:1.0;" x1="531.9897" x2="534.9065" y1="1156.5723" y2="1149.1224"/><polygon fill="#181818" points="592.292,1002.5729,586.3798,1006.7015,587.9168,1013.7469,593.8291,1009.6183,592.292,1002.5729" style="stroke:#181818;stroke-width:1.0;"/></g><!--MD5=[dab4fdc688f775bd2cd14c67a04f3f7b]
link Card to Rank--><g id="link_Card_Rank"><path codeLine="80" d="M618.7895,1014.4719 C618.7895,1014.4719 621.853,1037.9439 623.412,1049.8879 " fill="none" id="Card-Rank" style="stroke:#181818;stroke-width:1.0;"/><polygon fill="#181818" points="625.118,1062.9559,627.9194,1053.5138,624.4708,1057.9979,619.9867,1054.5494,625.118,1062.9559" style="stroke:#181818;stroke-width:1.0;"/><line style="stroke:#181818;stroke-width:1.0;" x1="624.4708" x2="623.435" y1="1057.9979" y2="1050.0649"/><polygon fill="#181818" points="617.236,1002.5729,614.0464,1009.0402,618.7895,1014.4719,621.9791,1008.0046,617.236,1002.5729" style="stroke:#181818;stroke-width:1.0;"/></g><!--MD5=[177767f5f369ddd7a2766db2fec86924]
link Suit to Color--><g id="link_Suit_Color"><path codeLine="81" d="M481.4567,1234.6186 C481.4567,1234.6186 391.649,1333.7079 354.037,1375.2078 " fill="none" id="Suit-Color" style="stroke:#181818;stroke-width:1.0;"/><polygon fill="#181818" points="345.077,1385.0945,354.0847,1381.1119,348.4347,1381.3896,348.1569,1375.7396,345.077,1385.0945" style="stroke:#181818;stroke-width:1.0;"/><line style="stroke:#181818;stroke-width:1.0;" x1="348.4347" x2="353.8065" y1="1381.3896" y2="1375.4619"/><polygon fill="#181818" points="489.515,1225.7269,482.5219,1227.4866,481.4567,1234.6186,488.4497,1232.8589,489.515,1225.7269" style="stroke:#181818;stroke-width:1.0;"/></g><!--MD5=[d05ec5216aae3482170c20a0f022d9d2]
@startuml
title Klondike

class Klondike
class Player
class Playmat
class Deck
class Goal
class Stock{
{static} maxCards = 52 : int
}
class Foundation{
'{static} maxCards = 13 : int
}
class Tableau{
'{static} maxCards = 28 : int
}
class Waste{
'{static} maxCards = 24 : int
}
class Card{
-rank : Rank
-suit : Suit
-IsTurnedUp : boolean
}
abstract Pile{
- cardList : List
# validMove() : boolean
}
abstract Suit{
- color :Color
}
class Move{
-origin : Pile
-cardList : Card
-destination : Pile
}
enum Color{
RED
BLACK
}
enum Rank{
A
2
3
4
5
6
7
8
9
1
J
Q
K
}

Klondike *- -> Player
Klondike *- -> Deck
Klondike *- -> Playmat
Deck *-down-> "52" Card
Player ..> Move
Player - -> Goal
Goal - -> "4" Foundation : "Complet"
Goal ..> "n" Move
Move ..> Deck
Move - -> Playmat
Playmat o- -> Pile

Pile <|- - "0..24" Stock
Pile <|- - "0..24" Waste 
Pile <|- - "4" Foundation
Pile <|- - "7" Tableau
Pile o- -> "0..52" Deck

Suit <|- - Club
Suit <|- - Spade
Suit <|- - Diamond
Suit <|- -Heart
Card *- -> Suit
Card *- -> Rank
Suit *- -> Color
@enduml

@startuml
title Klondike

class Klondike
class Player
class Playmat
class Deck
class Goal
class Stock{
{static} maxCards = 52 : int
}
class Foundation{
}
class Tableau{
}
class Waste{
}
class Card{
-rank : Rank
-suit : Suit
-IsTurnedUp : boolean
}
abstract Pile{
- cardList : List
# validMove() : boolean
}
abstract Suit{
- color :Color
}
class Move{
-origin : Pile
-cardList : Card
-destination : Pile
}
enum Color{
RED
BLACK
}
enum Rank{
A
2
3
4
5
6
7
8
9
1
J
Q
K
}

Klondike *- -> Player
Klondike *- -> Deck
Klondike *- -> Playmat
Deck *-down-> "52" Card
Player ..> Move
Player - -> Goal
Goal - -> "4" Foundation : "Complet"
Goal ..> "n" Move
Move ..> Deck
Move - -> Playmat
Playmat o- -> Pile

Pile <|- - "0..24" Stock
Pile <|- - "0..24" Waste 
Pile <|- - "4" Foundation
Pile <|- - "7" Tableau
Pile o- -> "0..52" Deck

Suit <|- - Club
Suit <|- - Spade
Suit <|- - Diamond
Suit <|- -Heart
Card *- -> Suit
Card *- -> Rank
Suit *- -> Color
@enduml

PlantUML version 1.2022.3beta2(Unknown compile time)
(GPL source distribution)
Java Runtime: Java(TM) SE Runtime Environment
JVM: Java HotSpot(TM) 64-Bit Server VM
Default Encoding: UTF-8
Language: en
Country: US
--></g></svg>