<?xml version="1.0" encoding="UTF-8" standalone="no"?><svg xmlns="http://www.w3.org/2000/svg" xmlns:xlink="http://www.w3.org/1999/xlink" contentStyleType="text/css" height="1469px" preserveAspectRatio="none" style="width:758px;height:1469px;background:#FFFFFF;" version="1.1" viewBox="0 0 758 1469" width="758px" zoomAndPan="magnify"><defs/><g><rect height="26.2969" style="stroke:#00000000;stroke-width:1.0;fill:none;" width="78" x="333" y="5"/><text fill="#000000" font-family="sans-serif" font-size="14" font-weight="bold" lengthAdjust="spacing" textLength="68" x="338" y="22.9951">Klondike</text><!--MD5=[ce135f397e71694d574a1221b16fe9d6]
class Klondike--><g id="elem_Klondike"><rect codeLine="3" fill="#F1F1F1" height="48" id="Klondike" rx="2.5" ry="2.5" style="stroke:#181818;stroke-width:0.5;" width="95" x="289.5" y="44.2969"/><ellipse cx="304.5" cy="60.2969" fill="#ADD1B2" rx="11" ry="11" style="stroke:#181818;stroke-width:1.0;"/><path d="M306.8438,55.9688 C305.9063,55.5313 305.3125,55.3906 304.4375,55.3906 C301.8125,55.3906 299.8125,57.4688 299.8125,60.1875 L299.8125,61.3125 C299.8125,63.8906 301.9219,65.7813 304.8125,65.7813 C306.0313,65.7813 307.1875,65.4844 307.9375,64.9375 C308.5156,64.5313 308.8438,64.0781 308.8438,63.6875 C308.8438,63.2344 308.4531,62.8438 307.9844,62.8438 C307.7656,62.8438 307.5625,62.9219 307.375,63.1094 C306.9219,63.5938 306.9219,63.5938 306.7344,63.6875 C306.3125,63.9531 305.625,64.0781 304.8594,64.0781 C302.8125,64.0781 301.5156,62.9844 301.5156,61.2813 L301.5156,60.1875 C301.5156,58.4063 302.7656,57.0938 304.5,57.0938 C305.0781,57.0938 305.6875,57.25 306.1563,57.5 C306.6406,57.7813 306.8125,58 306.9063,58.4063 C306.9688,58.8125 307,58.9375 307.1406,59.0625 C307.2813,59.2031 307.5156,59.3125 307.7344,59.3125 C308,59.3125 308.2656,59.1719 308.4375,58.9531 C308.5469,58.7969 308.5781,58.6094 308.5781,58.1875 L308.5781,56.7656 C308.5781,56.3281 308.5625,56.2031 308.4688,56.0469 C308.3125,55.7813 308.0313,55.6406 307.7344,55.6406 C307.4375,55.6406 307.2344,55.7344 307.0156,56.0469 L306.8438,55.9688 Z " fill="#000000"/><text fill="#000000" font-family="sans-serif" font-size="14" lengthAdjust="spacing" textLength="63" x="318.5" y="65.1436">Klondike</text><line style="stroke:#181818;stroke-width:0.5;" x1="290.5" x2="383.5" y1="76.2969" y2="76.2969"/><line style="stroke:#181818;stroke-width:0.5;" x1="290.5" x2="383.5" y1="84.2969" y2="84.2969"/></g><!--MD5=[2cb47ba637a0d19583e6199456f6ad0b]
class Player--><g id="elem_Player"><rect codeLine="4" fill="#F1F1F1" height="48" id="Player" rx="2.5" ry="2.5" style="stroke:#181818;stroke-width:0.5;" width="76" x="418" y="153.2969"/><ellipse cx="433" cy="169.2969" fill="#ADD1B2" rx="11" ry="11" style="stroke:#181818;stroke-width:1.0;"/><path d="M435.3438,164.9688 C434.4063,164.5313 433.8125,164.3906 432.9375,164.3906 C430.3125,164.3906 428.3125,166.4688 428.3125,169.1875 L428.3125,170.3125 C428.3125,172.8906 430.4219,174.7813 433.3125,174.7813 C434.5313,174.7813 435.6875,174.4844 436.4375,173.9375 C437.0156,173.5313 437.3438,173.0781 437.3438,172.6875 C437.3438,172.2344 436.9531,171.8438 436.4844,171.8438 C436.2656,171.8438 436.0625,171.9219 435.875,172.1094 C435.4219,172.5938 435.4219,172.5938 435.2344,172.6875 C434.8125,172.9531 434.125,173.0781 433.3594,173.0781 C431.3125,173.0781 430.0156,171.9844 430.0156,170.2813 L430.0156,169.1875 C430.0156,167.4063 431.2656,166.0938 433,166.0938 C433.5781,166.0938 434.1875,166.25 434.6563,166.5 C435.1406,166.7813 435.3125,167 435.4063,167.4063 C435.4688,167.8125 435.5,167.9375 435.6406,168.0625 C435.7813,168.2031 436.0156,168.3125 436.2344,168.3125 C436.5,168.3125 436.7656,168.1719 436.9375,167.9531 C437.0469,167.7969 437.0781,167.6094 437.0781,167.1875 L437.0781,165.7656 C437.0781,165.3281 437.0625,165.2031 436.9688,165.0469 C436.8125,164.7813 436.5313,164.6406 436.2344,164.6406 C435.9375,164.6406 435.7344,164.7344 435.5156,165.0469 L435.3438,164.9688 Z " fill="#000000"/><text fill="#000000" font-family="sans-serif" font-size="14" lengthAdjust="spacing" textLength="44" x="447" y="174.1436">Player</text><line style="stroke:#181818;stroke-width:0.5;" x1="419" x2="493" y1="185.2969" y2="185.2969"/><line style="stroke:#181818;stroke-width:0.5;" x1="419" x2="493" y1="193.2969" y2="193.2969"/></g><!--MD5=[ad95966b0706fca9a66cca207a930344]
class Playmat--><g id="elem_Playmat"><rect codeLine="5" fill="#F1F1F1" height="48" id="Playmat" rx="2.5" ry="2.5" style="stroke:#181818;stroke-width:0.5;" width="90" x="303" y="575.7969"/><ellipse cx="318" cy="591.7969" fill="#ADD1B2" rx="11" ry="11" style="stroke:#181818;stroke-width:1.0;"/><path d="M320.3438,587.4688 C319.4063,587.0313 318.8125,586.8906 317.9375,586.8906 C315.3125,586.8906 313.3125,588.9688 313.3125,591.6875 L313.3125,592.8125 C313.3125,595.3906 315.4219,597.2813 318.3125,597.2813 C319.5313,597.2813 320.6875,596.9844 321.4375,596.4375 C322.0156,596.0313 322.3438,595.5781 322.3438,595.1875 C322.3438,594.7344 321.9531,594.3438 321.4844,594.3438 C321.2656,594.3438 321.0625,594.4219 320.875,594.6094 C320.4219,595.0938 320.4219,595.0938 320.2344,595.1875 C319.8125,595.4531 319.125,595.5781 318.3594,595.5781 C316.3125,595.5781 315.0156,594.4844 315.0156,592.7813 L315.0156,591.6875 C315.0156,589.9063 316.2656,588.5938 318,588.5938 C318.5781,588.5938 319.1875,588.75 319.6563,589 C320.1406,589.2813 320.3125,589.5 320.4063,589.9063 C320.4688,590.3125 320.5,590.4375 320.6406,590.5625 C320.7813,590.7031 321.0156,590.8125 321.2344,590.8125 C321.5,590.8125 321.7656,590.6719 321.9375,590.4531 C322.0469,590.2969 322.0781,590.1094 322.0781,589.6875 L322.0781,588.2656 C322.0781,587.8281 322.0625,587.7031 321.9688,587.5469 C321.8125,587.2813 321.5313,587.1406 321.2344,587.1406 C320.9375,587.1406 320.7344,587.2344 320.5156,587.5469 L320.3438,587.4688 Z " fill="#000000"/><text fill="#000000" font-family="sans-serif" font-size="14" lengthAdjust="spacing" textLength="58" x="332" y="596.6436">Playmat</text><line style="stroke:#181818;stroke-width:0.5;" x1="304" x2="392" y1="607.7969" y2="607.7969"/><line style="stroke:#181818;stroke-width:0.5;" x1="304" x2="392" y1="615.7969" y2="615.7969"/></g><!--MD5=[30299a58ba6b78debaaed5ddbb42f29a]
class Deck--><g id="elem_Deck"><rect codeLine="6" fill="#F1F1F1" height="48" id="Deck" rx="2.5" ry="2.5" style="stroke:#181818;stroke-width:0.5;" width="69" x="146.5" y="231.2969"/><ellipse cx="161.5" cy="247.2969" fill="#ADD1B2" rx="11" ry="11" style="stroke:#181818;stroke-width:1.0;"/><path d="M163.8438,242.9688 C162.9063,242.5313 162.3125,242.3906 161.4375,242.3906 C158.8125,242.3906 156.8125,244.4688 156.8125,247.1875 L156.8125,248.3125 C156.8125,250.8906 158.9219,252.7813 161.8125,252.7813 C163.0313,252.7813 164.1875,252.4844 164.9375,251.9375 C165.5156,251.5313 165.8438,251.0781 165.8438,250.6875 C165.8438,250.2344 165.4531,249.8438 164.9844,249.8438 C164.7656,249.8438 164.5625,249.9219 164.375,250.1094 C163.9219,250.5938 163.9219,250.5938 163.7344,250.6875 C163.3125,250.9531 162.625,251.0781 161.8594,251.0781 C159.8125,251.0781 158.5156,249.9844 158.5156,248.2813 L158.5156,247.1875 C158.5156,245.4063 159.7656,244.0938 161.5,244.0938 C162.0781,244.0938 162.6875,244.25 163.1563,244.5 C163.6406,244.7813 163.8125,245 163.9063,245.4063 C163.9688,245.8125 164,245.9375 164.1406,246.0625 C164.2813,246.2031 164.5156,246.3125 164.7344,246.3125 C165,246.3125 165.2656,246.1719 165.4375,245.9531 C165.5469,245.7969 165.5781,245.6094 165.5781,245.1875 L165.5781,243.7656 C165.5781,243.3281 165.5625,243.2031 165.4688,243.0469 C165.3125,242.7813 165.0313,242.6406 164.7344,242.6406 C164.4375,242.6406 164.2344,242.7344 164.0156,243.0469 L163.8438,242.9688 Z " fill="#000000"/><text fill="#000000" font-family="sans-serif" font-size="14" lengthAdjust="spacing" textLength="37" x="175.5" y="252.1436">Deck</text><line style="stroke:#181818;stroke-width:0.5;" x1="147.5" x2="214.5" y1="263.2969" y2="263.2969"/><line style="stroke:#181818;stroke-width:0.5;" x1="147.5" x2="214.5" y1="271.2969" y2="271.2969"/></g><!--MD5=[0992d3fdc9d3d7c02b735131bb70871d]
class Goal--><g id="elem_Goal"><rect codeLine="7" fill="#F1F1F1" height="48" id="Goal" rx="2.5" ry="2.5" style="stroke:#181818;stroke-width:0.5;" width="64" x="509" y="309.2969"/><ellipse cx="524" cy="325.2969" fill="#ADD1B2" rx="11" ry="11" style="stroke:#181818;stroke-width:1.0;"/><path d="M526.3438,320.9688 C525.4063,320.5313 524.8125,320.3906 523.9375,320.3906 C521.3125,320.3906 519.3125,322.4688 519.3125,325.1875 L519.3125,326.3125 C519.3125,328.8906 521.4219,330.7813 524.3125,330.7813 C525.5313,330.7813 526.6875,330.4844 527.4375,329.9375 C528.0156,329.5313 528.3438,329.0781 528.3438,328.6875 C528.3438,328.2344 527.9531,327.8438 527.4844,327.8438 C527.2656,327.8438 527.0625,327.9219 526.875,328.1094 C526.4219,328.5938 526.4219,328.5938 526.2344,328.6875 C525.8125,328.9531 525.125,329.0781 524.3594,329.0781 C522.3125,329.0781 521.0156,327.9844 521.0156,326.2813 L521.0156,325.1875 C521.0156,323.4063 522.2656,322.0938 524,322.0938 C524.5781,322.0938 525.1875,322.25 525.6563,322.5 C526.1406,322.7813 526.3125,323 526.4063,323.4063 C526.4688,323.8125 526.5,323.9375 526.6406,324.0625 C526.7813,324.2031 527.0156,324.3125 527.2344,324.3125 C527.5,324.3125 527.7656,324.1719 527.9375,323.9531 C528.0469,323.7969 528.0781,323.6094 528.0781,323.1875 L528.0781,321.7656 C528.0781,321.3281 528.0625,321.2031 527.9688,321.0469 C527.8125,320.7813 527.5313,320.6406 527.2344,320.6406 C526.9375,320.6406 526.7344,320.7344 526.5156,321.0469 L526.3438,320.9688 Z " fill="#000000"/><text fill="#000000" font-family="sans-serif" font-size="14" lengthAdjust="spacing" textLength="32" x="538" y="330.1436">Goal</text><line style="stroke:#181818;stroke-width:0.5;" x1="510" x2="572" y1="341.2969" y2="341.2969"/><line style="stroke:#181818;stroke-width:0.5;" x1="510" x2="572" y1="349.2969" y2="349.2969"/></g><!--MD5=[a4cb0f987c11031dc931233a0e7767af]
class Stock--><g id="elem_Stock"><rect codeLine="8" fill="#F1F1F1" height="64.2969" id="Stock" rx="2.5" ry="2.5" style="stroke:#181818;stroke-width:0.5;" width="151" x="452.5" y="701.2969"/><ellipse cx="502.75" cy="717.2969" fill="#ADD1B2" rx="11" ry="11" style="stroke:#181818;stroke-width:1.0;"/><path d="M505.0938,712.9688 C504.1563,712.5313 503.5625,712.3906 502.6875,712.3906 C500.0625,712.3906 498.0625,714.4688 498.0625,717.1875 L498.0625,718.3125 C498.0625,720.8906 500.1719,722.7813 503.0625,722.7813 C504.2813,722.7813 505.4375,722.4844 506.1875,721.9375 C506.7656,721.5313 507.0938,721.0781 507.0938,720.6875 C507.0938,720.2344 506.7031,719.8438 506.2344,719.8438 C506.0156,719.8438 505.8125,719.9219 505.625,720.1094 C505.1719,720.5938 505.1719,720.5938 504.9844,720.6875 C504.5625,720.9531 503.875,721.0781 503.1094,721.0781 C501.0625,721.0781 499.7656,719.9844 499.7656,718.2813 L499.7656,717.1875 C499.7656,715.4063 501.0156,714.0938 502.75,714.0938 C503.3281,714.0938 503.9375,714.25 504.4063,714.5 C504.8906,714.7813 505.0625,715 505.1563,715.4063 C505.2188,715.8125 505.25,715.9375 505.3906,716.0625 C505.5313,716.2031 505.7656,716.3125 505.9844,716.3125 C506.25,716.3125 506.5156,716.1719 506.6875,715.9531 C506.7969,715.7969 506.8281,715.6094 506.8281,715.1875 L506.8281,713.7656 C506.8281,713.3281 506.8125,713.2031 506.7188,713.0469 C506.5625,712.7813 506.2813,712.6406 505.9844,712.6406 C505.6875,712.6406 505.4844,712.7344 505.2656,713.0469 L505.0938,712.9688 Z " fill="#000000"/><text fill="#000000" font-family="sans-serif" font-size="14" lengthAdjust="spacing" textLength="42" x="523.25" y="722.1436">Stock</text><line style="stroke:#181818;stroke-width:0.5;" x1="453.5" x2="602.5" y1="733.2969" y2="733.2969"/><text fill="#000000" font-family="sans-serif" font-size="14" lengthAdjust="spacing" text-decoration="underline" textLength="139" x="458.5" y="750.292">maxCards = 52 : int</text><line style="stroke:#181818;stroke-width:0.5;" x1="453.5" x2="602.5" y1="757.5938" y2="757.5938"/></g><!--MD5=[d01ad859d436f6e28b36a553834670aa]
class Foundation--><g id="elem_Foundation"><rect codeLine="11" fill="#F1F1F1" height="48" id="Foundation" rx="2.5" ry="2.5" style="stroke:#181818;stroke-width:0.5;" width="112" x="639" y="709.2969"/><ellipse cx="654" cy="725.2969" fill="#ADD1B2" rx="11" ry="11" style="stroke:#181818;stroke-width:1.0;"/><path d="M656.3438,720.9688 C655.4063,720.5313 654.8125,720.3906 653.9375,720.3906 C651.3125,720.3906 649.3125,722.4688 649.3125,725.1875 L649.3125,726.3125 C649.3125,728.8906 651.4219,730.7813 654.3125,730.7813 C655.5313,730.7813 656.6875,730.4844 657.4375,729.9375 C658.0156,729.5313 658.3438,729.0781 658.3438,728.6875 C658.3438,728.2344 657.9531,727.8438 657.4844,727.8438 C657.2656,727.8438 657.0625,727.9219 656.875,728.1094 C656.4219,728.5938 656.4219,728.5938 656.2344,728.6875 C655.8125,728.9531 655.125,729.0781 654.3594,729.0781 C652.3125,729.0781 651.0156,727.9844 651.0156,726.2813 L651.0156,725.1875 C651.0156,723.4063 652.2656,722.0938 654,722.0938 C654.5781,722.0938 655.1875,722.25 655.6563,722.5 C656.1406,722.7813 656.3125,723 656.4063,723.4063 C656.4688,723.8125 656.5,723.9375 656.6406,724.0625 C656.7813,724.2031 657.0156,724.3125 657.2344,724.3125 C657.5,724.3125 657.7656,724.1719 657.9375,723.9531 C658.0469,723.7969 658.0781,723.6094 658.0781,723.1875 L658.0781,721.7656 C658.0781,721.3281 658.0625,721.2031 657.9688,721.0469 C657.8125,720.7813 657.5313,720.6406 657.2344,720.6406 C656.9375,720.6406 656.7344,720.7344 656.5156,721.0469 L656.3438,720.9688 Z " fill="#000000"/><text fill="#000000" font-family="sans-serif" font-size="14" lengthAdjust="spacing" textLength="80" x="668" y="730.1436">Foundation</text><line style="stroke:#181818;stroke-width:0.5;" x1="640" x2="750" y1="741.2969" y2="741.2969"/><line style="stroke:#181818;stroke-width:0.5;" x1="640" x2="750" y1="749.2969" y2="749.2969"/></g><!--MD5=[c033d16283544a66478df33ee92fe5a6]
class Tableau--><g id="elem_Tableau"><rect codeLine="14" fill="#F1F1F1" height="48" id="Tableau" rx="2.5" ry="2.5" style="stroke:#181818;stroke-width:0.5;" width="88" x="329" y="709.2969"/><ellipse cx="344" cy="725.2969" fill="#ADD1B2" rx="11" ry="11" style="stroke:#181818;stroke-width:1.0;"/><path d="M346.3438,720.9688 C345.4063,720.5313 344.8125,720.3906 343.9375,720.3906 C341.3125,720.3906 339.3125,722.4688 339.3125,725.1875 L339.3125,726.3125 C339.3125,728.8906 341.4219,730.7813 344.3125,730.7813 C345.5313,730.7813 346.6875,730.4844 347.4375,729.9375 C348.0156,729.5313 348.3438,729.0781 348.3438,728.6875 C348.3438,728.2344 347.9531,727.8438 347.4844,727.8438 C347.2656,727.8438 347.0625,727.9219 346.875,728.1094 C346.4219,728.5938 346.4219,728.5938 346.2344,728.6875 C345.8125,728.9531 345.125,729.0781 344.3594,729.0781 C342.3125,729.0781 341.0156,727.9844 341.0156,726.2813 L341.0156,725.1875 C341.0156,723.4063 342.2656,722.0938 344,722.0938 C344.5781,722.0938 345.1875,722.25 345.6563,722.5 C346.1406,722.7813 346.3125,723 346.4063,723.4063 C346.4688,723.8125 346.5,723.9375 346.6406,724.0625 C346.7813,724.2031 347.0156,724.3125 347.2344,724.3125 C347.5,724.3125 347.7656,724.1719 347.9375,723.9531 C348.0469,723.7969 348.0781,723.6094 348.0781,723.1875 L348.0781,721.7656 C348.0781,721.3281 348.0625,721.2031 347.9688,721.0469 C347.8125,720.7813 347.5313,720.6406 347.2344,720.6406 C346.9375,720.6406 346.7344,720.7344 346.5156,721.0469 L346.3438,720.9688 Z " fill="#000000"/><text fill="#000000" font-family="sans-serif" font-size="14" lengthAdjust="spacing" textLength="56" x="358" y="730.1436">Tableau</text><line style="stroke:#181818;stroke-width:0.5;" x1="330" x2="416" y1="741.2969" y2="741.2969"/><line style="stroke:#181818;stroke-width:0.5;" x1="330" x2="416" y1="749.2969" y2="749.2969"/></g><!--MD5=[c3c256aac7e3870d53c0042288b21bdc]
class Waste--><g id="elem_Waste"><rect codeLine="17" fill="#F1F1F1" height="48" id="Waste" rx="2.5" ry="2.5" style="stroke:#181818;stroke-width:0.5;" width="77" x="216.5" y="709.2969"/><ellipse cx="231.5" cy="725.2969" fill="#ADD1B2" rx="11" ry="11" style="stroke:#181818;stroke-width:1.0;"/><path d="M233.8438,720.9688 C232.9063,720.5313 232.3125,720.3906 231.4375,720.3906 C228.8125,720.3906 226.8125,722.4688 226.8125,725.1875 L226.8125,726.3125 C226.8125,728.8906 228.9219,730.7813 231.8125,730.7813 C233.0313,730.7813 234.1875,730.4844 234.9375,729.9375 C235.5156,729.5313 235.8438,729.0781 235.8438,728.6875 C235.8438,728.2344 235.4531,727.8438 234.9844,727.8438 C234.7656,727.8438 234.5625,727.9219 234.375,728.1094 C233.9219,728.5938 233.9219,728.5938 233.7344,728.6875 C233.3125,728.9531 232.625,729.0781 231.8594,729.0781 C229.8125,729.0781 228.5156,727.9844 228.5156,726.2813 L228.5156,725.1875 C228.5156,723.4063 229.7656,722.0938 231.5,722.0938 C232.0781,722.0938 232.6875,722.25 233.1563,722.5 C233.6406,722.7813 233.8125,723 233.9063,723.4063 C233.9688,723.8125 234,723.9375 234.1406,724.0625 C234.2813,724.2031 234.5156,724.3125 234.7344,724.3125 C235,724.3125 235.2656,724.1719 235.4375,723.9531 C235.5469,723.7969 235.5781,723.6094 235.5781,723.1875 L235.5781,721.7656 C235.5781,721.3281 235.5625,721.2031 235.4688,721.0469 C235.3125,720.7813 235.0313,720.6406 234.7344,720.6406 C234.4375,720.6406 234.2344,720.7344 234.0156,721.0469 L233.8438,720.9688 Z " fill="#000000"/><text fill="#000000" font-family="sans-serif" font-size="14" lengthAdjust="spacing" textLength="45" x="245.5" y="730.1436">Waste</text><line style="stroke:#181818;stroke-width:0.5;" x1="217.5" x2="292.5" y1="741.2969" y2="741.2969"/><line style="stroke:#181818;stroke-width:0.5;" x1="217.5" x2="292.5" y1="749.2969" y2="749.2969"/></g><!--MD5=[5e305716458bbdabbd2d7f572ed2bae2]
class Card--><g id="elem_Card"><rect codeLine="20" fill="#F1F1F1" height="64.2969" id="Card" rx="2.5" ry="2.5" style="stroke:#181818;stroke-width:0.5;" width="177" x="284.5" y="826.2969"/><ellipse cx="352.25" cy="842.2969" fill="#ADD1B2" rx="11" ry="11" style="stroke:#181818;stroke-width:1.0;"/><path d="M354.5938,837.9688 C353.6563,837.5313 353.0625,837.3906 352.1875,837.3906 C349.5625,837.3906 347.5625,839.4688 347.5625,842.1875 L347.5625,843.3125 C347.5625,845.8906 349.6719,847.7813 352.5625,847.7813 C353.7813,847.7813 354.9375,847.4844 355.6875,846.9375 C356.2656,846.5313 356.5938,846.0781 356.5938,845.6875 C356.5938,845.2344 356.2031,844.8438 355.7344,844.8438 C355.5156,844.8438 355.3125,844.9219 355.125,845.1094 C354.6719,845.5938 354.6719,845.5938 354.4844,845.6875 C354.0625,845.9531 353.375,846.0781 352.6094,846.0781 C350.5625,846.0781 349.2656,844.9844 349.2656,843.2813 L349.2656,842.1875 C349.2656,840.4063 350.5156,839.0938 352.25,839.0938 C352.8281,839.0938 353.4375,839.25 353.9063,839.5 C354.3906,839.7813 354.5625,840 354.6563,840.4063 C354.7188,840.8125 354.75,840.9375 354.8906,841.0625 C355.0313,841.2031 355.2656,841.3125 355.4844,841.3125 C355.75,841.3125 356.0156,841.1719 356.1875,840.9531 C356.2969,840.7969 356.3281,840.6094 356.3281,840.1875 L356.3281,838.7656 C356.3281,838.3281 356.3125,838.2031 356.2188,838.0469 C356.0625,837.7813 355.7813,837.6406 355.4844,837.6406 C355.1875,837.6406 354.9844,837.7344 354.7656,838.0469 L354.5938,837.9688 Z " fill="#000000"/><text fill="#000000" font-family="sans-serif" font-size="14" lengthAdjust="spacing" textLength="33" x="372.75" y="847.1436">Card</text><line style="stroke:#181818;stroke-width:0.5;" x1="285.5" x2="460.5" y1="858.2969" y2="858.2969"/><rect fill="none" height="6" style="stroke:#C82930;stroke-width:1.0;" width="6" x="292.5" y="866.2969"/><text fill="#000000" font-family="sans-serif" font-size="14" lengthAdjust="spacing" textLength="151" x="304.5" y="875.292">IsTurnedUp : boolean</text><line style="stroke:#181818;stroke-width:0.5;" x1="285.5" x2="460.5" y1="882.5938" y2="882.5938"/></g><!--MD5=[9d65f55e1ae89a5b4cf38812aa4a03f3]
class Pile--><g id="elem_Pile"><rect codeLine="23" fill="#F1F1F1" height="80.5938" id="Pile" rx="2.5" ry="2.5" style="stroke:#181818;stroke-width:0.5;" width="160" x="439" y="559.2969"/><ellipse cx="502.25" cy="575.2969" fill="#A9DCDF" rx="11" ry="11" style="stroke:#181818;stroke-width:1.0;"/><path d="M504.3281,577.1094 L504.7188,578.0938 L504.3281,578.0938 C503.875,578.0938 503.7656,578.1094 503.6094,578.2188 C503.3594,578.375 503.2031,578.6563 503.2031,578.9531 C503.2031,579.2188 503.3438,579.4688 503.5625,579.625 C503.7031,579.75 503.9063,579.7969 504.3281,579.7969 L506.6875,579.7969 C507.0469,579.7969 507.2656,579.7656 507.4063,579.6719 C507.6563,579.5313 507.8125,579.2344 507.8125,578.9531 C507.8125,578.6719 507.6719,578.4219 507.4531,578.2656 C507.2813,578.125 507.125,578.0938 506.6563,578.0938 L503.2656,569.8906 L499.5938,569.8906 C499.1406,569.8906 499.0156,569.9063 498.8594,570 C498.6094,570.1719 498.4531,570.4531 498.4531,570.7344 C498.4531,571.0156 498.5938,571.2656 498.8125,571.4375 C498.9844,571.5469 499.1563,571.5781 499.5938,571.5781 L500.6719,571.5781 L498.0313,578.0938 C497.6094,578.0938 497.4531,578.1094 497.2969,578.2188 C497.0469,578.375 496.8906,578.6563 496.8906,578.9531 C496.8906,579.5156 497.2656,579.7969 498.0156,579.7969 L500.2813,579.7969 C500.6406,579.7969 500.8594,579.7656 500.9844,579.6719 C501.25,579.5313 501.3906,579.2344 501.3906,578.9531 C501.3906,578.6719 501.2656,578.4219 501.0469,578.25 C500.875,578.125 500.7344,578.0938 500.2813,578.0938 L499.8906,578.0938 L500.2813,577.1094 L504.3281,577.1094 Z M503.625,575.4063 L500.9531,575.4063 L502.2969,572.1406 L503.625,575.4063 Z " fill="#000000"/><text fill="#000000" font-family="sans-serif" font-size="14" font-style="italic" lengthAdjust="spacing" textLength="25" x="522.75" y="580.1436">Pile</text><line style="stroke:#181818;stroke-width:0.5;" x1="440" x2="598" y1="591.2969" y2="591.2969"/><line style="stroke:#181818;stroke-width:0.5;" x1="440" x2="598" y1="599.2969" y2="599.2969"/><ellipse cx="450" cy="610.2969" fill="#84BE84" rx="3" ry="3" style="stroke:#038048;stroke-width:1.0;"/><text fill="#000000" font-family="sans-serif" font-size="14" lengthAdjust="spacing" textLength="117" x="459" y="616.292">show() : boolean</text><ellipse cx="450" cy="626.5938" fill="#84BE84" rx="3" ry="3" style="stroke:#038048;stroke-width:1.0;"/><text fill="#000000" font-family="sans-serif" font-size="14" lengthAdjust="spacing" textLength="134" x="459" y="632.5889">stacable():boolean</text></g><!--MD5=[8afaa0cc9be9ac1cdc24999fa1642fa3]
class Suit--><g id="elem_Suit"><rect codeLine="27" fill="#F1F1F1" height="64.2969" id="Suit" rx="2.5" ry="2.5" style="stroke:#181818;stroke-width:0.5;" width="109" x="225.5" y="1049.2969"/><ellipse cx="263" cy="1065.2969" fill="#A9DCDF" rx="11" ry="11" style="stroke:#181818;stroke-width:1.0;"/><path d="M265.0781,1067.1094 L265.4688,1068.0938 L265.0781,1068.0938 C264.625,1068.0938 264.5156,1068.1094 264.3594,1068.2188 C264.1094,1068.375 263.9531,1068.6563 263.9531,1068.9531 C263.9531,1069.2188 264.0938,1069.4688 264.3125,1069.625 C264.4531,1069.75 264.6563,1069.7969 265.0781,1069.7969 L267.4375,1069.7969 C267.7969,1069.7969 268.0156,1069.7656 268.1563,1069.6719 C268.4063,1069.5313 268.5625,1069.2344 268.5625,1068.9531 C268.5625,1068.6719 268.4219,1068.4219 268.2031,1068.2656 C268.0313,1068.125 267.875,1068.0938 267.4063,1068.0938 L264.0156,1059.8906 L260.3438,1059.8906 C259.8906,1059.8906 259.7656,1059.9063 259.6094,1060 C259.3594,1060.1719 259.2031,1060.4531 259.2031,1060.7344 C259.2031,1061.0156 259.3438,1061.2656 259.5625,1061.4375 C259.7344,1061.5469 259.9063,1061.5781 260.3438,1061.5781 L261.4219,1061.5781 L258.7813,1068.0938 C258.3594,1068.0938 258.2031,1068.1094 258.0469,1068.2188 C257.7969,1068.375 257.6406,1068.6563 257.6406,1068.9531 C257.6406,1069.5156 258.0156,1069.7969 258.7656,1069.7969 L261.0313,1069.7969 C261.3906,1069.7969 261.6094,1069.7656 261.7344,1069.6719 C262,1069.5313 262.1406,1069.2344 262.1406,1068.9531 C262.1406,1068.6719 262.0156,1068.4219 261.7969,1068.25 C261.625,1068.125 261.4844,1068.0938 261.0313,1068.0938 L260.6406,1068.0938 L261.0313,1067.1094 L265.0781,1067.1094 Z M264.375,1065.4063 L261.7031,1065.4063 L263.0469,1062.1406 L264.375,1065.4063 Z " fill="#000000"/><text fill="#000000" font-family="sans-serif" font-size="14" font-style="italic" lengthAdjust="spacing" textLength="27" x="282" y="1070.1436">Suit</text><line style="stroke:#181818;stroke-width:0.5;" x1="226.5" x2="333.5" y1="1081.2969" y2="1081.2969"/><rect fill="none" height="6" style="stroke:#C82930;stroke-width:1.0;" width="6" x="233.5" y="1089.2969"/><text fill="#000000" font-family="sans-serif" font-size="14" lengthAdjust="spacing" textLength="83" x="245.5" y="1098.292">color :Color</text><line style="stroke:#181818;stroke-width:0.5;" x1="226.5" x2="333.5" y1="1105.5938" y2="1105.5938"/></g><!--MD5=[1981719fa3982d92ef7fd3f06d73b3e7]
class Move--><g id="elem_Move"><rect codeLine="30" fill="#F1F1F1" height="64.2969" id="Move" rx="2.5" ry="2.5" style="stroke:#181818;stroke-width:0.5;" width="178" x="390" y="418.2969"/><ellipse cx="455.75" cy="434.2969" fill="#ADD1B2" rx="11" ry="11" style="stroke:#181818;stroke-width:1.0;"/><path d="M458.0938,429.9688 C457.1563,429.5313 456.5625,429.3906 455.6875,429.3906 C453.0625,429.3906 451.0625,431.4688 451.0625,434.1875 L451.0625,435.3125 C451.0625,437.8906 453.1719,439.7813 456.0625,439.7813 C457.2813,439.7813 458.4375,439.4844 459.1875,438.9375 C459.7656,438.5313 460.0938,438.0781 460.0938,437.6875 C460.0938,437.2344 459.7031,436.8438 459.2344,436.8438 C459.0156,436.8438 458.8125,436.9219 458.625,437.1094 C458.1719,437.5938 458.1719,437.5938 457.9844,437.6875 C457.5625,437.9531 456.875,438.0781 456.1094,438.0781 C454.0625,438.0781 452.7656,436.9844 452.7656,435.2813 L452.7656,434.1875 C452.7656,432.4063 454.0156,431.0938 455.75,431.0938 C456.3281,431.0938 456.9375,431.25 457.4063,431.5 C457.8906,431.7813 458.0625,432 458.1563,432.4063 C458.2188,432.8125 458.25,432.9375 458.3906,433.0625 C458.5313,433.2031 458.7656,433.3125 458.9844,433.3125 C459.25,433.3125 459.5156,433.1719 459.6875,432.9531 C459.7969,432.7969 459.8281,432.6094 459.8281,432.1875 L459.8281,430.7656 C459.8281,430.3281 459.8125,430.2031 459.7188,430.0469 C459.5625,429.7813 459.2813,429.6406 458.9844,429.6406 C458.6875,429.6406 458.4844,429.7344 458.2656,430.0469 L458.0938,429.9688 Z " fill="#000000"/><text fill="#000000" font-family="sans-serif" font-size="14" lengthAdjust="spacing" textLength="38" x="476.25" y="439.1436">Move</text><line style="stroke:#181818;stroke-width:0.5;" x1="391" x2="567" y1="450.2969" y2="450.2969"/><line style="stroke:#181818;stroke-width:0.5;" x1="391" x2="567" y1="458.2969" y2="458.2969"/><ellipse cx="401" cy="469.2969" fill="#84BE84" rx="3" ry="3" style="stroke:#038048;stroke-width:1.0;"/><text fill="#000000" font-family="sans-serif" font-size="14" lengthAdjust="spacing" textLength="152" x="410" y="475.292">validMove() : boolean</text></g><!--MD5=[18eee71c88ab61f27581b8cbdd3ef5ee]
class Color--><g id="elem_Color"><rect codeLine="33" fill="#F1F1F1" height="80.5938" id="Color" rx="2.5" ry="2.5" style="stroke:#181818;stroke-width:0.5;" width="70" x="245" y="1272.2969"/><ellipse cx="260" cy="1288.2969" fill="#EB937F" rx="11" ry="11" style="stroke:#181818;stroke-width:1.0;"/><path d="M258.7969,1289.1719 L260.25,1289.1719 L260.25,1289.2813 C260.25,1289.6875 260.2813,1289.8438 260.3594,1290 C260.5156,1290.25 260.7969,1290.4063 261.0938,1290.4063 C261.3438,1290.4063 261.6094,1290.2656 261.7656,1290.0469 C261.8906,1289.8906 261.9219,1289.7344 261.9219,1289.2813 L261.9219,1287.3594 C261.9219,1287.2031 261.9219,1287.1563 261.9063,1287 C261.8438,1286.5313 261.5313,1286.2188 261.0781,1286.2188 C260.8281,1286.2188 260.5625,1286.3594 260.3906,1286.5781 C260.2813,1286.75 260.25,1286.9063 260.25,1287.3594 L260.25,1287.4844 L258.7969,1287.4844 L258.7969,1285.0781 L262.7813,1285.0781 L262.7813,1285.9375 C262.7813,1286.3438 262.8125,1286.5156 262.8906,1286.6719 C263.0625,1286.9219 263.3438,1287.0781 263.625,1287.0781 C263.8906,1287.0781 264.1563,1286.9375 264.3281,1286.7188 C264.4375,1286.5469 264.4688,1286.4063 264.4688,1285.9375 L264.4688,1283.3906 L256.8438,1283.3906 C256.4063,1283.3906 256.2813,1283.4063 256.125,1283.5 C255.875,1283.6563 255.7188,1283.9531 255.7188,1284.2344 C255.7188,1284.5156 255.8594,1284.7656 256.0781,1284.9375 C256.2344,1285.0469 256.4219,1285.0781 256.8438,1285.0781 L257.0938,1285.0781 L257.0938,1291.5938 L256.8438,1291.5938 C256.4375,1291.5938 256.2813,1291.6094 256.125,1291.7188 C255.875,1291.8906 255.7188,1292.1563 255.7188,1292.4531 C255.7188,1292.7188 255.8594,1292.9688 256.0781,1293.125 C256.2188,1293.25 256.4531,1293.2969 256.8438,1293.2969 L264.8438,1293.2969 L264.8438,1290.7188 C264.8438,1290.2813 264.8125,1290.1406 264.7344,1289.9844 C264.5625,1289.7344 264.2813,1289.5781 264,1289.5781 C263.7344,1289.5781 263.4688,1289.6875 263.2969,1289.9375 C263.1875,1290.0938 263.1563,1290.2344 263.1563,1290.7188 L263.1563,1291.5938 L258.7969,1291.5938 L258.7969,1289.1719 Z " fill="#000000"/><text fill="#000000" font-family="sans-serif" font-size="14" lengthAdjust="spacing" textLength="38" x="274" y="1293.1436">Color</text><line style="stroke:#181818;stroke-width:0.5;" x1="246" x2="314" y1="1304.2969" y2="1304.2969"/><text fill="#000000" font-family="sans-serif" font-size="14" lengthAdjust="spacing" textLength="30" x="251" y="1321.292">RED</text><text fill="#000000" font-family="sans-serif" font-size="14" lengthAdjust="spacing" textLength="48" x="251" y="1337.5889">BLACK</text><line style="stroke:#181818;stroke-width:0.5;" x1="246" x2="314" y1="1344.8906" y2="1344.8906"/></g><!--MD5=[0f690a215a17a0cf4b9f948ca5dd1b3e]
class Rank--><g id="elem_Rank"><rect codeLine="37" fill="#F1F1F1" height="259.8594" id="Rank" rx="2.5" ry="2.5" style="stroke:#181818;stroke-width:0.5;" width="68" x="370" y="951.2969"/><ellipse cx="385" cy="967.2969" fill="#EB937F" rx="11" ry="11" style="stroke:#181818;stroke-width:1.0;"/><path d="M383.7969,968.1719 L385.25,968.1719 L385.25,968.2813 C385.25,968.6875 385.2813,968.8438 385.3594,969 C385.5156,969.25 385.7969,969.4063 386.0938,969.4063 C386.3438,969.4063 386.6094,969.2656 386.7656,969.0469 C386.8906,968.8906 386.9219,968.7344 386.9219,968.2813 L386.9219,966.3594 C386.9219,966.2031 386.9219,966.1563 386.9063,966 C386.8438,965.5313 386.5313,965.2188 386.0781,965.2188 C385.8281,965.2188 385.5625,965.3594 385.3906,965.5781 C385.2813,965.75 385.25,965.9063 385.25,966.3594 L385.25,966.4844 L383.7969,966.4844 L383.7969,964.0781 L387.7813,964.0781 L387.7813,964.9375 C387.7813,965.3438 387.8125,965.5156 387.8906,965.6719 C388.0625,965.9219 388.3438,966.0781 388.625,966.0781 C388.8906,966.0781 389.1563,965.9375 389.3281,965.7188 C389.4375,965.5469 389.4688,965.4063 389.4688,964.9375 L389.4688,962.3906 L381.8438,962.3906 C381.4063,962.3906 381.2813,962.4063 381.125,962.5 C380.875,962.6563 380.7188,962.9531 380.7188,963.2344 C380.7188,963.5156 380.8594,963.7656 381.0781,963.9375 C381.2344,964.0469 381.4219,964.0781 381.8438,964.0781 L382.0938,964.0781 L382.0938,970.5938 L381.8438,970.5938 C381.4375,970.5938 381.2813,970.6094 381.125,970.7188 C380.875,970.8906 380.7188,971.1563 380.7188,971.4531 C380.7188,971.7188 380.8594,971.9688 381.0781,972.125 C381.2188,972.25 381.4531,972.2969 381.8438,972.2969 L389.8438,972.2969 L389.8438,969.7188 C389.8438,969.2813 389.8125,969.1406 389.7344,968.9844 C389.5625,968.7344 389.2813,968.5781 389,968.5781 C388.7344,968.5781 388.4688,968.6875 388.2969,968.9375 C388.1875,969.0938 388.1563,969.2344 388.1563,969.7188 L388.1563,970.5938 L383.7969,970.5938 L383.7969,968.1719 Z " fill="#000000"/><text fill="#000000" font-family="sans-serif" font-size="14" lengthAdjust="spacing" textLength="36" x="399" y="972.1436">Rank</text><line style="stroke:#181818;stroke-width:0.5;" x1="371" x2="437" y1="983.2969" y2="983.2969"/><text fill="#000000" font-family="sans-serif" font-size="14" lengthAdjust="spacing" textLength="10" x="376" y="1000.292">A</text><text fill="#000000" font-family="sans-serif" font-size="14" lengthAdjust="spacing" textLength="8" x="376" y="1016.5889">2</text><text fill="#000000" font-family="sans-serif" font-size="14" lengthAdjust="spacing" textLength="9" x="376" y="1032.8857">3</text><text fill="#000000" font-family="sans-serif" font-size="14" lengthAdjust="spacing" textLength="8" x="376" y="1049.1826">4</text><text fill="#000000" font-family="sans-serif" font-size="14" lengthAdjust="spacing" textLength="9" x="376" y="1065.4795">5</text><text fill="#000000" font-family="sans-serif" font-size="14" lengthAdjust="spacing" textLength="9" x="376" y="1081.7764">6</text><text fill="#000000" font-family="sans-serif" font-size="14" lengthAdjust="spacing" textLength="9" x="376" y="1098.0732">7</text><text fill="#000000" font-family="sans-serif" font-size="14" lengthAdjust="spacing" textLength="8" x="376" y="1114.3701">8</text><text fill="#000000" font-family="sans-serif" font-size="14" lengthAdjust="spacing" textLength="9" x="376" y="1130.667">9</text><text fill="#000000" font-family="sans-serif" font-size="14" lengthAdjust="spacing" textLength="9" x="376" y="1146.9639">1</text><text fill="#000000" font-family="sans-serif" font-size="14" lengthAdjust="spacing" textLength="4" x="376" y="1163.2607">J</text><text fill="#000000" font-family="sans-serif" font-size="14" lengthAdjust="spacing" textLength="11" x="376" y="1179.5576">Q</text><text fill="#000000" font-family="sans-serif" font-size="14" lengthAdjust="spacing" textLength="10" x="376" y="1195.8545">K</text><line style="stroke:#181818;stroke-width:0.5;" x1="371" x2="437" y1="1203.1563" y2="1203.1563"/></g><!--MD5=[a7ca736ec2eaa3f5c977a8fac7fd0779]
class Club--><g id="elem_Club"><rect fill="#F1F1F1" height="48" id="Club" rx="2.5" ry="2.5" style="stroke:#181818;stroke-width:0.5;" width="64" x="350" y="1288.7969"/><ellipse cx="365" cy="1304.7969" fill="#ADD1B2" rx="11" ry="11" style="stroke:#181818;stroke-width:1.0;"/><path d="M367.3438,1300.4688 C366.4063,1300.0313 365.8125,1299.8906 364.9375,1299.8906 C362.3125,1299.8906 360.3125,1301.9688 360.3125,1304.6875 L360.3125,1305.8125 C360.3125,1308.3906 362.4219,1310.2813 365.3125,1310.2813 C366.5313,1310.2813 367.6875,1309.9844 368.4375,1309.4375 C369.0156,1309.0313 369.3438,1308.5781 369.3438,1308.1875 C369.3438,1307.7344 368.9531,1307.3438 368.4844,1307.3438 C368.2656,1307.3438 368.0625,1307.4219 367.875,1307.6094 C367.4219,1308.0938 367.4219,1308.0938 367.2344,1308.1875 C366.8125,1308.4531 366.125,1308.5781 365.3594,1308.5781 C363.3125,1308.5781 362.0156,1307.4844 362.0156,1305.7813 L362.0156,1304.6875 C362.0156,1302.9063 363.2656,1301.5938 365,1301.5938 C365.5781,1301.5938 366.1875,1301.75 366.6563,1302 C367.1406,1302.2813 367.3125,1302.5 367.4063,1302.9063 C367.4688,1303.3125 367.5,1303.4375 367.6406,1303.5625 C367.7813,1303.7031 368.0156,1303.8125 368.2344,1303.8125 C368.5,1303.8125 368.7656,1303.6719 368.9375,1303.4531 C369.0469,1303.2969 369.0781,1303.1094 369.0781,1302.6875 L369.0781,1301.2656 C369.0781,1300.8281 369.0625,1300.7031 368.9688,1300.5469 C368.8125,1300.2813 368.5313,1300.1406 368.2344,1300.1406 C367.9375,1300.1406 367.7344,1300.2344 367.5156,1300.5469 L367.3438,1300.4688 Z " fill="#000000"/><text fill="#000000" font-family="sans-serif" font-size="14" lengthAdjust="spacing" textLength="32" x="379" y="1309.6436">Club</text><line style="stroke:#181818;stroke-width:0.5;" x1="351" x2="413" y1="1320.7969" y2="1320.7969"/><line style="stroke:#181818;stroke-width:0.5;" x1="351" x2="413" y1="1328.7969" y2="1328.7969"/></g><!--MD5=[e07683d003131b9e2f36793e1d14f746]
class Spade--><g id="elem_Spade"><rect fill="#F1F1F1" height="48" id="Spade" rx="2.5" ry="2.5" style="stroke:#181818;stroke-width:0.5;" width="77" x="449.5" y="1288.7969"/><ellipse cx="464.5" cy="1304.7969" fill="#ADD1B2" rx="11" ry="11" style="stroke:#181818;stroke-width:1.0;"/><path d="M466.8438,1300.4688 C465.9063,1300.0313 465.3125,1299.8906 464.4375,1299.8906 C461.8125,1299.8906 459.8125,1301.9688 459.8125,1304.6875 L459.8125,1305.8125 C459.8125,1308.3906 461.9219,1310.2813 464.8125,1310.2813 C466.0313,1310.2813 467.1875,1309.9844 467.9375,1309.4375 C468.5156,1309.0313 468.8438,1308.5781 468.8438,1308.1875 C468.8438,1307.7344 468.4531,1307.3438 467.9844,1307.3438 C467.7656,1307.3438 467.5625,1307.4219 467.375,1307.6094 C466.9219,1308.0938 466.9219,1308.0938 466.7344,1308.1875 C466.3125,1308.4531 465.625,1308.5781 464.8594,1308.5781 C462.8125,1308.5781 461.5156,1307.4844 461.5156,1305.7813 L461.5156,1304.6875 C461.5156,1302.9063 462.7656,1301.5938 464.5,1301.5938 C465.0781,1301.5938 465.6875,1301.75 466.1563,1302 C466.6406,1302.2813 466.8125,1302.5 466.9063,1302.9063 C466.9688,1303.3125 467,1303.4375 467.1406,1303.5625 C467.2813,1303.7031 467.5156,1303.8125 467.7344,1303.8125 C468,1303.8125 468.2656,1303.6719 468.4375,1303.4531 C468.5469,1303.2969 468.5781,1303.1094 468.5781,1302.6875 L468.5781,1301.2656 C468.5781,1300.8281 468.5625,1300.7031 468.4688,1300.5469 C468.3125,1300.2813 468.0313,1300.1406 467.7344,1300.1406 C467.4375,1300.1406 467.2344,1300.2344 467.0156,1300.5469 L466.8438,1300.4688 Z " fill="#000000"/><text fill="#000000" font-family="sans-serif" font-size="14" lengthAdjust="spacing" textLength="45" x="478.5" y="1309.6436">Spade</text><line style="stroke:#181818;stroke-width:0.5;" x1="450.5" x2="525.5" y1="1320.7969" y2="1320.7969"/><line style="stroke:#181818;stroke-width:0.5;" x1="450.5" x2="525.5" y1="1328.7969" y2="1328.7969"/></g><!--MD5=[c0ff7312a1fc0055a007a9765d4a1220]
class Diamond--><g id="elem_Diamond"><rect fill="#F1F1F1" height="48" id="Diamond" rx="2.5" ry="2.5" style="stroke:#181818;stroke-width:0.5;" width="96" x="114" y="1288.7969"/><ellipse cx="129" cy="1304.7969" fill="#ADD1B2" rx="11" ry="11" style="stroke:#181818;stroke-width:1.0;"/><path d="M131.3438,1300.4688 C130.4063,1300.0313 129.8125,1299.8906 128.9375,1299.8906 C126.3125,1299.8906 124.3125,1301.9688 124.3125,1304.6875 L124.3125,1305.8125 C124.3125,1308.3906 126.4219,1310.2813 129.3125,1310.2813 C130.5313,1310.2813 131.6875,1309.9844 132.4375,1309.4375 C133.0156,1309.0313 133.3438,1308.5781 133.3438,1308.1875 C133.3438,1307.7344 132.9531,1307.3438 132.4844,1307.3438 C132.2656,1307.3438 132.0625,1307.4219 131.875,1307.6094 C131.4219,1308.0938 131.4219,1308.0938 131.2344,1308.1875 C130.8125,1308.4531 130.125,1308.5781 129.3594,1308.5781 C127.3125,1308.5781 126.0156,1307.4844 126.0156,1305.7813 L126.0156,1304.6875 C126.0156,1302.9063 127.2656,1301.5938 129,1301.5938 C129.5781,1301.5938 130.1875,1301.75 130.6563,1302 C131.1406,1302.2813 131.3125,1302.5 131.4063,1302.9063 C131.4688,1303.3125 131.5,1303.4375 131.6406,1303.5625 C131.7813,1303.7031 132.0156,1303.8125 132.2344,1303.8125 C132.5,1303.8125 132.7656,1303.6719 132.9375,1303.4531 C133.0469,1303.2969 133.0781,1303.1094 133.0781,1302.6875 L133.0781,1301.2656 C133.0781,1300.8281 133.0625,1300.7031 132.9688,1300.5469 C132.8125,1300.2813 132.5313,1300.1406 132.2344,1300.1406 C131.9375,1300.1406 131.7344,1300.2344 131.5156,1300.5469 L131.3438,1300.4688 Z " fill="#000000"/><text fill="#000000" font-family="sans-serif" font-size="14" lengthAdjust="spacing" textLength="64" x="143" y="1309.6436">Diamond</text><line style="stroke:#181818;stroke-width:0.5;" x1="115" x2="209" y1="1320.7969" y2="1320.7969"/><line style="stroke:#181818;stroke-width:0.5;" x1="115" x2="209" y1="1328.7969" y2="1328.7969"/></g><!--MD5=[9bb5813e59df3e2529d11a5afaed7800]
class Heart--><g id="elem_Heart"><rect fill="#F1F1F1" height="48" id="Heart" rx="2.5" ry="2.5" style="stroke:#181818;stroke-width:0.5;" width="72" x="7" y="1288.7969"/><ellipse cx="22" cy="1304.7969" fill="#ADD1B2" rx="11" ry="11" style="stroke:#181818;stroke-width:1.0;"/><path d="M24.3438,1300.4688 C23.4063,1300.0313 22.8125,1299.8906 21.9375,1299.8906 C19.3125,1299.8906 17.3125,1301.9688 17.3125,1304.6875 L17.3125,1305.8125 C17.3125,1308.3906 19.4219,1310.2813 22.3125,1310.2813 C23.5313,1310.2813 24.6875,1309.9844 25.4375,1309.4375 C26.0156,1309.0313 26.3438,1308.5781 26.3438,1308.1875 C26.3438,1307.7344 25.9531,1307.3438 25.4844,1307.3438 C25.2656,1307.3438 25.0625,1307.4219 24.875,1307.6094 C24.4219,1308.0938 24.4219,1308.0938 24.2344,1308.1875 C23.8125,1308.4531 23.125,1308.5781 22.3594,1308.5781 C20.3125,1308.5781 19.0156,1307.4844 19.0156,1305.7813 L19.0156,1304.6875 C19.0156,1302.9063 20.2656,1301.5938 22,1301.5938 C22.5781,1301.5938 23.1875,1301.75 23.6563,1302 C24.1406,1302.2813 24.3125,1302.5 24.4063,1302.9063 C24.4688,1303.3125 24.5,1303.4375 24.6406,1303.5625 C24.7813,1303.7031 25.0156,1303.8125 25.2344,1303.8125 C25.5,1303.8125 25.7656,1303.6719 25.9375,1303.4531 C26.0469,1303.2969 26.0781,1303.1094 26.0781,1302.6875 L26.0781,1301.2656 C26.0781,1300.8281 26.0625,1300.7031 25.9688,1300.5469 C25.8125,1300.2813 25.5313,1300.1406 25.2344,1300.1406 C24.9375,1300.1406 24.7344,1300.2344 24.5156,1300.5469 L24.3438,1300.4688 Z " fill="#000000"/><text fill="#000000" font-family="sans-serif" font-size="14" lengthAdjust="spacing" textLength="40" x="36" y="1309.6436">Heart</text><line style="stroke:#181818;stroke-width:0.5;" x1="8" x2="78" y1="1320.7969" y2="1320.7969"/><line style="stroke:#181818;stroke-width:0.5;" x1="8" x2="78" y1="1328.7969" y2="1328.7969"/></g><!--MD5=[08be530975453a47bdc5b5370100f2fc]
class Red--><g id="elem_Red"><rect fill="#F1F1F1" height="48" id="Red" rx="2.5" ry="2.5" style="stroke:#181818;stroke-width:0.5;" width="60" x="132" y="1414.2969"/><ellipse cx="147" cy="1430.2969" fill="#ADD1B2" rx="11" ry="11" style="stroke:#181818;stroke-width:1.0;"/><path d="M149.3438,1425.9688 C148.4063,1425.5313 147.8125,1425.3906 146.9375,1425.3906 C144.3125,1425.3906 142.3125,1427.4688 142.3125,1430.1875 L142.3125,1431.3125 C142.3125,1433.8906 144.4219,1435.7813 147.3125,1435.7813 C148.5313,1435.7813 149.6875,1435.4844 150.4375,1434.9375 C151.0156,1434.5313 151.3438,1434.0781 151.3438,1433.6875 C151.3438,1433.2344 150.9531,1432.8438 150.4844,1432.8438 C150.2656,1432.8438 150.0625,1432.9219 149.875,1433.1094 C149.4219,1433.5938 149.4219,1433.5938 149.2344,1433.6875 C148.8125,1433.9531 148.125,1434.0781 147.3594,1434.0781 C145.3125,1434.0781 144.0156,1432.9844 144.0156,1431.2813 L144.0156,1430.1875 C144.0156,1428.4063 145.2656,1427.0938 147,1427.0938 C147.5781,1427.0938 148.1875,1427.25 148.6563,1427.5 C149.1406,1427.7813 149.3125,1428 149.4063,1428.4063 C149.4688,1428.8125 149.5,1428.9375 149.6406,1429.0625 C149.7813,1429.2031 150.0156,1429.3125 150.2344,1429.3125 C150.5,1429.3125 150.7656,1429.1719 150.9375,1428.9531 C151.0469,1428.7969 151.0781,1428.6094 151.0781,1428.1875 L151.0781,1426.7656 C151.0781,1426.3281 151.0625,1426.2031 150.9688,1426.0469 C150.8125,1425.7813 150.5313,1425.6406 150.2344,1425.6406 C149.9375,1425.6406 149.7344,1425.7344 149.5156,1426.0469 L149.3438,1425.9688 Z " fill="#000000"/><text fill="#000000" font-family="sans-serif" font-size="14" lengthAdjust="spacing" textLength="28" x="161" y="1435.1436">Red</text><line style="stroke:#181818;stroke-width:0.5;" x1="133" x2="191" y1="1446.2969" y2="1446.2969"/><line style="stroke:#181818;stroke-width:0.5;" x1="133" x2="191" y1="1454.2969" y2="1454.2969"/></g><!--MD5=[365150d8163e865a226452c70cc7ad9f]
class Black--><g id="elem_Black"><rect fill="#F1F1F1" height="48" id="Black" rx="2.5" ry="2.5" style="stroke:#181818;stroke-width:0.5;" width="71" x="346.5" y="1414.2969"/><ellipse cx="361.5" cy="1430.2969" fill="#ADD1B2" rx="11" ry="11" style="stroke:#181818;stroke-width:1.0;"/><path d="M363.8438,1425.9688 C362.9063,1425.5313 362.3125,1425.3906 361.4375,1425.3906 C358.8125,1425.3906 356.8125,1427.4688 356.8125,1430.1875 L356.8125,1431.3125 C356.8125,1433.8906 358.9219,1435.7813 361.8125,1435.7813 C363.0313,1435.7813 364.1875,1435.4844 364.9375,1434.9375 C365.5156,1434.5313 365.8438,1434.0781 365.8438,1433.6875 C365.8438,1433.2344 365.4531,1432.8438 364.9844,1432.8438 C364.7656,1432.8438 364.5625,1432.9219 364.375,1433.1094 C363.9219,1433.5938 363.9219,1433.5938 363.7344,1433.6875 C363.3125,1433.9531 362.625,1434.0781 361.8594,1434.0781 C359.8125,1434.0781 358.5156,1432.9844 358.5156,1431.2813 L358.5156,1430.1875 C358.5156,1428.4063 359.7656,1427.0938 361.5,1427.0938 C362.0781,1427.0938 362.6875,1427.25 363.1563,1427.5 C363.6406,1427.7813 363.8125,1428 363.9063,1428.4063 C363.9688,1428.8125 364,1428.9375 364.1406,1429.0625 C364.2813,1429.2031 364.5156,1429.3125 364.7344,1429.3125 C365,1429.3125 365.2656,1429.1719 365.4375,1428.9531 C365.5469,1428.7969 365.5781,1428.6094 365.5781,1428.1875 L365.5781,1426.7656 C365.5781,1426.3281 365.5625,1426.2031 365.4688,1426.0469 C365.3125,1425.7813 365.0313,1425.6406 364.7344,1425.6406 C364.4375,1425.6406 364.2344,1425.7344 364.0156,1426.0469 L363.8438,1425.9688 Z " fill="#000000"/><text fill="#000000" font-family="sans-serif" font-size="14" lengthAdjust="spacing" textLength="39" x="375.5" y="1435.1436">Black</text><line style="stroke:#181818;stroke-width:0.5;" x1="347.5" x2="416.5" y1="1446.2969" y2="1446.2969"/><line style="stroke:#181818;stroke-width:0.5;" x1="347.5" x2="416.5" y1="1454.2969" y2="1454.2969"/></g><!--MD5=[d0e37a71a001f6053d69fd29d330fd4f]
link Klondike to Player--><g id="link_Klondike_Player"><path codeLine="53" d="M371.7405,100.5445 C371.7405,100.5445 405.2,130.6169 420.255,144.1569 " fill="none" id="Klondike-Player" style="stroke:#181818;stroke-width:1.0;"/><polygon fill="#181818" points="430.229,153.1269,426.2093,144.1356,426.5103,149.7845,420.8615,150.0855,430.229,153.1269" style="stroke:#181818;stroke-width:1.0;"/><line style="stroke:#181818;stroke-width:1.0;" x1="426.5103" x2="420.5625" y1="149.7845" y2="144.4319"/><polygon fill="#181818" points="362.821,92.5169,364.6049,99.5038,371.7405,100.5445,369.9566,93.5575,362.821,92.5169" style="stroke:#181818;stroke-width:1.0;"/></g><!--MD5=[7d7afaf8cc2ad62f66d9fb1ba9e5e8a9]
link Klondike to Deck--><g id="link_Klondike_Deck"><path codeLine="54" d="M309.8195,101.5284 C309.8195,101.5284 237.275,187.5569 209.04,221.0469 " fill="none" id="Klondike-Deck" style="stroke:#181818;stroke-width:1.0;"/><polygon fill="#181818" points="200.441,231.2369,209.302,226.9378,203.6654,227.4154,203.1877,221.7788,200.441,231.2369" style="stroke:#181818;stroke-width:1.0;"/><line style="stroke:#181818;stroke-width:1.0;" x1="203.6654" x2="208.8215" y1="227.4154" y2="221.3019"/><polygon fill="#181818" points="317.558,92.3569,310.6316,94.3631,309.8195,101.5284,316.7459,99.5221,317.558,92.3569" style="stroke:#181818;stroke-width:1.0;"/></g><!--MD5=[c271a9ac9b63afec1b9b138249f1ed9e]
link Klondike to Playmat--><g id="link_Klondike_Playmat"><path codeLine="55" d="M337,104.6769 C337,104.6769 337,152.7869 337,176.2969 C337,176.2969 337,176.2969 337,451.2969 C337,489.3149 340.679,532.6929 343.782,562.5149 " fill="none" id="Klondike-Playmat" style="stroke:#181818;stroke-width:1.0;"/><polygon fill="#181818" points="345.196,575.5889,348.2046,566.2108,344.6581,570.6179,340.2511,567.0714,345.196,575.5889" style="stroke:#181818;stroke-width:1.0;"/><line style="stroke:#181818;stroke-width:1.0;" x1="344.6581" x2="343.798" y1="570.6179" y2="562.6644"/><polygon fill="#181818" points="337,92.6769,333,98.6769,337,104.6769,341,98.6769,337,92.6769" style="stroke:#181818;stroke-width:1.0;"/></g><!--MD5=[c905f1b8e8f3426bca82a4905da2e16e]
link Deck to Card--><g id="link_Deck_Card"><path codeLine="56" d="M173.5825,291.1329 C173.5825,291.1329 163,354.9969 163,387.2969 C163,387.2969 163,387.2969 163,734.2969 C163,789.6649 218.025,820.5779 271.743,837.5639 " fill="none" id="Deck-Card" style="stroke:#181818;stroke-width:1.0;"/><polygon fill="#181818" points="284.245,841.2849,276.7601,834.8837,279.4528,839.8585,274.4779,842.5512,284.245,841.2849" style="stroke:#181818;stroke-width:1.0;"/><line style="stroke:#181818;stroke-width:1.0;" x1="279.4528" x2="271.786" y1="839.8585" y2="837.5769"/><polygon fill="#181818" points="175.89,279.3569,170.8109,284.4757,173.5825,291.1329,178.6616,286.0141,175.89,279.3569" style="stroke:#181818;stroke-width:1.0;"/><text fill="#000000" font-family="sans-serif" font-size="13" lengthAdjust="spacing" textLength="16" x="260.5348" y="836.3919">52</text></g><!--MD5=[7e30d075c7e28ae86a5e6e748d3cd0b6]
link Player to Move--><g id="link_Player_Move"><path codeLine="57" d="M457.961,201.4069 C461.968,248.6169 471.121,356.4669 475.926,413.0769 " fill="none" id="Player-to-Move" style="stroke:#181818;stroke-width:1.0;stroke-dasharray:7.0,7.0;"/><polygon fill="#181818" points="476.349,418.0569,479.5631,408.7472,475.9205,413.0753,471.5925,409.4328,476.349,418.0569" style="stroke:#181818;stroke-width:1.0;"/></g><!--MD5=[1571e4e0b7cdbae74b04c97a95677c54]
link Player to Goal--><g id="link_Player_Goal"><path codeLine="58" d="M468.725,201.3569 C483.936,228.9069 509.372,274.9969 525.656,304.4969 " fill="none" id="Player-to-Goal" style="stroke:#181818;stroke-width:1.0;"/><polygon fill="#181818" points="528.188,309.0869,527.3206,299.2763,525.7628,304.7144,520.3247,303.1566,528.188,309.0869" style="stroke:#181818;stroke-width:1.0;"/></g><!--MD5=[cd0c3954e43c16945db51e1325833371]
link Goal to Foundation--><g id="link_Goal_Foundation"><path codeLine="59" d="M554.26,357.3869 C563.52,374.0169 575.818,397.1569 585,418.2969 C629.673,521.1549 669.852,648.5909 686.661,704.1719 " fill="none" id="Goal-to-Foundation" style="stroke:#181818;stroke-width:1.0;"/><polygon fill="#181818" points="688.118,709.0059,689.3479,699.2341,686.6738,704.219,681.6889,701.5448,688.118,709.0059" style="stroke:#181818;stroke-width:1.0;"/><text fill="#000000" font-family="sans-serif" font-size="13" lengthAdjust="spacing" textLength="54" x="629" y="525.3638">Complet</text><text fill="#000000" font-family="sans-serif" font-size="13" lengthAdjust="spacing" textLength="8" x="677.4655" y="698.3399">4</text></g><!--MD5=[4b1f7a9ffece4d2d0cb1da7affd14ba5]
link Goal to Move--><g id="link_Goal_Move"><path codeLine="60" d="M528.453,357.5669 C519.777,373.6669 508.067,395.3769 498.221,413.6469 " fill="none" id="Goal-to-Move" style="stroke:#181818;stroke-width:1.0;stroke-dasharray:7.0,7.0;"/><polygon fill="#181818" points="495.76,418.2069,503.5511,412.1821,498.1322,413.8054,496.5088,408.3865,495.76,418.2069" style="stroke:#181818;stroke-width:1.0;"/><text fill="#000000" font-family="sans-serif" font-size="13" lengthAdjust="spacing" textLength="8" x="490.3918" y="407.0914">n</text></g><!--MD5=[42e56c2bcaeee41f3cf38eca74c52657]
link Move to Playmat--><g id="link_Move_Playmat"><path codeLine="61" d="M451.218,482.5779 C427.692,509.0669 394.318,546.6449 371.952,571.8279 " fill="none" id="Move-to-Playmat" style="stroke:#181818;stroke-width:1.0;"/><polygon fill="#181818" points="368.46,575.7599,377.4278,571.6881,371.7808,572.0219,371.447,566.3749,368.46,575.7599" style="stroke:#181818;stroke-width:1.0;"/></g><!--MD5=[9c96613f90e0ef613e532dfde2be76fd]
link Move to Pile--><g id="link_Move_Pile"><path codeLine="62" d="M453.708,482.4489 C445.217,496.7379 439.396,513.8909 446,529.2969 C450.029,538.6959 456.022,547.4249 462.874,555.3009 " fill="none" id="Move-to-Pile" style="stroke:#181818;stroke-width:1.0;"/><polygon fill="#181818" points="466.301,559.0979,463.2398,549.7368,462.9507,555.3863,457.3013,555.0973,466.301,559.0979" style="stroke:#181818;stroke-width:1.0;"/><text fill="#000000" font-family="sans-serif" font-size="13" lengthAdjust="spacing" textLength="37" x="447" y="525.3638">Origin</text></g><!--MD5=[9c96613f90e0ef613e532dfde2be76fd]
link Move to Pile--><g id="link_Move_Pile"><path codeLine="63" d="M487.483,482.5779 C493.135,503.4209 500.649,531.1279 506.923,554.2609 " fill="none" id="Move-to-Pile-1" style="stroke:#181818;stroke-width:1.0;"/><polygon fill="#181818" points="508.241,559.1239,509.7435,549.3903,506.9311,554.2985,502.0229,551.4861,508.241,559.1239" style="stroke:#181818;stroke-width:1.0;"/><text fill="#000000" font-family="sans-serif" font-size="13" lengthAdjust="spacing" textLength="73" x="500" y="525.3638">Destination</text></g><!--MD5=[244151ed5536ad17ad3204edd87a2f1d]
link Playmat to Tableau--><g id="link_Playmat_Tableau"><path codeLine="65" d="M354.6537,635.7926 C354.6537,635.7926 362.608,677.6329 366.1,696.0049 " fill="none" id="Playmat-Tableau" style="stroke:#181818;stroke-width:1.0;"/><polygon fill="#181818" points="368.548,708.8799,370.7973,699.2913,367.6145,703.9678,362.938,700.7849,368.548,708.8799" style="stroke:#181818;stroke-width:1.0;"/><line style="stroke:#181818;stroke-width:1.0;" x1="367.6145" x2="366.12" y1="703.9678" y2="696.1084"/><polygon fill="none" points="352.412,624.0039,349.6033,630.6455,354.6537,635.7926,357.4624,629.151,352.412,624.0039" style="stroke:#181818;stroke-width:1.0;"/><text fill="#000000" font-family="sans-serif" font-size="13" lengthAdjust="spacing" textLength="8" x="358.4878" y="698.1832">7</text></g><!--MD5=[70d91963b96b16c4c259c5647600a734]
link Playmat to Stock--><g id="link_Playmat_Stock"><path codeLine="66" d="M389.4558,631.0826 C389.4558,631.0826 447.666,673.6089 474.603,693.2869 " fill="none" id="Playmat-Stock" style="stroke:#181818;stroke-width:1.0;"/><polygon fill="#181818" points="485.404,701.1779,480.4963,692.6389,481.3666,698.2284,475.7771,699.0987,485.404,701.1779" style="stroke:#181818;stroke-width:1.0;"/><line style="stroke:#181818;stroke-width:1.0;" x1="481.3666" x2="474.907" y1="698.2284" y2="693.5089"/><polygon fill="none" points="379.766,624.0039,382.2513,630.7732,389.4558,631.0826,386.9705,624.3133,379.766,624.0039" style="stroke:#181818;stroke-width:1.0;"/></g><!--MD5=[8b963d065ff562fd0c2a97d82a357a46]
link Playmat to Waste--><g id="link_Playmat_Waste"><path codeLine="67" d="M324.6587,633.8011 C324.6587,633.8011 293.011,678.5499 279.229,698.0379 " fill="none" id="Playmat-Waste" style="stroke:#181818;stroke-width:1.0;"/><polygon fill="#181818" points="271.561,708.8799,280.0235,703.8415,274.4481,704.7976,273.4919,699.2222,271.561,708.8799" style="stroke:#181818;stroke-width:1.0;"/><line style="stroke:#181818;stroke-width:1.0;" x1="274.4481" x2="279.0675" y1="704.7976" y2="698.2659"/><polygon fill="none" points="331.588,624.0039,324.8576,626.5927,324.6587,633.8011,331.3891,631.2122,331.588,624.0039" style="stroke:#181818;stroke-width:1.0;"/></g><!--MD5=[8b347d4a1ecede83690da5ca6ebfa2b5]
link Playmat to Foundation--><g id="link_Playmat_Foundation"><path codeLine="68" d="M397.7015,629.3727 C397.7015,629.3727 413.672,637.2329 421,640.2969 C506.739,676.1439 533.588,669.7479 621,701.2969 C623.715,702.2769 626.474,703.3009 629.254,704.3559 " fill="none" id="Playmat-Foundation" style="stroke:#181818;stroke-width:1.0;"/><polygon fill="#181818" points="641.495,709.1369,634.5673,702.1363,636.8377,707.3176,631.6565,709.588,641.495,709.1369" style="stroke:#181818;stroke-width:1.0;"/><line style="stroke:#181818;stroke-width:1.0;" x1="636.8377" x2="629.3855" y1="707.3176" y2="704.4069"/><polygon fill="none" points="387.074,623.7999,390.5301,630.1288,397.7015,629.3727,394.2454,623.0438,387.074,623.7999" style="stroke:#181818;stroke-width:1.0;"/><text fill="#000000" font-family="sans-serif" font-size="13" lengthAdjust="spacing" textLength="8" x="622.8925" y="700.3787">4</text></g><!--MD5=[a3b0419bdb877a6921c502f7ab916277]
reverse link Pile to Stock--><g id="link_Pile_Stock"><path codeLine="70" d="M523.12,661.0009 C524.066,674.8149 525.034,688.9569 525.856,700.9669 " fill="none" id="Pile-backto-Stock" style="stroke:#181818;stroke-width:1.0;"/><polygon fill="none" points="516.107,661.0399,521.725,640.6079,530.074,660.0839,516.107,661.0399" style="stroke:#181818;stroke-width:1.0;"/></g><!--MD5=[0cc7312144b7b0e8e85651666602557e]
reverse link Pile to Waste--><g id="link_Pile_Waste"><path codeLine="71" d="M420.673,646.9279 C385.825,663.6399 346.471,682.9279 311,701.2969 C305.375,704.2099 299.479,707.3619 293.711,710.5029 " fill="none" id="Pile-backto-Waste" style="stroke:#181818;stroke-width:1.0;"/><polygon fill="none" points="417.912,640.4889,438.976,638.1879,423.945,653.1229,417.912,640.4889" style="stroke:#181818;stroke-width:1.0;"/></g><!--MD5=[6d28caff8698f66462643c822ec8500b]
reverse link Pile to Foundation--><g id="link_Pile_Foundation"><path codeLine="72" d="M588.63,652.8219 C614.813,672.3849 643.267,693.6439 664.152,709.2489 " fill="none" id="Pile-backto-Foundation" style="stroke:#181818;stroke-width:1.0;"/><polygon fill="none" points="584.115,658.1869,572.283,640.6079,592.495,646.9709,584.115,658.1869" style="stroke:#181818;stroke-width:1.0;"/></g><!--MD5=[b0173922ba304e58e67aa3279a656791]
reverse link Pile to Tableau--><g id="link_Pile_Tableau"><path codeLine="73" d="M459.744,654.1679 C438.53,673.2749 415.71,693.8289 398.802,709.0569 " fill="none" id="Pile-backto-Tableau" style="stroke:#181818;stroke-width:1.0;"/><polygon fill="none" points="455.253,648.7919,474.799,640.6079,464.623,659.1939,455.253,648.7919" style="stroke:#181818;stroke-width:1.0;"/></g><!--MD5=[3f3e21409bc1ba7b69847dd87d001f55]
link Foundation to Card--><g id="link_Foundation_Card"><path codeLine="75" d="M629.4319,761.9291 C629.4319,761.9291 623.381,764.3569 621,765.2969 C572.09,784.6039 517.319,805.0449 471.715,821.7429 " fill="none" id="Foundation-Card" style="stroke:#181818;stroke-width:1.0;"/><polygon fill="#181818" points="459.414,826.2379,469.2401,826.9065,464.1104,824.5221,466.4948,819.3923,459.414,826.2379" style="stroke:#181818;stroke-width:1.0;"/><line style="stroke:#181818;stroke-width:1.0;" x1="464.1104" x2="471.6245" y1="824.5221" y2="821.7759"/><polygon fill="none" points="640.548,757.4089,633.4832,755.9637,629.4319,761.9291,636.4967,763.3744,640.548,757.4089" style="stroke:#181818;stroke-width:1.0;"/><text fill="#000000" font-family="sans-serif" font-size="13" lengthAdjust="spacing" textLength="32" x="441.9369" y="815.1288">0..13</text></g><!--MD5=[570e651fcc8417d55cbda0d286d7d10f]
link Stock to Card--><g id="link_Stock_Card"><path codeLine="76" d="M479.4874,772.7947 C479.4874,772.7947 440.353,803.8489 422.379,818.1129 " fill="none" id="Stock-Card" style="stroke:#181818;stroke-width:1.0;"/><polygon fill="#181818" points="412.101,826.2689,421.6373,823.8072,416.0175,823.1606,416.6641,817.5409,412.101,826.2689" style="stroke:#181818;stroke-width:1.0;"/><line style="stroke:#181818;stroke-width:1.0;" x1="416.0175" x2="422.2835" y1="823.1606" y2="818.1879"/><polygon fill="none" points="488.887,765.3349,481.7006,765.9316,479.4874,772.7947,486.6738,772.198,488.887,765.3349" style="stroke:#181818;stroke-width:1.0;"/><text fill="#000000" font-family="sans-serif" font-size="13" lengthAdjust="spacing" textLength="32" x="384.8656" y="815.1662">0..24</text></g><!--MD5=[335c588940b99cdeda2c3dd852faaee0]
link Tableau to Card--><g id="link_Tableau_Card"><path codeLine="77" d="M373,769.4319 C373,769.4319 373,798.8429 373,812.6369 " fill="none" id="Tableau-Card" style="stroke:#181818;stroke-width:1.0;"/><polygon fill="#181818" points="373,825.9079,377,816.9079,373,820.9079,369,816.9079,373,825.9079" style="stroke:#181818;stroke-width:1.0;"/><line style="stroke:#181818;stroke-width:1.0;" x1="373" x2="373" y1="820.9079" y2="812.9079"/><polygon fill="none" points="373,757.4319,369,763.4319,373,769.4319,377,763.4319,373,757.4319" style="stroke:#181818;stroke-width:1.0;"/><text fill="#000000" font-family="sans-serif" font-size="13" lengthAdjust="spacing" textLength="32" x="337.95" y="815.3553">0..18</text></g><!--MD5=[e648539d6e20c171ea15533740fa2cf9]
link Waste to Card--><g id="link_Waste_Card"><path codeLine="78" d="M285.5017,766.092 C285.5017,766.092 318.278,800.2559 333.63,816.2589 " fill="none" id="Waste-Card" style="stroke:#181818;stroke-width:1.0;"/><polygon fill="#181818" points="342.887,825.9079,339.5429,816.6441,339.4256,822.2998,333.7699,822.1824,342.887,825.9079" style="stroke:#181818;stroke-width:1.0;"/><line style="stroke:#181818;stroke-width:1.0;" x1="339.4256" x2="333.8875" y1="822.2998" y2="816.5269"/><polygon fill="none" points="277.195,757.4319,278.4616,764.5309,285.5017,766.092,284.2351,758.993,277.195,757.4319" style="stroke:#181818;stroke-width:1.0;"/><text fill="#000000" font-family="sans-serif" font-size="13" lengthAdjust="spacing" textLength="32" x="302.0967" y="815.3553">0..24</text></g><!--MD5=[988cd1dee8ea1cf2960e884b4b0ffb8b]
reverse link Suit to Club--><g id="link_Suit_Club"><path codeLine="80" d="M302.093,1132.0059 C323.667,1180.5469 355.544,1252.2709 371.743,1288.7189 " fill="none" id="Suit-backto-Club" style="stroke:#181818;stroke-width:1.0;"/><polygon fill="none" points="295.695,1134.8459,293.969,1113.7269,308.488,1129.1599,295.695,1134.8459" style="stroke:#181818;stroke-width:1.0;"/></g><!--MD5=[87a89b153beae7d393e9829af90018d5]
reverse link Suit to Spade--><g id="link_Suit_Spade"><path codeLine="81" d="M301.439,1131.8219 C313.915,1157.2499 331.272,1187.7469 352,1211.2969 C360.244,1220.6629 417.512,1261.9079 455.059,1288.5629 " fill="none" id="Suit-backto-Spade" style="stroke:#181818;stroke-width:1.0;"/><polygon fill="none" points="295.03,1134.6439,292.875,1113.5639,307.705,1128.6989,295.03,1134.6439" style="stroke:#181818;stroke-width:1.0;"/></g><!--MD5=[1f6eb2bb0d8a343fbbac7006c87fddfb]
reverse link Suit to Diamond--><g id="link_Suit_Diamond"><path codeLine="82" d="M254.607,1131.6829 C229.647,1180.2289 192.647,1252.1899 173.866,1288.7189 " fill="none" id="Suit-backto-Diamond" style="stroke:#181818;stroke-width:1.0;"/><polygon fill="none" points="248.469,1128.3129,263.84,1113.7269,260.92,1134.7139,248.469,1128.3129" style="stroke:#181818;stroke-width:1.0;"/></g><!--MD5=[4dce8a7c926835c26b617333aef55021]
reverse link Suit to Heart--><g id="link_Suit_Heart"><path codeLine="83" d="M232.94,1127.8679 C182.84,1176.3829 105.556,1251.2209 66.8327,1288.7189 " fill="none" id="Suit-backto-Heart" style="stroke:#181818;stroke-width:1.0;"/><polygon fill="none" points="228.306,1122.6109,247.543,1113.7269,238.045,1132.6679,228.306,1122.6109" style="stroke:#181818;stroke-width:1.0;"/></g><!--MD5=[01ae9f68263e6bc4031c0aece6e20929]
link Card to Suit--><g id="link_Card_Suit"><path codeLine="84" d="M355.2194,901.5528 C355.2194,901.5528 314.539,998.2209 298.19,1037.0719 " fill="none" id="Card-Suit" style="stroke:#181818;stroke-width:1.0;"/><polygon fill="#181818" points="293.061,1049.2609,300.2388,1042.5171,295.0004,1044.6523,292.8652,1039.414,293.061,1049.2609" style="stroke:#181818;stroke-width:1.0;"/><line style="stroke:#181818;stroke-width:1.0;" x1="295.0004" x2="298.103" y1="1044.6523" y2="1037.2779"/><polygon fill="#181818" points="359.873,890.4919,353.8592,894.4712,355.2194,901.5528,361.2332,897.5735,359.873,890.4919" style="stroke:#181818;stroke-width:1.0;"/></g><!--MD5=[dab4fdc688f775bd2cd14c67a04f3f7b]
link Card to Rank--><g id="link_Card_Rank"><path codeLine="85" d="M379.0428,902.3756 C379.0428,902.3756 382.349,925.9469 384.071,938.2249 " fill="none" id="Card-Rank" style="stroke:#181818;stroke-width:1.0;"/><polygon fill="#181818" points="385.891,951.1969,388.6021,941.7285,385.1965,946.2453,380.6797,942.8397,385.891,951.1969" style="stroke:#181818;stroke-width:1.0;"/><line style="stroke:#181818;stroke-width:1.0;" x1="385.1965" x2="384.085" y1="946.2453" y2="938.3229"/><polygon fill="#181818" points="377.376,890.4919,374.2482,896.9893,379.0428,902.3756,382.1706,895.8781,377.376,890.4919" style="stroke:#181818;stroke-width:1.0;"/></g><!--MD5=[177767f5f369ddd7a2766db2fec86924]
link Suit to Color--><g id="link_Suit_Color"><path codeLine="86" d="M280,1113.7269 C280,1153.4439 280,1222.0549 280,1267.1849 " fill="none" id="Suit-to-Color" style="stroke:#181818;stroke-width:1.0;"/><polygon fill="#181818" points="280,1272.2959,284,1263.2959,280,1267.2959,276,1263.2959,280,1272.2959" style="stroke:#181818;stroke-width:1.0;"/></g><!--MD5=[02f84573c9257591cc6ecb265d87c085]
link Color to Red--><g id="link_Color_Red"><path codeLine="87" d="M230.995,1365.0858 C220.047,1376.5444 208.626,1388.4981 198.299,1399.306 " fill="none" id="Color-Red" style="stroke:#181818;stroke-width:1.0;"/><polygon fill="#181818" points="184.135,1414.1298,193.2446,1410.386,187.5892,1410.5147,187.4605,1404.8593,184.135,1414.1298" style="stroke:#181818;stroke-width:1.0;"/><line style="stroke:#181818;stroke-width:1.0;" x1="187.5892" x2="197.952" y1="1410.5147" y2="1399.6693"/><polygon fill="none" points="226.038,1360.1409,244.916,1350.5169,236.16,1369.8129,226.038,1360.1409" style="stroke:#181818;stroke-width:1.0;"/></g><!--MD5=[bb5bacd9b7a3df96c0a5e7fe1de7da1a]
link Color to Black--><g id="link_Color_Black"><path codeLine="88" d="M325.659,1369.0801 C333.855,1379.0034 342.236,1389.1519 349.945,1398.4853 " fill="none" id="Color-Black" style="stroke:#181818;stroke-width:1.0;"/><polygon fill="#181818" points="362.908,1414.1807,360.2607,1404.6943,359.7239,1410.3256,354.0926,1409.7888,362.908,1414.1807" style="stroke:#181818;stroke-width:1.0;"/><line style="stroke:#181818;stroke-width:1.0;" x1="359.7239" x2="350.172" y1="1410.3256" y2="1398.7601"/><polygon fill="none" points="320.174,1373.4311,312.835,1353.5529,330.968,1364.5158,320.174,1373.4311" style="stroke:#181818;stroke-width:1.0;"/></g><!--MD5=[378246b792e7d73afd082aeb5825fcc6]
link Club to Black--><g id="link_Club_Black"><path codeLine="89" d="M382,1349.0259 C382,1349.0259 382,1384.9404 382,1400.9509 " fill="none" id="Club-Black" style="stroke:#181818;stroke-width:1.0;"/><polygon fill="#181818" points="382,1414.1717,386,1405.1717,382,1409.1717,378,1405.1717,382,1414.1717" style="stroke:#181818;stroke-width:1.0;"/><line style="stroke:#181818;stroke-width:1.0;" x1="382" x2="382" y1="1409.1717" y2="1401.1716"/><polygon fill="#181818" points="382,1337.0259,378,1343.0259,382,1349.0259,386,1343.0259,382,1337.0259" style="stroke:#181818;stroke-width:1.0;"/></g><!--MD5=[5e71cd03c38ae2dc5991a4eb9d4f46b1]
link Spade to Black--><g id="link_Spade_Black"><path codeLine="90" d="M460.2461,1346.1315 C460.2461,1346.1315 425.593,1386.5067 410.361,1404.254 " fill="none" id="Spade-Black" style="stroke:#181818;stroke-width:1.0;"/><polygon fill="#181818" points="401.848,1414.1717,410.7451,1409.9477,405.1046,1410.3777,404.6747,1404.7372,401.848,1414.1717" style="stroke:#181818;stroke-width:1.0;"/><line style="stroke:#181818;stroke-width:1.0;" x1="405.1046" x2="410.3155" y1="1410.3777" y2="1404.3069"/><polygon fill="#181818" points="468.062,1337.0259,461.1189,1338.9734,460.2461,1346.1315,467.1892,1344.184,468.062,1337.0259" style="stroke:#181818;stroke-width:1.0;"/></g><!--MD5=[732c23f4e298c91ded3bfa0cbc712d38]
link Diamond to Red--><g id="link_Diamond_Red"><path codeLine="91" d="M162,1349.0259 C162,1349.0259 162,1384.9404 162,1400.9509 " fill="none" id="Diamond-Red" style="stroke:#181818;stroke-width:1.0;"/><polygon fill="#181818" points="162,1414.1717,166,1405.1717,162,1409.1717,158,1405.1717,162,1414.1717" style="stroke:#181818;stroke-width:1.0;"/><line style="stroke:#181818;stroke-width:1.0;" x1="162" x2="162" y1="1409.1717" y2="1401.1716"/><polygon fill="#181818" points="162,1337.0259,158,1343.0259,162,1349.0259,166,1343.0259,162,1337.0259" style="stroke:#181818;stroke-width:1.0;"/></g><!--MD5=[39e04be43e1ad652dcf6d75fa160b251]
link Heart to Red--><g id="link_Heart_Red"><path codeLine="92" d="M73.7092,1345.6673 C73.7092,1345.6673 113.325,1386.7816 130.596,1404.7055 " fill="none" id="Heart-Red" style="stroke:#181818;stroke-width:1.0;"/><polygon fill="#181818" points="139.717,1414.1717,136.3526,1404.9153,136.2477,1410.5711,130.5918,1410.4662,139.717,1414.1717" style="stroke:#181818;stroke-width:1.0;"/><line style="stroke:#181818;stroke-width:1.0;" x1="136.2477" x2="130.6975" y1="1410.5711" y2="1404.8103"/><polygon fill="#181818" points="65.383,1337.0259,66.6656,1344.122,73.7092,1345.6673,72.4266,1338.5712,65.383,1337.0259" style="stroke:#181818;stroke-width:1.0;"/></g><!--MD5=[0c08f5b831ea8ee86377405aaf06562a]
@startuml
title Klondike

class Klondike
class Player
class Playmat
class Deck
class Goal
class Stock{
{static} maxCards = 52 : int
}
class Foundation{
'{static} maxCards = 13 : int
}
class Tableau{
'{static} maxCards = 28 : int
}
class Waste{
'{static} maxCards = 24 : int
}
class Card{
-IsTurnedUp : boolean
}
abstract Pile{
+show() : boolean
+stacable():boolean
}
abstract Suit{
- color :Color
}
class Move{
+validMove() : boolean
}
enum Color{
RED
BLACK
}
enum Rank{
A
2
3
4
5
6
7
8
9
1
J
Q
K
}

Klondike *- -> Player
Klondike *- -> Deck
Klondike *- -> Playmat
Deck *-down-> "52" Card
Player ..> Move
Player - -> Goal
Goal - -> "4" Foundation : "Complet"
Goal ..> "n" Move
Move - -> Playmat
Move - -> Pile :"Origin"
Move - -> Pile :"Destination"

Playmat o- -> "7" Tableau
Playmat o- -> Stock
Playmat o- -> Waste
Playmat o- -> "4" Foundation

Pile <|- - Stock
Pile <|- - Waste 
Pile <|- - Foundation
Pile <|- - Tableau

Foundation o- -> "0..13" Card
Stock o- -> "0..24" Card
Tableau o- -> "0..18" Card
Waste o- -> "0..24" Card

Suit <|- - Club
Suit <|- - Spade
Suit <|- - Diamond
Suit <|- -Heart
Card *- -> Suit
Card *- -> Rank
Suit - -> Color
Color <|- -> Red
Color <|- -> Black
Club *- -> Black
Spade *- -> Black
Diamond *- -> Red
Heart *- -> Red
@enduml

@startuml
title Klondike

class Klondike
class Player
class Playmat
class Deck
class Goal
class Stock{
{static} maxCards = 52 : int
}
class Foundation{
}
class Tableau{
}
class Waste{
}
class Card{
-IsTurnedUp : boolean
}
abstract Pile{
+show() : boolean
+stacable():boolean
}
abstract Suit{
- color :Color
}
class Move{
+validMove() : boolean
}
enum Color{
RED
BLACK
}
enum Rank{
A
2
3
4
5
6
7
8
9
1
J
Q
K
}

Klondike *- -> Player
Klondike *- -> Deck
Klondike *- -> Playmat
Deck *-down-> "52" Card
Player ..> Move
Player - -> Goal
Goal - -> "4" Foundation : "Complet"
Goal ..> "n" Move
Move - -> Playmat
Move - -> Pile :"Origin"
Move - -> Pile :"Destination"

Playmat o- -> "7" Tableau
Playmat o- -> Stock
Playmat o- -> Waste
Playmat o- -> "4" Foundation

Pile <|- - Stock
Pile <|- - Waste 
Pile <|- - Foundation
Pile <|- - Tableau

Foundation o- -> "0..13" Card
Stock o- -> "0..24" Card
Tableau o- -> "0..18" Card
Waste o- -> "0..24" Card

Suit <|- - Club
Suit <|- - Spade
Suit <|- - Diamond
Suit <|- -Heart
Card *- -> Suit
Card *- -> Rank
Suit - -> Color
Color <|- -> Red
Color <|- -> Black
Club *- -> Black
Spade *- -> Black
Diamond *- -> Red
Heart *- -> Red
@enduml

PlantUML version 1.2022.3beta2(Unknown compile time)
(GPL source distribution)
Java Runtime: Java(TM) SE Runtime Environment
JVM: Java HotSpot(TM) 64-Bit Server VM
Default Encoding: UTF-8
Language: en
Country: US
--></g></svg>