<?xml version="1.0" encoding="UTF-8" standalone="no"?><svg xmlns="http://www.w3.org/2000/svg" xmlns:xlink="http://www.w3.org/1999/xlink" contentStyleType="text/css" height="1362px" preserveAspectRatio="none" style="width:946px;height:1362px;background:#FFFFFF;" version="1.1" viewBox="0 0 946 1362" width="946px" zoomAndPan="magnify"><defs/><g><rect height="26.2969" style="stroke:#00000000;stroke-width:1.0;fill:none;" width="78" x="427" y="5"/><text fill="#000000" font-family="sans-serif" font-size="14" font-weight="bold" lengthAdjust="spacing" textLength="68" x="432" y="22.9951">Klondike</text><!--MD5=[ce135f397e71694d574a1221b16fe9d6]
class Klondike--><g id="elem_Klondike"><rect codeLine="2" fill="#F1F1F1" height="48" id="Klondike" rx="2.5" ry="2.5" style="stroke:#181818;stroke-width:0.5;" width="95" x="440.5" y="44.2969"/><ellipse cx="455.5" cy="60.2969" fill="#ADD1B2" rx="11" ry="11" style="stroke:#181818;stroke-width:1.0;"/><path d="M457.8438,55.9688 C456.9063,55.5313 456.3125,55.3906 455.4375,55.3906 C452.8125,55.3906 450.8125,57.4688 450.8125,60.1875 L450.8125,61.3125 C450.8125,63.8906 452.9219,65.7813 455.8125,65.7813 C457.0313,65.7813 458.1875,65.4844 458.9375,64.9375 C459.5156,64.5313 459.8438,64.0781 459.8438,63.6875 C459.8438,63.2344 459.4531,62.8438 458.9844,62.8438 C458.7656,62.8438 458.5625,62.9219 458.375,63.1094 C457.9219,63.5938 457.9219,63.5938 457.7344,63.6875 C457.3125,63.9531 456.625,64.0781 455.8594,64.0781 C453.8125,64.0781 452.5156,62.9844 452.5156,61.2813 L452.5156,60.1875 C452.5156,58.4063 453.7656,57.0938 455.5,57.0938 C456.0781,57.0938 456.6875,57.25 457.1563,57.5 C457.6406,57.7813 457.8125,58 457.9063,58.4063 C457.9688,58.8125 458,58.9375 458.1406,59.0625 C458.2813,59.2031 458.5156,59.3125 458.7344,59.3125 C459,59.3125 459.2656,59.1719 459.4375,58.9531 C459.5469,58.7969 459.5781,58.6094 459.5781,58.1875 L459.5781,56.7656 C459.5781,56.3281 459.5625,56.2031 459.4688,56.0469 C459.3125,55.7813 459.0313,55.6406 458.7344,55.6406 C458.4375,55.6406 458.2344,55.7344 458.0156,56.0469 L457.8438,55.9688 Z " fill="#000000"/><text fill="#000000" font-family="sans-serif" font-size="14" lengthAdjust="spacing" textLength="63" x="469.5" y="65.1436">Klondike</text><line style="stroke:#181818;stroke-width:0.5;" x1="441.5" x2="534.5" y1="76.2969" y2="76.2969"/><line style="stroke:#181818;stroke-width:0.5;" x1="441.5" x2="534.5" y1="84.2969" y2="84.2969"/></g><!--MD5=[2cb47ba637a0d19583e6199456f6ad0b]
class Player--><g id="elem_Player"><rect codeLine="3" fill="#F1F1F1" height="48" id="Player" rx="2.5" ry="2.5" style="stroke:#181818;stroke-width:0.5;" width="76" x="450" y="153.2969"/><ellipse cx="465" cy="169.2969" fill="#ADD1B2" rx="11" ry="11" style="stroke:#181818;stroke-width:1.0;"/><path d="M467.3438,164.9688 C466.4063,164.5313 465.8125,164.3906 464.9375,164.3906 C462.3125,164.3906 460.3125,166.4688 460.3125,169.1875 L460.3125,170.3125 C460.3125,172.8906 462.4219,174.7813 465.3125,174.7813 C466.5313,174.7813 467.6875,174.4844 468.4375,173.9375 C469.0156,173.5313 469.3438,173.0781 469.3438,172.6875 C469.3438,172.2344 468.9531,171.8438 468.4844,171.8438 C468.2656,171.8438 468.0625,171.9219 467.875,172.1094 C467.4219,172.5938 467.4219,172.5938 467.2344,172.6875 C466.8125,172.9531 466.125,173.0781 465.3594,173.0781 C463.3125,173.0781 462.0156,171.9844 462.0156,170.2813 L462.0156,169.1875 C462.0156,167.4063 463.2656,166.0938 465,166.0938 C465.5781,166.0938 466.1875,166.25 466.6563,166.5 C467.1406,166.7813 467.3125,167 467.4063,167.4063 C467.4688,167.8125 467.5,167.9375 467.6406,168.0625 C467.7813,168.2031 468.0156,168.3125 468.2344,168.3125 C468.5,168.3125 468.7656,168.1719 468.9375,167.9531 C469.0469,167.7969 469.0781,167.6094 469.0781,167.1875 L469.0781,165.7656 C469.0781,165.3281 469.0625,165.2031 468.9688,165.0469 C468.8125,164.7813 468.5313,164.6406 468.2344,164.6406 C467.9375,164.6406 467.7344,164.7344 467.5156,165.0469 L467.3438,164.9688 Z " fill="#000000"/><text fill="#000000" font-family="sans-serif" font-size="14" lengthAdjust="spacing" textLength="44" x="479" y="174.1436">Player</text><line style="stroke:#181818;stroke-width:0.5;" x1="451" x2="525" y1="185.2969" y2="185.2969"/><line style="stroke:#181818;stroke-width:0.5;" x1="451" x2="525" y1="193.2969" y2="193.2969"/></g><!--MD5=[bc87bf052131b9ca3b54b8ba84b5b110]
class Movement--><g id="elem_Movement"><rect codeLine="4" fill="#F1F1F1" height="48" id="Movement" rx="2.5" ry="2.5" style="stroke:#181818;stroke-width:0.5;" width="109" x="464.5" y="327.2969"/><ellipse cx="479.5" cy="343.2969" fill="#ADD1B2" rx="11" ry="11" style="stroke:#181818;stroke-width:1.0;"/><path d="M481.8438,338.9688 C480.9063,338.5313 480.3125,338.3906 479.4375,338.3906 C476.8125,338.3906 474.8125,340.4688 474.8125,343.1875 L474.8125,344.3125 C474.8125,346.8906 476.9219,348.7813 479.8125,348.7813 C481.0313,348.7813 482.1875,348.4844 482.9375,347.9375 C483.5156,347.5313 483.8438,347.0781 483.8438,346.6875 C483.8438,346.2344 483.4531,345.8438 482.9844,345.8438 C482.7656,345.8438 482.5625,345.9219 482.375,346.1094 C481.9219,346.5938 481.9219,346.5938 481.7344,346.6875 C481.3125,346.9531 480.625,347.0781 479.8594,347.0781 C477.8125,347.0781 476.5156,345.9844 476.5156,344.2813 L476.5156,343.1875 C476.5156,341.4063 477.7656,340.0938 479.5,340.0938 C480.0781,340.0938 480.6875,340.25 481.1563,340.5 C481.6406,340.7813 481.8125,341 481.9063,341.4063 C481.9688,341.8125 482,341.9375 482.1406,342.0625 C482.2813,342.2031 482.5156,342.3125 482.7344,342.3125 C483,342.3125 483.2656,342.1719 483.4375,341.9531 C483.5469,341.7969 483.5781,341.6094 483.5781,341.1875 L483.5781,339.7656 C483.5781,339.3281 483.5625,339.2031 483.4688,339.0469 C483.3125,338.7813 483.0313,338.6406 482.7344,338.6406 C482.4375,338.6406 482.2344,338.7344 482.0156,339.0469 L481.8438,338.9688 Z " fill="#000000"/><text fill="#000000" font-family="sans-serif" font-size="14" lengthAdjust="spacing" textLength="77" x="493.5" y="348.1436">Movement</text><line style="stroke:#181818;stroke-width:0.5;" x1="465.5" x2="572.5" y1="359.2969" y2="359.2969"/><line style="stroke:#181818;stroke-width:0.5;" x1="465.5" x2="572.5" y1="367.2969" y2="367.2969"/></g><!--MD5=[0992d3fdc9d3d7c02b735131bb70871d]
class Goal--><g id="elem_Goal"><rect codeLine="5" fill="#F1F1F1" height="48" id="Goal" rx="2.5" ry="2.5" style="stroke:#181818;stroke-width:0.5;" width="64" x="365" y="327.2969"/><ellipse cx="380" cy="343.2969" fill="#ADD1B2" rx="11" ry="11" style="stroke:#181818;stroke-width:1.0;"/><path d="M382.3438,338.9688 C381.4063,338.5313 380.8125,338.3906 379.9375,338.3906 C377.3125,338.3906 375.3125,340.4688 375.3125,343.1875 L375.3125,344.3125 C375.3125,346.8906 377.4219,348.7813 380.3125,348.7813 C381.5313,348.7813 382.6875,348.4844 383.4375,347.9375 C384.0156,347.5313 384.3438,347.0781 384.3438,346.6875 C384.3438,346.2344 383.9531,345.8438 383.4844,345.8438 C383.2656,345.8438 383.0625,345.9219 382.875,346.1094 C382.4219,346.5938 382.4219,346.5938 382.2344,346.6875 C381.8125,346.9531 381.125,347.0781 380.3594,347.0781 C378.3125,347.0781 377.0156,345.9844 377.0156,344.2813 L377.0156,343.1875 C377.0156,341.4063 378.2656,340.0938 380,340.0938 C380.5781,340.0938 381.1875,340.25 381.6563,340.5 C382.1406,340.7813 382.3125,341 382.4063,341.4063 C382.4688,341.8125 382.5,341.9375 382.6406,342.0625 C382.7813,342.2031 383.0156,342.3125 383.2344,342.3125 C383.5,342.3125 383.7656,342.1719 383.9375,341.9531 C384.0469,341.7969 384.0781,341.6094 384.0781,341.1875 L384.0781,339.7656 C384.0781,339.3281 384.0625,339.2031 383.9688,339.0469 C383.8125,338.7813 383.5313,338.6406 383.2344,338.6406 C382.9375,338.6406 382.7344,338.7344 382.5156,339.0469 L382.3438,338.9688 Z " fill="#000000"/><text fill="#000000" font-family="sans-serif" font-size="14" lengthAdjust="spacing" textLength="32" x="394" y="348.1436">Goal</text><line style="stroke:#181818;stroke-width:0.5;" x1="366" x2="428" y1="359.2969" y2="359.2969"/><line style="stroke:#181818;stroke-width:0.5;" x1="366" x2="428" y1="367.2969" y2="367.2969"/></g><g id="elem_GMN489926"><path d="M130,331.2969 L130,371.5625 A0,0 0 0 0 130,371.5625 L330,371.5625 A0,0 0 0 0 330,371.5625 L330,355.2969 L364.873,351.2969 L330,347.2969 L330,341.2969 L320,331.2969 L130,331.2969 A0,0 0 0 0 130,331.2969 " fill="#FEFFDD" style="stroke:#181818;stroke-width:0.5;"/><path d="M320,331.2969 L320,341.2969 L330,341.2969 L320,331.2969 " fill="#FEFFDD" style="stroke:#181818;stroke-width:0.5;"/><text fill="#000000" font-family="sans-serif" font-size="13" lengthAdjust="spacing" textLength="158" x="136" y="348.3638">build the four foundation</text><text fill="#000000" font-family="sans-serif" font-size="13" lengthAdjust="spacing" textLength="179" x="136" y="363.4966">of cards in order ace to king</text></g><!--MD5=[9d65f55e1ae89a5b4cf38812aa4a03f3]
class Pile--><g id="elem_Pile"><rect codeLine="11" fill="#F1F1F1" height="48" id="Pile" rx="2.5" ry="2.5" style="stroke:#181818;stroke-width:0.5;" width="57" x="440.5" y="517.2969"/><ellipse cx="455.5" cy="533.2969" fill="#A9DCDF" rx="11" ry="11" style="stroke:#181818;stroke-width:1.0;"/><path d="M457.5781,535.1094 L457.9688,536.0938 L457.5781,536.0938 C457.125,536.0938 457.0156,536.1094 456.8594,536.2188 C456.6094,536.375 456.4531,536.6563 456.4531,536.9531 C456.4531,537.2188 456.5938,537.4688 456.8125,537.625 C456.9531,537.75 457.1563,537.7969 457.5781,537.7969 L459.9375,537.7969 C460.2969,537.7969 460.5156,537.7656 460.6563,537.6719 C460.9063,537.5313 461.0625,537.2344 461.0625,536.9531 C461.0625,536.6719 460.9219,536.4219 460.7031,536.2656 C460.5313,536.125 460.375,536.0938 459.9063,536.0938 L456.5156,527.8906 L452.8438,527.8906 C452.3906,527.8906 452.2656,527.9063 452.1094,528 C451.8594,528.1719 451.7031,528.4531 451.7031,528.7344 C451.7031,529.0156 451.8438,529.2656 452.0625,529.4375 C452.2344,529.5469 452.4063,529.5781 452.8438,529.5781 L453.9219,529.5781 L451.2813,536.0938 C450.8594,536.0938 450.7031,536.1094 450.5469,536.2188 C450.2969,536.375 450.1406,536.6563 450.1406,536.9531 C450.1406,537.5156 450.5156,537.7969 451.2656,537.7969 L453.5313,537.7969 C453.8906,537.7969 454.1094,537.7656 454.2344,537.6719 C454.5,537.5313 454.6406,537.2344 454.6406,536.9531 C454.6406,536.6719 454.5156,536.4219 454.2969,536.25 C454.125,536.125 453.9844,536.0938 453.5313,536.0938 L453.1406,536.0938 L453.5313,535.1094 L457.5781,535.1094 Z M456.875,533.4063 L454.2031,533.4063 L455.5469,530.1406 L456.875,533.4063 Z " fill="#000000"/><text fill="#000000" font-family="sans-serif" font-size="14" font-style="italic" lengthAdjust="spacing" textLength="25" x="469.5" y="538.1436">Pile</text><line style="stroke:#181818;stroke-width:0.5;" x1="441.5" x2="496.5" y1="549.2969" y2="549.2969"/><line style="stroke:#181818;stroke-width:0.5;" x1="441.5" x2="496.5" y1="557.2969" y2="557.2969"/></g><!--MD5=[d01ad859d436f6e28b36a553834670aa]
class Foundation--><g id="elem_Foundation"><rect codeLine="12" fill="#F1F1F1" height="48" id="Foundation" rx="2.5" ry="2.5" style="stroke:#181818;stroke-width:0.5;" width="112" x="250" y="626.2969"/><ellipse cx="265" cy="642.2969" fill="#ADD1B2" rx="11" ry="11" style="stroke:#181818;stroke-width:1.0;"/><path d="M267.3438,637.9688 C266.4063,637.5313 265.8125,637.3906 264.9375,637.3906 C262.3125,637.3906 260.3125,639.4688 260.3125,642.1875 L260.3125,643.3125 C260.3125,645.8906 262.4219,647.7813 265.3125,647.7813 C266.5313,647.7813 267.6875,647.4844 268.4375,646.9375 C269.0156,646.5313 269.3438,646.0781 269.3438,645.6875 C269.3438,645.2344 268.9531,644.8438 268.4844,644.8438 C268.2656,644.8438 268.0625,644.9219 267.875,645.1094 C267.4219,645.5938 267.4219,645.5938 267.2344,645.6875 C266.8125,645.9531 266.125,646.0781 265.3594,646.0781 C263.3125,646.0781 262.0156,644.9844 262.0156,643.2813 L262.0156,642.1875 C262.0156,640.4063 263.2656,639.0938 265,639.0938 C265.5781,639.0938 266.1875,639.25 266.6563,639.5 C267.1406,639.7813 267.3125,640 267.4063,640.4063 C267.4688,640.8125 267.5,640.9375 267.6406,641.0625 C267.7813,641.2031 268.0156,641.3125 268.2344,641.3125 C268.5,641.3125 268.7656,641.1719 268.9375,640.9531 C269.0469,640.7969 269.0781,640.6094 269.0781,640.1875 L269.0781,638.7656 C269.0781,638.3281 269.0625,638.2031 268.9688,638.0469 C268.8125,637.7813 268.5313,637.6406 268.2344,637.6406 C267.9375,637.6406 267.7344,637.7344 267.5156,638.0469 L267.3438,637.9688 Z " fill="#000000"/><text fill="#000000" font-family="sans-serif" font-size="14" lengthAdjust="spacing" textLength="80" x="279" y="647.1436">Foundation</text><line style="stroke:#181818;stroke-width:0.5;" x1="251" x2="361" y1="658.2969" y2="658.2969"/><line style="stroke:#181818;stroke-width:0.5;" x1="251" x2="361" y1="666.2969" y2="666.2969"/></g><!--MD5=[5e305716458bbdabbd2d7f572ed2bae2]
class Card--><g id="elem_Card"><rect codeLine="13" fill="#F1F1F1" height="80.5938" id="Card" rx="2.5" ry="2.5" style="stroke:#181818;stroke-width:0.5;" width="177" x="417.5" y="735.2969"/><ellipse cx="485.25" cy="751.2969" fill="#ADD1B2" rx="11" ry="11" style="stroke:#181818;stroke-width:1.0;"/><path d="M487.5938,746.9688 C486.6563,746.5313 486.0625,746.3906 485.1875,746.3906 C482.5625,746.3906 480.5625,748.4688 480.5625,751.1875 L480.5625,752.3125 C480.5625,754.8906 482.6719,756.7813 485.5625,756.7813 C486.7813,756.7813 487.9375,756.4844 488.6875,755.9375 C489.2656,755.5313 489.5938,755.0781 489.5938,754.6875 C489.5938,754.2344 489.2031,753.8438 488.7344,753.8438 C488.5156,753.8438 488.3125,753.9219 488.125,754.1094 C487.6719,754.5938 487.6719,754.5938 487.4844,754.6875 C487.0625,754.9531 486.375,755.0781 485.6094,755.0781 C483.5625,755.0781 482.2656,753.9844 482.2656,752.2813 L482.2656,751.1875 C482.2656,749.4063 483.5156,748.0938 485.25,748.0938 C485.8281,748.0938 486.4375,748.25 486.9063,748.5 C487.3906,748.7813 487.5625,749 487.6563,749.4063 C487.7188,749.8125 487.75,749.9375 487.8906,750.0625 C488.0313,750.2031 488.2656,750.3125 488.4844,750.3125 C488.75,750.3125 489.0156,750.1719 489.1875,749.9531 C489.2969,749.7969 489.3281,749.6094 489.3281,749.1875 L489.3281,747.7656 C489.3281,747.3281 489.3125,747.2031 489.2188,747.0469 C489.0625,746.7813 488.7813,746.6406 488.4844,746.6406 C488.1875,746.6406 487.9844,746.7344 487.7656,747.0469 L487.5938,746.9688 Z " fill="#000000"/><text fill="#000000" font-family="sans-serif" font-size="14" lengthAdjust="spacing" textLength="33" x="505.75" y="756.1436">Card</text><line style="stroke:#181818;stroke-width:0.5;" x1="418.5" x2="593.5" y1="767.2969" y2="767.2969"/><rect fill="none" height="6" style="stroke:#C82930;stroke-width:1.0;" width="6" x="425.5" y="775.2969"/><text fill="#000000" font-family="sans-serif" font-size="14" lengthAdjust="spacing" textLength="81" x="437.5" y="784.292">rank : Rank</text><rect fill="none" height="6" style="stroke:#C82930;stroke-width:1.0;" width="6" x="425.5" y="791.5938"/><text fill="#000000" font-family="sans-serif" font-size="14" lengthAdjust="spacing" textLength="151" x="437.5" y="800.5889">is TurnedUp: boolean</text><line style="stroke:#181818;stroke-width:0.5;" x1="418.5" x2="593.5" y1="807.8906" y2="807.8906"/></g><!--MD5=[a4cb0f987c11031dc931233a0e7767af]
class Stock--><g id="elem_Stock"><rect codeLine="18" fill="#F1F1F1" height="48" id="Stock" rx="2.5" ry="2.5" style="stroke:#181818;stroke-width:0.5;" width="74" x="397" y="626.2969"/><ellipse cx="412" cy="642.2969" fill="#ADD1B2" rx="11" ry="11" style="stroke:#181818;stroke-width:1.0;"/><path d="M414.3438,637.9688 C413.4063,637.5313 412.8125,637.3906 411.9375,637.3906 C409.3125,637.3906 407.3125,639.4688 407.3125,642.1875 L407.3125,643.3125 C407.3125,645.8906 409.4219,647.7813 412.3125,647.7813 C413.5313,647.7813 414.6875,647.4844 415.4375,646.9375 C416.0156,646.5313 416.3438,646.0781 416.3438,645.6875 C416.3438,645.2344 415.9531,644.8438 415.4844,644.8438 C415.2656,644.8438 415.0625,644.9219 414.875,645.1094 C414.4219,645.5938 414.4219,645.5938 414.2344,645.6875 C413.8125,645.9531 413.125,646.0781 412.3594,646.0781 C410.3125,646.0781 409.0156,644.9844 409.0156,643.2813 L409.0156,642.1875 C409.0156,640.4063 410.2656,639.0938 412,639.0938 C412.5781,639.0938 413.1875,639.25 413.6563,639.5 C414.1406,639.7813 414.3125,640 414.4063,640.4063 C414.4688,640.8125 414.5,640.9375 414.6406,641.0625 C414.7813,641.2031 415.0156,641.3125 415.2344,641.3125 C415.5,641.3125 415.7656,641.1719 415.9375,640.9531 C416.0469,640.7969 416.0781,640.6094 416.0781,640.1875 L416.0781,638.7656 C416.0781,638.3281 416.0625,638.2031 415.9688,638.0469 C415.8125,637.7813 415.5313,637.6406 415.2344,637.6406 C414.9375,637.6406 414.7344,637.7344 414.5156,638.0469 L414.3438,637.9688 Z " fill="#000000"/><text fill="#000000" font-family="sans-serif" font-size="14" lengthAdjust="spacing" textLength="42" x="426" y="647.1436">Stock</text><line style="stroke:#181818;stroke-width:0.5;" x1="398" x2="470" y1="658.2969" y2="658.2969"/><line style="stroke:#181818;stroke-width:0.5;" x1="398" x2="470" y1="666.2969" y2="666.2969"/></g><!--MD5=[c3c256aac7e3870d53c0042288b21bdc]
class Waste--><g id="elem_Waste"><rect codeLine="19" fill="#F1F1F1" height="48" id="Waste" rx="2.5" ry="2.5" style="stroke:#181818;stroke-width:0.5;" width="77" x="629.5" y="626.2969"/><ellipse cx="644.5" cy="642.2969" fill="#ADD1B2" rx="11" ry="11" style="stroke:#181818;stroke-width:1.0;"/><path d="M646.8438,637.9688 C645.9063,637.5313 645.3125,637.3906 644.4375,637.3906 C641.8125,637.3906 639.8125,639.4688 639.8125,642.1875 L639.8125,643.3125 C639.8125,645.8906 641.9219,647.7813 644.8125,647.7813 C646.0313,647.7813 647.1875,647.4844 647.9375,646.9375 C648.5156,646.5313 648.8438,646.0781 648.8438,645.6875 C648.8438,645.2344 648.4531,644.8438 647.9844,644.8438 C647.7656,644.8438 647.5625,644.9219 647.375,645.1094 C646.9219,645.5938 646.9219,645.5938 646.7344,645.6875 C646.3125,645.9531 645.625,646.0781 644.8594,646.0781 C642.8125,646.0781 641.5156,644.9844 641.5156,643.2813 L641.5156,642.1875 C641.5156,640.4063 642.7656,639.0938 644.5,639.0938 C645.0781,639.0938 645.6875,639.25 646.1563,639.5 C646.6406,639.7813 646.8125,640 646.9063,640.4063 C646.9688,640.8125 647,640.9375 647.1406,641.0625 C647.2813,641.2031 647.5156,641.3125 647.7344,641.3125 C648,641.3125 648.2656,641.1719 648.4375,640.9531 C648.5469,640.7969 648.5781,640.6094 648.5781,640.1875 L648.5781,638.7656 C648.5781,638.3281 648.5625,638.2031 648.4688,638.0469 C648.3125,637.7813 648.0313,637.6406 647.7344,637.6406 C647.4375,637.6406 647.2344,637.7344 647.0156,638.0469 L646.8438,637.9688 Z " fill="#000000"/><text fill="#000000" font-family="sans-serif" font-size="14" lengthAdjust="spacing" textLength="45" x="658.5" y="647.1436">Waste</text><line style="stroke:#181818;stroke-width:0.5;" x1="630.5" x2="705.5" y1="658.2969" y2="658.2969"/><line style="stroke:#181818;stroke-width:0.5;" x1="630.5" x2="705.5" y1="666.2969" y2="666.2969"/></g><!--MD5=[c033d16283544a66478df33ee92fe5a6]
class Tableau--><g id="elem_Tableau"><rect codeLine="20" fill="#F1F1F1" height="48" id="Tableau" rx="2.5" ry="2.5" style="stroke:#181818;stroke-width:0.5;" width="88" x="506" y="626.2969"/><ellipse cx="521" cy="642.2969" fill="#ADD1B2" rx="11" ry="11" style="stroke:#181818;stroke-width:1.0;"/><path d="M523.3438,637.9688 C522.4063,637.5313 521.8125,637.3906 520.9375,637.3906 C518.3125,637.3906 516.3125,639.4688 516.3125,642.1875 L516.3125,643.3125 C516.3125,645.8906 518.4219,647.7813 521.3125,647.7813 C522.5313,647.7813 523.6875,647.4844 524.4375,646.9375 C525.0156,646.5313 525.3438,646.0781 525.3438,645.6875 C525.3438,645.2344 524.9531,644.8438 524.4844,644.8438 C524.2656,644.8438 524.0625,644.9219 523.875,645.1094 C523.4219,645.5938 523.4219,645.5938 523.2344,645.6875 C522.8125,645.9531 522.125,646.0781 521.3594,646.0781 C519.3125,646.0781 518.0156,644.9844 518.0156,643.2813 L518.0156,642.1875 C518.0156,640.4063 519.2656,639.0938 521,639.0938 C521.5781,639.0938 522.1875,639.25 522.6563,639.5 C523.1406,639.7813 523.3125,640 523.4063,640.4063 C523.4688,640.8125 523.5,640.9375 523.6406,641.0625 C523.7813,641.2031 524.0156,641.3125 524.2344,641.3125 C524.5,641.3125 524.7656,641.1719 524.9375,640.9531 C525.0469,640.7969 525.0781,640.6094 525.0781,640.1875 L525.0781,638.7656 C525.0781,638.3281 525.0625,638.2031 524.9688,638.0469 C524.8125,637.7813 524.5313,637.6406 524.2344,637.6406 C523.9375,637.6406 523.7344,637.7344 523.5156,638.0469 L523.3438,637.9688 Z " fill="#000000"/><text fill="#000000" font-family="sans-serif" font-size="14" lengthAdjust="spacing" textLength="56" x="535" y="647.1436">Tableau</text><line style="stroke:#181818;stroke-width:0.5;" x1="507" x2="593" y1="658.2969" y2="658.2969"/><line style="stroke:#181818;stroke-width:0.5;" x1="507" x2="593" y1="666.2969" y2="666.2969"/></g><!--MD5=[8afaa0cc9be9ac1cdc24999fa1642fa3]
class Suit--><g id="elem_Suit"><rect codeLine="21" fill="#F1F1F1" height="48" id="Suit" rx="2.5" ry="2.5" style="stroke:#181818;stroke-width:0.5;" width="59" x="351.5" y="983.2969"/><ellipse cx="366.5" cy="999.2969" fill="#A9DCDF" rx="11" ry="11" style="stroke:#181818;stroke-width:1.0;"/><path d="M368.5781,1001.1094 L368.9688,1002.0938 L368.5781,1002.0938 C368.125,1002.0938 368.0156,1002.1094 367.8594,1002.2188 C367.6094,1002.375 367.4531,1002.6563 367.4531,1002.9531 C367.4531,1003.2188 367.5938,1003.4688 367.8125,1003.625 C367.9531,1003.75 368.1563,1003.7969 368.5781,1003.7969 L370.9375,1003.7969 C371.2969,1003.7969 371.5156,1003.7656 371.6563,1003.6719 C371.9063,1003.5313 372.0625,1003.2344 372.0625,1002.9531 C372.0625,1002.6719 371.9219,1002.4219 371.7031,1002.2656 C371.5313,1002.125 371.375,1002.0938 370.9063,1002.0938 L367.5156,993.8906 L363.8438,993.8906 C363.3906,993.8906 363.2656,993.9063 363.1094,994 C362.8594,994.1719 362.7031,994.4531 362.7031,994.7344 C362.7031,995.0156 362.8438,995.2656 363.0625,995.4375 C363.2344,995.5469 363.4063,995.5781 363.8438,995.5781 L364.9219,995.5781 L362.2813,1002.0938 C361.8594,1002.0938 361.7031,1002.1094 361.5469,1002.2188 C361.2969,1002.375 361.1406,1002.6563 361.1406,1002.9531 C361.1406,1003.5156 361.5156,1003.7969 362.2656,1003.7969 L364.5313,1003.7969 C364.8906,1003.7969 365.1094,1003.7656 365.2344,1003.6719 C365.5,1003.5313 365.6406,1003.2344 365.6406,1002.9531 C365.6406,1002.6719 365.5156,1002.4219 365.2969,1002.25 C365.125,1002.125 364.9844,1002.0938 364.5313,1002.0938 L364.1406,1002.0938 L364.5313,1001.1094 L368.5781,1001.1094 Z M367.875,999.4063 L365.2031,999.4063 L366.5469,996.1406 L367.875,999.4063 Z " fill="#000000"/><text fill="#000000" font-family="sans-serif" font-size="14" font-style="italic" lengthAdjust="spacing" textLength="27" x="380.5" y="1004.1436">Suit</text><line style="stroke:#181818;stroke-width:0.5;" x1="352.5" x2="409.5" y1="1015.2969" y2="1015.2969"/><line style="stroke:#181818;stroke-width:0.5;" x1="352.5" x2="409.5" y1="1023.2969" y2="1023.2969"/></g><!--MD5=[0f690a215a17a0cf4b9f948ca5dd1b3e]
class Rank--><g id="elem_Rank"><rect codeLine="22" fill="#F1F1F1" height="259.8594" id="Rank" rx="2.5" ry="2.5" style="stroke:#181818;stroke-width:0.5;" width="68" x="472" y="877.2969"/><ellipse cx="487" cy="893.2969" fill="#EB937F" rx="11" ry="11" style="stroke:#181818;stroke-width:1.0;"/><path d="M485.7969,894.1719 L487.25,894.1719 L487.25,894.2813 C487.25,894.6875 487.2813,894.8438 487.3594,895 C487.5156,895.25 487.7969,895.4063 488.0938,895.4063 C488.3438,895.4063 488.6094,895.2656 488.7656,895.0469 C488.8906,894.8906 488.9219,894.7344 488.9219,894.2813 L488.9219,892.3594 C488.9219,892.2031 488.9219,892.1563 488.9063,892 C488.8438,891.5313 488.5313,891.2188 488.0781,891.2188 C487.8281,891.2188 487.5625,891.3594 487.3906,891.5781 C487.2813,891.75 487.25,891.9063 487.25,892.3594 L487.25,892.4844 L485.7969,892.4844 L485.7969,890.0781 L489.7813,890.0781 L489.7813,890.9375 C489.7813,891.3438 489.8125,891.5156 489.8906,891.6719 C490.0625,891.9219 490.3438,892.0781 490.625,892.0781 C490.8906,892.0781 491.1563,891.9375 491.3281,891.7188 C491.4375,891.5469 491.4688,891.4063 491.4688,890.9375 L491.4688,888.3906 L483.8438,888.3906 C483.4063,888.3906 483.2813,888.4063 483.125,888.5 C482.875,888.6563 482.7188,888.9531 482.7188,889.2344 C482.7188,889.5156 482.8594,889.7656 483.0781,889.9375 C483.2344,890.0469 483.4219,890.0781 483.8438,890.0781 L484.0938,890.0781 L484.0938,896.5938 L483.8438,896.5938 C483.4375,896.5938 483.2813,896.6094 483.125,896.7188 C482.875,896.8906 482.7188,897.1563 482.7188,897.4531 C482.7188,897.7188 482.8594,897.9688 483.0781,898.125 C483.2188,898.25 483.4531,898.2969 483.8438,898.2969 L491.8438,898.2969 L491.8438,895.7188 C491.8438,895.2813 491.8125,895.1406 491.7344,894.9844 C491.5625,894.7344 491.2813,894.5781 491,894.5781 C490.7344,894.5781 490.4688,894.6875 490.2969,894.9375 C490.1875,895.0938 490.1563,895.2344 490.1563,895.7188 L490.1563,896.5938 L485.7969,896.5938 L485.7969,894.1719 Z " fill="#000000"/><text fill="#000000" font-family="sans-serif" font-size="14" lengthAdjust="spacing" textLength="36" x="501" y="898.1436">Rank</text><line style="stroke:#181818;stroke-width:0.5;" x1="473" x2="539" y1="909.2969" y2="909.2969"/><text fill="#000000" font-family="sans-serif" font-size="14" lengthAdjust="spacing" textLength="27" x="478" y="926.292">Ace</text><text fill="#000000" font-family="sans-serif" font-size="14" lengthAdjust="spacing" textLength="8" x="478" y="942.5889">2</text><text fill="#000000" font-family="sans-serif" font-size="14" lengthAdjust="spacing" textLength="9" x="478" y="958.8857">3</text><text fill="#000000" font-family="sans-serif" font-size="14" lengthAdjust="spacing" textLength="8" x="478" y="975.1826">4</text><text fill="#000000" font-family="sans-serif" font-size="14" lengthAdjust="spacing" textLength="9" x="478" y="991.4795">5</text><text fill="#000000" font-family="sans-serif" font-size="14" lengthAdjust="spacing" textLength="9" x="478" y="1007.7764">6</text><text fill="#000000" font-family="sans-serif" font-size="14" lengthAdjust="spacing" textLength="9" x="478" y="1024.0732">7</text><text fill="#000000" font-family="sans-serif" font-size="14" lengthAdjust="spacing" textLength="8" x="478" y="1040.3701">8</text><text fill="#000000" font-family="sans-serif" font-size="14" lengthAdjust="spacing" textLength="9" x="478" y="1056.667">9</text><text fill="#000000" font-family="sans-serif" font-size="14" lengthAdjust="spacing" textLength="18" x="478" y="1072.9639">10</text><text fill="#000000" font-family="sans-serif" font-size="14" lengthAdjust="spacing" textLength="29" x="478" y="1089.2607">Jack</text><text fill="#000000" font-family="sans-serif" font-size="14" lengthAdjust="spacing" textLength="46" x="478" y="1105.5576">Queen</text><text fill="#000000" font-family="sans-serif" font-size="14" lengthAdjust="spacing" textLength="32" x="478" y="1121.8545">King</text><line style="stroke:#181818;stroke-width:0.5;" x1="473" x2="539" y1="1129.1563" y2="1129.1563"/></g><!--MD5=[18eee71c88ab61f27581b8cbdd3ef5ee]
class Color--><g id="elem_Color"><rect codeLine="37" fill="#F1F1F1" height="48" id="Color" rx="2.5" ry="2.5" style="stroke:#181818;stroke-width:0.5;" width="70" x="346" y="1198.2969"/><ellipse cx="361" cy="1214.2969" fill="#A9DCDF" rx="11" ry="11" style="stroke:#181818;stroke-width:1.0;"/><path d="M363.0781,1216.1094 L363.4688,1217.0938 L363.0781,1217.0938 C362.625,1217.0938 362.5156,1217.1094 362.3594,1217.2188 C362.1094,1217.375 361.9531,1217.6563 361.9531,1217.9531 C361.9531,1218.2188 362.0938,1218.4688 362.3125,1218.625 C362.4531,1218.75 362.6563,1218.7969 363.0781,1218.7969 L365.4375,1218.7969 C365.7969,1218.7969 366.0156,1218.7656 366.1563,1218.6719 C366.4063,1218.5313 366.5625,1218.2344 366.5625,1217.9531 C366.5625,1217.6719 366.4219,1217.4219 366.2031,1217.2656 C366.0313,1217.125 365.875,1217.0938 365.4063,1217.0938 L362.0156,1208.8906 L358.3438,1208.8906 C357.8906,1208.8906 357.7656,1208.9063 357.6094,1209 C357.3594,1209.1719 357.2031,1209.4531 357.2031,1209.7344 C357.2031,1210.0156 357.3438,1210.2656 357.5625,1210.4375 C357.7344,1210.5469 357.9063,1210.5781 358.3438,1210.5781 L359.4219,1210.5781 L356.7813,1217.0938 C356.3594,1217.0938 356.2031,1217.1094 356.0469,1217.2188 C355.7969,1217.375 355.6406,1217.6563 355.6406,1217.9531 C355.6406,1218.5156 356.0156,1218.7969 356.7656,1218.7969 L359.0313,1218.7969 C359.3906,1218.7969 359.6094,1218.7656 359.7344,1218.6719 C360,1218.5313 360.1406,1218.2344 360.1406,1217.9531 C360.1406,1217.6719 360.0156,1217.4219 359.7969,1217.25 C359.625,1217.125 359.4844,1217.0938 359.0313,1217.0938 L358.6406,1217.0938 L359.0313,1216.1094 L363.0781,1216.1094 Z M362.375,1214.4063 L359.7031,1214.4063 L361.0469,1211.1406 L362.375,1214.4063 Z " fill="#000000"/><text fill="#000000" font-family="sans-serif" font-size="14" font-style="italic" lengthAdjust="spacing" textLength="38" x="375" y="1219.1436">Color</text><line style="stroke:#181818;stroke-width:0.5;" x1="347" x2="415" y1="1230.2969" y2="1230.2969"/><line style="stroke:#181818;stroke-width:0.5;" x1="347" x2="415" y1="1238.2969" y2="1238.2969"/></g><!--MD5=[a7ca736ec2eaa3f5c977a8fac7fd0779]
class Club--><g id="elem_Club"><rect codeLine="38" fill="#F1F1F1" height="48" id="Club" rx="2.5" ry="2.5" style="stroke:#181818;stroke-width:0.5;" width="64" x="451" y="1198.2969"/><ellipse cx="466" cy="1214.2969" fill="#ADD1B2" rx="11" ry="11" style="stroke:#181818;stroke-width:1.0;"/><path d="M468.3438,1209.9688 C467.4063,1209.5313 466.8125,1209.3906 465.9375,1209.3906 C463.3125,1209.3906 461.3125,1211.4688 461.3125,1214.1875 L461.3125,1215.3125 C461.3125,1217.8906 463.4219,1219.7813 466.3125,1219.7813 C467.5313,1219.7813 468.6875,1219.4844 469.4375,1218.9375 C470.0156,1218.5313 470.3438,1218.0781 470.3438,1217.6875 C470.3438,1217.2344 469.9531,1216.8438 469.4844,1216.8438 C469.2656,1216.8438 469.0625,1216.9219 468.875,1217.1094 C468.4219,1217.5938 468.4219,1217.5938 468.2344,1217.6875 C467.8125,1217.9531 467.125,1218.0781 466.3594,1218.0781 C464.3125,1218.0781 463.0156,1216.9844 463.0156,1215.2813 L463.0156,1214.1875 C463.0156,1212.4063 464.2656,1211.0938 466,1211.0938 C466.5781,1211.0938 467.1875,1211.25 467.6563,1211.5 C468.1406,1211.7813 468.3125,1212 468.4063,1212.4063 C468.4688,1212.8125 468.5,1212.9375 468.6406,1213.0625 C468.7813,1213.2031 469.0156,1213.3125 469.2344,1213.3125 C469.5,1213.3125 469.7656,1213.1719 469.9375,1212.9531 C470.0469,1212.7969 470.0781,1212.6094 470.0781,1212.1875 L470.0781,1210.7656 C470.0781,1210.3281 470.0625,1210.2031 469.9688,1210.0469 C469.8125,1209.7813 469.5313,1209.6406 469.2344,1209.6406 C468.9375,1209.6406 468.7344,1209.7344 468.5156,1210.0469 L468.3438,1209.9688 Z " fill="#000000"/><text fill="#000000" font-family="sans-serif" font-size="14" lengthAdjust="spacing" textLength="32" x="480" y="1219.1436">Club</text><line style="stroke:#181818;stroke-width:0.5;" x1="452" x2="514" y1="1230.2969" y2="1230.2969"/><line style="stroke:#181818;stroke-width:0.5;" x1="452" x2="514" y1="1238.2969" y2="1238.2969"/></g><!--MD5=[e07683d003131b9e2f36793e1d14f746]
class Spade--><g id="elem_Spade"><rect codeLine="39" fill="#F1F1F1" height="48" id="Spade" rx="2.5" ry="2.5" style="stroke:#181818;stroke-width:0.5;" width="77" x="550.5" y="1198.2969"/><ellipse cx="565.5" cy="1214.2969" fill="#ADD1B2" rx="11" ry="11" style="stroke:#181818;stroke-width:1.0;"/><path d="M567.8438,1209.9688 C566.9063,1209.5313 566.3125,1209.3906 565.4375,1209.3906 C562.8125,1209.3906 560.8125,1211.4688 560.8125,1214.1875 L560.8125,1215.3125 C560.8125,1217.8906 562.9219,1219.7813 565.8125,1219.7813 C567.0313,1219.7813 568.1875,1219.4844 568.9375,1218.9375 C569.5156,1218.5313 569.8438,1218.0781 569.8438,1217.6875 C569.8438,1217.2344 569.4531,1216.8438 568.9844,1216.8438 C568.7656,1216.8438 568.5625,1216.9219 568.375,1217.1094 C567.9219,1217.5938 567.9219,1217.5938 567.7344,1217.6875 C567.3125,1217.9531 566.625,1218.0781 565.8594,1218.0781 C563.8125,1218.0781 562.5156,1216.9844 562.5156,1215.2813 L562.5156,1214.1875 C562.5156,1212.4063 563.7656,1211.0938 565.5,1211.0938 C566.0781,1211.0938 566.6875,1211.25 567.1563,1211.5 C567.6406,1211.7813 567.8125,1212 567.9063,1212.4063 C567.9688,1212.8125 568,1212.9375 568.1406,1213.0625 C568.2813,1213.2031 568.5156,1213.3125 568.7344,1213.3125 C569,1213.3125 569.2656,1213.1719 569.4375,1212.9531 C569.5469,1212.7969 569.5781,1212.6094 569.5781,1212.1875 L569.5781,1210.7656 C569.5781,1210.3281 569.5625,1210.2031 569.4688,1210.0469 C569.3125,1209.7813 569.0313,1209.6406 568.7344,1209.6406 C568.4375,1209.6406 568.2344,1209.7344 568.0156,1210.0469 L567.8438,1209.9688 Z " fill="#000000"/><text fill="#000000" font-family="sans-serif" font-size="14" lengthAdjust="spacing" textLength="45" x="579.5" y="1219.1436">Spade</text><line style="stroke:#181818;stroke-width:0.5;" x1="551.5" x2="626.5" y1="1230.2969" y2="1230.2969"/><line style="stroke:#181818;stroke-width:0.5;" x1="551.5" x2="626.5" y1="1238.2969" y2="1238.2969"/></g><!--MD5=[9bb5813e59df3e2529d11a5afaed7800]
class Heart--><g id="elem_Heart"><rect codeLine="40" fill="#F1F1F1" height="48" id="Heart" rx="2.5" ry="2.5" style="stroke:#181818;stroke-width:0.5;" width="72" x="239" y="1198.2969"/><ellipse cx="254" cy="1214.2969" fill="#ADD1B2" rx="11" ry="11" style="stroke:#181818;stroke-width:1.0;"/><path d="M256.3438,1209.9688 C255.4063,1209.5313 254.8125,1209.3906 253.9375,1209.3906 C251.3125,1209.3906 249.3125,1211.4688 249.3125,1214.1875 L249.3125,1215.3125 C249.3125,1217.8906 251.4219,1219.7813 254.3125,1219.7813 C255.5313,1219.7813 256.6875,1219.4844 257.4375,1218.9375 C258.0156,1218.5313 258.3438,1218.0781 258.3438,1217.6875 C258.3438,1217.2344 257.9531,1216.8438 257.4844,1216.8438 C257.2656,1216.8438 257.0625,1216.9219 256.875,1217.1094 C256.4219,1217.5938 256.4219,1217.5938 256.2344,1217.6875 C255.8125,1217.9531 255.125,1218.0781 254.3594,1218.0781 C252.3125,1218.0781 251.0156,1216.9844 251.0156,1215.2813 L251.0156,1214.1875 C251.0156,1212.4063 252.2656,1211.0938 254,1211.0938 C254.5781,1211.0938 255.1875,1211.25 255.6563,1211.5 C256.1406,1211.7813 256.3125,1212 256.4063,1212.4063 C256.4688,1212.8125 256.5,1212.9375 256.6406,1213.0625 C256.7813,1213.2031 257.0156,1213.3125 257.2344,1213.3125 C257.5,1213.3125 257.7656,1213.1719 257.9375,1212.9531 C258.0469,1212.7969 258.0781,1212.6094 258.0781,1212.1875 L258.0781,1210.7656 C258.0781,1210.3281 258.0625,1210.2031 257.9688,1210.0469 C257.8125,1209.7813 257.5313,1209.6406 257.2344,1209.6406 C256.9375,1209.6406 256.7344,1209.7344 256.5156,1210.0469 L256.3438,1209.9688 Z " fill="#000000"/><text fill="#000000" font-family="sans-serif" font-size="14" lengthAdjust="spacing" textLength="40" x="268" y="1219.1436">Heart</text><line style="stroke:#181818;stroke-width:0.5;" x1="240" x2="310" y1="1230.2969" y2="1230.2969"/><line style="stroke:#181818;stroke-width:0.5;" x1="240" x2="310" y1="1238.2969" y2="1238.2969"/></g><!--MD5=[c0ff7312a1fc0055a007a9765d4a1220]
class Diamond--><g id="elem_Diamond"><rect codeLine="41" fill="#F1F1F1" height="48" id="Diamond" rx="2.5" ry="2.5" style="stroke:#181818;stroke-width:0.5;" width="96" x="108" y="1198.2969"/><ellipse cx="123" cy="1214.2969" fill="#ADD1B2" rx="11" ry="11" style="stroke:#181818;stroke-width:1.0;"/><path d="M125.3438,1209.9688 C124.4063,1209.5313 123.8125,1209.3906 122.9375,1209.3906 C120.3125,1209.3906 118.3125,1211.4688 118.3125,1214.1875 L118.3125,1215.3125 C118.3125,1217.8906 120.4219,1219.7813 123.3125,1219.7813 C124.5313,1219.7813 125.6875,1219.4844 126.4375,1218.9375 C127.0156,1218.5313 127.3438,1218.0781 127.3438,1217.6875 C127.3438,1217.2344 126.9531,1216.8438 126.4844,1216.8438 C126.2656,1216.8438 126.0625,1216.9219 125.875,1217.1094 C125.4219,1217.5938 125.4219,1217.5938 125.2344,1217.6875 C124.8125,1217.9531 124.125,1218.0781 123.3594,1218.0781 C121.3125,1218.0781 120.0156,1216.9844 120.0156,1215.2813 L120.0156,1214.1875 C120.0156,1212.4063 121.2656,1211.0938 123,1211.0938 C123.5781,1211.0938 124.1875,1211.25 124.6563,1211.5 C125.1406,1211.7813 125.3125,1212 125.4063,1212.4063 C125.4688,1212.8125 125.5,1212.9375 125.6406,1213.0625 C125.7813,1213.2031 126.0156,1213.3125 126.2344,1213.3125 C126.5,1213.3125 126.7656,1213.1719 126.9375,1212.9531 C127.0469,1212.7969 127.0781,1212.6094 127.0781,1212.1875 L127.0781,1210.7656 C127.0781,1210.3281 127.0625,1210.2031 126.9688,1210.0469 C126.8125,1209.7813 126.5313,1209.6406 126.2344,1209.6406 C125.9375,1209.6406 125.7344,1209.7344 125.5156,1210.0469 L125.3438,1209.9688 Z " fill="#000000"/><text fill="#000000" font-family="sans-serif" font-size="14" lengthAdjust="spacing" textLength="64" x="137" y="1219.1436">Diamond</text><line style="stroke:#181818;stroke-width:0.5;" x1="109" x2="203" y1="1230.2969" y2="1230.2969"/><line style="stroke:#181818;stroke-width:0.5;" x1="109" x2="203" y1="1238.2969" y2="1238.2969"/></g><!--MD5=[08be530975453a47bdc5b5370100f2fc]
class Red--><g id="elem_Red"><rect codeLine="42" fill="#F1F1F1" height="48" id="Red" rx="2.5" ry="2.5" style="stroke:#181818;stroke-width:0.5;" width="60" x="245" y="1307.2969"/><ellipse cx="260" cy="1323.2969" fill="#ADD1B2" rx="11" ry="11" style="stroke:#181818;stroke-width:1.0;"/><path d="M262.3438,1318.9688 C261.4063,1318.5313 260.8125,1318.3906 259.9375,1318.3906 C257.3125,1318.3906 255.3125,1320.4688 255.3125,1323.1875 L255.3125,1324.3125 C255.3125,1326.8906 257.4219,1328.7813 260.3125,1328.7813 C261.5313,1328.7813 262.6875,1328.4844 263.4375,1327.9375 C264.0156,1327.5313 264.3438,1327.0781 264.3438,1326.6875 C264.3438,1326.2344 263.9531,1325.8438 263.4844,1325.8438 C263.2656,1325.8438 263.0625,1325.9219 262.875,1326.1094 C262.4219,1326.5938 262.4219,1326.5938 262.2344,1326.6875 C261.8125,1326.9531 261.125,1327.0781 260.3594,1327.0781 C258.3125,1327.0781 257.0156,1325.9844 257.0156,1324.2813 L257.0156,1323.1875 C257.0156,1321.4063 258.2656,1320.0938 260,1320.0938 C260.5781,1320.0938 261.1875,1320.25 261.6563,1320.5 C262.1406,1320.7813 262.3125,1321 262.4063,1321.4063 C262.4688,1321.8125 262.5,1321.9375 262.6406,1322.0625 C262.7813,1322.2031 263.0156,1322.3125 263.2344,1322.3125 C263.5,1322.3125 263.7656,1322.1719 263.9375,1321.9531 C264.0469,1321.7969 264.0781,1321.6094 264.0781,1321.1875 L264.0781,1319.7656 C264.0781,1319.3281 264.0625,1319.2031 263.9688,1319.0469 C263.8125,1318.7813 263.5313,1318.6406 263.2344,1318.6406 C262.9375,1318.6406 262.7344,1318.7344 262.5156,1319.0469 L262.3438,1318.9688 Z " fill="#000000"/><text fill="#000000" font-family="sans-serif" font-size="14" lengthAdjust="spacing" textLength="28" x="274" y="1328.1436">Red</text><line style="stroke:#181818;stroke-width:0.5;" x1="246" x2="304" y1="1339.2969" y2="1339.2969"/><line style="stroke:#181818;stroke-width:0.5;" x1="246" x2="304" y1="1347.2969" y2="1347.2969"/></g><!--MD5=[365150d8163e865a226452c70cc7ad9f]
class Black--><g id="elem_Black"><rect codeLine="43" fill="#F1F1F1" height="48" id="Black" rx="2.5" ry="2.5" style="stroke:#181818;stroke-width:0.5;" width="71" x="447.5" y="1307.2969"/><ellipse cx="462.5" cy="1323.2969" fill="#ADD1B2" rx="11" ry="11" style="stroke:#181818;stroke-width:1.0;"/><path d="M464.8438,1318.9688 C463.9063,1318.5313 463.3125,1318.3906 462.4375,1318.3906 C459.8125,1318.3906 457.8125,1320.4688 457.8125,1323.1875 L457.8125,1324.3125 C457.8125,1326.8906 459.9219,1328.7813 462.8125,1328.7813 C464.0313,1328.7813 465.1875,1328.4844 465.9375,1327.9375 C466.5156,1327.5313 466.8438,1327.0781 466.8438,1326.6875 C466.8438,1326.2344 466.4531,1325.8438 465.9844,1325.8438 C465.7656,1325.8438 465.5625,1325.9219 465.375,1326.1094 C464.9219,1326.5938 464.9219,1326.5938 464.7344,1326.6875 C464.3125,1326.9531 463.625,1327.0781 462.8594,1327.0781 C460.8125,1327.0781 459.5156,1325.9844 459.5156,1324.2813 L459.5156,1323.1875 C459.5156,1321.4063 460.7656,1320.0938 462.5,1320.0938 C463.0781,1320.0938 463.6875,1320.25 464.1563,1320.5 C464.6406,1320.7813 464.8125,1321 464.9063,1321.4063 C464.9688,1321.8125 465,1321.9375 465.1406,1322.0625 C465.2813,1322.2031 465.5156,1322.3125 465.7344,1322.3125 C466,1322.3125 466.2656,1322.1719 466.4375,1321.9531 C466.5469,1321.7969 466.5781,1321.6094 466.5781,1321.1875 L466.5781,1319.7656 C466.5781,1319.3281 466.5625,1319.2031 466.4688,1319.0469 C466.3125,1318.7813 466.0313,1318.6406 465.7344,1318.6406 C465.4375,1318.6406 465.2344,1318.7344 465.0156,1319.0469 L464.8438,1318.9688 Z " fill="#000000"/><text fill="#000000" font-family="sans-serif" font-size="14" lengthAdjust="spacing" textLength="39" x="476.5" y="1328.1436">Black</text><line style="stroke:#181818;stroke-width:0.5;" x1="448.5" x2="517.5" y1="1339.2969" y2="1339.2969"/><line style="stroke:#181818;stroke-width:0.5;" x1="448.5" x2="517.5" y1="1347.2969" y2="1347.2969"/></g><!--MD5=[60e68e8cf9d9845bf0d333d823b84d81]
class MovementType--><g id="elem_MovementType"><rect codeLine="44" fill="#F1F1F1" height="178.375" id="MovementType" rx="2.5" ry="2.5" style="stroke:#181818;stroke-width:0.5;" width="166" x="649" y="262.2969"/><ellipse cx="673.45" cy="278.2969" fill="#EB937F" rx="11" ry="11" style="stroke:#181818;stroke-width:1.0;"/><path d="M672.2469,279.1719 L673.7,279.1719 L673.7,279.2813 C673.7,279.6875 673.7313,279.8438 673.8094,280 C673.9656,280.25 674.2469,280.4063 674.5438,280.4063 C674.7938,280.4063 675.0594,280.2656 675.2156,280.0469 C675.3406,279.8906 675.3719,279.7344 675.3719,279.2813 L675.3719,277.3594 C675.3719,277.2031 675.3719,277.1563 675.3563,277 C675.2938,276.5313 674.9813,276.2188 674.5281,276.2188 C674.2781,276.2188 674.0125,276.3594 673.8406,276.5781 C673.7313,276.75 673.7,276.9063 673.7,277.3594 L673.7,277.4844 L672.2469,277.4844 L672.2469,275.0781 L676.2313,275.0781 L676.2313,275.9375 C676.2313,276.3438 676.2625,276.5156 676.3406,276.6719 C676.5125,276.9219 676.7938,277.0781 677.075,277.0781 C677.3406,277.0781 677.6063,276.9375 677.7781,276.7188 C677.8875,276.5469 677.9188,276.4063 677.9188,275.9375 L677.9188,273.3906 L670.2938,273.3906 C669.8563,273.3906 669.7313,273.4063 669.575,273.5 C669.325,273.6563 669.1688,273.9531 669.1688,274.2344 C669.1688,274.5156 669.3094,274.7656 669.5281,274.9375 C669.6844,275.0469 669.8719,275.0781 670.2938,275.0781 L670.5438,275.0781 L670.5438,281.5938 L670.2938,281.5938 C669.8875,281.5938 669.7313,281.6094 669.575,281.7188 C669.325,281.8906 669.1688,282.1563 669.1688,282.4531 C669.1688,282.7188 669.3094,282.9688 669.5281,283.125 C669.6688,283.25 669.9031,283.2969 670.2938,283.2969 L678.2938,283.2969 L678.2938,280.7188 C678.2938,280.2813 678.2625,280.1406 678.1844,279.9844 C678.0125,279.7344 677.7313,279.5781 677.45,279.5781 C677.1844,279.5781 676.9188,279.6875 676.7469,279.9375 C676.6375,280.0938 676.6063,280.2344 676.6063,280.7188 L676.6063,281.5938 L672.2469,281.5938 L672.2469,279.1719 Z " fill="#000000"/><text fill="#000000" font-family="sans-serif" font-size="14" lengthAdjust="spacing" textLength="113" x="689.55" y="283.1436">MovementType</text><line style="stroke:#181818;stroke-width:0.5;" x1="650" x2="814" y1="294.2969" y2="294.2969"/><text fill="#000000" font-family="sans-serif" font-size="14" lengthAdjust="spacing" textLength="111" x="655" y="311.292">DeckToTableau</text><text fill="#000000" font-family="sans-serif" font-size="14" lengthAdjust="spacing" textLength="105" x="655" y="327.5889">StockToWaste</text><text fill="#000000" font-family="sans-serif" font-size="14" lengthAdjust="spacing" textLength="119" x="655" y="343.8857">WasteToTableau</text><text fill="#000000" font-family="sans-serif" font-size="14" lengthAdjust="spacing" textLength="143" x="655" y="360.1826">WasteToFoundation</text><text fill="#000000" font-family="sans-serif" font-size="14" lengthAdjust="spacing" textLength="105" x="655" y="376.4795">WasteToStock</text><text fill="#000000" font-family="sans-serif" font-size="14" lengthAdjust="spacing" textLength="154" x="655" y="392.7764">TableauToFoundation</text><text fill="#000000" font-family="sans-serif" font-size="14" lengthAdjust="spacing" textLength="130" x="655" y="409.0732">TableauToTableau</text><text fill="#000000" font-family="sans-serif" font-size="14" lengthAdjust="spacing" textLength="154" x="655" y="425.3701">FoundationToTableau</text><line style="stroke:#181818;stroke-width:0.5;" x1="650" x2="814" y1="432.6719" y2="432.6719"/></g><!--MD5=[6a4057357f913d5657fa9fe87f0edd29]
link Klondike to Foundation--><g id="link_Klondike_Foundation"><path codeLine="54" d="M428.4768,72.4276 C428.4768,72.4276 77,104.7469 77,176.2969 C77,176.2969 77,176.2969 77,542.2969 C77,613.6749 169.448,637.5449 236.865,645.4629 " fill="none" id="Klondike-Foundation" style="stroke:#181818;stroke-width:1.0;"/><polygon fill="#181818" points="249.98,646.8429,241.4484,641.9223,245.0075,646.3193,240.6106,649.8784,249.98,646.8429" style="stroke:#181818;stroke-width:1.0;"/><line style="stroke:#181818;stroke-width:1.0;" x1="245.0075" x2="237.0515" y1="646.3193" y2="645.4829"/><polygon fill="#181818" points="440.452,71.6569,434.2075,68.0505,428.4768,72.4276,434.7213,76.034,440.452,71.6569" style="stroke:#181818;stroke-width:1.0;"/><text fill="#000000" font-family="sans-serif" font-size="13" lengthAdjust="spacing" textLength="8" x="233.9148" y="642.4467">4</text></g><!--MD5=[d0e37a71a001f6053d69fd29d330fd4f]
link Klondike to Player--><g id="link_Klondike_Player"><path codeLine="55" d="M488,104.5169 C488,104.5169 488,128.7969 488,139.8569 " fill="none" id="Klondike-Player" style="stroke:#181818;stroke-width:1.0;"/><polygon fill="#181818" points="488,153.1269,492,144.1269,488,148.1269,484,144.1269,488,153.1269" style="stroke:#181818;stroke-width:1.0;"/><line style="stroke:#181818;stroke-width:1.0;" x1="488" x2="488" y1="148.1269" y2="140.1269"/><polygon fill="#181818" points="488,92.5169,484,98.5169,488,104.5169,492,98.5169,488,92.5169" style="stroke:#181818;stroke-width:1.0;"/></g><!--MD5=[d3883b6e5521bc1a4fbc628d87a10151]
link Klondike to Stock--><g id="link_Klondike_Stock"><path codeLine="56" d="M428.3626,71.1415 C428.3626,71.1415 114.505,87.7369 51,122.2969 C23.5591,137.2269 6,145.0569 6,176.2969 C6,176.2969 6,176.2969 6,542.2969 C6,627.2619 298.054,600.4749 379,626.2969 C380.818,626.8769 382.659,627.4929 384.511,628.1359 " fill="none" id="Klondike-Stock" style="stroke:#181818;stroke-width:1.0;"/><polygon fill="#181818" points="396.753,632.6959,389.7156,625.8056,392.0676,630.9504,386.9228,633.3023,396.753,632.6959" style="stroke:#181818;stroke-width:1.0;"/><line style="stroke:#181818;stroke-width:1.0;" x1="392.0676" x2="384.5705" y1="630.9504" y2="628.1579"/><polygon fill="#181818" points="440.354,70.6869,434.2068,66.9171,428.3626,71.1415,434.5098,74.9113,440.354,70.6869" style="stroke:#181818;stroke-width:1.0;"/></g><!--MD5=[fc362caf7996dc1cff37dff6c24ba86b]
link Klondike to Waste--><g id="link_Klondike_Waste"><path codeLine="57" d="M547.8282,71.0518 C547.8282,71.0518 939,97.0869 939,176.2969 C939,176.2969 939,176.2969 939,542.2969 C939,579.5139 908.084,579.2509 875,596.2969 C825.646,621.7249 763.251,635.5359 719.931,642.6219 " fill="none" id="Klondike-Waste" style="stroke:#181818;stroke-width:1.0;"/><polygon fill="#181818" points="706.856,644.6519,716.3631,647.2238,711.7968,643.8848,715.1358,639.3185,706.856,644.6519" style="stroke:#181818;stroke-width:1.0;"/><line style="stroke:#181818;stroke-width:1.0;" x1="711.7968" x2="719.702" y1="643.8848" y2="642.6579"/><polygon fill="#181818" points="535.838,70.5669,541.6715,74.806,547.8282,71.0518,541.9947,66.8126,535.838,70.5669" style="stroke:#181818;stroke-width:1.0;"/></g><!--MD5=[b1c209f4aa9271d424a51362b3ae8562]
link Klondike to Tableau--><g id="link_Klondike_Tableau"><path codeLine="58" d="M547.697,73.7153 C547.697,73.7153 868,110.8169 868,176.2969 C868,176.2969 868,176.2969 868,542.2969 C868,662.0429 725.044,586.7989 612,626.2969 C610.205,626.9239 608.383,627.5669 606.544,628.2189 " fill="none" id="Klondike-Tableau" style="stroke:#181818;stroke-width:1.0;"/><polygon fill="#181818" points="594.292,632.6319,604.115,633.3452,598.9961,630.9375,601.4039,625.8186,594.292,632.6319" style="stroke:#181818;stroke-width:1.0;"/><line style="stroke:#181818;stroke-width:1.0;" x1="598.9961" x2="606.523" y1="630.9375" y2="628.2269"/><polygon fill="#181818" points="535.742,72.6769,541.3733,77.1811,547.697,73.7153,542.0656,69.2111,535.742,72.6769" style="stroke:#181818;stroke-width:1.0;"/><text fill="#000000" font-family="sans-serif" font-size="13" lengthAdjust="spacing" textLength="8" x="601.9885" y="625.6987">7</text></g><!--MD5=[1571e4e0b7cdbae74b04c97a95677c54]
link Player to Goal--><g id="link_Player_Goal"><path codeLine="59" d="M475.727,201.4969 C459.127,232.8669 429.553,288.7669 411.76,322.3969 " fill="none" id="Player-to-Goal" style="stroke:#181818;stroke-width:1.0;"/><polygon fill="#181818" points="409.223,327.1969,416.973,321.1193,411.5653,322.7794,409.9051,317.3717,409.223,327.1969" style="stroke:#181818;stroke-width:1.0;"/></g><!--MD5=[1e5622e419e61827803d8907ecf40cdc]
link Player to Movement--><g id="link_Player_Movement"><path codeLine="60" d="M492.181,201.4969 C497.813,232.7369 507.828,288.3069 513.897,321.9869 " fill="none" id="Player-to-Movement" style="stroke:#181818;stroke-width:1.0;stroke-dasharray:7.0,7.0;"/><polygon fill="#181818" points="514.836,327.1969,517.1781,317.6306,513.9501,322.276,509.3047,319.048,514.836,327.1969" style="stroke:#181818;stroke-width:1.0;"/><text fill="#000000" font-family="sans-serif" font-size="13" lengthAdjust="spacing" textLength="8" x="504.744" y="316.1833">n</text></g><!--MD5=[fc8ab0e1682ffba40cb9aaed004d6572]
link Movement to Card--><g id="link_Movement_Card"><path codeLine="62" d="M541.401,375.4309 C601.839,439.1109 761.247,616.1109 724,674.2969 C696.468,717.3069 645.347,742.1679 599.526,756.4009 " fill="none" id="Movement-to-Card" style="stroke:#181818;stroke-width:1.0;"/><polygon fill="#181818" points="594.54,757.9149,604.314,759.1272,599.3243,756.462,601.9894,751.4723,594.54,757.9149" style="stroke:#181818;stroke-width:1.0;"/><text fill="#000000" font-family="sans-serif" font-size="13" lengthAdjust="spacing" textLength="24" x="602.5518" y="752.9806">1..n</text></g><!--MD5=[08d919769a497c9b194409ae2bcef7ba]
link Movement to Pile--><g id="link_Movement_Pile"><path codeLine="63" d="M493.6956,385.2714 C493.6956,385.2714 459.207,439.6189 451,470.2969 C447.993,481.5359 449.526,493.8169 452.704,504.9089 " fill="none" id="Movement-Pile" style="stroke:#181818;stroke-width:1.0;"/><polygon fill="#181818" points="457.017,517.2529,457.8242,507.4372,455.3676,512.5328,450.272,510.0762,457.017,517.2529" style="stroke:#181818;stroke-width:1.0;"/><line style="stroke:#181818;stroke-width:1.0;" x1="455.3676" x2="452.7285" y1="512.5328" y2="504.9799"/><polygon fill="#181818" points="500.661,375.4999,493.9211,378.0639,493.6956,385.2714,500.4355,382.7075,500.661,375.4999" style="stroke:#181818;stroke-width:1.0;"/><text fill="#000000" font-family="sans-serif" font-size="13" lengthAdjust="spacing" textLength="37" x="452" y="483.3638">Origin</text></g><!--MD5=[08d919769a497c9b194409ae2bcef7ba]
link Movement to Pile--><g id="link_Movement_Pile"><path codeLine="64" d="M514.9913,387.5775 C514.9913,387.5775 504.513,454.6929 494,487.2969 C492.123,493.1189 489.748,499.1289 487.214,504.9189 " fill="none" id="Movement-Pile-1" style="stroke:#181818;stroke-width:1.0;"/><polygon fill="#181818" points="481.54,517.0809,488.9697,510.6156,483.6537,512.5496,481.7197,507.2337,481.54,517.0809" style="stroke:#181818;stroke-width:1.0;"/><line style="stroke:#181818;stroke-width:1.0;" x1="483.6537" x2="487.0355" y1="512.5496" y2="505.3004"/><polygon fill="#181818" points="516.525,375.6759,511.791,381.1154,514.9913,387.5775,519.7254,382.1379,516.525,375.6759" style="stroke:#181818;stroke-width:1.0;"/><text fill="#000000" font-family="sans-serif" font-size="13" lengthAdjust="spacing" textLength="73" x="500" y="483.3638">Destination</text></g><!--MD5=[03150cdc85c16e0382112a11c1a35b44]
link Movement to MovementType--><g id="link_Movement_MovementType"><path codeLine="65" d="M573.576,351.2969 C594.98,351.2969 620.088,351.2969 643.927,351.2969 " fill="none" id="Movement-to-MovementType" style="stroke:#181818;stroke-width:1.0;"/><polygon fill="#181818" points="648.992,351.2969,639.992,347.2969,643.992,351.2969,639.992,355.2969,648.992,351.2969" style="stroke:#181818;stroke-width:1.0;"/><text fill="#000000" font-family="sans-serif" font-size="13" lengthAdjust="spacing" textLength="39" x="591.75" y="344.3638">Types</text></g><!--MD5=[cd0c3954e43c16945db51e1325833371]
link Goal to Foundation--><g id="link_Goal_Foundation"><path codeLine="67" d="M389.859,375.6019 C373.347,429.4949 332.569,562.5839 314.665,621.0179 " fill="none" id="Goal-to-Foundation" style="stroke:#181818;stroke-width:1.0;"/><polygon fill="#181818" points="313.107,626.0999,319.5671,618.6657,314.5711,621.319,311.9177,616.3231,313.107,626.0999" style="stroke:#181818;stroke-width:1.0;"/><text fill="#000000" font-family="sans-serif" font-size="13" lengthAdjust="spacing" textLength="54" x="348" y="545.8638">Complet</text><text fill="#000000" font-family="sans-serif" font-size="13" lengthAdjust="spacing" textLength="8" x="305.9032" y="615.0614">4</text></g><!--MD5=[6f0e35d630b37a2b252a80596e3d8aa4]
link Goal to Movement--><g id="link_Goal_Movement"><path codeLine="68" d="M429.406,351.2969 C439.34,351.2969 449.275,351.2969 459.209,351.2969 " fill="none" id="Goal-to-Movement" style="stroke:#181818;stroke-width:1.0;stroke-dasharray:7.0,7.0;"/><polygon fill="#181818" points="464.404,351.2969,455.404,347.2969,459.404,351.2969,455.404,355.2969,464.404,351.2969" style="stroke:#181818;stroke-width:1.0;"/><text fill="#000000" font-family="sans-serif" font-size="13" lengthAdjust="spacing" textLength="8" x="448.5302" y="347.3649">n</text></g><!--MD5=[6d28caff8698f66462643c822ec8500b]
reverse link Pile to Foundation--><g id="link_Pile_Foundation"><path codeLine="70" d="M423.39,572.2369 C397.406,589.2939 365.341,610.3429 341.292,626.1299 " fill="none" id="Pile-backto-Foundation" style="stroke:#181818;stroke-width:1.0;"/><polygon fill="none" points="419.673,566.3039,440.234,561.1799,427.356,578.0069,419.673,566.3039" style="stroke:#181818;stroke-width:1.0;"/></g><!--MD5=[a3b0419bdb877a6921c502f7ab916277]
reverse link Pile to Stock--><g id="link_Pile_Stock"><path codeLine="71" d="M455.067,584.8919 C450.466,598.9579 445.522,614.0739 441.58,626.1249 " fill="none" id="Pile-backto-Stock" style="stroke:#181818;stroke-width:1.0;"/><polygon fill="none" points="448.534,582.3469,461.406,565.5139,461.841,586.6999,448.534,582.3469" style="stroke:#181818;stroke-width:1.0;"/></g><!--MD5=[0cc7312144b7b0e8e85651666602557e]
reverse link Pile to Waste--><g id="link_Pile_Waste"><path codeLine="72" d="M515.317,567.2009 C549.917,585.8049 596.668,610.9429 629.288,628.4819 " fill="none" id="Pile-backto-Waste" style="stroke:#181818;stroke-width:1.0;"/><polygon fill="none" points="511.812,573.2639,497.512,557.6269,518.442,560.9339,511.812,573.2639" style="stroke:#181818;stroke-width:1.0;"/></g><!--MD5=[b0173922ba304e58e67aa3279a656791]
reverse link Pile to Tableau--><g id="link_Pile_Tableau"><path codeLine="73" d="M498.662,581.4799 C510.015,596.4769 522.593,613.0929 532.459,626.1249 " fill="none" id="Pile-backto-Tableau" style="stroke:#181818;stroke-width:1.0;"/><polygon fill="none" points="493.066,585.6859,486.576,565.5139,504.228,577.2359,493.066,585.6859" style="stroke:#181818;stroke-width:1.0;"/></g><!--MD5=[01ae9f68263e6bc4031c0aece6e20929]
link Card to Suit--><g id="link_Card_Suit"><path codeLine="75" d="M478.6292,827.0491 C478.6292,827.0491 420.664,933.4729 399.882,971.6299 " fill="none" id="Card-Suit" style="stroke:#181818;stroke-width:1.0;"/><polygon fill="#181818" points="393.614,983.1379,401.4316,977.1475,396.0056,978.7469,394.4061,973.3209,393.614,983.1379" style="stroke:#181818;stroke-width:1.0;"/><line style="stroke:#181818;stroke-width:1.0;" x1="396.0056" x2="399.832" y1="978.7469" y2="971.7214"/><polygon fill="#181818" points="484.369,816.5109,477.9863,819.8667,478.6292,827.0491,485.0118,823.6933,484.369,816.5109" style="stroke:#181818;stroke-width:1.0;"/></g><!--MD5=[dab4fdc688f775bd2cd14c67a04f3f7b]
link Card to Rank--><g id="link_Card_Rank"><path codeLine="76" d="M506,828.5109 C506,828.5109 506,851.7309 506,863.6929 " fill="none" id="Card-Rank" style="stroke:#181818;stroke-width:1.0;"/><polygon fill="#181818" points="506,876.8159,510,867.8159,506,871.8159,502,867.8159,506,876.8159" style="stroke:#181818;stroke-width:1.0;"/><line style="stroke:#181818;stroke-width:1.0;" x1="506" x2="506" y1="871.8159" y2="863.8159"/><polygon fill="#181818" points="506,816.5109,502,822.5109,506,828.5109,510,822.5109,506,816.5109" style="stroke:#181818;stroke-width:1.0;"/></g><!--MD5=[988cd1dee8ea1cf2960e884b4b0ffb8b]
reverse link Suit to Club--><g id="link_Suit_Club"><path codeLine="78" d="M400.795,1049.6329 C421.988,1093.8889 454.859,1162.5319 471.904,1198.1249 " fill="none" id="Suit-backto-Club" style="stroke:#181818;stroke-width:1.0;"/><polygon fill="none" points="394.435,1052.5589,392.11,1031.4969,407.062,1046.5119,394.435,1052.5589" style="stroke:#181818;stroke-width:1.0;"/></g><!--MD5=[87a89b153beae7d393e9829af90018d5]
reverse link Suit to Spade--><g id="link_Suit_Spade"><path codeLine="79" d="M398.076,1050.0299 C410.648,1077.1439 429.75,1112.0159 454,1137.2969 C481.707,1166.1829 521.338,1189.2949 550.495,1203.9069 " fill="none" id="Suit-backto-Spade" style="stroke:#181818;stroke-width:1.0;"/><polygon fill="none" points="391.572,1052.6269,389.927,1031.5019,404.387,1046.9909,391.572,1052.6269" style="stroke:#181818;stroke-width:1.0;"/></g><!--MD5=[1f6eb2bb0d8a343fbbac7006c87fddfb]
reverse link Suit to Diamond--><g id="link_Suit_Diamond"><path codeLine="80" d="M341.67,1045.5299 C295.183,1089.5369 219.258,1161.4129 180.477,1198.1249 " fill="none" id="Suit-backto-Diamond" style="stroke:#181818;stroke-width:1.0;"/><polygon fill="none" points="337.156,1040.1629,356.493,1031.4969,346.781,1050.3299,337.156,1040.1629" style="stroke:#181818;stroke-width:1.0;"/></g><!--MD5=[4dce8a7c926835c26b617333aef55021]
reverse link Suit to Heart--><g id="link_Suit_Heart"><path codeLine="81" d="M360.429,1049.6329 C338.405,1093.8889 304.244,1162.5319 286.531,1198.1249 " fill="none" id="Suit-backto-Heart" style="stroke:#181818;stroke-width:1.0;"/><polygon fill="none" points="354.277,1046.2839,369.454,1031.4969,366.811,1052.5209,354.277,1046.2839" style="stroke:#181818;stroke-width:1.0;"/></g><!--MD5=[a5b050240b46bd905f5f930de83fbd40]
reverse link Suit to Color--><g id="link_Suit_Color"><path codeLine="82" d="M381,1044.6709 C381,1088.5959 381,1161.1729 381,1198.1249 " fill="none" id="Suit-backto-Color" style="stroke:#181818;stroke-width:1.0;"/><polygon fill="#181818" points="381,1031.4969,377,1037.4969,381,1043.4969,385,1037.4969,381,1031.4969" style="stroke:#181818;stroke-width:1.0;"/></g><!--MD5=[92e69002428655c2f89f44ff64d31fb0]
link Foundation to Suit--><g id="link_Foundation_Suit"><path codeLine="84" d="M310.863,674.3159 C324.055,736.7589 360.496,909.2439 374.965,977.7309 " fill="none" id="Foundation-to-Suit" style="stroke:#181818;stroke-width:1.0;"/><polygon fill="#181818" points="376.05,982.8679,378.1049,973.2358,375.0173,977.9757,370.2774,974.8881,376.05,982.8679" style="stroke:#181818;stroke-width:1.0;"/></g><!--MD5=[3f3e21409bc1ba7b69847dd87d001f55]
link Foundation to Card--><g id="link_Foundation_Card"><path codeLine="85" d="M353.8284,680.8304 C353.8284,680.8304 405.278,712.6009 430.69,728.2929 " fill="none" id="Foundation-Card" style="stroke:#181818;stroke-width:1.0;"/><polygon fill="#181818" points="441.799,735.1529,436.2427,727.021,437.5447,732.526,432.0397,733.8279,441.799,735.1529" style="stroke:#181818;stroke-width:1.0;"/><line style="stroke:#181818;stroke-width:1.0;" x1="437.5447" x2="430.7375" y1="732.526" y2="728.3224"/><polygon fill="none" points="343.618,674.5259,346.6217,681.0816,353.8284,680.8304,350.8247,674.2747,343.618,674.5259" style="stroke:#181818;stroke-width:1.0;"/><text fill="#000000" font-family="sans-serif" font-size="13" lengthAdjust="spacing" textLength="32" x="396.5157" y="724.2906">0..13</text></g><!--MD5=[bb5bacd9b7a3df96c0a5e7fe1de7da1a]
link Color to Black--><g id="link_Color_Black"><path codeLine="87" d="M416.974,1261.034 C426.701,1271.2386 437.23,1282.2832 446.961,1292.4914 " fill="none" id="Color-Black" style="stroke:#181818;stroke-width:1.0;"/><polygon fill="#181818" points="460.911,1307.1248,457.5966,1297.8504,457.4611,1303.5056,451.8059,1303.3701,460.911,1307.1248" style="stroke:#181818;stroke-width:1.0;"/><line style="stroke:#181818;stroke-width:1.0;" x1="457.4611" x2="447.111" y1="1303.5056" y2="1292.6484"/><polygon fill="none" points="411.866,1265.8206,403.132,1246.5139,421.999,1256.1607,411.866,1265.8206" style="stroke:#181818;stroke-width:1.0;"/></g><!--MD5=[02f84573c9257591cc6ecb265d87c085]
link Color to Red--><g id="link_Color_Red"><path codeLine="88" d="M343.616,1261.034 C333.387,1271.3586 322.307,1282.5432 312.096,1292.8514 " fill="none" id="Color-Red" style="stroke:#181818;stroke-width:1.0;"/><polygon fill="#181818" points="297.956,1307.1248,307.1317,1303.5461,301.4749,1303.5727,301.4483,1297.9159,297.956,1307.1248" style="stroke:#181818;stroke-width:1.0;"/><line style="stroke:#181818;stroke-width:1.0;" x1="301.4749" x2="312.031" y1="1303.5727" y2="1292.9164"/><polygon fill="none" points="338.951,1255.7962,358,1246.5139,348.897,1265.6492,338.951,1255.7962" style="stroke:#181818;stroke-width:1.0;"/></g><!--MD5=[732c23f4e298c91ded3bfa0cbc712d38]
link Diamond to Red--><g id="link_Diamond_Red"><path codeLine="90" d="M190.7446,1254.5369 C190.7446,1254.5369 224.2,1284.6198 239.255,1298.156 " fill="none" id="Diamond-Red" style="stroke:#181818;stroke-width:1.0;"/><polygon fill="#181818" points="249.229,1307.1248,245.2115,1298.1326,245.5111,1303.7815,239.8622,1304.0812,249.229,1307.1248" style="stroke:#181818;stroke-width:1.0;"/><line style="stroke:#181818;stroke-width:1.0;" x1="245.5111" x2="239.5625" y1="1303.7815" y2="1298.4327"/><polygon fill="#181818" points="181.821,1246.5139,183.6084,1253.4999,190.7446,1254.5369,188.9572,1247.5509,181.821,1246.5139" style="stroke:#181818;stroke-width:1.0;"/></g><!--MD5=[378246b792e7d73afd082aeb5825fcc6]
link Club to Black--><g id="link_Club_Black"><path codeLine="91" d="M483,1258.5139 C483,1258.5139 483,1282.7989 483,1293.8599 " fill="none" id="Club-Black" style="stroke:#181818;stroke-width:1.0;"/><polygon fill="#181818" points="483,1307.1248,487,1298.1248,483,1302.1248,479,1298.1248,483,1307.1248" style="stroke:#181818;stroke-width:1.0;"/><line style="stroke:#181818;stroke-width:1.0;" x1="483" x2="483" y1="1302.1248" y2="1294.1248"/><polygon fill="#181818" points="483,1246.5139,479,1252.5139,483,1258.5139,487,1252.5139,483,1246.5139" style="stroke:#181818;stroke-width:1.0;"/></g><!--MD5=[39e04be43e1ad652dcf6d75fa160b251]
link Heart to Red--><g id="link_Heart_Red"><path codeLine="92" d="M275,1258.5139 C275,1258.5139 275,1282.7989 275,1293.8599 " fill="none" id="Heart-Red" style="stroke:#181818;stroke-width:1.0;"/><polygon fill="#181818" points="275,1307.1248,279,1298.1248,275,1302.1248,271,1298.1248,275,1307.1248" style="stroke:#181818;stroke-width:1.0;"/><line style="stroke:#181818;stroke-width:1.0;" x1="275" x2="275" y1="1302.1248" y2="1294.1248"/><polygon fill="#181818" points="275,1246.5139,271,1252.5139,275,1258.5139,279,1252.5139,275,1246.5139" style="stroke:#181818;stroke-width:1.0;"/></g><!--MD5=[5e71cd03c38ae2dc5991a4eb9d4f46b1]
link Spade to Black--><g id="link_Spade_Black"><path codeLine="93" d="M557.555,1255.0392 C557.555,1255.0392 528.327,1284.5423 515.138,1297.8556 " fill="none" id="Spade-Black" style="stroke:#181818;stroke-width:1.0;"/><polygon fill="#181818" points="505.956,1307.1248,515.1316,1303.546,509.4748,1303.5726,509.4482,1297.9158,505.956,1307.1248" style="stroke:#181818;stroke-width:1.0;"/><line style="stroke:#181818;stroke-width:1.0;" x1="509.4748" x2="515.1045" y1="1303.5726" y2="1297.8893"/><polygon fill="#181818" points="566,1246.5139,558.9357,1247.9615,557.555,1255.0392,564.6193,1253.5916,566,1246.5139" style="stroke:#181818;stroke-width:1.0;"/></g><!--MD5=[570e651fcc8417d55cbda0d286d7d10f]
link Stock to Card--><g id="link_Stock_Card"><path codeLine="95" d="M453.5863,684.893 C453.5863,684.893 468.852,711.0769 476.241,723.7509 " fill="none" id="Stock-Card" style="stroke:#181818;stroke-width:1.0;"/><polygon fill="#181818" points="482.888,735.1529,481.8103,725.3632,480.3695,730.8335,474.8992,729.3927,482.888,735.1529" style="stroke:#181818;stroke-width:1.0;"/><line style="stroke:#181818;stroke-width:1.0;" x1="480.3695" x2="476.34" y1="730.8335" y2="723.9219"/><polygon fill="none" points="447.543,674.5259,447.1089,681.7239,453.5863,684.893,454.0204,677.695,447.543,674.5259" style="stroke:#181818;stroke-width:1.0;"/><text fill="#000000" font-family="sans-serif" font-size="13" lengthAdjust="spacing" textLength="32" x="444.4101" y="724.2906">0..24</text></g><!--MD5=[335c588940b99cdeda2c3dd852faaee0]
link Tableau to Card--><g id="link_Tableau_Card"><path codeLine="96" d="M537.6967,685.8299 C537.6967,685.8299 528.811,710.7699 524.511,722.8399 " fill="none" id="Tableau-Card" style="stroke:#181818;stroke-width:1.0;"/><polygon fill="#181818" points="520.124,735.1529,526.9125,728.0173,521.8021,730.4429,519.3765,725.3324,520.124,735.1529" style="stroke:#181818;stroke-width:1.0;"/><line style="stroke:#181818;stroke-width:1.0;" x1="521.8021" x2="524.487" y1="730.4429" y2="722.9069"/><polygon fill="none" points="541.724,674.5259,535.9423,678.8354,537.6967,685.8299,543.4783,681.5203,541.724,674.5259" style="stroke:#181818;stroke-width:1.0;"/><text fill="#000000" font-family="sans-serif" font-size="13" lengthAdjust="spacing" textLength="24" x="496.4758" y="724.2906">0..n</text></g><!--MD5=[e648539d6e20c171ea15533740fa2cf9]
link Waste to Card--><g id="link_Waste_Card"><path codeLine="97" d="M627.9858,681.801 C627.9858,681.801 588.081,712.2229 568.423,727.2089 " fill="none" id="Waste-Card" style="stroke:#181818;stroke-width:1.0;"/><polygon fill="#181818" points="558.003,735.1529,567.5854,732.8776,561.9793,732.1216,562.7354,726.5155,558.003,735.1529" style="stroke:#181818;stroke-width:1.0;"/><line style="stroke:#181818;stroke-width:1.0;" x1="561.9793" x2="568.3415" y1="732.1216" y2="727.2714"/><polygon fill="none" points="637.529,674.5259,630.3324,674.9824,627.9858,681.801,635.1824,681.3445,637.529,674.5259" style="stroke:#181818;stroke-width:1.0;"/><text fill="#000000" font-family="sans-serif" font-size="13" lengthAdjust="spacing" textLength="24" x="540.6285" y="724.2906">0..n</text></g><!--MD5=[549bb3f1e4af10cd7f385e141fc67803]
@startuml
title Klondike
class Klondike
class Player
class Movement
class Goal
note left
build the four foundation
of cards in order ace to king
end note

Abstract Pile
class Foundation
class Card
{
 - rank : Rank
 - is TurnedUp: boolean
}
class Stock
class Waste
class Tableau
Abstract Suit
Enum Rank{
Ace
2
3
4
5
6
7
8
9
10
Jack
Queen
King
}
Abstract Color
class Club
class Spade
class Heart
class Diamond
class Red
class Black
Enum MovementType{
 DeckToTableau
 StockToWaste
 WasteToTableau
 WasteToFoundation
 WasteToStock
 TableauToFoundation
 TableauToTableau
 FoundationToTableau
}
Klondike *- -> "4" Foundation
Klondike *-down-> Player
Klondike *- -> Stock
Klondike *- -> Waste
Klondike *- -> "7" Tableau
Player -down-> Goal
Player .down.> "n" Movement

Movement -down-> "1..n" Card
Movement *-down-> Pile : Origin
Movement *-down-> Pile : Destination
Movement -right-> MovementType : Types

Goal -down-> "4" Foundation : Complet
Goal -.-right-> "n" Movement

Pile <|-down- Foundation
Pile <|-down- Stock
Pile <|-down-Waste
Pile <|-down- Tableau

Card *-down-> Suit
Card *-down-> Rank

Suit <|-down- Club
Suit <|-down- Spade
Suit <|-down- Diamond
Suit <|-down- Heart
Suit *-down- Color

Foundation -down-> Suit
Foundation o-down-> "0..13" Card

Color <|-down-> Black
Color <|-down-> Red

Diamond *-down-> Red
Club *-down-> Black
Heart *-down-> Red
Spade *-down-> Black

Stock o-down-> "0..24" Card
Tableau o-down-> "0..n" Card
Waste o-down-> "0..n" Card
@enduml

PlantUML version 1.2022.3beta1(Unknown compile time)
(GPL source distribution)
Java Runtime: Java(TM) SE Runtime Environment
JVM: Java HotSpot(TM) 64-Bit Server VM
Default Encoding: UTF-8
Language: en
Country: US
--></g></svg>