<?xml version="1.0" encoding="UTF-8" standalone="no"?><svg xmlns="http://www.w3.org/2000/svg" xmlns:xlink="http://www.w3.org/1999/xlink" contentStyleType="text/css" height="1581px" preserveAspectRatio="none" style="width:665px;height:1581px;background:#FFFFFF;" version="1.1" viewBox="0 0 665 1581" width="665px" zoomAndPan="magnify"><defs/><g><rect height="26.2969" style="stroke:#00000000;stroke-width:1.0;fill:none;" width="78" x="286.5" y="5"/><text fill="#000000" font-family="sans-serif" font-size="14" font-weight="bold" lengthAdjust="spacing" textLength="68" x="291.5" y="22.9951">Klondike</text><!--MD5=[ce135f397e71694d574a1221b16fe9d6]
class Klondike--><g id="elem_Klondike"><rect codeLine="3" fill="#F1F1F1" height="48" id="Klondike" rx="2.5" ry="2.5" style="stroke:#181818;stroke-width:0.5;" width="95" x="235" y="44.2969"/><ellipse cx="250" cy="60.2969" fill="#ADD1B2" rx="11" ry="11" style="stroke:#181818;stroke-width:1.0;"/><path d="M252.3438,55.9688 C251.4063,55.5313 250.8125,55.3906 249.9375,55.3906 C247.3125,55.3906 245.3125,57.4688 245.3125,60.1875 L245.3125,61.3125 C245.3125,63.8906 247.4219,65.7813 250.3125,65.7813 C251.5313,65.7813 252.6875,65.4844 253.4375,64.9375 C254.0156,64.5313 254.3438,64.0781 254.3438,63.6875 C254.3438,63.2344 253.9531,62.8438 253.4844,62.8438 C253.2656,62.8438 253.0625,62.9219 252.875,63.1094 C252.4219,63.5938 252.4219,63.5938 252.2344,63.6875 C251.8125,63.9531 251.125,64.0781 250.3594,64.0781 C248.3125,64.0781 247.0156,62.9844 247.0156,61.2813 L247.0156,60.1875 C247.0156,58.4063 248.2656,57.0938 250,57.0938 C250.5781,57.0938 251.1875,57.25 251.6563,57.5 C252.1406,57.7813 252.3125,58 252.4063,58.4063 C252.4688,58.8125 252.5,58.9375 252.6406,59.0625 C252.7813,59.2031 253.0156,59.3125 253.2344,59.3125 C253.5,59.3125 253.7656,59.1719 253.9375,58.9531 C254.0469,58.7969 254.0781,58.6094 254.0781,58.1875 L254.0781,56.7656 C254.0781,56.3281 254.0625,56.2031 253.9688,56.0469 C253.8125,55.7813 253.5313,55.6406 253.2344,55.6406 C252.9375,55.6406 252.7344,55.7344 252.5156,56.0469 L252.3438,55.9688 Z " fill="#000000"/><text fill="#000000" font-family="sans-serif" font-size="14" lengthAdjust="spacing" textLength="63" x="264" y="65.1436">Klondike</text><line style="stroke:#181818;stroke-width:0.5;" x1="236" x2="329" y1="76.2969" y2="76.2969"/><line style="stroke:#181818;stroke-width:0.5;" x1="236" x2="329" y1="84.2969" y2="84.2969"/></g><!--MD5=[2cb47ba637a0d19583e6199456f6ad0b]
class Player--><g id="elem_Player"><rect codeLine="4" fill="#F1F1F1" height="48" id="Player" rx="2.5" ry="2.5" style="stroke:#181818;stroke-width:0.5;" width="76" x="244.5" y="153.2969"/><ellipse cx="259.5" cy="169.2969" fill="#ADD1B2" rx="11" ry="11" style="stroke:#181818;stroke-width:1.0;"/><path d="M261.8438,164.9688 C260.9063,164.5313 260.3125,164.3906 259.4375,164.3906 C256.8125,164.3906 254.8125,166.4688 254.8125,169.1875 L254.8125,170.3125 C254.8125,172.8906 256.9219,174.7813 259.8125,174.7813 C261.0313,174.7813 262.1875,174.4844 262.9375,173.9375 C263.5156,173.5313 263.8438,173.0781 263.8438,172.6875 C263.8438,172.2344 263.4531,171.8438 262.9844,171.8438 C262.7656,171.8438 262.5625,171.9219 262.375,172.1094 C261.9219,172.5938 261.9219,172.5938 261.7344,172.6875 C261.3125,172.9531 260.625,173.0781 259.8594,173.0781 C257.8125,173.0781 256.5156,171.9844 256.5156,170.2813 L256.5156,169.1875 C256.5156,167.4063 257.7656,166.0938 259.5,166.0938 C260.0781,166.0938 260.6875,166.25 261.1563,166.5 C261.6406,166.7813 261.8125,167 261.9063,167.4063 C261.9688,167.8125 262,167.9375 262.1406,168.0625 C262.2813,168.2031 262.5156,168.3125 262.7344,168.3125 C263,168.3125 263.2656,168.1719 263.4375,167.9531 C263.5469,167.7969 263.5781,167.6094 263.5781,167.1875 L263.5781,165.7656 C263.5781,165.3281 263.5625,165.2031 263.4688,165.0469 C263.3125,164.7813 263.0313,164.6406 262.7344,164.6406 C262.4375,164.6406 262.2344,164.7344 262.0156,165.0469 L261.8438,164.9688 Z " fill="#000000"/><text fill="#000000" font-family="sans-serif" font-size="14" lengthAdjust="spacing" textLength="44" x="273.5" y="174.1436">Player</text><line style="stroke:#181818;stroke-width:0.5;" x1="245.5" x2="319.5" y1="185.2969" y2="185.2969"/><line style="stroke:#181818;stroke-width:0.5;" x1="245.5" x2="319.5" y1="193.2969" y2="193.2969"/></g><!--MD5=[ad95966b0706fca9a66cca207a930344]
class Playmat--><g id="elem_Playmat"><rect codeLine="5" fill="#F1F1F1" height="48" id="Playmat" rx="2.5" ry="2.5" style="stroke:#181818;stroke-width:0.5;" width="90" x="364.5" y="529.2969"/><ellipse cx="379.5" cy="545.2969" fill="#ADD1B2" rx="11" ry="11" style="stroke:#181818;stroke-width:1.0;"/><path d="M381.8438,540.9688 C380.9063,540.5313 380.3125,540.3906 379.4375,540.3906 C376.8125,540.3906 374.8125,542.4688 374.8125,545.1875 L374.8125,546.3125 C374.8125,548.8906 376.9219,550.7813 379.8125,550.7813 C381.0313,550.7813 382.1875,550.4844 382.9375,549.9375 C383.5156,549.5313 383.8438,549.0781 383.8438,548.6875 C383.8438,548.2344 383.4531,547.8438 382.9844,547.8438 C382.7656,547.8438 382.5625,547.9219 382.375,548.1094 C381.9219,548.5938 381.9219,548.5938 381.7344,548.6875 C381.3125,548.9531 380.625,549.0781 379.8594,549.0781 C377.8125,549.0781 376.5156,547.9844 376.5156,546.2813 L376.5156,545.1875 C376.5156,543.4063 377.7656,542.0938 379.5,542.0938 C380.0781,542.0938 380.6875,542.25 381.1563,542.5 C381.6406,542.7813 381.8125,543 381.9063,543.4063 C381.9688,543.8125 382,543.9375 382.1406,544.0625 C382.2813,544.2031 382.5156,544.3125 382.7344,544.3125 C383,544.3125 383.2656,544.1719 383.4375,543.9531 C383.5469,543.7969 383.5781,543.6094 383.5781,543.1875 L383.5781,541.7656 C383.5781,541.3281 383.5625,541.2031 383.4688,541.0469 C383.3125,540.7813 383.0313,540.6406 382.7344,540.6406 C382.4375,540.6406 382.2344,540.7344 382.0156,541.0469 L381.8438,540.9688 Z " fill="#000000"/><text fill="#000000" font-family="sans-serif" font-size="14" lengthAdjust="spacing" textLength="58" x="393.5" y="550.1436">Playmat</text><line style="stroke:#181818;stroke-width:0.5;" x1="365.5" x2="453.5" y1="561.2969" y2="561.2969"/><line style="stroke:#181818;stroke-width:0.5;" x1="365.5" x2="453.5" y1="569.2969" y2="569.2969"/></g><!--MD5=[30299a58ba6b78debaaed5ddbb42f29a]
class Deck--><g id="elem_Deck"><rect codeLine="6" fill="#F1F1F1" height="48" id="Deck" rx="2.5" ry="2.5" style="stroke:#181818;stroke-width:0.5;" width="69" x="38" y="529.2969"/><ellipse cx="53" cy="545.2969" fill="#ADD1B2" rx="11" ry="11" style="stroke:#181818;stroke-width:1.0;"/><path d="M55.3438,540.9688 C54.4063,540.5313 53.8125,540.3906 52.9375,540.3906 C50.3125,540.3906 48.3125,542.4688 48.3125,545.1875 L48.3125,546.3125 C48.3125,548.8906 50.4219,550.7813 53.3125,550.7813 C54.5313,550.7813 55.6875,550.4844 56.4375,549.9375 C57.0156,549.5313 57.3438,549.0781 57.3438,548.6875 C57.3438,548.2344 56.9531,547.8438 56.4844,547.8438 C56.2656,547.8438 56.0625,547.9219 55.875,548.1094 C55.4219,548.5938 55.4219,548.5938 55.2344,548.6875 C54.8125,548.9531 54.125,549.0781 53.3594,549.0781 C51.3125,549.0781 50.0156,547.9844 50.0156,546.2813 L50.0156,545.1875 C50.0156,543.4063 51.2656,542.0938 53,542.0938 C53.5781,542.0938 54.1875,542.25 54.6563,542.5 C55.1406,542.7813 55.3125,543 55.4063,543.4063 C55.4688,543.8125 55.5,543.9375 55.6406,544.0625 C55.7813,544.2031 56.0156,544.3125 56.2344,544.3125 C56.5,544.3125 56.7656,544.1719 56.9375,543.9531 C57.0469,543.7969 57.0781,543.6094 57.0781,543.1875 L57.0781,541.7656 C57.0781,541.3281 57.0625,541.2031 56.9688,541.0469 C56.8125,540.7813 56.5313,540.6406 56.2344,540.6406 C55.9375,540.6406 55.7344,540.7344 55.5156,541.0469 L55.3438,540.9688 Z " fill="#000000"/><text fill="#000000" font-family="sans-serif" font-size="14" lengthAdjust="spacing" textLength="37" x="67" y="550.1436">Deck</text><line style="stroke:#181818;stroke-width:0.5;" x1="39" x2="106" y1="561.2969" y2="561.2969"/><line style="stroke:#181818;stroke-width:0.5;" x1="39" x2="106" y1="569.2969" y2="569.2969"/></g><!--MD5=[0992d3fdc9d3d7c02b735131bb70871d]
class Goal--><g id="elem_Goal"><rect codeLine="7" fill="#F1F1F1" height="48" id="Goal" rx="2.5" ry="2.5" style="stroke:#181818;stroke-width:0.5;" width="64" x="187.5" y="262.2969"/><ellipse cx="202.5" cy="278.2969" fill="#ADD1B2" rx="11" ry="11" style="stroke:#181818;stroke-width:1.0;"/><path d="M204.8438,273.9688 C203.9063,273.5313 203.3125,273.3906 202.4375,273.3906 C199.8125,273.3906 197.8125,275.4688 197.8125,278.1875 L197.8125,279.3125 C197.8125,281.8906 199.9219,283.7813 202.8125,283.7813 C204.0313,283.7813 205.1875,283.4844 205.9375,282.9375 C206.5156,282.5313 206.8438,282.0781 206.8438,281.6875 C206.8438,281.2344 206.4531,280.8438 205.9844,280.8438 C205.7656,280.8438 205.5625,280.9219 205.375,281.1094 C204.9219,281.5938 204.9219,281.5938 204.7344,281.6875 C204.3125,281.9531 203.625,282.0781 202.8594,282.0781 C200.8125,282.0781 199.5156,280.9844 199.5156,279.2813 L199.5156,278.1875 C199.5156,276.4063 200.7656,275.0938 202.5,275.0938 C203.0781,275.0938 203.6875,275.25 204.1563,275.5 C204.6406,275.7813 204.8125,276 204.9063,276.4063 C204.9688,276.8125 205,276.9375 205.1406,277.0625 C205.2813,277.2031 205.5156,277.3125 205.7344,277.3125 C206,277.3125 206.2656,277.1719 206.4375,276.9531 C206.5469,276.7969 206.5781,276.6094 206.5781,276.1875 L206.5781,274.7656 C206.5781,274.3281 206.5625,274.2031 206.4688,274.0469 C206.3125,273.7813 206.0313,273.6406 205.7344,273.6406 C205.4375,273.6406 205.2344,273.7344 205.0156,274.0469 L204.8438,273.9688 Z " fill="#000000"/><text fill="#000000" font-family="sans-serif" font-size="14" lengthAdjust="spacing" textLength="32" x="216.5" y="283.1436">Goal</text><line style="stroke:#181818;stroke-width:0.5;" x1="188.5" x2="250.5" y1="294.2969" y2="294.2969"/><line style="stroke:#181818;stroke-width:0.5;" x1="188.5" x2="250.5" y1="302.2969" y2="302.2969"/></g><!--MD5=[a4cb0f987c11031dc931233a0e7767af]
class Stock--><g id="elem_Stock"><rect codeLine="8" fill="#F1F1F1" height="64.2969" id="Stock" rx="2.5" ry="2.5" style="stroke:#181818;stroke-width:0.5;" width="151" x="271" y="780.2969"/><ellipse cx="321.25" cy="796.2969" fill="#ADD1B2" rx="11" ry="11" style="stroke:#181818;stroke-width:1.0;"/><path d="M323.5938,791.9688 C322.6563,791.5313 322.0625,791.3906 321.1875,791.3906 C318.5625,791.3906 316.5625,793.4688 316.5625,796.1875 L316.5625,797.3125 C316.5625,799.8906 318.6719,801.7813 321.5625,801.7813 C322.7813,801.7813 323.9375,801.4844 324.6875,800.9375 C325.2656,800.5313 325.5938,800.0781 325.5938,799.6875 C325.5938,799.2344 325.2031,798.8438 324.7344,798.8438 C324.5156,798.8438 324.3125,798.9219 324.125,799.1094 C323.6719,799.5938 323.6719,799.5938 323.4844,799.6875 C323.0625,799.9531 322.375,800.0781 321.6094,800.0781 C319.5625,800.0781 318.2656,798.9844 318.2656,797.2813 L318.2656,796.1875 C318.2656,794.4063 319.5156,793.0938 321.25,793.0938 C321.8281,793.0938 322.4375,793.25 322.9063,793.5 C323.3906,793.7813 323.5625,794 323.6563,794.4063 C323.7188,794.8125 323.75,794.9375 323.8906,795.0625 C324.0313,795.2031 324.2656,795.3125 324.4844,795.3125 C324.75,795.3125 325.0156,795.1719 325.1875,794.9531 C325.2969,794.7969 325.3281,794.6094 325.3281,794.1875 L325.3281,792.7656 C325.3281,792.3281 325.3125,792.2031 325.2188,792.0469 C325.0625,791.7813 324.7813,791.6406 324.4844,791.6406 C324.1875,791.6406 323.9844,791.7344 323.7656,792.0469 L323.5938,791.9688 Z " fill="#000000"/><text fill="#000000" font-family="sans-serif" font-size="14" lengthAdjust="spacing" textLength="42" x="341.75" y="801.1436">Stock</text><line style="stroke:#181818;stroke-width:0.5;" x1="272" x2="421" y1="812.2969" y2="812.2969"/><text fill="#000000" font-family="sans-serif" font-size="14" lengthAdjust="spacing" text-decoration="underline" textLength="139" x="277" y="829.292">maxCards = 52 : int</text><line style="stroke:#181818;stroke-width:0.5;" x1="272" x2="421" y1="836.5938" y2="836.5938"/></g><!--MD5=[d01ad859d436f6e28b36a553834670aa]
class Foundation--><g id="elem_Foundation"><rect codeLine="11" fill="#F1F1F1" height="48" id="Foundation" rx="2.5" ry="2.5" style="stroke:#181818;stroke-width:0.5;" width="112" x="123.5" y="788.2969"/><ellipse cx="138.5" cy="804.2969" fill="#ADD1B2" rx="11" ry="11" style="stroke:#181818;stroke-width:1.0;"/><path d="M140.8438,799.9688 C139.9063,799.5313 139.3125,799.3906 138.4375,799.3906 C135.8125,799.3906 133.8125,801.4688 133.8125,804.1875 L133.8125,805.3125 C133.8125,807.8906 135.9219,809.7813 138.8125,809.7813 C140.0313,809.7813 141.1875,809.4844 141.9375,808.9375 C142.5156,808.5313 142.8438,808.0781 142.8438,807.6875 C142.8438,807.2344 142.4531,806.8438 141.9844,806.8438 C141.7656,806.8438 141.5625,806.9219 141.375,807.1094 C140.9219,807.5938 140.9219,807.5938 140.7344,807.6875 C140.3125,807.9531 139.625,808.0781 138.8594,808.0781 C136.8125,808.0781 135.5156,806.9844 135.5156,805.2813 L135.5156,804.1875 C135.5156,802.4063 136.7656,801.0938 138.5,801.0938 C139.0781,801.0938 139.6875,801.25 140.1563,801.5 C140.6406,801.7813 140.8125,802 140.9063,802.4063 C140.9688,802.8125 141,802.9375 141.1406,803.0625 C141.2813,803.2031 141.5156,803.3125 141.7344,803.3125 C142,803.3125 142.2656,803.1719 142.4375,802.9531 C142.5469,802.7969 142.5781,802.6094 142.5781,802.1875 L142.5781,800.7656 C142.5781,800.3281 142.5625,800.2031 142.4688,800.0469 C142.3125,799.7813 142.0313,799.6406 141.7344,799.6406 C141.4375,799.6406 141.2344,799.7344 141.0156,800.0469 L140.8438,799.9688 Z " fill="#000000"/><text fill="#000000" font-family="sans-serif" font-size="14" lengthAdjust="spacing" textLength="80" x="152.5" y="809.1436">Foundation</text><line style="stroke:#181818;stroke-width:0.5;" x1="124.5" x2="234.5" y1="820.2969" y2="820.2969"/><line style="stroke:#181818;stroke-width:0.5;" x1="124.5" x2="234.5" y1="828.2969" y2="828.2969"/></g><!--MD5=[c033d16283544a66478df33ee92fe5a6]
class Tableau--><g id="elem_Tableau"><rect codeLine="14" fill="#F1F1F1" height="48" id="Tableau" rx="2.5" ry="2.5" style="stroke:#181818;stroke-width:0.5;" width="88" x="457.5" y="788.2969"/><ellipse cx="472.5" cy="804.2969" fill="#ADD1B2" rx="11" ry="11" style="stroke:#181818;stroke-width:1.0;"/><path d="M474.8438,799.9688 C473.9063,799.5313 473.3125,799.3906 472.4375,799.3906 C469.8125,799.3906 467.8125,801.4688 467.8125,804.1875 L467.8125,805.3125 C467.8125,807.8906 469.9219,809.7813 472.8125,809.7813 C474.0313,809.7813 475.1875,809.4844 475.9375,808.9375 C476.5156,808.5313 476.8438,808.0781 476.8438,807.6875 C476.8438,807.2344 476.4531,806.8438 475.9844,806.8438 C475.7656,806.8438 475.5625,806.9219 475.375,807.1094 C474.9219,807.5938 474.9219,807.5938 474.7344,807.6875 C474.3125,807.9531 473.625,808.0781 472.8594,808.0781 C470.8125,808.0781 469.5156,806.9844 469.5156,805.2813 L469.5156,804.1875 C469.5156,802.4063 470.7656,801.0938 472.5,801.0938 C473.0781,801.0938 473.6875,801.25 474.1563,801.5 C474.6406,801.7813 474.8125,802 474.9063,802.4063 C474.9688,802.8125 475,802.9375 475.1406,803.0625 C475.2813,803.2031 475.5156,803.3125 475.7344,803.3125 C476,803.3125 476.2656,803.1719 476.4375,802.9531 C476.5469,802.7969 476.5781,802.6094 476.5781,802.1875 L476.5781,800.7656 C476.5781,800.3281 476.5625,800.2031 476.4688,800.0469 C476.3125,799.7813 476.0313,799.6406 475.7344,799.6406 C475.4375,799.6406 475.2344,799.7344 475.0156,800.0469 L474.8438,799.9688 Z " fill="#000000"/><text fill="#000000" font-family="sans-serif" font-size="14" lengthAdjust="spacing" textLength="56" x="486.5" y="809.1436">Tableau</text><line style="stroke:#181818;stroke-width:0.5;" x1="458.5" x2="544.5" y1="820.2969" y2="820.2969"/><line style="stroke:#181818;stroke-width:0.5;" x1="458.5" x2="544.5" y1="828.2969" y2="828.2969"/></g><!--MD5=[c3c256aac7e3870d53c0042288b21bdc]
class Waste--><g id="elem_Waste"><rect codeLine="17" fill="#F1F1F1" height="48" id="Waste" rx="2.5" ry="2.5" style="stroke:#181818;stroke-width:0.5;" width="77" x="581" y="788.2969"/><ellipse cx="596" cy="804.2969" fill="#ADD1B2" rx="11" ry="11" style="stroke:#181818;stroke-width:1.0;"/><path d="M598.3438,799.9688 C597.4063,799.5313 596.8125,799.3906 595.9375,799.3906 C593.3125,799.3906 591.3125,801.4688 591.3125,804.1875 L591.3125,805.3125 C591.3125,807.8906 593.4219,809.7813 596.3125,809.7813 C597.5313,809.7813 598.6875,809.4844 599.4375,808.9375 C600.0156,808.5313 600.3438,808.0781 600.3438,807.6875 C600.3438,807.2344 599.9531,806.8438 599.4844,806.8438 C599.2656,806.8438 599.0625,806.9219 598.875,807.1094 C598.4219,807.5938 598.4219,807.5938 598.2344,807.6875 C597.8125,807.9531 597.125,808.0781 596.3594,808.0781 C594.3125,808.0781 593.0156,806.9844 593.0156,805.2813 L593.0156,804.1875 C593.0156,802.4063 594.2656,801.0938 596,801.0938 C596.5781,801.0938 597.1875,801.25 597.6563,801.5 C598.1406,801.7813 598.3125,802 598.4063,802.4063 C598.4688,802.8125 598.5,802.9375 598.6406,803.0625 C598.7813,803.2031 599.0156,803.3125 599.2344,803.3125 C599.5,803.3125 599.7656,803.1719 599.9375,802.9531 C600.0469,802.7969 600.0781,802.6094 600.0781,802.1875 L600.0781,800.7656 C600.0781,800.3281 600.0625,800.2031 599.9688,800.0469 C599.8125,799.7813 599.5313,799.6406 599.2344,799.6406 C598.9375,799.6406 598.7344,799.7344 598.5156,800.0469 L598.3438,799.9688 Z " fill="#000000"/><text fill="#000000" font-family="sans-serif" font-size="14" lengthAdjust="spacing" textLength="45" x="610" y="809.1436">Waste</text><line style="stroke:#181818;stroke-width:0.5;" x1="582" x2="657" y1="820.2969" y2="820.2969"/><line style="stroke:#181818;stroke-width:0.5;" x1="582" x2="657" y1="828.2969" y2="828.2969"/></g><!--MD5=[5e305716458bbdabbd2d7f572ed2bae2]
class Card--><g id="elem_Card"><rect codeLine="20" fill="#F1F1F1" height="96.8906" id="Card" rx="2.5" ry="2.5" style="stroke:#181818;stroke-width:0.5;" width="177" x="258" y="905.2969"/><ellipse cx="325.75" cy="921.2969" fill="#ADD1B2" rx="11" ry="11" style="stroke:#181818;stroke-width:1.0;"/><path d="M328.0938,916.9688 C327.1563,916.5313 326.5625,916.3906 325.6875,916.3906 C323.0625,916.3906 321.0625,918.4688 321.0625,921.1875 L321.0625,922.3125 C321.0625,924.8906 323.1719,926.7813 326.0625,926.7813 C327.2813,926.7813 328.4375,926.4844 329.1875,925.9375 C329.7656,925.5313 330.0938,925.0781 330.0938,924.6875 C330.0938,924.2344 329.7031,923.8438 329.2344,923.8438 C329.0156,923.8438 328.8125,923.9219 328.625,924.1094 C328.1719,924.5938 328.1719,924.5938 327.9844,924.6875 C327.5625,924.9531 326.875,925.0781 326.1094,925.0781 C324.0625,925.0781 322.7656,923.9844 322.7656,922.2813 L322.7656,921.1875 C322.7656,919.4063 324.0156,918.0938 325.75,918.0938 C326.3281,918.0938 326.9375,918.25 327.4063,918.5 C327.8906,918.7813 328.0625,919 328.1563,919.4063 C328.2188,919.8125 328.25,919.9375 328.3906,920.0625 C328.5313,920.2031 328.7656,920.3125 328.9844,920.3125 C329.25,920.3125 329.5156,920.1719 329.6875,919.9531 C329.7969,919.7969 329.8281,919.6094 329.8281,919.1875 L329.8281,917.7656 C329.8281,917.3281 329.8125,917.2031 329.7188,917.0469 C329.5625,916.7813 329.2813,916.6406 328.9844,916.6406 C328.6875,916.6406 328.4844,916.7344 328.2656,917.0469 L328.0938,916.9688 Z " fill="#000000"/><text fill="#000000" font-family="sans-serif" font-size="14" lengthAdjust="spacing" textLength="33" x="346.25" y="926.1436">Card</text><line style="stroke:#181818;stroke-width:0.5;" x1="259" x2="434" y1="937.2969" y2="937.2969"/><rect fill="none" height="6" style="stroke:#C82930;stroke-width:1.0;" width="6" x="266" y="945.2969"/><text fill="#000000" font-family="sans-serif" font-size="14" lengthAdjust="spacing" textLength="81" x="278" y="954.292">rank : Rank</text><rect fill="none" height="6" style="stroke:#C82930;stroke-width:1.0;" width="6" x="266" y="961.5938"/><text fill="#000000" font-family="sans-serif" font-size="14" lengthAdjust="spacing" textLength="67" x="278" y="970.5889">suit : Suit</text><rect fill="none" height="6" style="stroke:#C82930;stroke-width:1.0;" width="6" x="266" y="977.8906"/><text fill="#000000" font-family="sans-serif" font-size="14" lengthAdjust="spacing" textLength="151" x="278" y="986.8857">IsTurnedUp : boolean</text><line style="stroke:#181818;stroke-width:0.5;" x1="259" x2="434" y1="994.1875" y2="994.1875"/></g><!--MD5=[9d65f55e1ae89a5b4cf38812aa4a03f3]
class Pile--><g id="elem_Pile"><rect codeLine="25" fill="#F1F1F1" height="80.5938" id="Pile" rx="2.5" ry="2.5" style="stroke:#181818;stroke-width:0.5;" width="178" x="320.5" y="638.2969"/><ellipse cx="392.75" cy="654.2969" fill="#A9DCDF" rx="11" ry="11" style="stroke:#181818;stroke-width:1.0;"/><path d="M394.8281,656.1094 L395.2188,657.0938 L394.8281,657.0938 C394.375,657.0938 394.2656,657.1094 394.1094,657.2188 C393.8594,657.375 393.7031,657.6563 393.7031,657.9531 C393.7031,658.2188 393.8438,658.4688 394.0625,658.625 C394.2031,658.75 394.4063,658.7969 394.8281,658.7969 L397.1875,658.7969 C397.5469,658.7969 397.7656,658.7656 397.9063,658.6719 C398.1563,658.5313 398.3125,658.2344 398.3125,657.9531 C398.3125,657.6719 398.1719,657.4219 397.9531,657.2656 C397.7813,657.125 397.625,657.0938 397.1563,657.0938 L393.7656,648.8906 L390.0938,648.8906 C389.6406,648.8906 389.5156,648.9063 389.3594,649 C389.1094,649.1719 388.9531,649.4531 388.9531,649.7344 C388.9531,650.0156 389.0938,650.2656 389.3125,650.4375 C389.4844,650.5469 389.6563,650.5781 390.0938,650.5781 L391.1719,650.5781 L388.5313,657.0938 C388.1094,657.0938 387.9531,657.1094 387.7969,657.2188 C387.5469,657.375 387.3906,657.6563 387.3906,657.9531 C387.3906,658.5156 387.7656,658.7969 388.5156,658.7969 L390.7813,658.7969 C391.1406,658.7969 391.3594,658.7656 391.4844,658.6719 C391.75,658.5313 391.8906,658.2344 391.8906,657.9531 C391.8906,657.6719 391.7656,657.4219 391.5469,657.25 C391.375,657.125 391.2344,657.0938 390.7813,657.0938 L390.3906,657.0938 L390.7813,656.1094 L394.8281,656.1094 Z M394.125,654.4063 L391.4531,654.4063 L392.7969,651.1406 L394.125,654.4063 Z " fill="#000000"/><text fill="#000000" font-family="sans-serif" font-size="14" font-style="italic" lengthAdjust="spacing" textLength="25" x="413.25" y="659.1436">Pile</text><line style="stroke:#181818;stroke-width:0.5;" x1="321.5" x2="497.5" y1="670.2969" y2="670.2969"/><rect fill="none" height="6" style="stroke:#C82930;stroke-width:1.0;" width="6" x="328.5" y="678.2969"/><text fill="#000000" font-family="sans-serif" font-size="14" lengthAdjust="spacing" textLength="96" x="340.5" y="687.292">cardList : List</text><line style="stroke:#181818;stroke-width:0.5;" x1="321.5" x2="497.5" y1="694.5938" y2="694.5938"/><polygon fill="#FFFF44" points="331.5,700.5938,335.5,704.5938,331.5,708.5938,327.5,704.5938" style="stroke:#B38D22;stroke-width:1.0;"/><text fill="#000000" font-family="sans-serif" font-size="14" lengthAdjust="spacing" textLength="152" x="340.5" y="711.5889">validMove() : boolean</text></g><!--MD5=[8afaa0cc9be9ac1cdc24999fa1642fa3]
class Suit--><g id="elem_Suit"><rect codeLine="29" fill="#F1F1F1" height="64.2969" id="Suit" rx="2.5" ry="2.5" style="stroke:#181818;stroke-width:0.5;" width="109" x="199" y="1161.2969"/><ellipse cx="236.5" cy="1177.2969" fill="#A9DCDF" rx="11" ry="11" style="stroke:#181818;stroke-width:1.0;"/><path d="M238.5781,1179.1094 L238.9688,1180.0938 L238.5781,1180.0938 C238.125,1180.0938 238.0156,1180.1094 237.8594,1180.2188 C237.6094,1180.375 237.4531,1180.6563 237.4531,1180.9531 C237.4531,1181.2188 237.5938,1181.4688 237.8125,1181.625 C237.9531,1181.75 238.1563,1181.7969 238.5781,1181.7969 L240.9375,1181.7969 C241.2969,1181.7969 241.5156,1181.7656 241.6563,1181.6719 C241.9063,1181.5313 242.0625,1181.2344 242.0625,1180.9531 C242.0625,1180.6719 241.9219,1180.4219 241.7031,1180.2656 C241.5313,1180.125 241.375,1180.0938 240.9063,1180.0938 L237.5156,1171.8906 L233.8438,1171.8906 C233.3906,1171.8906 233.2656,1171.9063 233.1094,1172 C232.8594,1172.1719 232.7031,1172.4531 232.7031,1172.7344 C232.7031,1173.0156 232.8438,1173.2656 233.0625,1173.4375 C233.2344,1173.5469 233.4063,1173.5781 233.8438,1173.5781 L234.9219,1173.5781 L232.2813,1180.0938 C231.8594,1180.0938 231.7031,1180.1094 231.5469,1180.2188 C231.2969,1180.375 231.1406,1180.6563 231.1406,1180.9531 C231.1406,1181.5156 231.5156,1181.7969 232.2656,1181.7969 L234.5313,1181.7969 C234.8906,1181.7969 235.1094,1181.7656 235.2344,1181.6719 C235.5,1181.5313 235.6406,1181.2344 235.6406,1180.9531 C235.6406,1180.6719 235.5156,1180.4219 235.2969,1180.25 C235.125,1180.125 234.9844,1180.0938 234.5313,1180.0938 L234.1406,1180.0938 L234.5313,1179.1094 L238.5781,1179.1094 Z M237.875,1177.4063 L235.2031,1177.4063 L236.5469,1174.1406 L237.875,1177.4063 Z " fill="#000000"/><text fill="#000000" font-family="sans-serif" font-size="14" font-style="italic" lengthAdjust="spacing" textLength="27" x="255.5" y="1182.1436">Suit</text><line style="stroke:#181818;stroke-width:0.5;" x1="200" x2="307" y1="1193.2969" y2="1193.2969"/><rect fill="none" height="6" style="stroke:#C82930;stroke-width:1.0;" width="6" x="207" y="1201.2969"/><text fill="#000000" font-family="sans-serif" font-size="14" lengthAdjust="spacing" textLength="83" x="219" y="1210.292">color :Color</text><line style="stroke:#181818;stroke-width:0.5;" x1="200" x2="307" y1="1217.5938" y2="1217.5938"/></g><!--MD5=[1981719fa3982d92ef7fd3f06d73b3e7]
class Move--><g id="elem_Move"><rect codeLine="32" fill="#F1F1F1" height="96.8906" id="Move" rx="2.5" ry="2.5" style="stroke:#181818;stroke-width:0.5;" width="147" x="231" y="371.2969"/><ellipse cx="281.25" cy="387.2969" fill="#ADD1B2" rx="11" ry="11" style="stroke:#181818;stroke-width:1.0;"/><path d="M283.5938,382.9688 C282.6563,382.5313 282.0625,382.3906 281.1875,382.3906 C278.5625,382.3906 276.5625,384.4688 276.5625,387.1875 L276.5625,388.3125 C276.5625,390.8906 278.6719,392.7813 281.5625,392.7813 C282.7813,392.7813 283.9375,392.4844 284.6875,391.9375 C285.2656,391.5313 285.5938,391.0781 285.5938,390.6875 C285.5938,390.2344 285.2031,389.8438 284.7344,389.8438 C284.5156,389.8438 284.3125,389.9219 284.125,390.1094 C283.6719,390.5938 283.6719,390.5938 283.4844,390.6875 C283.0625,390.9531 282.375,391.0781 281.6094,391.0781 C279.5625,391.0781 278.2656,389.9844 278.2656,388.2813 L278.2656,387.1875 C278.2656,385.4063 279.5156,384.0938 281.25,384.0938 C281.8281,384.0938 282.4375,384.25 282.9063,384.5 C283.3906,384.7813 283.5625,385 283.6563,385.4063 C283.7188,385.8125 283.75,385.9375 283.8906,386.0625 C284.0313,386.2031 284.2656,386.3125 284.4844,386.3125 C284.75,386.3125 285.0156,386.1719 285.1875,385.9531 C285.2969,385.7969 285.3281,385.6094 285.3281,385.1875 L285.3281,383.7656 C285.3281,383.3281 285.3125,383.2031 285.2188,383.0469 C285.0625,382.7813 284.7813,382.6406 284.4844,382.6406 C284.1875,382.6406 283.9844,382.7344 283.7656,383.0469 L283.5938,382.9688 Z " fill="#000000"/><text fill="#000000" font-family="sans-serif" font-size="14" lengthAdjust="spacing" textLength="38" x="301.75" y="392.1436">Move</text><line style="stroke:#181818;stroke-width:0.5;" x1="232" x2="377" y1="403.2969" y2="403.2969"/><rect fill="none" height="6" style="stroke:#C82930;stroke-width:1.0;" width="6" x="239" y="411.2969"/><text fill="#000000" font-family="sans-serif" font-size="14" lengthAdjust="spacing" textLength="80" x="251" y="420.292">origin : Pile</text><rect fill="none" height="6" style="stroke:#C82930;stroke-width:1.0;" width="6" x="239" y="427.5938"/><text fill="#000000" font-family="sans-serif" font-size="14" lengthAdjust="spacing" textLength="103" x="251" y="436.5889">cardList : Card</text><rect fill="none" height="6" style="stroke:#C82930;stroke-width:1.0;" width="6" x="239" y="443.8906"/><text fill="#000000" font-family="sans-serif" font-size="14" lengthAdjust="spacing" textLength="121" x="251" y="452.8857">destination : Pile</text><line style="stroke:#181818;stroke-width:0.5;" x1="232" x2="377" y1="460.1875" y2="460.1875"/></g><!--MD5=[18eee71c88ab61f27581b8cbdd3ef5ee]
class Color--><g id="elem_Color"><rect codeLine="37" fill="#F1F1F1" height="80.5938" id="Color" rx="2.5" ry="2.5" style="stroke:#181818;stroke-width:0.5;" width="70" x="218.5" y="1384.2969"/><ellipse cx="233.5" cy="1400.2969" fill="#EB937F" rx="11" ry="11" style="stroke:#181818;stroke-width:1.0;"/><path d="M232.2969,1401.1719 L233.75,1401.1719 L233.75,1401.2813 C233.75,1401.6875 233.7813,1401.8438 233.8594,1402 C234.0156,1402.25 234.2969,1402.4063 234.5938,1402.4063 C234.8438,1402.4063 235.1094,1402.2656 235.2656,1402.0469 C235.3906,1401.8906 235.4219,1401.7344 235.4219,1401.2813 L235.4219,1399.3594 C235.4219,1399.2031 235.4219,1399.1563 235.4063,1399 C235.3438,1398.5313 235.0313,1398.2188 234.5781,1398.2188 C234.3281,1398.2188 234.0625,1398.3594 233.8906,1398.5781 C233.7813,1398.75 233.75,1398.9063 233.75,1399.3594 L233.75,1399.4844 L232.2969,1399.4844 L232.2969,1397.0781 L236.2813,1397.0781 L236.2813,1397.9375 C236.2813,1398.3438 236.3125,1398.5156 236.3906,1398.6719 C236.5625,1398.9219 236.8438,1399.0781 237.125,1399.0781 C237.3906,1399.0781 237.6563,1398.9375 237.8281,1398.7188 C237.9375,1398.5469 237.9688,1398.4063 237.9688,1397.9375 L237.9688,1395.3906 L230.3438,1395.3906 C229.9063,1395.3906 229.7813,1395.4063 229.625,1395.5 C229.375,1395.6563 229.2188,1395.9531 229.2188,1396.2344 C229.2188,1396.5156 229.3594,1396.7656 229.5781,1396.9375 C229.7344,1397.0469 229.9219,1397.0781 230.3438,1397.0781 L230.5938,1397.0781 L230.5938,1403.5938 L230.3438,1403.5938 C229.9375,1403.5938 229.7813,1403.6094 229.625,1403.7188 C229.375,1403.8906 229.2188,1404.1563 229.2188,1404.4531 C229.2188,1404.7188 229.3594,1404.9688 229.5781,1405.125 C229.7188,1405.25 229.9531,1405.2969 230.3438,1405.2969 L238.3438,1405.2969 L238.3438,1402.7188 C238.3438,1402.2813 238.3125,1402.1406 238.2344,1401.9844 C238.0625,1401.7344 237.7813,1401.5781 237.5,1401.5781 C237.2344,1401.5781 236.9688,1401.6875 236.7969,1401.9375 C236.6875,1402.0938 236.6563,1402.2344 236.6563,1402.7188 L236.6563,1403.5938 L232.2969,1403.5938 L232.2969,1401.1719 Z " fill="#000000"/><text fill="#000000" font-family="sans-serif" font-size="14" lengthAdjust="spacing" textLength="38" x="247.5" y="1405.1436">Color</text><line style="stroke:#181818;stroke-width:0.5;" x1="219.5" x2="287.5" y1="1416.2969" y2="1416.2969"/><text fill="#000000" font-family="sans-serif" font-size="14" lengthAdjust="spacing" textLength="30" x="224.5" y="1433.292">RED</text><text fill="#000000" font-family="sans-serif" font-size="14" lengthAdjust="spacing" textLength="48" x="224.5" y="1449.5889">BLACK</text><line style="stroke:#181818;stroke-width:0.5;" x1="219.5" x2="287.5" y1="1456.8906" y2="1456.8906"/></g><!--MD5=[0f690a215a17a0cf4b9f948ca5dd1b3e]
class Rank--><g id="elem_Rank"><rect codeLine="41" fill="#F1F1F1" height="259.8594" id="Rank" rx="2.5" ry="2.5" style="stroke:#181818;stroke-width:0.5;" width="68" x="343.5" y="1063.2969"/><ellipse cx="358.5" cy="1079.2969" fill="#EB937F" rx="11" ry="11" style="stroke:#181818;stroke-width:1.0;"/><path d="M357.2969,1080.1719 L358.75,1080.1719 L358.75,1080.2813 C358.75,1080.6875 358.7813,1080.8438 358.8594,1081 C359.0156,1081.25 359.2969,1081.4063 359.5938,1081.4063 C359.8438,1081.4063 360.1094,1081.2656 360.2656,1081.0469 C360.3906,1080.8906 360.4219,1080.7344 360.4219,1080.2813 L360.4219,1078.3594 C360.4219,1078.2031 360.4219,1078.1563 360.4063,1078 C360.3438,1077.5313 360.0313,1077.2188 359.5781,1077.2188 C359.3281,1077.2188 359.0625,1077.3594 358.8906,1077.5781 C358.7813,1077.75 358.75,1077.9063 358.75,1078.3594 L358.75,1078.4844 L357.2969,1078.4844 L357.2969,1076.0781 L361.2813,1076.0781 L361.2813,1076.9375 C361.2813,1077.3438 361.3125,1077.5156 361.3906,1077.6719 C361.5625,1077.9219 361.8438,1078.0781 362.125,1078.0781 C362.3906,1078.0781 362.6563,1077.9375 362.8281,1077.7188 C362.9375,1077.5469 362.9688,1077.4063 362.9688,1076.9375 L362.9688,1074.3906 L355.3438,1074.3906 C354.9063,1074.3906 354.7813,1074.4063 354.625,1074.5 C354.375,1074.6563 354.2188,1074.9531 354.2188,1075.2344 C354.2188,1075.5156 354.3594,1075.7656 354.5781,1075.9375 C354.7344,1076.0469 354.9219,1076.0781 355.3438,1076.0781 L355.5938,1076.0781 L355.5938,1082.5938 L355.3438,1082.5938 C354.9375,1082.5938 354.7813,1082.6094 354.625,1082.7188 C354.375,1082.8906 354.2188,1083.1563 354.2188,1083.4531 C354.2188,1083.7188 354.3594,1083.9688 354.5781,1084.125 C354.7188,1084.25 354.9531,1084.2969 355.3438,1084.2969 L363.3438,1084.2969 L363.3438,1081.7188 C363.3438,1081.2813 363.3125,1081.1406 363.2344,1080.9844 C363.0625,1080.7344 362.7813,1080.5781 362.5,1080.5781 C362.2344,1080.5781 361.9688,1080.6875 361.7969,1080.9375 C361.6875,1081.0938 361.6563,1081.2344 361.6563,1081.7188 L361.6563,1082.5938 L357.2969,1082.5938 L357.2969,1080.1719 Z " fill="#000000"/><text fill="#000000" font-family="sans-serif" font-size="14" lengthAdjust="spacing" textLength="36" x="372.5" y="1084.1436">Rank</text><line style="stroke:#181818;stroke-width:0.5;" x1="344.5" x2="410.5" y1="1095.2969" y2="1095.2969"/><text fill="#000000" font-family="sans-serif" font-size="14" lengthAdjust="spacing" textLength="10" x="349.5" y="1112.292">A</text><text fill="#000000" font-family="sans-serif" font-size="14" lengthAdjust="spacing" textLength="8" x="349.5" y="1128.5889">2</text><text fill="#000000" font-family="sans-serif" font-size="14" lengthAdjust="spacing" textLength="9" x="349.5" y="1144.8857">3</text><text fill="#000000" font-family="sans-serif" font-size="14" lengthAdjust="spacing" textLength="8" x="349.5" y="1161.1826">4</text><text fill="#000000" font-family="sans-serif" font-size="14" lengthAdjust="spacing" textLength="9" x="349.5" y="1177.4795">5</text><text fill="#000000" font-family="sans-serif" font-size="14" lengthAdjust="spacing" textLength="9" x="349.5" y="1193.7764">6</text><text fill="#000000" font-family="sans-serif" font-size="14" lengthAdjust="spacing" textLength="9" x="349.5" y="1210.0732">7</text><text fill="#000000" font-family="sans-serif" font-size="14" lengthAdjust="spacing" textLength="8" x="349.5" y="1226.3701">8</text><text fill="#000000" font-family="sans-serif" font-size="14" lengthAdjust="spacing" textLength="9" x="349.5" y="1242.667">9</text><text fill="#000000" font-family="sans-serif" font-size="14" lengthAdjust="spacing" textLength="9" x="349.5" y="1258.9639">1</text><text fill="#000000" font-family="sans-serif" font-size="14" lengthAdjust="spacing" textLength="4" x="349.5" y="1275.2607">J</text><text fill="#000000" font-family="sans-serif" font-size="14" lengthAdjust="spacing" textLength="11" x="349.5" y="1291.5576">Q</text><text fill="#000000" font-family="sans-serif" font-size="14" lengthAdjust="spacing" textLength="10" x="349.5" y="1307.8545">K</text><line style="stroke:#181818;stroke-width:0.5;" x1="344.5" x2="410.5" y1="1315.1563" y2="1315.1563"/></g><!--MD5=[a7ca736ec2eaa3f5c977a8fac7fd0779]
class Club--><g id="elem_Club"><rect fill="#F1F1F1" height="48" id="Club" rx="2.5" ry="2.5" style="stroke:#181818;stroke-width:0.5;" width="64" x="119.5" y="1400.7969"/><ellipse cx="134.5" cy="1416.7969" fill="#ADD1B2" rx="11" ry="11" style="stroke:#181818;stroke-width:1.0;"/><path d="M136.8438,1412.4688 C135.9063,1412.0313 135.3125,1411.8906 134.4375,1411.8906 C131.8125,1411.8906 129.8125,1413.9688 129.8125,1416.6875 L129.8125,1417.8125 C129.8125,1420.3906 131.9219,1422.2813 134.8125,1422.2813 C136.0313,1422.2813 137.1875,1421.9844 137.9375,1421.4375 C138.5156,1421.0313 138.8438,1420.5781 138.8438,1420.1875 C138.8438,1419.7344 138.4531,1419.3438 137.9844,1419.3438 C137.7656,1419.3438 137.5625,1419.4219 137.375,1419.6094 C136.9219,1420.0938 136.9219,1420.0938 136.7344,1420.1875 C136.3125,1420.4531 135.625,1420.5781 134.8594,1420.5781 C132.8125,1420.5781 131.5156,1419.4844 131.5156,1417.7813 L131.5156,1416.6875 C131.5156,1414.9063 132.7656,1413.5938 134.5,1413.5938 C135.0781,1413.5938 135.6875,1413.75 136.1563,1414 C136.6406,1414.2813 136.8125,1414.5 136.9063,1414.9063 C136.9688,1415.3125 137,1415.4375 137.1406,1415.5625 C137.2813,1415.7031 137.5156,1415.8125 137.7344,1415.8125 C138,1415.8125 138.2656,1415.6719 138.4375,1415.4531 C138.5469,1415.2969 138.5781,1415.1094 138.5781,1414.6875 L138.5781,1413.2656 C138.5781,1412.8281 138.5625,1412.7031 138.4688,1412.5469 C138.3125,1412.2813 138.0313,1412.1406 137.7344,1412.1406 C137.4375,1412.1406 137.2344,1412.2344 137.0156,1412.5469 L136.8438,1412.4688 Z " fill="#000000"/><text fill="#000000" font-family="sans-serif" font-size="14" lengthAdjust="spacing" textLength="32" x="148.5" y="1421.6436">Club</text><line style="stroke:#181818;stroke-width:0.5;" x1="120.5" x2="182.5" y1="1432.7969" y2="1432.7969"/><line style="stroke:#181818;stroke-width:0.5;" x1="120.5" x2="182.5" y1="1440.7969" y2="1440.7969"/></g><!--MD5=[e07683d003131b9e2f36793e1d14f746]
class Spade--><g id="elem_Spade"><rect fill="#F1F1F1" height="48" id="Spade" rx="2.5" ry="2.5" style="stroke:#181818;stroke-width:0.5;" width="77" x="7" y="1400.7969"/><ellipse cx="22" cy="1416.7969" fill="#ADD1B2" rx="11" ry="11" style="stroke:#181818;stroke-width:1.0;"/><path d="M24.3438,1412.4688 C23.4063,1412.0313 22.8125,1411.8906 21.9375,1411.8906 C19.3125,1411.8906 17.3125,1413.9688 17.3125,1416.6875 L17.3125,1417.8125 C17.3125,1420.3906 19.4219,1422.2813 22.3125,1422.2813 C23.5313,1422.2813 24.6875,1421.9844 25.4375,1421.4375 C26.0156,1421.0313 26.3438,1420.5781 26.3438,1420.1875 C26.3438,1419.7344 25.9531,1419.3438 25.4844,1419.3438 C25.2656,1419.3438 25.0625,1419.4219 24.875,1419.6094 C24.4219,1420.0938 24.4219,1420.0938 24.2344,1420.1875 C23.8125,1420.4531 23.125,1420.5781 22.3594,1420.5781 C20.3125,1420.5781 19.0156,1419.4844 19.0156,1417.7813 L19.0156,1416.6875 C19.0156,1414.9063 20.2656,1413.5938 22,1413.5938 C22.5781,1413.5938 23.1875,1413.75 23.6563,1414 C24.1406,1414.2813 24.3125,1414.5 24.4063,1414.9063 C24.4688,1415.3125 24.5,1415.4375 24.6406,1415.5625 C24.7813,1415.7031 25.0156,1415.8125 25.2344,1415.8125 C25.5,1415.8125 25.7656,1415.6719 25.9375,1415.4531 C26.0469,1415.2969 26.0781,1415.1094 26.0781,1414.6875 L26.0781,1413.2656 C26.0781,1412.8281 26.0625,1412.7031 25.9688,1412.5469 C25.8125,1412.2813 25.5313,1412.1406 25.2344,1412.1406 C24.9375,1412.1406 24.7344,1412.2344 24.5156,1412.5469 L24.3438,1412.4688 Z " fill="#000000"/><text fill="#000000" font-family="sans-serif" font-size="14" lengthAdjust="spacing" textLength="45" x="36" y="1421.6436">Spade</text><line style="stroke:#181818;stroke-width:0.5;" x1="8" x2="83" y1="1432.7969" y2="1432.7969"/><line style="stroke:#181818;stroke-width:0.5;" x1="8" x2="83" y1="1440.7969" y2="1440.7969"/></g><!--MD5=[c0ff7312a1fc0055a007a9765d4a1220]
class Diamond--><g id="elem_Diamond"><rect fill="#F1F1F1" height="48" id="Diamond" rx="2.5" ry="2.5" style="stroke:#181818;stroke-width:0.5;" width="96" x="323.5" y="1400.7969"/><ellipse cx="338.5" cy="1416.7969" fill="#ADD1B2" rx="11" ry="11" style="stroke:#181818;stroke-width:1.0;"/><path d="M340.8438,1412.4688 C339.9063,1412.0313 339.3125,1411.8906 338.4375,1411.8906 C335.8125,1411.8906 333.8125,1413.9688 333.8125,1416.6875 L333.8125,1417.8125 C333.8125,1420.3906 335.9219,1422.2813 338.8125,1422.2813 C340.0313,1422.2813 341.1875,1421.9844 341.9375,1421.4375 C342.5156,1421.0313 342.8438,1420.5781 342.8438,1420.1875 C342.8438,1419.7344 342.4531,1419.3438 341.9844,1419.3438 C341.7656,1419.3438 341.5625,1419.4219 341.375,1419.6094 C340.9219,1420.0938 340.9219,1420.0938 340.7344,1420.1875 C340.3125,1420.4531 339.625,1420.5781 338.8594,1420.5781 C336.8125,1420.5781 335.5156,1419.4844 335.5156,1417.7813 L335.5156,1416.6875 C335.5156,1414.9063 336.7656,1413.5938 338.5,1413.5938 C339.0781,1413.5938 339.6875,1413.75 340.1563,1414 C340.6406,1414.2813 340.8125,1414.5 340.9063,1414.9063 C340.9688,1415.3125 341,1415.4375 341.1406,1415.5625 C341.2813,1415.7031 341.5156,1415.8125 341.7344,1415.8125 C342,1415.8125 342.2656,1415.6719 342.4375,1415.4531 C342.5469,1415.2969 342.5781,1415.1094 342.5781,1414.6875 L342.5781,1413.2656 C342.5781,1412.8281 342.5625,1412.7031 342.4688,1412.5469 C342.3125,1412.2813 342.0313,1412.1406 341.7344,1412.1406 C341.4375,1412.1406 341.2344,1412.2344 341.0156,1412.5469 L340.8438,1412.4688 Z " fill="#000000"/><text fill="#000000" font-family="sans-serif" font-size="14" lengthAdjust="spacing" textLength="64" x="352.5" y="1421.6436">Diamond</text><line style="stroke:#181818;stroke-width:0.5;" x1="324.5" x2="418.5" y1="1432.7969" y2="1432.7969"/><line style="stroke:#181818;stroke-width:0.5;" x1="324.5" x2="418.5" y1="1440.7969" y2="1440.7969"/></g><!--MD5=[9bb5813e59df3e2529d11a5afaed7800]
class Heart--><g id="elem_Heart"><rect fill="#F1F1F1" height="48" id="Heart" rx="2.5" ry="2.5" style="stroke:#181818;stroke-width:0.5;" width="72" x="454.5" y="1400.7969"/><ellipse cx="469.5" cy="1416.7969" fill="#ADD1B2" rx="11" ry="11" style="stroke:#181818;stroke-width:1.0;"/><path d="M471.8438,1412.4688 C470.9063,1412.0313 470.3125,1411.8906 469.4375,1411.8906 C466.8125,1411.8906 464.8125,1413.9688 464.8125,1416.6875 L464.8125,1417.8125 C464.8125,1420.3906 466.9219,1422.2813 469.8125,1422.2813 C471.0313,1422.2813 472.1875,1421.9844 472.9375,1421.4375 C473.5156,1421.0313 473.8438,1420.5781 473.8438,1420.1875 C473.8438,1419.7344 473.4531,1419.3438 472.9844,1419.3438 C472.7656,1419.3438 472.5625,1419.4219 472.375,1419.6094 C471.9219,1420.0938 471.9219,1420.0938 471.7344,1420.1875 C471.3125,1420.4531 470.625,1420.5781 469.8594,1420.5781 C467.8125,1420.5781 466.5156,1419.4844 466.5156,1417.7813 L466.5156,1416.6875 C466.5156,1414.9063 467.7656,1413.5938 469.5,1413.5938 C470.0781,1413.5938 470.6875,1413.75 471.1563,1414 C471.6406,1414.2813 471.8125,1414.5 471.9063,1414.9063 C471.9688,1415.3125 472,1415.4375 472.1406,1415.5625 C472.2813,1415.7031 472.5156,1415.8125 472.7344,1415.8125 C473,1415.8125 473.2656,1415.6719 473.4375,1415.4531 C473.5469,1415.2969 473.5781,1415.1094 473.5781,1414.6875 L473.5781,1413.2656 C473.5781,1412.8281 473.5625,1412.7031 473.4688,1412.5469 C473.3125,1412.2813 473.0313,1412.1406 472.7344,1412.1406 C472.4375,1412.1406 472.2344,1412.2344 472.0156,1412.5469 L471.8438,1412.4688 Z " fill="#000000"/><text fill="#000000" font-family="sans-serif" font-size="14" lengthAdjust="spacing" textLength="40" x="483.5" y="1421.6436">Heart</text><line style="stroke:#181818;stroke-width:0.5;" x1="455.5" x2="525.5" y1="1432.7969" y2="1432.7969"/><line style="stroke:#181818;stroke-width:0.5;" x1="455.5" x2="525.5" y1="1440.7969" y2="1440.7969"/></g><!--MD5=[08be530975453a47bdc5b5370100f2fc]
class Red--><g id="elem_Red"><rect fill="#F1F1F1" height="48" id="Red" rx="2.5" ry="2.5" style="stroke:#181818;stroke-width:0.5;" width="60" x="341.5" y="1526.2969"/><ellipse cx="356.5" cy="1542.2969" fill="#ADD1B2" rx="11" ry="11" style="stroke:#181818;stroke-width:1.0;"/><path d="M358.8438,1537.9688 C357.9063,1537.5313 357.3125,1537.3906 356.4375,1537.3906 C353.8125,1537.3906 351.8125,1539.4688 351.8125,1542.1875 L351.8125,1543.3125 C351.8125,1545.8906 353.9219,1547.7813 356.8125,1547.7813 C358.0313,1547.7813 359.1875,1547.4844 359.9375,1546.9375 C360.5156,1546.5313 360.8438,1546.0781 360.8438,1545.6875 C360.8438,1545.2344 360.4531,1544.8438 359.9844,1544.8438 C359.7656,1544.8438 359.5625,1544.9219 359.375,1545.1094 C358.9219,1545.5938 358.9219,1545.5938 358.7344,1545.6875 C358.3125,1545.9531 357.625,1546.0781 356.8594,1546.0781 C354.8125,1546.0781 353.5156,1544.9844 353.5156,1543.2813 L353.5156,1542.1875 C353.5156,1540.4063 354.7656,1539.0938 356.5,1539.0938 C357.0781,1539.0938 357.6875,1539.25 358.1563,1539.5 C358.6406,1539.7813 358.8125,1540 358.9063,1540.4063 C358.9688,1540.8125 359,1540.9375 359.1406,1541.0625 C359.2813,1541.2031 359.5156,1541.3125 359.7344,1541.3125 C360,1541.3125 360.2656,1541.1719 360.4375,1540.9531 C360.5469,1540.7969 360.5781,1540.6094 360.5781,1540.1875 L360.5781,1538.7656 C360.5781,1538.3281 360.5625,1538.2031 360.4688,1538.0469 C360.3125,1537.7813 360.0313,1537.6406 359.7344,1537.6406 C359.4375,1537.6406 359.2344,1537.7344 359.0156,1538.0469 L358.8438,1537.9688 Z " fill="#000000"/><text fill="#000000" font-family="sans-serif" font-size="14" lengthAdjust="spacing" textLength="28" x="370.5" y="1547.1436">Red</text><line style="stroke:#181818;stroke-width:0.5;" x1="342.5" x2="400.5" y1="1558.2969" y2="1558.2969"/><line style="stroke:#181818;stroke-width:0.5;" x1="342.5" x2="400.5" y1="1566.2969" y2="1566.2969"/></g><!--MD5=[365150d8163e865a226452c70cc7ad9f]
class Black--><g id="elem_Black"><rect fill="#F1F1F1" height="48" id="Black" rx="2.5" ry="2.5" style="stroke:#181818;stroke-width:0.5;" width="71" x="116" y="1526.2969"/><ellipse cx="131" cy="1542.2969" fill="#ADD1B2" rx="11" ry="11" style="stroke:#181818;stroke-width:1.0;"/><path d="M133.3438,1537.9688 C132.4063,1537.5313 131.8125,1537.3906 130.9375,1537.3906 C128.3125,1537.3906 126.3125,1539.4688 126.3125,1542.1875 L126.3125,1543.3125 C126.3125,1545.8906 128.4219,1547.7813 131.3125,1547.7813 C132.5313,1547.7813 133.6875,1547.4844 134.4375,1546.9375 C135.0156,1546.5313 135.3438,1546.0781 135.3438,1545.6875 C135.3438,1545.2344 134.9531,1544.8438 134.4844,1544.8438 C134.2656,1544.8438 134.0625,1544.9219 133.875,1545.1094 C133.4219,1545.5938 133.4219,1545.5938 133.2344,1545.6875 C132.8125,1545.9531 132.125,1546.0781 131.3594,1546.0781 C129.3125,1546.0781 128.0156,1544.9844 128.0156,1543.2813 L128.0156,1542.1875 C128.0156,1540.4063 129.2656,1539.0938 131,1539.0938 C131.5781,1539.0938 132.1875,1539.25 132.6563,1539.5 C133.1406,1539.7813 133.3125,1540 133.4063,1540.4063 C133.4688,1540.8125 133.5,1540.9375 133.6406,1541.0625 C133.7813,1541.2031 134.0156,1541.3125 134.2344,1541.3125 C134.5,1541.3125 134.7656,1541.1719 134.9375,1540.9531 C135.0469,1540.7969 135.0781,1540.6094 135.0781,1540.1875 L135.0781,1538.7656 C135.0781,1538.3281 135.0625,1538.2031 134.9688,1538.0469 C134.8125,1537.7813 134.5313,1537.6406 134.2344,1537.6406 C133.9375,1537.6406 133.7344,1537.7344 133.5156,1538.0469 L133.3438,1537.9688 Z " fill="#000000"/><text fill="#000000" font-family="sans-serif" font-size="14" lengthAdjust="spacing" textLength="39" x="145" y="1547.1436">Black</text><line style="stroke:#181818;stroke-width:0.5;" x1="117" x2="186" y1="1558.2969" y2="1558.2969"/><line style="stroke:#181818;stroke-width:0.5;" x1="117" x2="186" y1="1566.2969" y2="1566.2969"/></g><!--MD5=[d0e37a71a001f6053d69fd29d330fd4f]
link Klondike to Player--><g id="link_Klondike_Player"><path codeLine="57" d="M282.5,104.5169 C282.5,104.5169 282.5,128.7969 282.5,139.8569 " fill="none" id="Klondike-Player" style="stroke:#181818;stroke-width:1.0;"/><polygon fill="#181818" points="282.5,153.1269,286.5,144.1269,282.5,148.1269,278.5,144.1269,282.5,153.1269" style="stroke:#181818;stroke-width:1.0;"/><line style="stroke:#181818;stroke-width:1.0;" x1="282.5" x2="282.5" y1="148.1269" y2="140.1269"/><polygon fill="#181818" points="282.5,92.5169,278.5,98.5169,282.5,104.5169,286.5,98.5169,282.5,92.5169" style="stroke:#181818;stroke-width:1.0;"/></g><!--MD5=[7d7afaf8cc2ad62f66d9fb1ba9e5e8a9]
link Klondike to Deck--><g id="link_Klondike_Deck"><path codeLine="58" d="M222.9874,77.0034 C222.9874,77.0034 89.5,114.8069 89.5,176.2969 C89.5,176.2969 89.5,176.2969 89.5,420.7969 C89.5,453.1869 84.364,489.6969 79.738,516.0169 " fill="none" id="Klondike-Deck" style="stroke:#181818;stroke-width:1.0;"/><polygon fill="#181818" points="77.326,529.1369,82.8914,521.0112,78.2325,524.2197,75.024,519.5608,77.326,529.1369" style="stroke:#181818;stroke-width:1.0;"/><line style="stroke:#181818;stroke-width:1.0;" x1="78.2325" x2="79.677" y1="524.2197" y2="516.3519"/><polygon fill="#181818" points="234.792,74.8469,228.1708,71.9902,222.9874,77.0034,229.6085,79.86,234.792,74.8469" style="stroke:#181818;stroke-width:1.0;"/></g><!--MD5=[c271a9ac9b63afec1b9b138249f1ed9e]
link Klondike to Playmat--><g id="link_Klondike_Playmat"><path codeLine="59" d="M341.3504,85.8456 C341.3504,85.8456 431.5,130.1669 431.5,176.2969 C431.5,176.2969 431.5,176.2969 431.5,420.7969 C431.5,453.5169 424.792,490.1969 418.784,516.4869 " fill="none" id="Klondike-Playmat" style="stroke:#181818;stroke-width:1.0;"/><polygon fill="#181818" points="415.745,529.2169,421.7228,521.3896,416.9043,524.3531,413.9408,519.5347,415.745,529.2169" style="stroke:#181818;stroke-width:1.0;"/><line style="stroke:#181818;stroke-width:1.0;" x1="416.9043" x2="418.765" y1="524.3531" y2="516.5719"/><polygon fill="#181818" points="330.054,81.7969,334.3526,87.5867,341.3504,85.8456,337.0518,80.0558,330.054,81.7969" style="stroke:#181818;stroke-width:1.0;"/></g><!--MD5=[c905f1b8e8f3426bca82a4905da2e16e]
link Deck to Card--><g id="link_Deck_Card"><path codeLine="60" d="M66.2775,589.1717 C66.2775,589.1717 49.9075,768.1369 105.5,844.2969 C138.669,889.7379 195.348,916.5399 245.409,932.1339 " fill="none" id="Deck-Card" style="stroke:#181818;stroke-width:1.0;"/><polygon fill="#181818" points="257.975,935.8609,250.4841,929.4667,253.1814,934.439,248.2091,937.1364,257.975,935.8609" style="stroke:#181818;stroke-width:1.0;"/><line style="stroke:#181818;stroke-width:1.0;" x1="253.1814" x2="245.512" y1="934.439" y2="932.1644"/><polygon fill="#181818" points="68.0999,577.3109,63.2351,582.6338,66.2775,589.1717,71.1423,583.8487,68.0999,577.3109" style="stroke:#181818;stroke-width:1.0;"/><text fill="#000000" font-family="sans-serif" font-size="13" lengthAdjust="spacing" textLength="16" x="233.9815" y="930.8314">52</text></g><!--MD5=[7e30d075c7e28ae86a5e6e748d3cd0b6]
link Player to Move--><g id="link_Player_Move"><path codeLine="61" d="M284.609,201.3569 C288.051,238.9769 294.961,314.5169 299.659,365.8769 " fill="none" id="Player-to-Move" style="stroke:#181818;stroke-width:1.0;stroke-dasharray:7.0,7.0;"/><polygon fill="#181818" points="300.135,371.0769,303.2953,361.7488,299.6778,366.0978,295.3288,362.4803,300.135,371.0769" style="stroke:#181818;stroke-width:1.0;"/></g><!--MD5=[1571e4e0b7cdbae74b04c97a95677c54]
link Player to Goal--><g id="link_Player_Goal"><path codeLine="62" d="M268.83,201.5169 C259.088,218.0569 245.954,240.3669 235.688,257.8069 " fill="none" id="Player-to-Goal" style="stroke:#181818;stroke-width:1.0;"/><polygon fill="#181818" points="233.143,262.1269,241.1622,256.4092,235.6843,257.8209,234.2726,252.343,233.143,262.1269" style="stroke:#181818;stroke-width:1.0;"/></g><!--MD5=[cd0c3954e43c16945db51e1325833371]
link Goal to Foundation--><g id="link_Goal_Foundation"><path codeLine="63" d="M207.352,310.3469 C194.948,336.0569 177.5,379.2569 177.5,418.7969 C177.5,418.7969 177.5,418.7969 177.5,679.7969 C177.5,715.3299 178.239,756.2579 178.819,782.8899 " fill="none" id="Goal-to-Foundation" style="stroke:#181818;stroke-width:1.0;"/><polygon fill="#181818" points="178.932,788.0199,182.7304,778.933,178.8206,783.0211,174.7324,779.1113,178.932,788.0199" style="stroke:#181818;stroke-width:1.0;"/><text fill="#000000" font-family="sans-serif" font-size="13" lengthAdjust="spacing" textLength="54" x="178.5" y="557.8638">Complet</text><text fill="#000000" font-family="sans-serif" font-size="13" lengthAdjust="spacing" textLength="8" x="169.8186" y="777.3573">4</text></g><!--MD5=[4b1f7a9ffece4d2d0cb1da7affd14ba5]
link Goal to Move--><g id="link_Goal_Move"><path codeLine="64" d="M234.501,310.5069 C244.559,326.0669 258.218,347.1969 270.801,366.6669 " fill="none" id="Goal-to-Move" style="stroke:#181818;stroke-width:1.0;stroke-dasharray:7.0,7.0;"/><polygon fill="#181818" points="273.635,371.0469,272.108,361.3171,270.9205,366.8479,265.3897,365.6604,273.635,371.0469" style="stroke:#181818;stroke-width:1.0;"/><text fill="#000000" font-family="sans-serif" font-size="13" lengthAdjust="spacing" textLength="8" x="260.7321" y="360.2206">n</text></g><!--MD5=[f81c0a59776e1b7925b84961fffe2b84]
link Move to Deck--><g id="link_Move_Deck"><path codeLine="65" d="M230.775,462.5869 C191.319,484.9469 144.303,511.5969 111.819,530.0069 " fill="none" id="Move-to-Deck" style="stroke:#181818;stroke-width:1.0;stroke-dasharray:7.0,7.0;"/><polygon fill="#181818" points="107.135,532.6669,116.9378,531.7155,111.4865,530.2043,112.9977,524.7531,107.135,532.6669" style="stroke:#181818;stroke-width:1.0;"/></g><!--MD5=[42e56c2bcaeee41f3cf38eca74c52657]
link Move to Playmat--><g id="link_Move_Playmat"><path codeLine="66" d="M342.704,468.6469 C357.84,487.5969 374.692,508.7069 387.682,524.9769 " fill="none" id="Move-to-Playmat" style="stroke:#181818;stroke-width:1.0;"/><polygon fill="#181818" points="390.898,528.9969,388.395,519.4714,387.7728,525.0939,382.1503,524.4717,390.898,528.9969" style="stroke:#181818;stroke-width:1.0;"/></g><!--MD5=[9a29ee8244e002eac4030b803ab1ddd0]
link Playmat to Pile--><g id="link_Playmat_Pile"><path codeLine="67" d="M409.5,589.5259 C409.5,589.5259 409.5,613.4979 409.5,624.9729 " fill="none" id="Playmat-Pile" style="stroke:#181818;stroke-width:1.0;"/><polygon fill="#181818" points="409.5,638.1529,413.5,629.1529,409.5,633.1529,405.5,629.1529,409.5,638.1529" style="stroke:#181818;stroke-width:1.0;"/><line style="stroke:#181818;stroke-width:1.0;" x1="409.5" x2="409.5" y1="633.1529" y2="625.1529"/><polygon fill="none" points="409.5,577.5259,405.5,583.5259,409.5,589.5259,413.5,583.5259,409.5,577.5259" style="stroke:#181818;stroke-width:1.0;"/></g><!--MD5=[a3b0419bdb877a6921c502f7ab916277]
reverse link Pile to Stock--><g id="link_Pile_Stock"><path codeLine="69" d="M381.59,738.0539 C374.679,752.4789 367.534,767.3919 361.51,779.9669 " fill="none" id="Pile-backto-Stock" style="stroke:#181818;stroke-width:1.0;"/><polygon fill="none" points="375.473,734.6209,390.427,719.6079,388.099,740.6699,375.473,734.6209" style="stroke:#181818;stroke-width:1.0;"/></g><!--MD5=[0cc7312144b7b0e8e85651666602557e]
reverse link Pile to Waste--><g id="link_Pile_Waste"><path codeLine="70" d="M490.092,730.2629 C521.966,750.2219 557.017,772.1709 582.592,788.1849 " fill="none" id="Pile-backto-Waste" style="stroke:#181818;stroke-width:1.0;"/><polygon fill="none" points="486.028,735.9769,472.792,719.4299,493.458,724.1109,486.028,735.9769" style="stroke:#181818;stroke-width:1.0;"/></g><!--MD5=[6d28caff8698f66462643c822ec8500b]
reverse link Pile to Foundation--><g id="link_Pile_Foundation"><path codeLine="71" d="M322.685,729.4329 C287.391,749.6119 248.323,771.9479 219.923,788.1849 " fill="none" id="Pile-backto-Foundation" style="stroke:#181818;stroke-width:1.0;"/><polygon fill="none" points="319.344,723.2799,340.181,719.4299,326.292,735.4329,319.344,723.2799" style="stroke:#181818;stroke-width:1.0;"/></g><!--MD5=[b0173922ba304e58e67aa3279a656791]
reverse link Pile to Tableau--><g id="link_Pile_Tableau"><path codeLine="72" d="M448.989,736.2399 C461.732,754.4549 475.156,773.6419 485.241,788.0569 " fill="none" id="Pile-backto-Tableau" style="stroke:#181818;stroke-width:1.0;"/><polygon fill="none" points="443.082,740.0089,437.353,719.6079,454.553,731.9829,443.082,740.0089" style="stroke:#181818;stroke-width:1.0;"/></g><!--MD5=[3f3e21409bc1ba7b69847dd87d001f55]
link Foundation to Card--><g id="link_Foundation_Card"><path codeLine="74" d="M216.2866,844.026 C216.2866,844.026 258.143,878.9899 279.224,896.5999 " fill="none" id="Foundation-Card" style="stroke:#181818;stroke-width:1.0;"/><polygon fill="#181818" points="289.433,905.1269,285.0902,896.2872,285.5957,901.9214,279.9615,902.4269,289.433,905.1269" style="stroke:#181818;stroke-width:1.0;"/><line style="stroke:#181818;stroke-width:1.0;" x1="285.5957" x2="279.456" y1="901.9214" y2="896.7929"/><polygon fill="none" points="207.077,836.3329,209.1174,843.2493,216.2866,844.026,214.2462,837.1096,207.077,836.3329" style="stroke:#181818;stroke-width:1.0;"/><text fill="#000000" font-family="sans-serif" font-size="13" lengthAdjust="spacing" textLength="32" x="247.158" y="894.3119">0..13</text></g><!--MD5=[570e651fcc8417d55cbda0d286d7d10f]
link Stock to Card--><g id="link_Stock_Card"><path codeLine="75" d="M346.5,856.6039 C346.5,856.6039 346.5,880.4709 346.5,891.9269 " fill="none" id="Stock-Card" style="stroke:#181818;stroke-width:1.0;"/><polygon fill="#181818" points="346.5,905.1499,350.5,896.1499,346.5,900.1499,342.5,896.1499,346.5,905.1499" style="stroke:#181818;stroke-width:1.0;"/><line style="stroke:#181818;stroke-width:1.0;" x1="346.5" x2="346.5" y1="900.1499" y2="892.1499"/><polygon fill="none" points="346.5,844.6039,342.5,850.6039,346.5,856.6039,350.5,850.6039,346.5,844.6039" style="stroke:#181818;stroke-width:1.0;"/><text fill="#000000" font-family="sans-serif" font-size="13" lengthAdjust="spacing" textLength="32" x="312.25" y="894.3381">0..24</text></g><!--MD5=[335c588940b99cdeda2c3dd852faaee0]
link Tableau to Card--><g id="link_Tableau_Card"><path codeLine="76" d="M466.9857,844.3607 C466.9857,844.3607 428.562,878.9409 409.163,896.3999 " fill="none" id="Tableau-Card" style="stroke:#181818;stroke-width:1.0;"/><polygon fill="#181818" points="399.466,905.1269,408.8314,902.0791,403.1824,901.7819,403.4795,896.1329,399.466,905.1269" style="stroke:#181818;stroke-width:1.0;"/><line style="stroke:#181818;stroke-width:1.0;" x1="403.1824" x2="409.129" y1="901.7819" y2="896.4309"/><polygon fill="none" points="475.905,836.3329,468.7694,837.3737,466.9857,844.3607,474.1213,843.3199,475.905,836.3329" style="stroke:#181818;stroke-width:1.0;"/><text fill="#000000" font-family="sans-serif" font-size="13" lengthAdjust="spacing" textLength="32" x="372.6643" y="894.3119">0..18</text></g><!--MD5=[e648539d6e20c171ea15533740fa2cf9]
link Waste to Card--><g id="link_Waste_Card"><path codeLine="77" d="M570.1985,840.7317 C570.1985,840.7317 565.339,843.3289 563.5,844.2969 C525.665,864.2169 483.715,885.3989 446.862,903.7109 " fill="none" id="Waste-Card" style="stroke:#181818;stroke-width:1.0;"/><polygon fill="#181818" points="435.088,909.5499,444.9281,909.1351,439.5675,907.3285,441.374,901.9679,435.088,909.5499" style="stroke:#181818;stroke-width:1.0;"/><line style="stroke:#181818;stroke-width:1.0;" x1="439.5675" x2="446.7345" y1="907.3285" y2="903.7744"/><polygon fill="none" points="580.753,835.0219,573.5725,834.3586,570.1985,840.7317,577.379,841.3949,580.753,835.0219" style="stroke:#181818;stroke-width:1.0;"/><text fill="#000000" font-family="sans-serif" font-size="13" lengthAdjust="spacing" textLength="32" x="443.0955" y="902.6642">0..24</text></g><!--MD5=[988cd1dee8ea1cf2960e884b4b0ffb8b]
reverse link Suit to Club--><g id="link_Suit_Club"><path codeLine="79" d="M231.407,1244.0059 C209.833,1292.5469 177.956,1364.2709 161.757,1400.7189 " fill="none" id="Suit-backto-Club" style="stroke:#181818;stroke-width:1.0;"/><polygon fill="none" points="225.012,1241.1599,239.531,1225.7269,237.805,1246.8459,225.012,1241.1599" style="stroke:#181818;stroke-width:1.0;"/></g><!--MD5=[87a89b153beae7d393e9829af90018d5]
reverse link Suit to Spade--><g id="link_Suit_Spade"><path codeLine="80" d="M211.343,1240.8119 C167.353,1289.3489 100.1817,1363.4629 66.4165,1400.7189 " fill="none" id="Suit-backto-Spade" style="stroke:#181818;stroke-width:1.0;"/><polygon fill="none" points="206.397,1235.8449,225.015,1225.7269,216.77,1245.2469,206.397,1235.8449" style="stroke:#181818;stroke-width:1.0;"/></g><!--MD5=[1f6eb2bb0d8a343fbbac7006c87fddfb]
reverse link Suit to Diamond--><g id="link_Suit_Diamond"><path codeLine="81" d="M278.893,1243.6829 C303.853,1292.2289 340.853,1364.1899 359.634,1400.7189 " fill="none" id="Suit-backto-Diamond" style="stroke:#181818;stroke-width:1.0;"/><polygon fill="none" points="272.58,1246.7139,269.66,1225.7269,285.031,1240.3129,272.58,1246.7139" style="stroke:#181818;stroke-width:1.0;"/></g><!--MD5=[4dce8a7c926835c26b617333aef55021]
reverse link Suit to Heart--><g id="link_Suit_Heart"><path codeLine="82" d="M273.183,1244.0299 C285.321,1270.0029 302.911,1300.9409 325.5,1323.2969 C365.787,1363.1689 389.767,1353.7289 437.5,1384.2969 C445.328,1389.3099 453.508,1395.1049 461.034,1400.6859 " fill="none" id="Suit-backto-Heart" style="stroke:#181818;stroke-width:1.0;"/><polygon fill="none" points="266.615,1246.4849,264.971,1225.3589,279.431,1240.8479,266.615,1246.4849" style="stroke:#181818;stroke-width:1.0;"/></g><!--MD5=[01ae9f68263e6bc4031c0aece6e20929]
link Card to Suit--><g id="link_Card_Suit"><path codeLine="83" d="M323.4168,1013.7469 C323.4168,1013.7469 285.264,1111.1789 270.568,1148.7109 " fill="none" id="Card-Suit" style="stroke:#181818;stroke-width:1.0;"/><polygon fill="#181818" points="265.666,1161.2279,272.673,1154.3068,267.4897,1156.5723,265.2241,1151.3889,265.666,1161.2279" style="stroke:#181818;stroke-width:1.0;"/><line style="stroke:#181818;stroke-width:1.0;" x1="267.4897" x2="270.4065" y1="1156.5723" y2="1149.1224"/><polygon fill="#181818" points="327.792,1002.5729,321.8798,1006.7015,323.4168,1013.7469,329.3291,1009.6183,327.792,1002.5729" style="stroke:#181818;stroke-width:1.0;"/></g><!--MD5=[dab4fdc688f775bd2cd14c67a04f3f7b]
link Card to Rank--><g id="link_Card_Rank"><path codeLine="84" d="M354.2895,1014.4719 C354.2895,1014.4719 357.353,1037.9439 358.912,1049.8879 " fill="none" id="Card-Rank" style="stroke:#181818;stroke-width:1.0;"/><polygon fill="#181818" points="360.618,1062.9559,363.4194,1053.5138,359.9708,1057.9979,355.4867,1054.5494,360.618,1062.9559" style="stroke:#181818;stroke-width:1.0;"/><line style="stroke:#181818;stroke-width:1.0;" x1="359.9708" x2="358.935" y1="1057.9979" y2="1050.0649"/><polygon fill="#181818" points="352.736,1002.5729,349.5464,1009.0402,354.2895,1014.4719,357.4791,1008.0046,352.736,1002.5729" style="stroke:#181818;stroke-width:1.0;"/></g><!--MD5=[177767f5f369ddd7a2766db2fec86924]
link Suit to Color--><g id="link_Suit_Color"><path codeLine="85" d="M253.5,1225.7269 C253.5,1265.4439 253.5,1334.0549 253.5,1379.1849 " fill="none" id="Suit-to-Color" style="stroke:#181818;stroke-width:1.0;"/><polygon fill="#181818" points="253.5,1384.2959,257.5,1375.2959,253.5,1379.2959,249.5,1375.2959,253.5,1384.2959" style="stroke:#181818;stroke-width:1.0;"/></g><!--MD5=[02f84573c9257591cc6ecb265d87c085]
link Color to Red--><g id="link_Color_Red"><path codeLine="86" d="M302.505,1477.0858 C313.453,1488.5444 324.874,1500.4981 335.201,1511.306 " fill="none" id="Color-Red" style="stroke:#181818;stroke-width:1.0;"/><polygon fill="#181818" points="349.365,1526.1298,346.0395,1516.8593,345.9108,1522.5147,340.2554,1522.386,349.365,1526.1298" style="stroke:#181818;stroke-width:1.0;"/><line style="stroke:#181818;stroke-width:1.0;" x1="345.9108" x2="335.548" y1="1522.5147" y2="1511.6693"/><polygon fill="none" points="297.34,1481.8129,288.584,1462.5169,307.462,1472.1409,297.34,1481.8129" style="stroke:#181818;stroke-width:1.0;"/></g><!--MD5=[bb5bacd9b7a3df96c0a5e7fe1de7da1a]
link Color to Black--><g id="link_Color_Black"><path codeLine="87" d="M207.841,1481.0801 C199.645,1491.0034 191.264,1501.1519 183.555,1510.4853 " fill="none" id="Color-Black" style="stroke:#181818;stroke-width:1.0;"/><polygon fill="#181818" points="170.592,1526.1807,179.4074,1521.7888,173.7761,1522.3256,173.2393,1516.6943,170.592,1526.1807" style="stroke:#181818;stroke-width:1.0;"/><line style="stroke:#181818;stroke-width:1.0;" x1="173.7761" x2="183.328" y1="1522.3256" y2="1510.7601"/><polygon fill="none" points="202.532,1476.5158,220.665,1465.5529,213.326,1485.4311,202.532,1476.5158" style="stroke:#181818;stroke-width:1.0;"/></g><!--MD5=[378246b792e7d73afd082aeb5825fcc6]
link Club to Black--><g id="link_Club_Black"><path codeLine="88" d="M151.5,1461.0259 C151.5,1461.0259 151.5,1496.9404 151.5,1512.9509 " fill="none" id="Club-Black" style="stroke:#181818;stroke-width:1.0;"/><polygon fill="#181818" points="151.5,1526.1717,155.5,1517.1717,151.5,1521.1717,147.5,1517.1717,151.5,1526.1717" style="stroke:#181818;stroke-width:1.0;"/><line style="stroke:#181818;stroke-width:1.0;" x1="151.5" x2="151.5" y1="1521.1717" y2="1513.1716"/><polygon fill="#181818" points="151.5,1449.0259,147.5,1455.0259,151.5,1461.0259,155.5,1455.0259,151.5,1449.0259" style="stroke:#181818;stroke-width:1.0;"/></g><!--MD5=[5e71cd03c38ae2dc5991a4eb9d4f46b1]
link Spade to Black--><g id="link_Spade_Black"><path codeLine="89" d="M73.2535,1458.1316 C73.2535,1458.1316 107.907,1498.5067 123.139,1516.254 " fill="none" id="Spade-Black" style="stroke:#181818;stroke-width:1.0;"/><polygon fill="#181818" points="131.652,1526.1717,128.8253,1516.7372,128.3954,1522.3777,122.7549,1521.9477,131.652,1526.1717" style="stroke:#181818;stroke-width:1.0;"/><line style="stroke:#181818;stroke-width:1.0;" x1="128.3954" x2="123.1845" y1="1522.3777" y2="1516.3069"/><polygon fill="#181818" points="65.4378,1449.0259,66.3104,1456.184,73.2535,1458.1316,72.3809,1450.9735,65.4378,1449.0259" style="stroke:#181818;stroke-width:1.0;"/></g><!--MD5=[732c23f4e298c91ded3bfa0cbc712d38]
link Diamond to Red--><g id="link_Diamond_Red"><path codeLine="90" d="M371.5,1461.0259 C371.5,1461.0259 371.5,1496.9404 371.5,1512.9509 " fill="none" id="Diamond-Red" style="stroke:#181818;stroke-width:1.0;"/><polygon fill="#181818" points="371.5,1526.1717,375.5,1517.1717,371.5,1521.1717,367.5,1517.1717,371.5,1526.1717" style="stroke:#181818;stroke-width:1.0;"/><line style="stroke:#181818;stroke-width:1.0;" x1="371.5" x2="371.5" y1="1521.1717" y2="1513.1716"/><polygon fill="#181818" points="371.5,1449.0259,367.5,1455.0259,371.5,1461.0259,375.5,1455.0259,371.5,1449.0259" style="stroke:#181818;stroke-width:1.0;"/></g><!--MD5=[39e04be43e1ad652dcf6d75fa160b251]
link Heart to Red--><g id="link_Heart_Red"><path codeLine="91" d="M459.7908,1457.6673 C459.7908,1457.6673 420.175,1498.7816 402.904,1516.7055 " fill="none" id="Heart-Red" style="stroke:#181818;stroke-width:1.0;"/><polygon fill="#181818" points="393.783,1526.1717,402.9082,1522.4662,397.2523,1522.5711,397.1474,1516.9153,393.783,1526.1717" style="stroke:#181818;stroke-width:1.0;"/><line style="stroke:#181818;stroke-width:1.0;" x1="397.2523" x2="402.8025" y1="1522.5711" y2="1516.8103"/><polygon fill="#181818" points="468.117,1449.0259,461.0734,1450.5712,459.7908,1457.6673,466.8344,1456.122,468.117,1449.0259" style="stroke:#181818;stroke-width:1.0;"/></g><!--MD5=[2e0440a23aae1973513b6bbcd62f7b69]
@startuml
title Klondike

class Klondike
class Player
class Playmat
class Deck
class Goal
class Stock{
{static} maxCards = 52 : int
}
class Foundation{
'{static} maxCards = 13 : int
}
class Tableau{
'{static} maxCards = 28 : int
}
class Waste{
'{static} maxCards = 24 : int
}
class Card{
-rank : Rank
-suit : Suit
-IsTurnedUp : boolean
}
abstract Pile{
- cardList : List
# validMove() : boolean
}
abstract Suit{
- color :Color
}
class Move{
-origin : Pile
-cardList : Card
-destination : Pile
}
enum Color{
RED
BLACK
}
enum Rank{
A
2
3
4
5
6
7
8
9
1
J
Q
K
}

Klondike *- -> Player
Klondike *- -> Deck
Klondike *- -> Playmat
Deck *-down-> "52" Card
Player ..> Move
Player - -> Goal
Goal - -> "4" Foundation : "Complet"
Goal ..> "n" Move
Move ..> Deck
Move - -> Playmat
Playmat o- -> Pile

Pile <|- - Stock
Pile <|- - Waste 
Pile <|- - Foundation
Pile <|- - Tableau

Foundation o- -> "0..13" Card
Stock o- -> "0..24" Card
Tableau o- -> "0..18" Card
Waste o- -> "0..24" Card

Suit <|- - Club
Suit <|- - Spade
Suit <|- - Diamond
Suit <|- -Heart
Card *- -> Suit
Card *- -> Rank
Suit - -> Color
Color <|- -> Red
Color <|- -> Black
Club *- -> Black
Spade *- -> Black
Diamond *- -> Red
Heart *- -> Red
@enduml

@startuml
title Klondike

class Klondike
class Player
class Playmat
class Deck
class Goal
class Stock{
{static} maxCards = 52 : int
}
class Foundation{
}
class Tableau{
}
class Waste{
}
class Card{
-rank : Rank
-suit : Suit
-IsTurnedUp : boolean
}
abstract Pile{
- cardList : List
# validMove() : boolean
}
abstract Suit{
- color :Color
}
class Move{
-origin : Pile
-cardList : Card
-destination : Pile
}
enum Color{
RED
BLACK
}
enum Rank{
A
2
3
4
5
6
7
8
9
1
J
Q
K
}

Klondike *- -> Player
Klondike *- -> Deck
Klondike *- -> Playmat
Deck *-down-> "52" Card
Player ..> Move
Player - -> Goal
Goal - -> "4" Foundation : "Complet"
Goal ..> "n" Move
Move ..> Deck
Move - -> Playmat
Playmat o- -> Pile

Pile <|- - Stock
Pile <|- - Waste 
Pile <|- - Foundation
Pile <|- - Tableau

Foundation o- -> "0..13" Card
Stock o- -> "0..24" Card
Tableau o- -> "0..18" Card
Waste o- -> "0..24" Card

Suit <|- - Club
Suit <|- - Spade
Suit <|- - Diamond
Suit <|- -Heart
Card *- -> Suit
Card *- -> Rank
Suit - -> Color
Color <|- -> Red
Color <|- -> Black
Club *- -> Black
Spade *- -> Black
Diamond *- -> Red
Heart *- -> Red
@enduml

PlantUML version 1.2022.3beta2(Unknown compile time)
(GPL source distribution)
Java Runtime: Java(TM) SE Runtime Environment
JVM: Java HotSpot(TM) 64-Bit Server VM
Default Encoding: UTF-8
Language: en
Country: US
--></g></svg>