<?xml version="1.0" encoding="UTF-8" standalone="no"?><svg xmlns="http://www.w3.org/2000/svg" xmlns:xlink="http://www.w3.org/1999/xlink" contentStyleType="text/css" height="531px" preserveAspectRatio="none" style="width:943px;height:531px;background:#FFFFFF;" version="1.1" viewBox="0 0 943 531" width="943px" zoomAndPan="magnify"><defs/><g><rect height="26.2969" style="stroke:#00000000;stroke-width:1.0;fill:none;" width="383" x="273.25" y="5"/><text fill="#000000" font-family="sans-serif" font-size="14" font-weight="bold" lengthAdjust="spacing" textLength="373" x="278.25" y="22.9951">Master en programaci칩n y dise침o de software</text><!--MD5=[7900abf4077734e427c630b04c53e696]
class Mpds--><g id="elem_Mpds"><rect codeLine="3" fill="#F1F1F1" height="48" id="Mpds" rx="2.5" ry="2.5" style="stroke:#181818;stroke-width:0.5;" width="70" x="417" y="44.2969"/><ellipse cx="432" cy="60.2969" fill="#ADD1B2" rx="11" ry="11" style="stroke:#181818;stroke-width:1.0;"/><path d="M434.3438,55.9688 C433.4063,55.5313 432.8125,55.3906 431.9375,55.3906 C429.3125,55.3906 427.3125,57.4688 427.3125,60.1875 L427.3125,61.3125 C427.3125,63.8906 429.4219,65.7813 432.3125,65.7813 C433.5313,65.7813 434.6875,65.4844 435.4375,64.9375 C436.0156,64.5313 436.3438,64.0781 436.3438,63.6875 C436.3438,63.2344 435.9531,62.8438 435.4844,62.8438 C435.2656,62.8438 435.0625,62.9219 434.875,63.1094 C434.4219,63.5938 434.4219,63.5938 434.2344,63.6875 C433.8125,63.9531 433.125,64.0781 432.3594,64.0781 C430.3125,64.0781 429.0156,62.9844 429.0156,61.2813 L429.0156,60.1875 C429.0156,58.4063 430.2656,57.0938 432,57.0938 C432.5781,57.0938 433.1875,57.25 433.6563,57.5 C434.1406,57.7813 434.3125,58 434.4063,58.4063 C434.4688,58.8125 434.5,58.9375 434.6406,59.0625 C434.7813,59.2031 435.0156,59.3125 435.2344,59.3125 C435.5,59.3125 435.7656,59.1719 435.9375,58.9531 C436.0469,58.7969 436.0781,58.6094 436.0781,58.1875 L436.0781,56.7656 C436.0781,56.3281 436.0625,56.2031 435.9688,56.0469 C435.8125,55.7813 435.5313,55.6406 435.2344,55.6406 C434.9375,55.6406 434.7344,55.7344 434.5156,56.0469 L434.3438,55.9688 Z " fill="#000000"/><text fill="#000000" font-family="sans-serif" font-size="14" lengthAdjust="spacing" textLength="38" x="446" y="65.1436">Mpds</text><line style="stroke:#181818;stroke-width:0.5;" x1="418" x2="486" y1="76.2969" y2="76.2969"/><line style="stroke:#181818;stroke-width:0.5;" x1="418" x2="486" y1="84.2969" y2="84.2969"/></g><!--MD5=[61a83f88cb8b7d3a80bc8c481f3736bf]
class Teacher--><g id="elem_Teacher"><rect codeLine="4" fill="#F1F1F1" height="48" id="Teacher" rx="2.5" ry="2.5" style="stroke:#181818;stroke-width:0.5;" width="90" x="178" y="152.2969"/><ellipse cx="193" cy="168.2969" fill="#ADD1B2" rx="11" ry="11" style="stroke:#181818;stroke-width:1.0;"/><path d="M195.3438,163.9688 C194.4063,163.5313 193.8125,163.3906 192.9375,163.3906 C190.3125,163.3906 188.3125,165.4688 188.3125,168.1875 L188.3125,169.3125 C188.3125,171.8906 190.4219,173.7813 193.3125,173.7813 C194.5313,173.7813 195.6875,173.4844 196.4375,172.9375 C197.0156,172.5313 197.3438,172.0781 197.3438,171.6875 C197.3438,171.2344 196.9531,170.8438 196.4844,170.8438 C196.2656,170.8438 196.0625,170.9219 195.875,171.1094 C195.4219,171.5938 195.4219,171.5938 195.2344,171.6875 C194.8125,171.9531 194.125,172.0781 193.3594,172.0781 C191.3125,172.0781 190.0156,170.9844 190.0156,169.2813 L190.0156,168.1875 C190.0156,166.4063 191.2656,165.0938 193,165.0938 C193.5781,165.0938 194.1875,165.25 194.6563,165.5 C195.1406,165.7813 195.3125,166 195.4063,166.4063 C195.4688,166.8125 195.5,166.9375 195.6406,167.0625 C195.7813,167.2031 196.0156,167.3125 196.2344,167.3125 C196.5,167.3125 196.7656,167.1719 196.9375,166.9531 C197.0469,166.7969 197.0781,166.6094 197.0781,166.1875 L197.0781,164.7656 C197.0781,164.3281 197.0625,164.2031 196.9688,164.0469 C196.8125,163.7813 196.5313,163.6406 196.2344,163.6406 C195.9375,163.6406 195.7344,163.7344 195.5156,164.0469 L195.3438,163.9688 Z " fill="#000000"/><text fill="#000000" font-family="sans-serif" font-size="14" lengthAdjust="spacing" textLength="58" x="207" y="173.1436">Teacher</text><line style="stroke:#181818;stroke-width:0.5;" x1="179" x2="267" y1="184.2969" y2="184.2969"/><line style="stroke:#181818;stroke-width:0.5;" x1="179" x2="267" y1="192.2969" y2="192.2969"/></g><!--MD5=[f4250ec99086970612aeeda1dc973a65]
class TeacherAssistant--><g id="elem_TeacherAssistant"><rect codeLine="5" fill="#F1F1F1" height="48" id="TeacherAssistant" rx="2.5" ry="2.5" style="stroke:#181818;stroke-width:0.5;" width="156" x="374" y="152.2969"/><ellipse cx="389" cy="168.2969" fill="#ADD1B2" rx="11" ry="11" style="stroke:#181818;stroke-width:1.0;"/><path d="M391.3438,163.9688 C390.4063,163.5313 389.8125,163.3906 388.9375,163.3906 C386.3125,163.3906 384.3125,165.4688 384.3125,168.1875 L384.3125,169.3125 C384.3125,171.8906 386.4219,173.7813 389.3125,173.7813 C390.5313,173.7813 391.6875,173.4844 392.4375,172.9375 C393.0156,172.5313 393.3438,172.0781 393.3438,171.6875 C393.3438,171.2344 392.9531,170.8438 392.4844,170.8438 C392.2656,170.8438 392.0625,170.9219 391.875,171.1094 C391.4219,171.5938 391.4219,171.5938 391.2344,171.6875 C390.8125,171.9531 390.125,172.0781 389.3594,172.0781 C387.3125,172.0781 386.0156,170.9844 386.0156,169.2813 L386.0156,168.1875 C386.0156,166.4063 387.2656,165.0938 389,165.0938 C389.5781,165.0938 390.1875,165.25 390.6563,165.5 C391.1406,165.7813 391.3125,166 391.4063,166.4063 C391.4688,166.8125 391.5,166.9375 391.6406,167.0625 C391.7813,167.2031 392.0156,167.3125 392.2344,167.3125 C392.5,167.3125 392.7656,167.1719 392.9375,166.9531 C393.0469,166.7969 393.0781,166.6094 393.0781,166.1875 L393.0781,164.7656 C393.0781,164.3281 393.0625,164.2031 392.9688,164.0469 C392.8125,163.7813 392.5313,163.6406 392.2344,163.6406 C391.9375,163.6406 391.7344,163.7344 391.5156,164.0469 L391.3438,163.9688 Z " fill="#000000"/><text fill="#000000" font-family="sans-serif" font-size="14" lengthAdjust="spacing" textLength="124" x="403" y="173.1436">TeacherAssistant</text><line style="stroke:#181818;stroke-width:0.5;" x1="375" x2="529" y1="184.2969" y2="184.2969"/><line style="stroke:#181818;stroke-width:0.5;" x1="375" x2="529" y1="192.2969" y2="192.2969"/></g><!--MD5=[d6181cb537bdc20c0a3007a98a56832d]
class Student--><g id="elem_Student"><rect codeLine="6" fill="#F1F1F1" height="48" id="Student" rx="2.5" ry="2.5" style="stroke:#181818;stroke-width:0.5;" width="90" x="636" y="152.2969"/><ellipse cx="651" cy="168.2969" fill="#ADD1B2" rx="11" ry="11" style="stroke:#181818;stroke-width:1.0;"/><path d="M653.3438,163.9688 C652.4063,163.5313 651.8125,163.3906 650.9375,163.3906 C648.3125,163.3906 646.3125,165.4688 646.3125,168.1875 L646.3125,169.3125 C646.3125,171.8906 648.4219,173.7813 651.3125,173.7813 C652.5313,173.7813 653.6875,173.4844 654.4375,172.9375 C655.0156,172.5313 655.3438,172.0781 655.3438,171.6875 C655.3438,171.2344 654.9531,170.8438 654.4844,170.8438 C654.2656,170.8438 654.0625,170.9219 653.875,171.1094 C653.4219,171.5938 653.4219,171.5938 653.2344,171.6875 C652.8125,171.9531 652.125,172.0781 651.3594,172.0781 C649.3125,172.0781 648.0156,170.9844 648.0156,169.2813 L648.0156,168.1875 C648.0156,166.4063 649.2656,165.0938 651,165.0938 C651.5781,165.0938 652.1875,165.25 652.6563,165.5 C653.1406,165.7813 653.3125,166 653.4063,166.4063 C653.4688,166.8125 653.5,166.9375 653.6406,167.0625 C653.7813,167.2031 654.0156,167.3125 654.2344,167.3125 C654.5,167.3125 654.7656,167.1719 654.9375,166.9531 C655.0469,166.7969 655.0781,166.6094 655.0781,166.1875 L655.0781,164.7656 C655.0781,164.3281 655.0625,164.2031 654.9688,164.0469 C654.8125,163.7813 654.5313,163.6406 654.2344,163.6406 C653.9375,163.6406 653.7344,163.7344 653.5156,164.0469 L653.3438,163.9688 Z " fill="#000000"/><text fill="#000000" font-family="sans-serif" font-size="14" lengthAdjust="spacing" textLength="58" x="665" y="173.1436">Student</text><line style="stroke:#181818;stroke-width:0.5;" x1="637" x2="725" y1="184.2969" y2="184.2969"/><line style="stroke:#181818;stroke-width:0.5;" x1="637" x2="725" y1="192.2969" y2="192.2969"/></g><!--MD5=[49d62f86e6f80ec950d9a5c65dfabf0b]
class GithubRepository--><g id="elem_GithubRepository"><rect codeLine="7" fill="#F1F1F1" height="48" id="GithubRepository" rx="2.5" ry="2.5" style="stroke:#181818;stroke-width:0.5;" width="160" x="374" y="368.2969"/><ellipse cx="389" cy="384.2969" fill="#ADD1B2" rx="11" ry="11" style="stroke:#181818;stroke-width:1.0;"/><path d="M391.3438,379.9688 C390.4063,379.5313 389.8125,379.3906 388.9375,379.3906 C386.3125,379.3906 384.3125,381.4688 384.3125,384.1875 L384.3125,385.3125 C384.3125,387.8906 386.4219,389.7813 389.3125,389.7813 C390.5313,389.7813 391.6875,389.4844 392.4375,388.9375 C393.0156,388.5313 393.3438,388.0781 393.3438,387.6875 C393.3438,387.2344 392.9531,386.8438 392.4844,386.8438 C392.2656,386.8438 392.0625,386.9219 391.875,387.1094 C391.4219,387.5938 391.4219,387.5938 391.2344,387.6875 C390.8125,387.9531 390.125,388.0781 389.3594,388.0781 C387.3125,388.0781 386.0156,386.9844 386.0156,385.2813 L386.0156,384.1875 C386.0156,382.4063 387.2656,381.0938 389,381.0938 C389.5781,381.0938 390.1875,381.25 390.6563,381.5 C391.1406,381.7813 391.3125,382 391.4063,382.4063 C391.4688,382.8125 391.5,382.9375 391.6406,383.0625 C391.7813,383.2031 392.0156,383.3125 392.2344,383.3125 C392.5,383.3125 392.7656,383.1719 392.9375,382.9531 C393.0469,382.7969 393.0781,382.6094 393.0781,382.1875 L393.0781,380.7656 C393.0781,380.3281 393.0625,380.2031 392.9688,380.0469 C392.8125,379.7813 392.5313,379.6406 392.2344,379.6406 C391.9375,379.6406 391.7344,379.7344 391.5156,380.0469 L391.3438,379.9688 Z " fill="#000000"/><text fill="#000000" font-family="sans-serif" font-size="14" lengthAdjust="spacing" textLength="128" x="403" y="389.1436">GithubRepository</text><line style="stroke:#181818;stroke-width:0.5;" x1="375" x2="533" y1="400.2969" y2="400.2969"/><line style="stroke:#181818;stroke-width:0.5;" x1="375" x2="533" y1="408.2969" y2="408.2969"/></g><!--MD5=[63364a8f1b53f13852b1a103b6bf5f33]
class SlackChannel--><g id="elem_SlackChannel"><rect codeLine="8" fill="#F1F1F1" height="48" id="SlackChannel" rx="2.5" ry="2.5" style="stroke:#181818;stroke-width:0.5;" width="128" x="500" y="260.2969"/><ellipse cx="515" cy="276.2969" fill="#ADD1B2" rx="11" ry="11" style="stroke:#181818;stroke-width:1.0;"/><path d="M517.3438,271.9688 C516.4063,271.5313 515.8125,271.3906 514.9375,271.3906 C512.3125,271.3906 510.3125,273.4688 510.3125,276.1875 L510.3125,277.3125 C510.3125,279.8906 512.4219,281.7813 515.3125,281.7813 C516.5313,281.7813 517.6875,281.4844 518.4375,280.9375 C519.0156,280.5313 519.3438,280.0781 519.3438,279.6875 C519.3438,279.2344 518.9531,278.8438 518.4844,278.8438 C518.2656,278.8438 518.0625,278.9219 517.875,279.1094 C517.4219,279.5938 517.4219,279.5938 517.2344,279.6875 C516.8125,279.9531 516.125,280.0781 515.3594,280.0781 C513.3125,280.0781 512.0156,278.9844 512.0156,277.2813 L512.0156,276.1875 C512.0156,274.4063 513.2656,273.0938 515,273.0938 C515.5781,273.0938 516.1875,273.25 516.6563,273.5 C517.1406,273.7813 517.3125,274 517.4063,274.4063 C517.4688,274.8125 517.5,274.9375 517.6406,275.0625 C517.7813,275.2031 518.0156,275.3125 518.2344,275.3125 C518.5,275.3125 518.7656,275.1719 518.9375,274.9531 C519.0469,274.7969 519.0781,274.6094 519.0781,274.1875 L519.0781,272.7656 C519.0781,272.3281 519.0625,272.2031 518.9688,272.0469 C518.8125,271.7813 518.5313,271.6406 518.2344,271.6406 C517.9375,271.6406 517.7344,271.7344 517.5156,272.0469 L517.3438,271.9688 Z " fill="#000000"/><text fill="#000000" font-family="sans-serif" font-size="14" lengthAdjust="spacing" textLength="96" x="529" y="281.1436">SlackChannel</text><line style="stroke:#181818;stroke-width:0.5;" x1="501" x2="627" y1="292.2969" y2="292.2969"/><line style="stroke:#181818;stroke-width:0.5;" x1="501" x2="627" y1="300.2969" y2="300.2969"/></g><!--MD5=[d6fc43bef9fd3ea6515b6efe529f3048]
class ZoomSession--><g id="elem_ZoomSession"><rect codeLine="9" fill="#F1F1F1" height="48" id="ZoomSession" rx="2.5" ry="2.5" style="stroke:#181818;stroke-width:0.5;" width="128" x="7" y="476.2969"/><ellipse cx="22" cy="492.2969" fill="#ADD1B2" rx="11" ry="11" style="stroke:#181818;stroke-width:1.0;"/><path d="M24.3438,487.9688 C23.4063,487.5313 22.8125,487.3906 21.9375,487.3906 C19.3125,487.3906 17.3125,489.4688 17.3125,492.1875 L17.3125,493.3125 C17.3125,495.8906 19.4219,497.7813 22.3125,497.7813 C23.5313,497.7813 24.6875,497.4844 25.4375,496.9375 C26.0156,496.5313 26.3438,496.0781 26.3438,495.6875 C26.3438,495.2344 25.9531,494.8438 25.4844,494.8438 C25.2656,494.8438 25.0625,494.9219 24.875,495.1094 C24.4219,495.5938 24.4219,495.5938 24.2344,495.6875 C23.8125,495.9531 23.125,496.0781 22.3594,496.0781 C20.3125,496.0781 19.0156,494.9844 19.0156,493.2813 L19.0156,492.1875 C19.0156,490.4063 20.2656,489.0938 22,489.0938 C22.5781,489.0938 23.1875,489.25 23.6563,489.5 C24.1406,489.7813 24.3125,490 24.4063,490.4063 C24.4688,490.8125 24.5,490.9375 24.6406,491.0625 C24.7813,491.2031 25.0156,491.3125 25.2344,491.3125 C25.5,491.3125 25.7656,491.1719 25.9375,490.9531 C26.0469,490.7969 26.0781,490.6094 26.0781,490.1875 L26.0781,488.7656 C26.0781,488.3281 26.0625,488.2031 25.9688,488.0469 C25.8125,487.7813 25.5313,487.6406 25.2344,487.6406 C24.9375,487.6406 24.7344,487.7344 24.5156,488.0469 L24.3438,487.9688 Z " fill="#000000"/><text fill="#000000" font-family="sans-serif" font-size="14" lengthAdjust="spacing" textLength="96" x="36" y="497.1436">ZoomSession</text><line style="stroke:#181818;stroke-width:0.5;" x1="8" x2="134" y1="508.2969" y2="508.2969"/><line style="stroke:#181818;stroke-width:0.5;" x1="8" x2="134" y1="516.2969" y2="516.2969"/></g><!--MD5=[63a373d2559db13dd8cc7d36e037ebb1]
class Unit--><g id="elem_Unit"><rect codeLine="10" fill="#F1F1F1" height="48" id="Unit" rx="2.5" ry="2.5" style="stroke:#181818;stroke-width:0.5;" width="61" x="290.5" y="260.2969"/><ellipse cx="305.5" cy="276.2969" fill="#ADD1B2" rx="11" ry="11" style="stroke:#181818;stroke-width:1.0;"/><path d="M307.8438,271.9688 C306.9063,271.5313 306.3125,271.3906 305.4375,271.3906 C302.8125,271.3906 300.8125,273.4688 300.8125,276.1875 L300.8125,277.3125 C300.8125,279.8906 302.9219,281.7813 305.8125,281.7813 C307.0313,281.7813 308.1875,281.4844 308.9375,280.9375 C309.5156,280.5313 309.8438,280.0781 309.8438,279.6875 C309.8438,279.2344 309.4531,278.8438 308.9844,278.8438 C308.7656,278.8438 308.5625,278.9219 308.375,279.1094 C307.9219,279.5938 307.9219,279.5938 307.7344,279.6875 C307.3125,279.9531 306.625,280.0781 305.8594,280.0781 C303.8125,280.0781 302.5156,278.9844 302.5156,277.2813 L302.5156,276.1875 C302.5156,274.4063 303.7656,273.0938 305.5,273.0938 C306.0781,273.0938 306.6875,273.25 307.1563,273.5 C307.6406,273.7813 307.8125,274 307.9063,274.4063 C307.9688,274.8125 308,274.9375 308.1406,275.0625 C308.2813,275.2031 308.5156,275.3125 308.7344,275.3125 C309,275.3125 309.2656,275.1719 309.4375,274.9531 C309.5469,274.7969 309.5781,274.6094 309.5781,274.1875 L309.5781,272.7656 C309.5781,272.3281 309.5625,272.2031 309.4688,272.0469 C309.3125,271.7813 309.0313,271.6406 308.7344,271.6406 C308.4375,271.6406 308.2344,271.7344 308.0156,272.0469 L307.8438,271.9688 Z " fill="#000000"/><text fill="#000000" font-family="sans-serif" font-size="14" lengthAdjust="spacing" textLength="29" x="319.5" y="281.1436">Unit</text><line style="stroke:#181818;stroke-width:0.5;" x1="291.5" x2="350.5" y1="292.2969" y2="292.2969"/><line style="stroke:#181818;stroke-width:0.5;" x1="291.5" x2="350.5" y1="300.2969" y2="300.2969"/></g><!--MD5=[5935aaab64bacbbc51c3538d487c6677]
class LiveSession--><g id="elem_LiveSession"><rect codeLine="11" fill="#F1F1F1" height="48" id="LiveSession" rx="2.5" ry="2.5" style="stroke:#181818;stroke-width:0.5;" width="115" x="81.5" y="368.2969"/><ellipse cx="96.5" cy="384.2969" fill="#ADD1B2" rx="11" ry="11" style="stroke:#181818;stroke-width:1.0;"/><path d="M98.8438,379.9688 C97.9063,379.5313 97.3125,379.3906 96.4375,379.3906 C93.8125,379.3906 91.8125,381.4688 91.8125,384.1875 L91.8125,385.3125 C91.8125,387.8906 93.9219,389.7813 96.8125,389.7813 C98.0313,389.7813 99.1875,389.4844 99.9375,388.9375 C100.5156,388.5313 100.8438,388.0781 100.8438,387.6875 C100.8438,387.2344 100.4531,386.8438 99.9844,386.8438 C99.7656,386.8438 99.5625,386.9219 99.375,387.1094 C98.9219,387.5938 98.9219,387.5938 98.7344,387.6875 C98.3125,387.9531 97.625,388.0781 96.8594,388.0781 C94.8125,388.0781 93.5156,386.9844 93.5156,385.2813 L93.5156,384.1875 C93.5156,382.4063 94.7656,381.0938 96.5,381.0938 C97.0781,381.0938 97.6875,381.25 98.1563,381.5 C98.6406,381.7813 98.8125,382 98.9063,382.4063 C98.9688,382.8125 99,382.9375 99.1406,383.0625 C99.2813,383.2031 99.5156,383.3125 99.7344,383.3125 C100,383.3125 100.2656,383.1719 100.4375,382.9531 C100.5469,382.7969 100.5781,382.6094 100.5781,382.1875 L100.5781,380.7656 C100.5781,380.3281 100.5625,380.2031 100.4688,380.0469 C100.3125,379.7813 100.0313,379.6406 99.7344,379.6406 C99.4375,379.6406 99.2344,379.7344 99.0156,380.0469 L98.8438,379.9688 Z " fill="#000000"/><text fill="#000000" font-family="sans-serif" font-size="14" lengthAdjust="spacing" textLength="83" x="110.5" y="389.1436">LiveSession</text><line style="stroke:#181818;stroke-width:0.5;" x1="82.5" x2="195.5" y1="400.2969" y2="400.2969"/><line style="stroke:#181818;stroke-width:0.5;" x1="82.5" x2="195.5" y1="408.2969" y2="408.2969"/></g><!--MD5=[a3638c1e5b65d287ecad7f06f5c0f212]
class Role--><g id="elem_Role"><rect codeLine="12" fill="#F1F1F1" height="48" id="Role" rx="2.5" ry="2.5" style="stroke:#181818;stroke-width:0.5;" width="64" x="747" y="260.2969"/><ellipse cx="762" cy="276.2969" fill="#ADD1B2" rx="11" ry="11" style="stroke:#181818;stroke-width:1.0;"/><path d="M764.3438,271.9688 C763.4063,271.5313 762.8125,271.3906 761.9375,271.3906 C759.3125,271.3906 757.3125,273.4688 757.3125,276.1875 L757.3125,277.3125 C757.3125,279.8906 759.4219,281.7813 762.3125,281.7813 C763.5313,281.7813 764.6875,281.4844 765.4375,280.9375 C766.0156,280.5313 766.3438,280.0781 766.3438,279.6875 C766.3438,279.2344 765.9531,278.8438 765.4844,278.8438 C765.2656,278.8438 765.0625,278.9219 764.875,279.1094 C764.4219,279.5938 764.4219,279.5938 764.2344,279.6875 C763.8125,279.9531 763.125,280.0781 762.3594,280.0781 C760.3125,280.0781 759.0156,278.9844 759.0156,277.2813 L759.0156,276.1875 C759.0156,274.4063 760.2656,273.0938 762,273.0938 C762.5781,273.0938 763.1875,273.25 763.6563,273.5 C764.1406,273.7813 764.3125,274 764.4063,274.4063 C764.4688,274.8125 764.5,274.9375 764.6406,275.0625 C764.7813,275.2031 765.0156,275.3125 765.2344,275.3125 C765.5,275.3125 765.7656,275.1719 765.9375,274.9531 C766.0469,274.7969 766.0781,274.6094 766.0781,274.1875 L766.0781,272.7656 C766.0781,272.3281 766.0625,272.2031 765.9688,272.0469 C765.8125,271.7813 765.5313,271.6406 765.2344,271.6406 C764.9375,271.6406 764.7344,271.7344 764.5156,272.0469 L764.3438,271.9688 Z " fill="#000000"/><text fill="#000000" font-family="sans-serif" font-size="14" lengthAdjust="spacing" textLength="32" x="776" y="281.1436">Role</text><line style="stroke:#181818;stroke-width:0.5;" x1="748" x2="810" y1="292.2969" y2="292.2969"/><line style="stroke:#181818;stroke-width:0.5;" x1="748" x2="810" y1="300.2969" y2="300.2969"/></g><!--MD5=[e6942bb3dc3af6df69a4b204b94b9e0a]
class Viewer--><g id="elem_Viewer"><rect codeLine="13" fill="#F1F1F1" height="48" id="Viewer" rx="2.5" ry="2.5" style="stroke:#181818;stroke-width:0.5;" width="81" x="569.5" y="368.2969"/><ellipse cx="584.5" cy="384.2969" fill="#ADD1B2" rx="11" ry="11" style="stroke:#181818;stroke-width:1.0;"/><path d="M586.8438,379.9688 C585.9063,379.5313 585.3125,379.3906 584.4375,379.3906 C581.8125,379.3906 579.8125,381.4688 579.8125,384.1875 L579.8125,385.3125 C579.8125,387.8906 581.9219,389.7813 584.8125,389.7813 C586.0313,389.7813 587.1875,389.4844 587.9375,388.9375 C588.5156,388.5313 588.8438,388.0781 588.8438,387.6875 C588.8438,387.2344 588.4531,386.8438 587.9844,386.8438 C587.7656,386.8438 587.5625,386.9219 587.375,387.1094 C586.9219,387.5938 586.9219,387.5938 586.7344,387.6875 C586.3125,387.9531 585.625,388.0781 584.8594,388.0781 C582.8125,388.0781 581.5156,386.9844 581.5156,385.2813 L581.5156,384.1875 C581.5156,382.4063 582.7656,381.0938 584.5,381.0938 C585.0781,381.0938 585.6875,381.25 586.1563,381.5 C586.6406,381.7813 586.8125,382 586.9063,382.4063 C586.9688,382.8125 587,382.9375 587.1406,383.0625 C587.2813,383.2031 587.5156,383.3125 587.7344,383.3125 C588,383.3125 588.2656,383.1719 588.4375,382.9531 C588.5469,382.7969 588.5781,382.6094 588.5781,382.1875 L588.5781,380.7656 C588.5781,380.3281 588.5625,380.2031 588.4688,380.0469 C588.3125,379.7813 588.0313,379.6406 587.7344,379.6406 C587.4375,379.6406 587.2344,379.7344 587.0156,380.0469 L586.8438,379.9688 Z " fill="#000000"/><text fill="#000000" font-family="sans-serif" font-size="14" lengthAdjust="spacing" textLength="49" x="598.5" y="389.1436">Viewer</text><line style="stroke:#181818;stroke-width:0.5;" x1="570.5" x2="649.5" y1="400.2969" y2="400.2969"/><line style="stroke:#181818;stroke-width:0.5;" x1="570.5" x2="649.5" y1="408.2969" y2="408.2969"/></g><!--MD5=[a9c0c0397da58aedb3ea3629c02b0a69]
class Critic--><g id="elem_Critic"><rect codeLine="14" fill="#F1F1F1" height="48" id="Critic" rx="2.5" ry="2.5" style="stroke:#181818;stroke-width:0.5;" width="71" x="757.5" y="368.2969"/><ellipse cx="772.5" cy="384.2969" fill="#ADD1B2" rx="11" ry="11" style="stroke:#181818;stroke-width:1.0;"/><path d="M774.8438,379.9688 C773.9063,379.5313 773.3125,379.3906 772.4375,379.3906 C769.8125,379.3906 767.8125,381.4688 767.8125,384.1875 L767.8125,385.3125 C767.8125,387.8906 769.9219,389.7813 772.8125,389.7813 C774.0313,389.7813 775.1875,389.4844 775.9375,388.9375 C776.5156,388.5313 776.8438,388.0781 776.8438,387.6875 C776.8438,387.2344 776.4531,386.8438 775.9844,386.8438 C775.7656,386.8438 775.5625,386.9219 775.375,387.1094 C774.9219,387.5938 774.9219,387.5938 774.7344,387.6875 C774.3125,387.9531 773.625,388.0781 772.8594,388.0781 C770.8125,388.0781 769.5156,386.9844 769.5156,385.2813 L769.5156,384.1875 C769.5156,382.4063 770.7656,381.0938 772.5,381.0938 C773.0781,381.0938 773.6875,381.25 774.1563,381.5 C774.6406,381.7813 774.8125,382 774.9063,382.4063 C774.9688,382.8125 775,382.9375 775.1406,383.0625 C775.2813,383.2031 775.5156,383.3125 775.7344,383.3125 C776,383.3125 776.2656,383.1719 776.4375,382.9531 C776.5469,382.7969 776.5781,382.6094 776.5781,382.1875 L776.5781,380.7656 C776.5781,380.3281 776.5625,380.2031 776.4688,380.0469 C776.3125,379.7813 776.0313,379.6406 775.7344,379.6406 C775.4375,379.6406 775.2344,379.7344 775.0156,380.0469 L774.8438,379.9688 Z " fill="#000000"/><text fill="#000000" font-family="sans-serif" font-size="14" lengthAdjust="spacing" textLength="39" x="786.5" y="389.1436">Critic</text><line style="stroke:#181818;stroke-width:0.5;" x1="758.5" x2="827.5" y1="400.2969" y2="400.2969"/><line style="stroke:#181818;stroke-width:0.5;" x1="758.5" x2="827.5" y1="408.2969" y2="408.2969"/></g><!--MD5=[8ae2c2db09eb731972ab511bcae12bf3]
class Artist--><g id="elem_Artist"><rect codeLine="15" fill="#F1F1F1" height="48" id="Artist" rx="2.5" ry="2.5" style="stroke:#181818;stroke-width:0.5;" width="73" x="863.5" y="368.2969"/><ellipse cx="878.5" cy="384.2969" fill="#ADD1B2" rx="11" ry="11" style="stroke:#181818;stroke-width:1.0;"/><path d="M880.8438,379.9688 C879.9063,379.5313 879.3125,379.3906 878.4375,379.3906 C875.8125,379.3906 873.8125,381.4688 873.8125,384.1875 L873.8125,385.3125 C873.8125,387.8906 875.9219,389.7813 878.8125,389.7813 C880.0313,389.7813 881.1875,389.4844 881.9375,388.9375 C882.5156,388.5313 882.8438,388.0781 882.8438,387.6875 C882.8438,387.2344 882.4531,386.8438 881.9844,386.8438 C881.7656,386.8438 881.5625,386.9219 881.375,387.1094 C880.9219,387.5938 880.9219,387.5938 880.7344,387.6875 C880.3125,387.9531 879.625,388.0781 878.8594,388.0781 C876.8125,388.0781 875.5156,386.9844 875.5156,385.2813 L875.5156,384.1875 C875.5156,382.4063 876.7656,381.0938 878.5,381.0938 C879.0781,381.0938 879.6875,381.25 880.1563,381.5 C880.6406,381.7813 880.8125,382 880.9063,382.4063 C880.9688,382.8125 881,382.9375 881.1406,383.0625 C881.2813,383.2031 881.5156,383.3125 881.7344,383.3125 C882,383.3125 882.2656,383.1719 882.4375,382.9531 C882.5469,382.7969 882.5781,382.6094 882.5781,382.1875 L882.5781,380.7656 C882.5781,380.3281 882.5625,380.2031 882.4688,380.0469 C882.3125,379.7813 882.0313,379.6406 881.7344,379.6406 C881.4375,379.6406 881.2344,379.7344 881.0156,380.0469 L880.8438,379.9688 Z " fill="#000000"/><text fill="#000000" font-family="sans-serif" font-size="14" lengthAdjust="spacing" textLength="41" x="892.5" y="389.1436">Artist</text><line style="stroke:#181818;stroke-width:0.5;" x1="864.5" x2="935.5" y1="400.2969" y2="400.2969"/><line style="stroke:#181818;stroke-width:0.5;" x1="864.5" x2="935.5" y1="408.2969" y2="408.2969"/></g><!--MD5=[166247bf81aba95c770c3b8fd8e3cb19]
class Video--><g id="elem_Video"><rect codeLine="16" fill="#F1F1F1" height="48" id="Video" rx="2.5" ry="2.5" style="stroke:#181818;stroke-width:0.5;" width="73" x="170.5" y="476.2969"/><ellipse cx="185.5" cy="492.2969" fill="#ADD1B2" rx="11" ry="11" style="stroke:#181818;stroke-width:1.0;"/><path d="M187.8438,487.9688 C186.9063,487.5313 186.3125,487.3906 185.4375,487.3906 C182.8125,487.3906 180.8125,489.4688 180.8125,492.1875 L180.8125,493.3125 C180.8125,495.8906 182.9219,497.7813 185.8125,497.7813 C187.0313,497.7813 188.1875,497.4844 188.9375,496.9375 C189.5156,496.5313 189.8438,496.0781 189.8438,495.6875 C189.8438,495.2344 189.4531,494.8438 188.9844,494.8438 C188.7656,494.8438 188.5625,494.9219 188.375,495.1094 C187.9219,495.5938 187.9219,495.5938 187.7344,495.6875 C187.3125,495.9531 186.625,496.0781 185.8594,496.0781 C183.8125,496.0781 182.5156,494.9844 182.5156,493.2813 L182.5156,492.1875 C182.5156,490.4063 183.7656,489.0938 185.5,489.0938 C186.0781,489.0938 186.6875,489.25 187.1563,489.5 C187.6406,489.7813 187.8125,490 187.9063,490.4063 C187.9688,490.8125 188,490.9375 188.1406,491.0625 C188.2813,491.2031 188.5156,491.3125 188.7344,491.3125 C189,491.3125 189.2656,491.1719 189.4375,490.9531 C189.5469,490.7969 189.5781,490.6094 189.5781,490.1875 L189.5781,488.7656 C189.5781,488.3281 189.5625,488.2031 189.4688,488.0469 C189.3125,487.7813 189.0313,487.6406 188.7344,487.6406 C188.4375,487.6406 188.2344,487.7344 188.0156,488.0469 L187.8438,487.9688 Z " fill="#000000"/><text fill="#000000" font-family="sans-serif" font-size="14" lengthAdjust="spacing" textLength="41" x="199.5" y="497.1436">Video</text><line style="stroke:#181818;stroke-width:0.5;" x1="171.5" x2="242.5" y1="508.2969" y2="508.2969"/><line style="stroke:#181818;stroke-width:0.5;" x1="171.5" x2="242.5" y1="516.2969" y2="516.2969"/></g><!--MD5=[edea06a7d58d16627e96798795365c36]
class Theory--><g id="elem_Theory"><rect codeLine="17" fill="#F1F1F1" height="48" id="Theory" rx="2.5" ry="2.5" style="stroke:#181818;stroke-width:0.5;" width="82" x="350" y="476.2969"/><ellipse cx="365" cy="492.2969" fill="#ADD1B2" rx="11" ry="11" style="stroke:#181818;stroke-width:1.0;"/><path d="M367.3438,487.9688 C366.4063,487.5313 365.8125,487.3906 364.9375,487.3906 C362.3125,487.3906 360.3125,489.4688 360.3125,492.1875 L360.3125,493.3125 C360.3125,495.8906 362.4219,497.7813 365.3125,497.7813 C366.5313,497.7813 367.6875,497.4844 368.4375,496.9375 C369.0156,496.5313 369.3438,496.0781 369.3438,495.6875 C369.3438,495.2344 368.9531,494.8438 368.4844,494.8438 C368.2656,494.8438 368.0625,494.9219 367.875,495.1094 C367.4219,495.5938 367.4219,495.5938 367.2344,495.6875 C366.8125,495.9531 366.125,496.0781 365.3594,496.0781 C363.3125,496.0781 362.0156,494.9844 362.0156,493.2813 L362.0156,492.1875 C362.0156,490.4063 363.2656,489.0938 365,489.0938 C365.5781,489.0938 366.1875,489.25 366.6563,489.5 C367.1406,489.7813 367.3125,490 367.4063,490.4063 C367.4688,490.8125 367.5,490.9375 367.6406,491.0625 C367.7813,491.2031 368.0156,491.3125 368.2344,491.3125 C368.5,491.3125 368.7656,491.1719 368.9375,490.9531 C369.0469,490.7969 369.0781,490.6094 369.0781,490.1875 L369.0781,488.7656 C369.0781,488.3281 369.0625,488.2031 368.9688,488.0469 C368.8125,487.7813 368.5313,487.6406 368.2344,487.6406 C367.9375,487.6406 367.7344,487.7344 367.5156,488.0469 L367.3438,487.9688 Z " fill="#000000"/><text fill="#000000" font-family="sans-serif" font-size="14" lengthAdjust="spacing" textLength="50" x="379" y="497.1436">Theory</text><line style="stroke:#181818;stroke-width:0.5;" x1="351" x2="431" y1="508.2969" y2="508.2969"/><line style="stroke:#181818;stroke-width:0.5;" x1="351" x2="431" y1="516.2969" y2="516.2969"/></g><!--MD5=[9aa9a4d17a8304204b9b5d7bdc48a70b]
class Practice--><g id="elem_Practice"><rect codeLine="18" fill="#F1F1F1" height="48" id="Practice" rx="2.5" ry="2.5" style="stroke:#181818;stroke-width:0.5;" width="91" x="688.5" y="476.2969"/><ellipse cx="703.5" cy="492.2969" fill="#ADD1B2" rx="11" ry="11" style="stroke:#181818;stroke-width:1.0;"/><path d="M705.8438,487.9688 C704.9063,487.5313 704.3125,487.3906 703.4375,487.3906 C700.8125,487.3906 698.8125,489.4688 698.8125,492.1875 L698.8125,493.3125 C698.8125,495.8906 700.9219,497.7813 703.8125,497.7813 C705.0313,497.7813 706.1875,497.4844 706.9375,496.9375 C707.5156,496.5313 707.8438,496.0781 707.8438,495.6875 C707.8438,495.2344 707.4531,494.8438 706.9844,494.8438 C706.7656,494.8438 706.5625,494.9219 706.375,495.1094 C705.9219,495.5938 705.9219,495.5938 705.7344,495.6875 C705.3125,495.9531 704.625,496.0781 703.8594,496.0781 C701.8125,496.0781 700.5156,494.9844 700.5156,493.2813 L700.5156,492.1875 C700.5156,490.4063 701.7656,489.0938 703.5,489.0938 C704.0781,489.0938 704.6875,489.25 705.1563,489.5 C705.6406,489.7813 705.8125,490 705.9063,490.4063 C705.9688,490.8125 706,490.9375 706.1406,491.0625 C706.2813,491.2031 706.5156,491.3125 706.7344,491.3125 C707,491.3125 707.2656,491.1719 707.4375,490.9531 C707.5469,490.7969 707.5781,490.6094 707.5781,490.1875 L707.5781,488.7656 C707.5781,488.3281 707.5625,488.2031 707.4688,488.0469 C707.3125,487.7813 707.0313,487.6406 706.7344,487.6406 C706.4375,487.6406 706.2344,487.7344 706.0156,488.0469 L705.8438,487.9688 Z " fill="#000000"/><text fill="#000000" font-family="sans-serif" font-size="14" lengthAdjust="spacing" textLength="59" x="717.5" y="497.1436">Practice</text><line style="stroke:#181818;stroke-width:0.5;" x1="689.5" x2="778.5" y1="508.2969" y2="508.2969"/><line style="stroke:#181818;stroke-width:0.5;" x1="689.5" x2="778.5" y1="516.2969" y2="516.2969"/></g><!--MD5=[df38be88ccee13e832d6fafd6288a4ca]
class Test--><g id="elem_Test"><rect codeLine="19" fill="#F1F1F1" height="48" id="Test" rx="2.5" ry="2.5" style="stroke:#181818;stroke-width:0.5;" width="64" x="548" y="476.2969"/><ellipse cx="563" cy="492.2969" fill="#ADD1B2" rx="11" ry="11" style="stroke:#181818;stroke-width:1.0;"/><path d="M565.3438,487.9688 C564.4063,487.5313 563.8125,487.3906 562.9375,487.3906 C560.3125,487.3906 558.3125,489.4688 558.3125,492.1875 L558.3125,493.3125 C558.3125,495.8906 560.4219,497.7813 563.3125,497.7813 C564.5313,497.7813 565.6875,497.4844 566.4375,496.9375 C567.0156,496.5313 567.3438,496.0781 567.3438,495.6875 C567.3438,495.2344 566.9531,494.8438 566.4844,494.8438 C566.2656,494.8438 566.0625,494.9219 565.875,495.1094 C565.4219,495.5938 565.4219,495.5938 565.2344,495.6875 C564.8125,495.9531 564.125,496.0781 563.3594,496.0781 C561.3125,496.0781 560.0156,494.9844 560.0156,493.2813 L560.0156,492.1875 C560.0156,490.4063 561.2656,489.0938 563,489.0938 C563.5781,489.0938 564.1875,489.25 564.6563,489.5 C565.1406,489.7813 565.3125,490 565.4063,490.4063 C565.4688,490.8125 565.5,490.9375 565.6406,491.0625 C565.7813,491.2031 566.0156,491.3125 566.2344,491.3125 C566.5,491.3125 566.7656,491.1719 566.9375,490.9531 C567.0469,490.7969 567.0781,490.6094 567.0781,490.1875 L567.0781,488.7656 C567.0781,488.3281 567.0625,488.2031 566.9688,488.0469 C566.8125,487.7813 566.5313,487.6406 566.2344,487.6406 C565.9375,487.6406 565.7344,487.7344 565.5156,488.0469 L565.3438,487.9688 Z " fill="#000000"/><text fill="#000000" font-family="sans-serif" font-size="14" lengthAdjust="spacing" textLength="32" x="577" y="497.1436">Test</text><line style="stroke:#181818;stroke-width:0.5;" x1="549" x2="611" y1="508.2969" y2="508.2969"/><line style="stroke:#181818;stroke-width:0.5;" x1="549" x2="611" y1="516.2969" y2="516.2969"/></g><!--MD5=[13dbb87a30685fe430fc58e0476269e3]
link Mpds to Teacher--><g id="link_Mpds_Teacher"><path codeLine="21" d="M405.8308,90.6671 C405.8308,90.6671 318.669,131.0139 280.22,148.8109 " fill="none" id="Mpds-Teacher" style="stroke:#181818;stroke-width:1.0;"/><polygon fill="#181818" points="268.177,154.3849,278.0247,154.2342,272.7145,152.2845,274.6642,146.9743,268.177,154.3849" style="stroke:#181818;stroke-width:1.0;"/><line style="stroke:#181818;stroke-width:1.0;" x1="272.7145" x2="279.9745" y1="152.2845" y2="148.9244"/><polygon fill="#181818" points="416.721,85.6269,409.5958,84.5169,405.8308,90.6671,412.956,91.7771,416.721,85.6269" style="stroke:#181818;stroke-width:1.0;"/><text fill="#000000" font-family="sans-serif" font-size="13" lengthAdjust="spacing" textLength="8" x="276.0146" y="146.7748">1</text></g><!--MD5=[21b093899a890cbb15db23fe1fe44c2d]
link Mpds to Student--><g id="link_Mpds_Student"><path codeLine="22" d="M498.1692,90.6671 C498.1692,90.6671 585.331,131.0139 623.78,148.8109 " fill="none" id="Mpds-Student" style="stroke:#181818;stroke-width:1.0;"/><polygon fill="#181818" points="635.823,154.3849,629.3358,146.9743,631.2855,152.2845,625.9753,154.2342,635.823,154.3849" style="stroke:#181818;stroke-width:1.0;"/><line style="stroke:#181818;stroke-width:1.0;" x1="631.2855" x2="624.0255" y1="152.2845" y2="148.9244"/><polygon fill="none" points="487.279,85.6269,491.044,91.7771,498.1692,90.6671,494.4042,84.5169,487.279,85.6269" style="stroke:#181818;stroke-width:1.0;"/><text fill="#000000" font-family="sans-serif" font-size="13" lengthAdjust="spacing" textLength="8" x="619.9854" y="146.7748">n</text></g><!--MD5=[def86ecb47988725f4947bb463e3f0e4]
link Mpds to SlackChannel--><g id="link_Mpds_SlackChannel"><path codeLine="23" d="M496.8949,97.6599 C496.8949,97.6599 535.522,130.8229 547,152.2969 C562.559,181.4049 565.997,219.1849 566.025,246.6889 " fill="none" id="Mpds-SlackChannel" style="stroke:#181818;stroke-width:1.0;"/><polygon fill="#181818" points="565.775,260.0349,569.9424,251.1112,565.8684,255.0357,561.9438,250.9617,565.775,260.0349" style="stroke:#181818;stroke-width:1.0;"/><line style="stroke:#181818;stroke-width:1.0;" x1="565.8684" x2="566.0185" y1="255.0357" y2="247.0369"/><polygon fill="#181818" points="487.209,90.5759,489.6906,97.3465,496.8949,97.6599,494.4133,90.8893,487.209,90.5759" style="stroke:#181818;stroke-width:1.0;"/><text fill="#000000" font-family="sans-serif" font-size="13" lengthAdjust="spacing" textLength="8" x="557.2327" y="249.376">1</text></g><!--MD5=[d81316a2a62275d73f07ee075f1c9afb]
link Mpds to TeacherAssistant--><g id="link_Mpds_TeacherAssistant"><path codeLine="24" d="M452,104.2969 C452,104.2969 452,127.9739 452,138.6609 " fill="none" id="Mpds-TeacherAssistant" style="stroke:#181818;stroke-width:1.0;"/><polygon fill="#181818" points="452,151.9749,456,142.9749,452,146.9749,448,142.9749,452,151.9749" style="stroke:#181818;stroke-width:1.0;"/><line style="stroke:#181818;stroke-width:1.0;" x1="452" x2="452" y1="146.9749" y2="138.9749"/><polygon fill="#181818" points="452,92.2969,448,98.2969,452,104.2969,456,98.2969,452,92.2969" style="stroke:#181818;stroke-width:1.0;"/><text fill="#000000" font-family="sans-serif" font-size="13" lengthAdjust="spacing" textLength="8" x="443.025" y="141.3013">2</text></g><!--MD5=[56755e4f38772a8c3043f65a73544023]
link Mpds to Unit--><g id="link_Mpds_Unit"><path codeLine="25" d="M407.048,99.0471 C407.048,99.0471 368.746,131.9439 356,152.2969 C337.936,181.1419 329.113,219.1869 324.854,246.8419 " fill="none" id="Mpds-Unit" style="stroke:#181818;stroke-width:1.0;"/><polygon fill="#181818" points="323.063,259.8739,328.2503,251.5018,323.7432,254.9204,320.3246,250.4134,323.063,259.8739" style="stroke:#181818;stroke-width:1.0;"/><line style="stroke:#181818;stroke-width:1.0;" x1="323.7432" x2="324.8325" y1="254.9204" y2="246.9949"/><polygon fill="#181818" points="416.644,91.8419,409.4442,92.2458,407.048,99.0471,414.2477,98.6432,416.644,91.8419" style="stroke:#181818;stroke-width:1.0;"/><text fill="#000000" font-family="sans-serif" font-size="13" lengthAdjust="spacing" textLength="16" x="305.6159" y="249.1757">54</text></g><!--MD5=[69fc19970fd0361ca939e5dcd187779e]
link Student to Role--><g id="link_Student_Role"><path codeLine="27" d="M710.4115,209.1079 C710.4115,209.1079 736.501,237.3289 748.356,250.1509 " fill="none" id="Student-Role" style="stroke:#181818;stroke-width:1.0;"/><polygon fill="#181818" points="757.439,259.9749,754.2662,250.6511,754.0446,256.3036,748.3921,256.0821,757.439,259.9749" style="stroke:#181818;stroke-width:1.0;"/><line style="stroke:#181818;stroke-width:1.0;" x1="754.0446" x2="748.613" y1="256.3036" y2="250.4299"/><polygon fill="none" points="702.265,200.2969,703.4012,207.4179,710.4115,209.1079,709.2753,201.9869,702.265,200.2969" style="stroke:#181818;stroke-width:1.0;"/></g><!--MD5=[e351afbc9ecd9c2290ee75b2c0e021f6]
reverse link Role to Viewer--><g id="link_Role_Viewer"><path codeLine="28" d="M729.541,316.3179 C703.067,332.9239 671.015,353.0279 646.767,368.2359 " fill="none" id="Role-backto-Viewer" style="stroke:#181818;stroke-width:1.0;"/><polygon fill="none" points="726.152,310.1809,746.815,305.4839,733.591,322.0409,726.152,310.1809" style="stroke:#181818;stroke-width:1.0;"/></g><!--MD5=[8cf9abf1c763d79f1ff5b55646fda1d6]
reverse link Role to Critic--><g id="link_Role_Critic"><path codeLine="29" d="M784.682,328.3209 C786.473,341.8759 788.382,356.3349 789.92,367.9749 " fill="none" id="Role-backto-Critic" style="stroke:#181818;stroke-width:1.0;"/><polygon fill="none" points="777.717,329.0419,782.038,308.2969,791.596,327.2089,777.717,329.0419" style="stroke:#181818;stroke-width:1.0;"/></g><!--MD5=[5a2ea780b5cbe967b9e132cb253e9ed3]
reverse link Role to Artist--><g id="link_Role_Artist"><path codeLine="30" d="M820.481,321.6349 C837.995,336.9779 857.876,354.3949 873.378,367.9749 " fill="none" id="Role-backto-Artist" style="stroke:#181818;stroke-width:1.0;"/><polygon fill="none" points="815.686,326.7419,805.255,308.2969,824.912,316.2109,815.686,326.7419" style="stroke:#181818;stroke-width:1.0;"/></g><!--MD5=[85efc5e4c578b08b8b00ac40095ffe9d]
link Teacher to Unit--><g id="link_Teacher_Unit"><path codeLine="32" d="M244.265,200.2969 C259.442,216.7139 279.913,238.8559 295.894,256.1409 " fill="none" id="Teacher-to-Unit" style="stroke:#181818;stroke-width:1.0;"/><polygon fill="#181818" points="299.439,259.9749,296.2665,250.651,296.0448,256.3035,290.3922,256.0818,299.439,259.9749" style="stroke:#181818;stroke-width:1.0;"/></g><!--MD5=[f7ba4d3cc68c351fc5dc4a0c4abb64e6]
link TeacherAssistant to Unit--><g id="link_TeacherAssistant_Unit"><path codeLine="33" d="M423.575,200.2969 C403.031,216.9209 375.232,239.4149 353.755,256.7929 " fill="none" id="TeacherAssistant-to-Unit" style="stroke:#181818;stroke-width:1.0;"/><polygon fill="#181818" points="349.822,259.9749,359.3344,257.4226,353.7087,256.8295,354.3018,251.2038,349.822,259.9749" style="stroke:#181818;stroke-width:1.0;"/></g><!--MD5=[e2768cc7e93b6c585a34d0b2e950aa1b]
link TeacherAssistant to SlackChannel--><g id="link_TeacherAssistant_SlackChannel"><path codeLine="34" d="M476.302,200.2969 C493.648,216.7139 517.043,238.8559 535.307,256.1409 " fill="none" id="TeacherAssistant-to-SlackChannel" style="stroke:#181818;stroke-width:1.0;"/><polygon fill="#181818" points="539.358,259.9749,535.5712,250.8831,535.7267,256.5378,530.0719,256.6932,539.358,259.9749" style="stroke:#181818;stroke-width:1.0;"/></g><!--MD5=[83d4f8bf9c1d833dabc29d504d9d3686]
link Unit to GithubRepository--><g id="link_Unit_GithubRepository"><path codeLine="35" d="M359.2428,315.7765 C359.2428,315.7765 397.35,346.1469 414.49,359.8079 " fill="none" id="Unit-GithubRepository" style="stroke:#181818;stroke-width:1.0;"/><polygon fill="#181818" points="424.738,367.9749,420.1934,359.2372,420.8281,364.8584,415.207,365.4931,424.738,367.9749" style="stroke:#181818;stroke-width:1.0;"/><line style="stroke:#181818;stroke-width:1.0;" x1="420.8281" x2="414.572" y1="364.8584" y2="359.8729"/><polygon fill="#181818" points="349.859,308.2969,352.0577,315.1646,359.2428,315.7765,357.0441,308.9087,349.859,308.2969" style="stroke:#181818;stroke-width:1.0;"/></g><!--MD5=[01acfd4ddf8ef0c018d89ee3e75d7b5f]
link Student to GithubRepository--><g id="link_Student_GithubRepository"><path codeLine="36" d="M680.502,200.4549 C678.696,229.0499 671.583,277.6519 645,308.2969 C617.792,339.6629 576.557,359.5909 539.356,372.0299 " fill="none" id="Student-to-GithubRepository" style="stroke:#181818;stroke-width:1.0;stroke-dasharray:7.0,7.0;"/><polygon fill="#181818" points="534.371,373.6609,544.1686,374.6645,539.1232,372.1063,541.6813,367.0609,534.371,373.6609" style="stroke:#181818;stroke-width:1.0;"/></g><!--MD5=[354d6a4a7c157dcad05f8e65e8f41ac2]
link Student to SlackChannel--><g id="link_Student_SlackChannel"><path codeLine="37" d="M655.613,200.2969 C637.34,216.8519 612.642,239.2279 593.494,256.5759 " fill="none" id="Student-to-SlackChannel" style="stroke:#181818;stroke-width:1.0;stroke-dasharray:7.0,7.0;"/><polygon fill="#181818" points="589.742,259.9749,599.0975,256.8968,593.4475,256.6179,593.7264,250.9679,589.742,259.9749" style="stroke:#181818;stroke-width:1.0;"/></g><!--MD5=[97eed1d0e6a7bee75725f12c9027ba95]
link Unit to LiveSession--><g id="link_Unit_LiveSession"><path codeLine="39" d="M279.7564,309.3171 C279.7564,309.3171 218.108,345.2229 190.175,361.4919 " fill="none" id="Unit-LiveSession" style="stroke:#181818;stroke-width:1.0;"/><polygon fill="#181818" points="178.626,368.2179,188.4162,367.145,182.9466,365.7015,184.3901,360.2319,178.626,368.2179" style="stroke:#181818;stroke-width:1.0;"/><line style="stroke:#181818;stroke-width:1.0;" x1="182.9466" x2="189.86" y1="365.7015" y2="361.6749"/><polygon fill="#181818" points="290.126,303.2779,282.9281,302.841,279.7564,309.3171,286.9543,309.754,290.126,303.2779" style="stroke:#181818;stroke-width:1.0;"/></g><!--MD5=[227b5231965493c561a2e4653245abe3]
reverse link LiveSession to Video--><g id="link_LiveSession_Video"><path codeLine="40" d="M164.746,433.4309 C173.962,447.7961 184.038,463.5035 192.039,475.9753 " fill="none" id="LiveSession-backto-Video" style="stroke:#181818;stroke-width:1.0;"/><polygon fill="none" points="158.662,436.9109,153.755,416.2969,170.446,429.3515,158.662,436.9109" style="stroke:#181818;stroke-width:1.0;"/></g><!--MD5=[9c84b9f9f1e274310bf5025b0b830fbe]
link LiveSession to ZoomSession--><g id="link_LiveSession_ZoomSession"><path codeLine="41" d="M124.245,416.2969 C113.802,432.5758 99.7479,454.484 88.7008,471.7045 " fill="none" id="LiveSession-to-ZoomSession" style="stroke:#181818;stroke-width:1.0;stroke-dasharray:7.0,7.0;"/><polygon fill="#181818" points="85.961,475.9753,94.1875,470.56,88.6609,471.7669,87.454,466.2402,85.961,475.9753" style="stroke:#181818;stroke-width:1.0;"/></g><!--MD5=[943626b5c3d45d1ef965b8604dfae9f9]
link Unit to Theory--><g id="link_Unit_Theory"><path codeLine="42" d="M303.1938,319.4637 C303.1938,319.4637 281.014,385.7159 295,416.2969 C304.486,437.0375 321.997,454.5757 339.492,468.1103 " fill="none" id="Unit-Theory" style="stroke:#181818;stroke-width:1.0;"/><polygon fill="#181818" points="350.311,476.0129,345.403,467.4741,346.2735,473.0635,340.684,473.934,350.311,476.0129" style="stroke:#181818;stroke-width:1.0;"/><line style="stroke:#181818;stroke-width:1.0;" x1="346.2735" x2="339.813" y1="473.0635" y2="468.345"/><polygon fill="#181818" points="308.152,308.5359,302.0303,312.347,303.1938,319.4637,309.3155,315.6525,308.152,308.5359" style="stroke:#181818;stroke-width:1.0;"/></g><!--MD5=[92a82e14f22b4545a61f2c999a1c408b]
link Unit to Test--><g id="link_Unit_Test"><path codeLine="43" d="M321.8338,320.6558 C321.8338,320.6558 332.576,390.5659 356,416.2969 C402.673,467.5653 483.91,487.2692 534.667,494.7705 " fill="none" id="Unit-Test" style="stroke:#181818;stroke-width:1.0;"/><polygon fill="#181818" points="547.809,496.5409,539.4236,491.375,542.8538,495.8733,538.3555,499.3034,547.809,496.5409" style="stroke:#181818;stroke-width:1.0;"/><line style="stroke:#181818;stroke-width:1.0;" x1="542.8538" x2="534.9255" y1="495.8733" y2="494.8052"/><polygon fill="#181818" points="321.028,308.6829,317.4399,314.9379,321.8338,320.6558,325.4219,314.4007,321.028,308.6829" style="stroke:#181818;stroke-width:1.0;"/></g><!--MD5=[041c0f3ff77196490811d53d846e32f1]
link Unit to Practice--><g id="link_Unit_Practice"><path codeLine="44" d="M363.6103,290.9438 C363.6103,290.9438 621.059,331.1499 668,368.2969 C698.133,392.1419 715.673,433.389 724.997,463.2395 " fill="none" id="Unit-Practice" style="stroke:#181818;stroke-width:1.0;"/><polygon fill="#181818" points="728.719,476.0492,730.0494,466.2906,727.3241,471.2477,722.367,468.5224,728.719,476.0492" style="stroke:#181818;stroke-width:1.0;"/><line style="stroke:#181818;stroke-width:1.0;" x1="727.3241" x2="725.0915" y1="471.2477" y2="463.5653"/><polygon fill="#181818" points="351.725,289.2889,357.116,294.0781,363.6103,290.9438,358.2193,286.1546,351.725,289.2889" style="stroke:#181818;stroke-width:1.0;"/></g><!--MD5=[d785f79e77fe3a7b020588b9b5f63ba0]
link Viewer to Theory--><g id="link_Viewer_Theory"><path codeLine="46" d="M569.321,412.9859 C531.759,431.1667 476.029,458.1414 436.892,477.0841 " fill="none" id="Viewer-to-Theory" style="stroke:#181818;stroke-width:1.0;stroke-dasharray:7.0,7.0;"/><polygon fill="#181818" points="432.204,479.3533,442.0476,479.0323,436.7045,477.1748,438.562,471.8316,432.204,479.3533" style="stroke:#181818;stroke-width:1.0;"/><text fill="#000000" font-family="sans-serif" font-size="13" lengthAdjust="spacing" textLength="36" x="440.1595" y="472.607">study</text></g><!--MD5=[3de229d93978060461310297d452d3b2]
link Viewer to Test--><g id="link_Viewer_Test"><path codeLine="47" d="M603.49,416.2969 C598.961,432.2999 592.893,453.743 588.058,470.8249 " fill="none" id="Viewer-to-Test" style="stroke:#181818;stroke-width:1.0;stroke-dasharray:7.0,7.0;"/><polygon fill="#181818" points="586.6,475.9753,592.8997,468.4047,587.9616,471.1642,585.2021,466.2261,586.6,475.9753" style="stroke:#181818;stroke-width:1.0;"/><text fill="#000000" font-family="sans-serif" font-size="13" lengthAdjust="spacing" textLength="52" x="529.8713" y="465.3018">execute</text></g><!--MD5=[14d6d4267c470e3bfdc24e0e05a2e889]
link Viewer to Practice--><g id="link_Viewer_Practice"><path codeLine="48" d="M636.906,416.2969 C656.272,432.8517 682.448,455.2283 702.742,472.576 " fill="none" id="Viewer-to-Practice" style="stroke:#181818;stroke-width:1.0;stroke-dasharray:7.0,7.0;"/><polygon fill="#181818" points="706.718,475.9753,702.4776,467.086,702.9179,472.7257,697.2783,473.1661,706.718,475.9753" style="stroke:#181818;stroke-width:1.0;"/><text fill="#000000" font-family="sans-serif" font-size="13" lengthAdjust="spacing" textLength="52" x="641.7305" y="465.3018">execute</text></g><!--MD5=[4bc31abaf8979de4b6e54afacc76924c]
link Critic to Practice--><g id="link_Critic_Practice"><path codeLine="50" d="M780.198,416.2969 C771.214,432.4378 759.149,454.1131 749.602,471.2657 " fill="none" id="Critic-to-Practice" style="stroke:#181818;stroke-width:1.0;"/><polygon fill="#181818" points="746.981,475.9753,754.8533,470.0569,749.4128,471.6065,747.8633,466.166,746.981,475.9753" style="stroke:#181818;stroke-width:1.0;"/><text fill="#000000" font-family="sans-serif" font-size="13" lengthAdjust="spacing" textLength="56" x="756.9701" y="465.3018">criticized</text></g><!--MD5=[e0cfcb38bf8134eaa2e1ae50d5fa79d4]
link Artist to Practice--><g id="link_Artist_Practice"><path codeLine="51" d="M863.98,416.2969 C837.641,433.1164 801.89,455.9454 774.549,473.4044 " fill="none" id="Artist-to-Practice" style="stroke:#181818;stroke-width:1.0;"/><polygon fill="#181818" points="770.235,476.1586,779.9734,474.6877,774.4496,473.4683,775.669,467.9445,770.235,476.1586" style="stroke:#181818;stroke-width:1.0;"/><text fill="#000000" font-family="sans-serif" font-size="13" lengthAdjust="spacing" textLength="52" x="787.7386" y="483.5646">execute</text></g><!--MD5=[beb442b1ed94ae251b5dc177aa89c837]
@startuml
title Master en programaci칩n y dise침o de software

class Mpds
class Teacher
class TeacherAssistant
class Student
class GithubRepository
class SlackChannel
class ZoomSession
class Unit
class LiveSession
class Role
class Viewer
class Critic
class Artist
class Video
class Theory
class Practice
Class Test

Mpds *-down-> "1" Teacher
Mpds o-down-> "n" Student
Mpds *-down-> "1" SlackChannel
Mpds *-down->"2" TeacherAssistant
Mpds *-down-> "54" Unit

Student o-down-> Role
Role <|-down- Viewer
Role <|-down- Critic
Role <|-down- Artist

Teacher -down-> Unit
TeacherAssistant - -> Unit
TeacherAssistant - -> SlackChannel
Unit *- -> GithubRepository
Student ..> GithubRepository
Student ..> SlackChannel

Unit *-down-> LiveSession
LiveSession <|-down- Video
LiveSession .down.> ZoomSession
Unit *-down-> Theory
Unit *-down-> Test
Unit *-down-> Practice

Viewer .down.> "study" Theory
Viewer .down.> "execute" Test
Viewer .down.> "execute" Practice

Critic -down-> "criticized" Practice
Artist -down-> "execute" Practice
@enduml

PlantUML version 1.2022.3beta2(Unknown compile time)
(GPL source distribution)
Java Runtime: Java(TM) SE Runtime Environment
JVM: Java HotSpot(TM) 64-Bit Server VM
Default Encoding: UTF-8
Language: en
Country: US
--></g></svg>