<?xml version="1.0" encoding="UTF-8" standalone="no"?><svg xmlns="http://www.w3.org/2000/svg" xmlns:xlink="http://www.w3.org/1999/xlink" contentStyleType="text/css" height="872px" preserveAspectRatio="none" style="width:1688px;height:872px;background:#FFFFFF;" version="1.1" viewBox="0 0 1688 872" width="1688px" zoomAndPan="magnify"><defs/><g><rect height="26.2969" style="stroke:#00000000;stroke-width:1.0;fill:none;" width="134" x="770.25" y="5"/><text fill="#000000" font-family="sans-serif" font-size="14" font-weight="bold" lengthAdjust="spacing" textLength="124" x="775.25" y="22.9951">Coche eléctrico</text><!--MD5=[925fa26540339642966e7a3def7d702f]
class CocheElectrico--><g id="elem_CocheElectrico"><rect codeLine="3" fill="#F1F1F1" height="48" id="CocheElectrico" rx="2.5" ry="2.5" style="stroke:#181818;stroke-width:0.5;" width="145" x="859" y="44.2969"/><ellipse cx="874" cy="60.2969" fill="#ADD1B2" rx="11" ry="11" style="stroke:#181818;stroke-width:1.0;"/><path d="M876.3438,55.9688 C875.4063,55.5313 874.8125,55.3906 873.9375,55.3906 C871.3125,55.3906 869.3125,57.4688 869.3125,60.1875 L869.3125,61.3125 C869.3125,63.8906 871.4219,65.7813 874.3125,65.7813 C875.5313,65.7813 876.6875,65.4844 877.4375,64.9375 C878.0156,64.5313 878.3438,64.0781 878.3438,63.6875 C878.3438,63.2344 877.9531,62.8438 877.4844,62.8438 C877.2656,62.8438 877.0625,62.9219 876.875,63.1094 C876.4219,63.5938 876.4219,63.5938 876.2344,63.6875 C875.8125,63.9531 875.125,64.0781 874.3594,64.0781 C872.3125,64.0781 871.0156,62.9844 871.0156,61.2813 L871.0156,60.1875 C871.0156,58.4063 872.2656,57.0938 874,57.0938 C874.5781,57.0938 875.1875,57.25 875.6563,57.5 C876.1406,57.7813 876.3125,58 876.4063,58.4063 C876.4688,58.8125 876.5,58.9375 876.6406,59.0625 C876.7813,59.2031 877.0156,59.3125 877.2344,59.3125 C877.5,59.3125 877.7656,59.1719 877.9375,58.9531 C878.0469,58.7969 878.0781,58.6094 878.0781,58.1875 L878.0781,56.7656 C878.0781,56.3281 878.0625,56.2031 877.9688,56.0469 C877.8125,55.7813 877.5313,55.6406 877.2344,55.6406 C876.9375,55.6406 876.7344,55.7344 876.5156,56.0469 L876.3438,55.9688 Z " fill="#000000"/><text fill="#000000" font-family="sans-serif" font-size="14" lengthAdjust="spacing" textLength="113" x="888" y="65.1436">Coche eléctrico</text><line style="stroke:#181818;stroke-width:0.5;" x1="860" x2="1003" y1="76.2969" y2="76.2969"/><line style="stroke:#181818;stroke-width:0.5;" x1="860" x2="1003" y1="84.2969" y2="84.2969"/></g><!--MD5=[7e96a2db8548793957d28c050f553dd0]
class Chasis--><g id="elem_Chasis"><rect codeLine="4" fill="#F1F1F1" height="48" id="Chasis" rx="2.5" ry="2.5" style="stroke:#181818;stroke-width:0.5;" width="77" x="1122" y="152.2969"/><ellipse cx="1137" cy="168.2969" fill="#ADD1B2" rx="11" ry="11" style="stroke:#181818;stroke-width:1.0;"/><path d="M1139.3438,163.9688 C1138.4063,163.5313 1137.8125,163.3906 1136.9375,163.3906 C1134.3125,163.3906 1132.3125,165.4688 1132.3125,168.1875 L1132.3125,169.3125 C1132.3125,171.8906 1134.4219,173.7813 1137.3125,173.7813 C1138.5313,173.7813 1139.6875,173.4844 1140.4375,172.9375 C1141.0156,172.5313 1141.3438,172.0781 1141.3438,171.6875 C1141.3438,171.2344 1140.9531,170.8438 1140.4844,170.8438 C1140.2656,170.8438 1140.0625,170.9219 1139.875,171.1094 C1139.4219,171.5938 1139.4219,171.5938 1139.2344,171.6875 C1138.8125,171.9531 1138.125,172.0781 1137.3594,172.0781 C1135.3125,172.0781 1134.0156,170.9844 1134.0156,169.2813 L1134.0156,168.1875 C1134.0156,166.4063 1135.2656,165.0938 1137,165.0938 C1137.5781,165.0938 1138.1875,165.25 1138.6563,165.5 C1139.1406,165.7813 1139.3125,166 1139.4063,166.4063 C1139.4688,166.8125 1139.5,166.9375 1139.6406,167.0625 C1139.7813,167.2031 1140.0156,167.3125 1140.2344,167.3125 C1140.5,167.3125 1140.7656,167.1719 1140.9375,166.9531 C1141.0469,166.7969 1141.0781,166.6094 1141.0781,166.1875 L1141.0781,164.7656 C1141.0781,164.3281 1141.0625,164.2031 1140.9688,164.0469 C1140.8125,163.7813 1140.5313,163.6406 1140.2344,163.6406 C1139.9375,163.6406 1139.7344,163.7344 1139.5156,164.0469 L1139.3438,163.9688 Z " fill="#000000"/><text fill="#000000" font-family="sans-serif" font-size="14" lengthAdjust="spacing" textLength="45" x="1151" y="173.1436">Chasis</text><line style="stroke:#181818;stroke-width:0.5;" x1="1123" x2="1198" y1="184.2969" y2="184.2969"/><line style="stroke:#181818;stroke-width:0.5;" x1="1123" x2="1198" y1="192.2969" y2="192.2969"/></g><!--MD5=[da52630377ae35f687772adb3a5a4726]
class Carroceria--><g id="elem_Carroceria"><rect codeLine="5" fill="#F1F1F1" height="48" id="Carroceria" rx="2.5" ry="2.5" style="stroke:#181818;stroke-width:0.5;" width="106" x="649.5" y="152.2969"/><ellipse cx="664.5" cy="168.2969" fill="#ADD1B2" rx="11" ry="11" style="stroke:#181818;stroke-width:1.0;"/><path d="M666.8438,163.9688 C665.9063,163.5313 665.3125,163.3906 664.4375,163.3906 C661.8125,163.3906 659.8125,165.4688 659.8125,168.1875 L659.8125,169.3125 C659.8125,171.8906 661.9219,173.7813 664.8125,173.7813 C666.0313,173.7813 667.1875,173.4844 667.9375,172.9375 C668.5156,172.5313 668.8438,172.0781 668.8438,171.6875 C668.8438,171.2344 668.4531,170.8438 667.9844,170.8438 C667.7656,170.8438 667.5625,170.9219 667.375,171.1094 C666.9219,171.5938 666.9219,171.5938 666.7344,171.6875 C666.3125,171.9531 665.625,172.0781 664.8594,172.0781 C662.8125,172.0781 661.5156,170.9844 661.5156,169.2813 L661.5156,168.1875 C661.5156,166.4063 662.7656,165.0938 664.5,165.0938 C665.0781,165.0938 665.6875,165.25 666.1563,165.5 C666.6406,165.7813 666.8125,166 666.9063,166.4063 C666.9688,166.8125 667,166.9375 667.1406,167.0625 C667.2813,167.2031 667.5156,167.3125 667.7344,167.3125 C668,167.3125 668.2656,167.1719 668.4375,166.9531 C668.5469,166.7969 668.5781,166.6094 668.5781,166.1875 L668.5781,164.7656 C668.5781,164.3281 668.5625,164.2031 668.4688,164.0469 C668.3125,163.7813 668.0313,163.6406 667.7344,163.6406 C667.4375,163.6406 667.2344,163.7344 667.0156,164.0469 L666.8438,163.9688 Z " fill="#000000"/><text fill="#000000" font-family="sans-serif" font-size="14" lengthAdjust="spacing" textLength="74" x="678.5" y="173.1436">Carrocería</text><line style="stroke:#181818;stroke-width:0.5;" x1="650.5" x2="754.5" y1="184.2969" y2="184.2969"/><line style="stroke:#181818;stroke-width:0.5;" x1="650.5" x2="754.5" y1="192.2969" y2="192.2969"/></g><!--MD5=[3da2919ed2ea157b6efc1c73faabf8c2]
class Puerta--><g id="elem_Puerta"><rect codeLine="6" fill="#F1F1F1" height="48" id="Puerta" rx="2.5" ry="2.5" style="stroke:#181818;stroke-width:0.5;" width="79" x="148" y="260.2969"/><ellipse cx="163" cy="276.2969" fill="#ADD1B2" rx="11" ry="11" style="stroke:#181818;stroke-width:1.0;"/><path d="M165.3438,271.9688 C164.4063,271.5313 163.8125,271.3906 162.9375,271.3906 C160.3125,271.3906 158.3125,273.4688 158.3125,276.1875 L158.3125,277.3125 C158.3125,279.8906 160.4219,281.7813 163.3125,281.7813 C164.5313,281.7813 165.6875,281.4844 166.4375,280.9375 C167.0156,280.5313 167.3438,280.0781 167.3438,279.6875 C167.3438,279.2344 166.9531,278.8438 166.4844,278.8438 C166.2656,278.8438 166.0625,278.9219 165.875,279.1094 C165.4219,279.5938 165.4219,279.5938 165.2344,279.6875 C164.8125,279.9531 164.125,280.0781 163.3594,280.0781 C161.3125,280.0781 160.0156,278.9844 160.0156,277.2813 L160.0156,276.1875 C160.0156,274.4063 161.2656,273.0938 163,273.0938 C163.5781,273.0938 164.1875,273.25 164.6563,273.5 C165.1406,273.7813 165.3125,274 165.4063,274.4063 C165.4688,274.8125 165.5,274.9375 165.6406,275.0625 C165.7813,275.2031 166.0156,275.3125 166.2344,275.3125 C166.5,275.3125 166.7656,275.1719 166.9375,274.9531 C167.0469,274.7969 167.0781,274.6094 167.0781,274.1875 L167.0781,272.7656 C167.0781,272.3281 167.0625,272.2031 166.9688,272.0469 C166.8125,271.7813 166.5313,271.6406 166.2344,271.6406 C165.9375,271.6406 165.7344,271.7344 165.5156,272.0469 L165.3438,271.9688 Z " fill="#000000"/><text fill="#000000" font-family="sans-serif" font-size="14" lengthAdjust="spacing" textLength="47" x="177" y="281.1436">Puerta</text><line style="stroke:#181818;stroke-width:0.5;" x1="149" x2="226" y1="292.2969" y2="292.2969"/><line style="stroke:#181818;stroke-width:0.5;" x1="149" x2="226" y1="300.2969" y2="300.2969"/></g><!--MD5=[1dfe11d1b24d602038e19c0c540e835b]
class Capo--><g id="elem_Capo"><rect codeLine="7" fill="#F1F1F1" height="48" id="Capo" rx="2.5" ry="2.5" style="stroke:#181818;stroke-width:0.5;" width="69" x="387" y="260.2969"/><ellipse cx="402" cy="276.2969" fill="#ADD1B2" rx="11" ry="11" style="stroke:#181818;stroke-width:1.0;"/><path d="M404.3438,271.9688 C403.4063,271.5313 402.8125,271.3906 401.9375,271.3906 C399.3125,271.3906 397.3125,273.4688 397.3125,276.1875 L397.3125,277.3125 C397.3125,279.8906 399.4219,281.7813 402.3125,281.7813 C403.5313,281.7813 404.6875,281.4844 405.4375,280.9375 C406.0156,280.5313 406.3438,280.0781 406.3438,279.6875 C406.3438,279.2344 405.9531,278.8438 405.4844,278.8438 C405.2656,278.8438 405.0625,278.9219 404.875,279.1094 C404.4219,279.5938 404.4219,279.5938 404.2344,279.6875 C403.8125,279.9531 403.125,280.0781 402.3594,280.0781 C400.3125,280.0781 399.0156,278.9844 399.0156,277.2813 L399.0156,276.1875 C399.0156,274.4063 400.2656,273.0938 402,273.0938 C402.5781,273.0938 403.1875,273.25 403.6563,273.5 C404.1406,273.7813 404.3125,274 404.4063,274.4063 C404.4688,274.8125 404.5,274.9375 404.6406,275.0625 C404.7813,275.2031 405.0156,275.3125 405.2344,275.3125 C405.5,275.3125 405.7656,275.1719 405.9375,274.9531 C406.0469,274.7969 406.0781,274.6094 406.0781,274.1875 L406.0781,272.7656 C406.0781,272.3281 406.0625,272.2031 405.9688,272.0469 C405.8125,271.7813 405.5313,271.6406 405.2344,271.6406 C404.9375,271.6406 404.7344,271.7344 404.5156,272.0469 L404.3438,271.9688 Z " fill="#000000"/><text fill="#000000" font-family="sans-serif" font-size="14" lengthAdjust="spacing" textLength="37" x="416" y="281.1436">Capó</text><line style="stroke:#181818;stroke-width:0.5;" x1="388" x2="455" y1="292.2969" y2="292.2969"/><line style="stroke:#181818;stroke-width:0.5;" x1="388" x2="455" y1="300.2969" y2="300.2969"/></g><!--MD5=[97d46ae094d28e0d28828e4b8046fed1]
class Sensor--><g id="elem_Sensor"><rect codeLine="8" fill="#F1F1F1" height="48" id="Sensor" rx="2.5" ry="2.5" style="stroke:#181818;stroke-width:0.5;" width="81" x="1041" y="817.2969"/><ellipse cx="1056" cy="833.2969" fill="#ADD1B2" rx="11" ry="11" style="stroke:#181818;stroke-width:1.0;"/><path d="M1058.3438,828.9688 C1057.4063,828.5313 1056.8125,828.3906 1055.9375,828.3906 C1053.3125,828.3906 1051.3125,830.4688 1051.3125,833.1875 L1051.3125,834.3125 C1051.3125,836.8906 1053.4219,838.7813 1056.3125,838.7813 C1057.5313,838.7813 1058.6875,838.4844 1059.4375,837.9375 C1060.0156,837.5313 1060.3438,837.0781 1060.3438,836.6875 C1060.3438,836.2344 1059.9531,835.8438 1059.4844,835.8438 C1059.2656,835.8438 1059.0625,835.9219 1058.875,836.1094 C1058.4219,836.5938 1058.4219,836.5938 1058.2344,836.6875 C1057.8125,836.9531 1057.125,837.0781 1056.3594,837.0781 C1054.3125,837.0781 1053.0156,835.9844 1053.0156,834.2813 L1053.0156,833.1875 C1053.0156,831.4063 1054.2656,830.0938 1056,830.0938 C1056.5781,830.0938 1057.1875,830.25 1057.6563,830.5 C1058.1406,830.7813 1058.3125,831 1058.4063,831.4063 C1058.4688,831.8125 1058.5,831.9375 1058.6406,832.0625 C1058.7813,832.2031 1059.0156,832.3125 1059.2344,832.3125 C1059.5,832.3125 1059.7656,832.1719 1059.9375,831.9531 C1060.0469,831.7969 1060.0781,831.6094 1060.0781,831.1875 L1060.0781,829.7656 C1060.0781,829.3281 1060.0625,829.2031 1059.9688,829.0469 C1059.8125,828.7813 1059.5313,828.6406 1059.2344,828.6406 C1058.9375,828.6406 1058.7344,828.7344 1058.5156,829.0469 L1058.3438,828.9688 Z " fill="#000000"/><text fill="#000000" font-family="sans-serif" font-size="14" lengthAdjust="spacing" textLength="49" x="1070" y="838.1436">Sensor</text><line style="stroke:#181818;stroke-width:0.5;" x1="1042" x2="1121" y1="849.2969" y2="849.2969"/><line style="stroke:#181818;stroke-width:0.5;" x1="1042" x2="1121" y1="857.2969" y2="857.2969"/></g><!--MD5=[76e857c76e55ba2ad4e466fa1d0aeaeb]
class Habitaculo--><g id="elem_Habitaculo"><rect codeLine="9" fill="#F1F1F1" height="48" id="Habitaculo" rx="2.5" ry="2.5" style="stroke:#181818;stroke-width:0.5;" width="108" x="491.5" y="260.2969"/><ellipse cx="506.5" cy="276.2969" fill="#ADD1B2" rx="11" ry="11" style="stroke:#181818;stroke-width:1.0;"/><path d="M508.8438,271.9688 C507.9063,271.5313 507.3125,271.3906 506.4375,271.3906 C503.8125,271.3906 501.8125,273.4688 501.8125,276.1875 L501.8125,277.3125 C501.8125,279.8906 503.9219,281.7813 506.8125,281.7813 C508.0313,281.7813 509.1875,281.4844 509.9375,280.9375 C510.5156,280.5313 510.8438,280.0781 510.8438,279.6875 C510.8438,279.2344 510.4531,278.8438 509.9844,278.8438 C509.7656,278.8438 509.5625,278.9219 509.375,279.1094 C508.9219,279.5938 508.9219,279.5938 508.7344,279.6875 C508.3125,279.9531 507.625,280.0781 506.8594,280.0781 C504.8125,280.0781 503.5156,278.9844 503.5156,277.2813 L503.5156,276.1875 C503.5156,274.4063 504.7656,273.0938 506.5,273.0938 C507.0781,273.0938 507.6875,273.25 508.1563,273.5 C508.6406,273.7813 508.8125,274 508.9063,274.4063 C508.9688,274.8125 509,274.9375 509.1406,275.0625 C509.2813,275.2031 509.5156,275.3125 509.7344,275.3125 C510,275.3125 510.2656,275.1719 510.4375,274.9531 C510.5469,274.7969 510.5781,274.6094 510.5781,274.1875 L510.5781,272.7656 C510.5781,272.3281 510.5625,272.2031 510.4688,272.0469 C510.3125,271.7813 510.0313,271.6406 509.7344,271.6406 C509.4375,271.6406 509.2344,271.7344 509.0156,272.0469 L508.8438,271.9688 Z " fill="#000000"/><text fill="#000000" font-family="sans-serif" font-size="14" lengthAdjust="spacing" textLength="76" x="520.5" y="281.1436">Habitáculo</text><line style="stroke:#181818;stroke-width:0.5;" x1="492.5" x2="598.5" y1="292.2969" y2="292.2969"/><line style="stroke:#181818;stroke-width:0.5;" x1="492.5" x2="598.5" y1="300.2969" y2="300.2969"/></g><!--MD5=[05f1a7330b1ceb1ed664acf8e30033c9]
class Motor--><g id="elem_Motor"><rect codeLine="10" fill="#F1F1F1" height="48" id="Motor" rx="2.5" ry="2.5" style="stroke:#181818;stroke-width:0.5;" width="156" x="1017.5" y="260.2969"/><ellipse cx="1032.5" cy="276.2969" fill="#ADD1B2" rx="11" ry="11" style="stroke:#181818;stroke-width:1.0;"/><path d="M1034.8438,271.9688 C1033.9063,271.5313 1033.3125,271.3906 1032.4375,271.3906 C1029.8125,271.3906 1027.8125,273.4688 1027.8125,276.1875 L1027.8125,277.3125 C1027.8125,279.8906 1029.9219,281.7813 1032.8125,281.7813 C1034.0313,281.7813 1035.1875,281.4844 1035.9375,280.9375 C1036.5156,280.5313 1036.8438,280.0781 1036.8438,279.6875 C1036.8438,279.2344 1036.4531,278.8438 1035.9844,278.8438 C1035.7656,278.8438 1035.5625,278.9219 1035.375,279.1094 C1034.9219,279.5938 1034.9219,279.5938 1034.7344,279.6875 C1034.3125,279.9531 1033.625,280.0781 1032.8594,280.0781 C1030.8125,280.0781 1029.5156,278.9844 1029.5156,277.2813 L1029.5156,276.1875 C1029.5156,274.4063 1030.7656,273.0938 1032.5,273.0938 C1033.0781,273.0938 1033.6875,273.25 1034.1563,273.5 C1034.6406,273.7813 1034.8125,274 1034.9063,274.4063 C1034.9688,274.8125 1035,274.9375 1035.1406,275.0625 C1035.2813,275.2031 1035.5156,275.3125 1035.7344,275.3125 C1036,275.3125 1036.2656,275.1719 1036.4375,274.9531 C1036.5469,274.7969 1036.5781,274.6094 1036.5781,274.1875 L1036.5781,272.7656 C1036.5781,272.3281 1036.5625,272.2031 1036.4688,272.0469 C1036.3125,271.7813 1036.0313,271.6406 1035.7344,271.6406 C1035.4375,271.6406 1035.2344,271.7344 1035.0156,272.0469 L1034.8438,271.9688 Z " fill="#000000"/><text fill="#000000" font-family="sans-serif" font-size="14" lengthAdjust="spacing" textLength="124" x="1046.5" y="281.1436">Motor/Generador</text><line style="stroke:#181818;stroke-width:0.5;" x1="1018.5" x2="1172.5" y1="292.2969" y2="292.2969"/><line style="stroke:#181818;stroke-width:0.5;" x1="1018.5" x2="1172.5" y1="300.2969" y2="300.2969"/></g><!--MD5=[51c5a2e1dbe5e7b68df9aaf679704854]
class Bateria--><g id="elem_Bateria"><rect codeLine="11" fill="#F1F1F1" height="48" id="Bateria" rx="2.5" ry="2.5" style="stroke:#181818;stroke-width:0.5;" width="84" x="1175.5" y="400.7969"/><ellipse cx="1190.5" cy="416.7969" fill="#ADD1B2" rx="11" ry="11" style="stroke:#181818;stroke-width:1.0;"/><path d="M1192.8438,412.4688 C1191.9063,412.0313 1191.3125,411.8906 1190.4375,411.8906 C1187.8125,411.8906 1185.8125,413.9688 1185.8125,416.6875 L1185.8125,417.8125 C1185.8125,420.3906 1187.9219,422.2813 1190.8125,422.2813 C1192.0313,422.2813 1193.1875,421.9844 1193.9375,421.4375 C1194.5156,421.0313 1194.8438,420.5781 1194.8438,420.1875 C1194.8438,419.7344 1194.4531,419.3438 1193.9844,419.3438 C1193.7656,419.3438 1193.5625,419.4219 1193.375,419.6094 C1192.9219,420.0938 1192.9219,420.0938 1192.7344,420.1875 C1192.3125,420.4531 1191.625,420.5781 1190.8594,420.5781 C1188.8125,420.5781 1187.5156,419.4844 1187.5156,417.7813 L1187.5156,416.6875 C1187.5156,414.9063 1188.7656,413.5938 1190.5,413.5938 C1191.0781,413.5938 1191.6875,413.75 1192.1563,414 C1192.6406,414.2813 1192.8125,414.5 1192.9063,414.9063 C1192.9688,415.3125 1193,415.4375 1193.1406,415.5625 C1193.2813,415.7031 1193.5156,415.8125 1193.7344,415.8125 C1194,415.8125 1194.2656,415.6719 1194.4375,415.4531 C1194.5469,415.2969 1194.5781,415.1094 1194.5781,414.6875 L1194.5781,413.2656 C1194.5781,412.8281 1194.5625,412.7031 1194.4688,412.5469 C1194.3125,412.2813 1194.0313,412.1406 1193.7344,412.1406 C1193.4375,412.1406 1193.2344,412.2344 1193.0156,412.5469 L1192.8438,412.4688 Z " fill="#000000"/><text fill="#000000" font-family="sans-serif" font-size="14" lengthAdjust="spacing" textLength="52" x="1204.5" y="421.6436">Batería</text><line style="stroke:#181818;stroke-width:0.5;" x1="1176.5" x2="1258.5" y1="432.7969" y2="432.7969"/><line style="stroke:#181818;stroke-width:0.5;" x1="1176.5" x2="1258.5" y1="440.7969" y2="440.7969"/></g><!--MD5=[c719bf6ba6ed10b74306976ba42d6b0d]
class Cargador--><g id="elem_Cargador"><rect codeLine="12" fill="#F1F1F1" height="48" id="Cargador" rx="2.5" ry="2.5" style="stroke:#181818;stroke-width:0.5;" width="97" x="969" y="565.7969"/><ellipse cx="984" cy="581.7969" fill="#ADD1B2" rx="11" ry="11" style="stroke:#181818;stroke-width:1.0;"/><path d="M986.3438,577.4688 C985.4063,577.0313 984.8125,576.8906 983.9375,576.8906 C981.3125,576.8906 979.3125,578.9688 979.3125,581.6875 L979.3125,582.8125 C979.3125,585.3906 981.4219,587.2813 984.3125,587.2813 C985.5313,587.2813 986.6875,586.9844 987.4375,586.4375 C988.0156,586.0313 988.3438,585.5781 988.3438,585.1875 C988.3438,584.7344 987.9531,584.3438 987.4844,584.3438 C987.2656,584.3438 987.0625,584.4219 986.875,584.6094 C986.4219,585.0938 986.4219,585.0938 986.2344,585.1875 C985.8125,585.4531 985.125,585.5781 984.3594,585.5781 C982.3125,585.5781 981.0156,584.4844 981.0156,582.7813 L981.0156,581.6875 C981.0156,579.9063 982.2656,578.5938 984,578.5938 C984.5781,578.5938 985.1875,578.75 985.6563,579 C986.1406,579.2813 986.3125,579.5 986.4063,579.9063 C986.4688,580.3125 986.5,580.4375 986.6406,580.5625 C986.7813,580.7031 987.0156,580.8125 987.2344,580.8125 C987.5,580.8125 987.7656,580.6719 987.9375,580.4531 C988.0469,580.2969 988.0781,580.1094 988.0781,579.6875 L988.0781,578.2656 C988.0781,577.8281 988.0625,577.7031 987.9688,577.5469 C987.8125,577.2813 987.5313,577.1406 987.2344,577.1406 C986.9375,577.1406 986.7344,577.2344 986.5156,577.5469 L986.3438,577.4688 Z " fill="#000000"/><text fill="#000000" font-family="sans-serif" font-size="14" lengthAdjust="spacing" textLength="65" x="998" y="586.6436">Cargador</text><line style="stroke:#181818;stroke-width:0.5;" x1="970" x2="1065" y1="597.7969" y2="597.7969"/><line style="stroke:#181818;stroke-width:0.5;" x1="970" x2="1065" y1="605.7969" y2="605.7969"/></g><!--MD5=[dd041f5cc61dcf1421107bcfc79af5bb]
class Convertidor--><g id="elem_Convertidor"><rect codeLine="13" fill="#F1F1F1" height="48" id="Convertidor" rx="2.5" ry="2.5" style="stroke:#181818;stroke-width:0.5;" width="118" x="1101.5" y="565.7969"/><ellipse cx="1116.5" cy="581.7969" fill="#ADD1B2" rx="11" ry="11" style="stroke:#181818;stroke-width:1.0;"/><path d="M1118.8438,577.4688 C1117.9063,577.0313 1117.3125,576.8906 1116.4375,576.8906 C1113.8125,576.8906 1111.8125,578.9688 1111.8125,581.6875 L1111.8125,582.8125 C1111.8125,585.3906 1113.9219,587.2813 1116.8125,587.2813 C1118.0313,587.2813 1119.1875,586.9844 1119.9375,586.4375 C1120.5156,586.0313 1120.8438,585.5781 1120.8438,585.1875 C1120.8438,584.7344 1120.4531,584.3438 1119.9844,584.3438 C1119.7656,584.3438 1119.5625,584.4219 1119.375,584.6094 C1118.9219,585.0938 1118.9219,585.0938 1118.7344,585.1875 C1118.3125,585.4531 1117.625,585.5781 1116.8594,585.5781 C1114.8125,585.5781 1113.5156,584.4844 1113.5156,582.7813 L1113.5156,581.6875 C1113.5156,579.9063 1114.7656,578.5938 1116.5,578.5938 C1117.0781,578.5938 1117.6875,578.75 1118.1563,579 C1118.6406,579.2813 1118.8125,579.5 1118.9063,579.9063 C1118.9688,580.3125 1119,580.4375 1119.1406,580.5625 C1119.2813,580.7031 1119.5156,580.8125 1119.7344,580.8125 C1120,580.8125 1120.2656,580.6719 1120.4375,580.4531 C1120.5469,580.2969 1120.5781,580.1094 1120.5781,579.6875 L1120.5781,578.2656 C1120.5781,577.8281 1120.5625,577.7031 1120.4688,577.5469 C1120.3125,577.2813 1120.0313,577.1406 1119.7344,577.1406 C1119.4375,577.1406 1119.2344,577.2344 1119.0156,577.5469 L1118.8438,577.4688 Z " fill="#000000"/><text fill="#000000" font-family="sans-serif" font-size="14" lengthAdjust="spacing" textLength="86" x="1130.5" y="586.6436">Convertidor</text><line style="stroke:#181818;stroke-width:0.5;" x1="1102.5" x2="1218.5" y1="597.7969" y2="597.7969"/><line style="stroke:#181818;stroke-width:0.5;" x1="1102.5" x2="1218.5" y1="605.7969" y2="605.7969"/></g><!--MD5=[0e13ccb9bac4e2111e21dd43beb64a01]
class TomaCorriente--><g id="elem_TomaCorriente"><rect codeLine="14" fill="#F1F1F1" height="58.5938" id="TomaCorriente" rx="2.5" ry="2.5" style="stroke:#181818;stroke-width:0.5;" width="101" x="655" y="698.2969"/><ellipse cx="670" cy="719.5938" fill="#ADD1B2" rx="11" ry="11" style="stroke:#181818;stroke-width:1.0;"/><path d="M672.3438,715.2656 C671.4063,714.8281 670.8125,714.6875 669.9375,714.6875 C667.3125,714.6875 665.3125,716.7656 665.3125,719.4844 L665.3125,720.6094 C665.3125,723.1875 667.4219,725.0781 670.3125,725.0781 C671.5313,725.0781 672.6875,724.7813 673.4375,724.2344 C674.0156,723.8281 674.3438,723.375 674.3438,722.9844 C674.3438,722.5313 673.9531,722.1406 673.4844,722.1406 C673.2656,722.1406 673.0625,722.2188 672.875,722.4063 C672.4219,722.8906 672.4219,722.8906 672.2344,722.9844 C671.8125,723.25 671.125,723.375 670.3594,723.375 C668.3125,723.375 667.0156,722.2813 667.0156,720.5781 L667.0156,719.4844 C667.0156,717.7031 668.2656,716.3906 670,716.3906 C670.5781,716.3906 671.1875,716.5469 671.6563,716.7969 C672.1406,717.0781 672.3125,717.2969 672.4063,717.7031 C672.4688,718.1094 672.5,718.2344 672.6406,718.3594 C672.7813,718.5 673.0156,718.6094 673.2344,718.6094 C673.5,718.6094 673.7656,718.4688 673.9375,718.25 C674.0469,718.0938 674.0781,717.9063 674.0781,717.4844 L674.0781,716.0625 C674.0781,715.625 674.0625,715.5 673.9688,715.3438 C673.8125,715.0781 673.5313,714.9375 673.2344,714.9375 C672.9375,714.9375 672.7344,715.0313 672.5156,715.3438 L672.3438,715.2656 Z " fill="#000000"/><text fill="#000000" font-family="sans-serif" font-size="14" lengthAdjust="spacing" textLength="40" x="698.5" y="716.292">Toma</text><text fill="#000000" font-family="sans-serif" font-size="14" lengthAdjust="spacing" textLength="69" x="684" y="732.5889">Corriente</text><line style="stroke:#181818;stroke-width:0.5;" x1="656" x2="755" y1="740.8906" y2="740.8906"/><line style="stroke:#181818;stroke-width:0.5;" x1="656" x2="755" y1="748.8906" y2="748.8906"/></g><!--MD5=[34dd8375345707c7fbc56809bab3b9e5]
class Transmision--><g id="elem_Transmision"><rect codeLine="15" fill="#F1F1F1" height="48" id="Transmision" rx="2.5" ry="2.5" style="stroke:#181818;stroke-width:0.5;" width="118" x="1294.5" y="400.7969"/><ellipse cx="1309.5" cy="416.7969" fill="#ADD1B2" rx="11" ry="11" style="stroke:#181818;stroke-width:1.0;"/><path d="M1311.8438,412.4688 C1310.9063,412.0313 1310.3125,411.8906 1309.4375,411.8906 C1306.8125,411.8906 1304.8125,413.9688 1304.8125,416.6875 L1304.8125,417.8125 C1304.8125,420.3906 1306.9219,422.2813 1309.8125,422.2813 C1311.0313,422.2813 1312.1875,421.9844 1312.9375,421.4375 C1313.5156,421.0313 1313.8438,420.5781 1313.8438,420.1875 C1313.8438,419.7344 1313.4531,419.3438 1312.9844,419.3438 C1312.7656,419.3438 1312.5625,419.4219 1312.375,419.6094 C1311.9219,420.0938 1311.9219,420.0938 1311.7344,420.1875 C1311.3125,420.4531 1310.625,420.5781 1309.8594,420.5781 C1307.8125,420.5781 1306.5156,419.4844 1306.5156,417.7813 L1306.5156,416.6875 C1306.5156,414.9063 1307.7656,413.5938 1309.5,413.5938 C1310.0781,413.5938 1310.6875,413.75 1311.1563,414 C1311.6406,414.2813 1311.8125,414.5 1311.9063,414.9063 C1311.9688,415.3125 1312,415.4375 1312.1406,415.5625 C1312.2813,415.7031 1312.5156,415.8125 1312.7344,415.8125 C1313,415.8125 1313.2656,415.6719 1313.4375,415.4531 C1313.5469,415.2969 1313.5781,415.1094 1313.5781,414.6875 L1313.5781,413.2656 C1313.5781,412.8281 1313.5625,412.7031 1313.4688,412.5469 C1313.3125,412.2813 1313.0313,412.1406 1312.7344,412.1406 C1312.4375,412.1406 1312.2344,412.2344 1312.0156,412.5469 L1311.8438,412.4688 Z " fill="#000000"/><text fill="#000000" font-family="sans-serif" font-size="14" lengthAdjust="spacing" textLength="86" x="1323.5" y="421.6436">Transmisión</text><line style="stroke:#181818;stroke-width:0.5;" x1="1295.5" x2="1411.5" y1="432.7969" y2="432.7969"/><line style="stroke:#181818;stroke-width:0.5;" x1="1295.5" x2="1411.5" y1="440.7969" y2="440.7969"/></g><!--MD5=[ffaa80e18884aa20881ee9a47c24941a]
class Rueda--><g id="elem_Rueda"><rect codeLine="16" fill="#F1F1F1" height="48" id="Rueda" rx="2.5" ry="2.5" style="stroke:#181818;stroke-width:0.5;" width="76" x="1254.5" y="565.7969"/><ellipse cx="1269.5" cy="581.7969" fill="#ADD1B2" rx="11" ry="11" style="stroke:#181818;stroke-width:1.0;"/><path d="M1271.8438,577.4688 C1270.9063,577.0313 1270.3125,576.8906 1269.4375,576.8906 C1266.8125,576.8906 1264.8125,578.9688 1264.8125,581.6875 L1264.8125,582.8125 C1264.8125,585.3906 1266.9219,587.2813 1269.8125,587.2813 C1271.0313,587.2813 1272.1875,586.9844 1272.9375,586.4375 C1273.5156,586.0313 1273.8438,585.5781 1273.8438,585.1875 C1273.8438,584.7344 1273.4531,584.3438 1272.9844,584.3438 C1272.7656,584.3438 1272.5625,584.4219 1272.375,584.6094 C1271.9219,585.0938 1271.9219,585.0938 1271.7344,585.1875 C1271.3125,585.4531 1270.625,585.5781 1269.8594,585.5781 C1267.8125,585.5781 1266.5156,584.4844 1266.5156,582.7813 L1266.5156,581.6875 C1266.5156,579.9063 1267.7656,578.5938 1269.5,578.5938 C1270.0781,578.5938 1270.6875,578.75 1271.1563,579 C1271.6406,579.2813 1271.8125,579.5 1271.9063,579.9063 C1271.9688,580.3125 1272,580.4375 1272.1406,580.5625 C1272.2813,580.7031 1272.5156,580.8125 1272.7344,580.8125 C1273,580.8125 1273.2656,580.6719 1273.4375,580.4531 C1273.5469,580.2969 1273.5781,580.1094 1273.5781,579.6875 L1273.5781,578.2656 C1273.5781,577.8281 1273.5625,577.7031 1273.4688,577.5469 C1273.3125,577.2813 1273.0313,577.1406 1272.7344,577.1406 C1272.4375,577.1406 1272.2344,577.2344 1272.0156,577.5469 L1271.8438,577.4688 Z " fill="#000000"/><text fill="#000000" font-family="sans-serif" font-size="14" lengthAdjust="spacing" textLength="44" x="1283.5" y="586.6436">Rueda</text><line style="stroke:#181818;stroke-width:0.5;" x1="1255.5" x2="1329.5" y1="597.7969" y2="597.7969"/><line style="stroke:#181818;stroke-width:0.5;" x1="1255.5" x2="1329.5" y1="605.7969" y2="605.7969"/></g><!--MD5=[906008963582fe226618611f04972db8]
class Cubierta--><g id="elem_Cubierta"><rect codeLine="17" fill="#F1F1F1" height="48" id="Cubierta" rx="2.5" ry="2.5" style="stroke:#181818;stroke-width:0.5;" width="94" x="1219.5" y="703.7969"/><ellipse cx="1234.5" cy="719.7969" fill="#ADD1B2" rx="11" ry="11" style="stroke:#181818;stroke-width:1.0;"/><path d="M1236.8438,715.4688 C1235.9063,715.0313 1235.3125,714.8906 1234.4375,714.8906 C1231.8125,714.8906 1229.8125,716.9688 1229.8125,719.6875 L1229.8125,720.8125 C1229.8125,723.3906 1231.9219,725.2813 1234.8125,725.2813 C1236.0313,725.2813 1237.1875,724.9844 1237.9375,724.4375 C1238.5156,724.0313 1238.8438,723.5781 1238.8438,723.1875 C1238.8438,722.7344 1238.4531,722.3438 1237.9844,722.3438 C1237.7656,722.3438 1237.5625,722.4219 1237.375,722.6094 C1236.9219,723.0938 1236.9219,723.0938 1236.7344,723.1875 C1236.3125,723.4531 1235.625,723.5781 1234.8594,723.5781 C1232.8125,723.5781 1231.5156,722.4844 1231.5156,720.7813 L1231.5156,719.6875 C1231.5156,717.9063 1232.7656,716.5938 1234.5,716.5938 C1235.0781,716.5938 1235.6875,716.75 1236.1563,717 C1236.6406,717.2813 1236.8125,717.5 1236.9063,717.9063 C1236.9688,718.3125 1237,718.4375 1237.1406,718.5625 C1237.2813,718.7031 1237.5156,718.8125 1237.7344,718.8125 C1238,718.8125 1238.2656,718.6719 1238.4375,718.4531 C1238.5469,718.2969 1238.5781,718.1094 1238.5781,717.6875 L1238.5781,716.2656 C1238.5781,715.8281 1238.5625,715.7031 1238.4688,715.5469 C1238.3125,715.2813 1238.0313,715.1406 1237.7344,715.1406 C1237.4375,715.1406 1237.2344,715.2344 1237.0156,715.5469 L1236.8438,715.4688 Z " fill="#000000"/><text fill="#000000" font-family="sans-serif" font-size="14" lengthAdjust="spacing" textLength="62" x="1248.5" y="724.6436">Cubierta</text><line style="stroke:#181818;stroke-width:0.5;" x1="1220.5" x2="1312.5" y1="735.7969" y2="735.7969"/><line style="stroke:#181818;stroke-width:0.5;" x1="1220.5" x2="1312.5" y1="743.7969" y2="743.7969"/></g><!--MD5=[d4abe8b258873e620b89e37ae14baf24]
class Llanta--><g id="elem_Llanta"><rect codeLine="18" fill="#F1F1F1" height="48" id="Llanta" rx="2.5" ry="2.5" style="stroke:#181818;stroke-width:0.5;" width="76" x="1348.5" y="703.7969"/><ellipse cx="1363.5" cy="719.7969" fill="#ADD1B2" rx="11" ry="11" style="stroke:#181818;stroke-width:1.0;"/><path d="M1365.8438,715.4688 C1364.9063,715.0313 1364.3125,714.8906 1363.4375,714.8906 C1360.8125,714.8906 1358.8125,716.9688 1358.8125,719.6875 L1358.8125,720.8125 C1358.8125,723.3906 1360.9219,725.2813 1363.8125,725.2813 C1365.0313,725.2813 1366.1875,724.9844 1366.9375,724.4375 C1367.5156,724.0313 1367.8438,723.5781 1367.8438,723.1875 C1367.8438,722.7344 1367.4531,722.3438 1366.9844,722.3438 C1366.7656,722.3438 1366.5625,722.4219 1366.375,722.6094 C1365.9219,723.0938 1365.9219,723.0938 1365.7344,723.1875 C1365.3125,723.4531 1364.625,723.5781 1363.8594,723.5781 C1361.8125,723.5781 1360.5156,722.4844 1360.5156,720.7813 L1360.5156,719.6875 C1360.5156,717.9063 1361.7656,716.5938 1363.5,716.5938 C1364.0781,716.5938 1364.6875,716.75 1365.1563,717 C1365.6406,717.2813 1365.8125,717.5 1365.9063,717.9063 C1365.9688,718.3125 1366,718.4375 1366.1406,718.5625 C1366.2813,718.7031 1366.5156,718.8125 1366.7344,718.8125 C1367,718.8125 1367.2656,718.6719 1367.4375,718.4531 C1367.5469,718.2969 1367.5781,718.1094 1367.5781,717.6875 L1367.5781,716.2656 C1367.5781,715.8281 1367.5625,715.7031 1367.4688,715.5469 C1367.3125,715.2813 1367.0313,715.1406 1366.7344,715.1406 C1366.4375,715.1406 1366.2344,715.2344 1366.0156,715.5469 L1365.8438,715.4688 Z " fill="#000000"/><text fill="#000000" font-family="sans-serif" font-size="14" lengthAdjust="spacing" textLength="44" x="1377.5" y="724.6436">Llanta</text><line style="stroke:#181818;stroke-width:0.5;" x1="1349.5" x2="1423.5" y1="735.7969" y2="735.7969"/><line style="stroke:#181818;stroke-width:0.5;" x1="1349.5" x2="1423.5" y1="743.7969" y2="743.7969"/></g><!--MD5=[301ed79e965366d9d981e7277a4b4932]
class Amortiguacion--><g id="elem_Amortiguacion"><rect codeLine="19" fill="#F1F1F1" height="48" id="Amortiguacion" rx="2.5" ry="2.5" style="stroke:#181818;stroke-width:0.5;" width="137" x="1460" y="703.7969"/><ellipse cx="1475" cy="719.7969" fill="#ADD1B2" rx="11" ry="11" style="stroke:#181818;stroke-width:1.0;"/><path d="M1477.3438,715.4688 C1476.4063,715.0313 1475.8125,714.8906 1474.9375,714.8906 C1472.3125,714.8906 1470.3125,716.9688 1470.3125,719.6875 L1470.3125,720.8125 C1470.3125,723.3906 1472.4219,725.2813 1475.3125,725.2813 C1476.5313,725.2813 1477.6875,724.9844 1478.4375,724.4375 C1479.0156,724.0313 1479.3438,723.5781 1479.3438,723.1875 C1479.3438,722.7344 1478.9531,722.3438 1478.4844,722.3438 C1478.2656,722.3438 1478.0625,722.4219 1477.875,722.6094 C1477.4219,723.0938 1477.4219,723.0938 1477.2344,723.1875 C1476.8125,723.4531 1476.125,723.5781 1475.3594,723.5781 C1473.3125,723.5781 1472.0156,722.4844 1472.0156,720.7813 L1472.0156,719.6875 C1472.0156,717.9063 1473.2656,716.5938 1475,716.5938 C1475.5781,716.5938 1476.1875,716.75 1476.6563,717 C1477.1406,717.2813 1477.3125,717.5 1477.4063,717.9063 C1477.4688,718.3125 1477.5,718.4375 1477.6406,718.5625 C1477.7813,718.7031 1478.0156,718.8125 1478.2344,718.8125 C1478.5,718.8125 1478.7656,718.6719 1478.9375,718.4531 C1479.0469,718.2969 1479.0781,718.1094 1479.0781,717.6875 L1479.0781,716.2656 C1479.0781,715.8281 1479.0625,715.7031 1478.9688,715.5469 C1478.8125,715.2813 1478.5313,715.1406 1478.2344,715.1406 C1477.9375,715.1406 1477.7344,715.2344 1477.5156,715.5469 L1477.3438,715.4688 Z " fill="#000000"/><text fill="#000000" font-family="sans-serif" font-size="14" lengthAdjust="spacing" textLength="105" x="1489" y="724.6436">Amortiguación</text><line style="stroke:#181818;stroke-width:0.5;" x1="1461" x2="1596" y1="735.7969" y2="735.7969"/><line style="stroke:#181818;stroke-width:0.5;" x1="1461" x2="1596" y1="743.7969" y2="743.7969"/></g><!--MD5=[283f563fa49da2953d79951e8a1fbf8e]
class Cambio--><g id="elem_Cambio"><rect codeLine="20" fill="#F1F1F1" height="96.8906" id="Cambio" rx="2.5" ry="2.5" style="stroke:#181818;stroke-width:0.5;" width="109" x="1366" y="541.2969"/><ellipse cx="1390.9" cy="557.2969" fill="#EB937F" rx="11" ry="11" style="stroke:#181818;stroke-width:1.0;"/><path d="M1389.6969,558.1719 L1391.15,558.1719 L1391.15,558.2813 C1391.15,558.6875 1391.1813,558.8438 1391.2594,559 C1391.4156,559.25 1391.6969,559.4063 1391.9938,559.4063 C1392.2438,559.4063 1392.5094,559.2656 1392.6656,559.0469 C1392.7906,558.8906 1392.8219,558.7344 1392.8219,558.2813 L1392.8219,556.3594 C1392.8219,556.2031 1392.8219,556.1563 1392.8063,556 C1392.7438,555.5313 1392.4313,555.2188 1391.9781,555.2188 C1391.7281,555.2188 1391.4625,555.3594 1391.2906,555.5781 C1391.1813,555.75 1391.15,555.9063 1391.15,556.3594 L1391.15,556.4844 L1389.6969,556.4844 L1389.6969,554.0781 L1393.6813,554.0781 L1393.6813,554.9375 C1393.6813,555.3438 1393.7125,555.5156 1393.7906,555.6719 C1393.9625,555.9219 1394.2438,556.0781 1394.525,556.0781 C1394.7906,556.0781 1395.0563,555.9375 1395.2281,555.7188 C1395.3375,555.5469 1395.3688,555.4063 1395.3688,554.9375 L1395.3688,552.3906 L1387.7438,552.3906 C1387.3063,552.3906 1387.1813,552.4063 1387.025,552.5 C1386.775,552.6563 1386.6188,552.9531 1386.6188,553.2344 C1386.6188,553.5156 1386.7594,553.7656 1386.9781,553.9375 C1387.1344,554.0469 1387.3219,554.0781 1387.7438,554.0781 L1387.9938,554.0781 L1387.9938,560.5938 L1387.7438,560.5938 C1387.3375,560.5938 1387.1813,560.6094 1387.025,560.7188 C1386.775,560.8906 1386.6188,561.1563 1386.6188,561.4531 C1386.6188,561.7188 1386.7594,561.9688 1386.9781,562.125 C1387.1188,562.25 1387.3531,562.2969 1387.7438,562.2969 L1395.7438,562.2969 L1395.7438,559.7188 C1395.7438,559.2813 1395.7125,559.1406 1395.6344,558.9844 C1395.4625,558.7344 1395.1813,558.5781 1394.9,558.5781 C1394.6344,558.5781 1394.3688,558.6875 1394.1969,558.9375 C1394.0875,559.0938 1394.0563,559.2344 1394.0563,559.7188 L1394.0563,560.5938 L1389.6969,560.5938 L1389.6969,558.1719 Z " fill="#000000"/><text fill="#000000" font-family="sans-serif" font-size="14" lengthAdjust="spacing" textLength="55" x="1407.1" y="562.1436">Cambio</text><line style="stroke:#181818;stroke-width:0.5;" x1="1367" x2="1474" y1="573.2969" y2="573.2969"/><text fill="#000000" font-family="sans-serif" font-size="14" lengthAdjust="spacing" textLength="53" x="1372" y="590.292">Directa</text><text fill="#000000" font-family="sans-serif" font-size="14" lengthAdjust="spacing" textLength="74" x="1372" y="606.5889">Retroceso</text><text fill="#000000" font-family="sans-serif" font-size="14" lengthAdjust="spacing" textLength="97" x="1372" y="622.8857">Punto Muerto</text><line style="stroke:#181818;stroke-width:0.5;" x1="1367" x2="1474" y1="630.1875" y2="630.1875"/></g><!--MD5=[c68a4d4ab8967530748d0a41d206ebbd]
class Direccion--><g id="elem_Direccion"><rect codeLine="25" fill="#F1F1F1" height="48" id="Direccion" rx="2.5" ry="2.5" style="stroke:#181818;stroke-width:0.5;" width="100" x="1581.5" y="260.2969"/><ellipse cx="1596.5" cy="276.2969" fill="#ADD1B2" rx="11" ry="11" style="stroke:#181818;stroke-width:1.0;"/><path d="M1598.8438,271.9688 C1597.9063,271.5313 1597.3125,271.3906 1596.4375,271.3906 C1593.8125,271.3906 1591.8125,273.4688 1591.8125,276.1875 L1591.8125,277.3125 C1591.8125,279.8906 1593.9219,281.7813 1596.8125,281.7813 C1598.0313,281.7813 1599.1875,281.4844 1599.9375,280.9375 C1600.5156,280.5313 1600.8438,280.0781 1600.8438,279.6875 C1600.8438,279.2344 1600.4531,278.8438 1599.9844,278.8438 C1599.7656,278.8438 1599.5625,278.9219 1599.375,279.1094 C1598.9219,279.5938 1598.9219,279.5938 1598.7344,279.6875 C1598.3125,279.9531 1597.625,280.0781 1596.8594,280.0781 C1594.8125,280.0781 1593.5156,278.9844 1593.5156,277.2813 L1593.5156,276.1875 C1593.5156,274.4063 1594.7656,273.0938 1596.5,273.0938 C1597.0781,273.0938 1597.6875,273.25 1598.1563,273.5 C1598.6406,273.7813 1598.8125,274 1598.9063,274.4063 C1598.9688,274.8125 1599,274.9375 1599.1406,275.0625 C1599.2813,275.2031 1599.5156,275.3125 1599.7344,275.3125 C1600,275.3125 1600.2656,275.1719 1600.4375,274.9531 C1600.5469,274.7969 1600.5781,274.6094 1600.5781,274.1875 L1600.5781,272.7656 C1600.5781,272.3281 1600.5625,272.2031 1600.4688,272.0469 C1600.3125,271.7813 1600.0313,271.6406 1599.7344,271.6406 C1599.4375,271.6406 1599.2344,271.7344 1599.0156,272.0469 L1598.8438,271.9688 Z " fill="#000000"/><text fill="#000000" font-family="sans-serif" font-size="14" lengthAdjust="spacing" textLength="68" x="1610.5" y="281.1436">Dirección</text><line style="stroke:#181818;stroke-width:0.5;" x1="1582.5" x2="1680.5" y1="292.2969" y2="292.2969"/><line style="stroke:#181818;stroke-width:0.5;" x1="1582.5" x2="1680.5" y1="300.2969" y2="300.2969"/></g><!--MD5=[31295f6638ed47d5077320855707655f]
class Pedal--><g id="elem_Pedal"><rect codeLine="26" fill="#F1F1F1" height="48" id="Pedal" rx="2.5" ry="2.5" style="stroke:#181818;stroke-width:0.5;" width="71" x="527" y="400.7969"/><ellipse cx="542" cy="416.7969" fill="#ADD1B2" rx="11" ry="11" style="stroke:#181818;stroke-width:1.0;"/><path d="M544.3438,412.4688 C543.4063,412.0313 542.8125,411.8906 541.9375,411.8906 C539.3125,411.8906 537.3125,413.9688 537.3125,416.6875 L537.3125,417.8125 C537.3125,420.3906 539.4219,422.2813 542.3125,422.2813 C543.5313,422.2813 544.6875,421.9844 545.4375,421.4375 C546.0156,421.0313 546.3438,420.5781 546.3438,420.1875 C546.3438,419.7344 545.9531,419.3438 545.4844,419.3438 C545.2656,419.3438 545.0625,419.4219 544.875,419.6094 C544.4219,420.0938 544.4219,420.0938 544.2344,420.1875 C543.8125,420.4531 543.125,420.5781 542.3594,420.5781 C540.3125,420.5781 539.0156,419.4844 539.0156,417.7813 L539.0156,416.6875 C539.0156,414.9063 540.2656,413.5938 542,413.5938 C542.5781,413.5938 543.1875,413.75 543.6563,414 C544.1406,414.2813 544.3125,414.5 544.4063,414.9063 C544.4688,415.3125 544.5,415.4375 544.6406,415.5625 C544.7813,415.7031 545.0156,415.8125 545.2344,415.8125 C545.5,415.8125 545.7656,415.6719 545.9375,415.4531 C546.0469,415.2969 546.0781,415.1094 546.0781,414.6875 L546.0781,413.2656 C546.0781,412.8281 546.0625,412.7031 545.9688,412.5469 C545.8125,412.2813 545.5313,412.1406 545.2344,412.1406 C544.9375,412.1406 544.7344,412.2344 544.5156,412.5469 L544.3438,412.4688 Z " fill="#000000"/><text fill="#000000" font-family="sans-serif" font-size="14" lengthAdjust="spacing" textLength="39" x="556" y="421.6436">Pedal</text><line style="stroke:#181818;stroke-width:0.5;" x1="528" x2="597" y1="432.7969" y2="432.7969"/><line style="stroke:#181818;stroke-width:0.5;" x1="528" x2="597" y1="440.7969" y2="440.7969"/></g><!--MD5=[6fed32094666d10bc118aa41676555f0]
class Freno--><g id="elem_Freno"><rect codeLine="27" fill="#F1F1F1" height="48" id="Freno" rx="2.5" ry="2.5" style="stroke:#181818;stroke-width:0.5;" width="73" x="526" y="565.7969"/><ellipse cx="541" cy="581.7969" fill="#ADD1B2" rx="11" ry="11" style="stroke:#181818;stroke-width:1.0;"/><path d="M543.3438,577.4688 C542.4063,577.0313 541.8125,576.8906 540.9375,576.8906 C538.3125,576.8906 536.3125,578.9688 536.3125,581.6875 L536.3125,582.8125 C536.3125,585.3906 538.4219,587.2813 541.3125,587.2813 C542.5313,587.2813 543.6875,586.9844 544.4375,586.4375 C545.0156,586.0313 545.3438,585.5781 545.3438,585.1875 C545.3438,584.7344 544.9531,584.3438 544.4844,584.3438 C544.2656,584.3438 544.0625,584.4219 543.875,584.6094 C543.4219,585.0938 543.4219,585.0938 543.2344,585.1875 C542.8125,585.4531 542.125,585.5781 541.3594,585.5781 C539.3125,585.5781 538.0156,584.4844 538.0156,582.7813 L538.0156,581.6875 C538.0156,579.9063 539.2656,578.5938 541,578.5938 C541.5781,578.5938 542.1875,578.75 542.6563,579 C543.1406,579.2813 543.3125,579.5 543.4063,579.9063 C543.4688,580.3125 543.5,580.4375 543.6406,580.5625 C543.7813,580.7031 544.0156,580.8125 544.2344,580.8125 C544.5,580.8125 544.7656,580.6719 544.9375,580.4531 C545.0469,580.2969 545.0781,580.1094 545.0781,579.6875 L545.0781,578.2656 C545.0781,577.8281 545.0625,577.7031 544.9688,577.5469 C544.8125,577.2813 544.5313,577.1406 544.2344,577.1406 C543.9375,577.1406 543.7344,577.2344 543.5156,577.5469 L543.3438,577.4688 Z " fill="#000000"/><text fill="#000000" font-family="sans-serif" font-size="14" lengthAdjust="spacing" textLength="41" x="555" y="586.6436">Freno</text><line style="stroke:#181818;stroke-width:0.5;" x1="527" x2="598" y1="597.7969" y2="597.7969"/><line style="stroke:#181818;stroke-width:0.5;" x1="527" x2="598" y1="605.7969" y2="605.7969"/></g><!--MD5=[0711a745993d7ce01f5a6c4c4ae3da8a]
class Acelerador--><g id="elem_Acelerador"><rect codeLine="28" fill="#F1F1F1" height="48" id="Acelerador" rx="2.5" ry="2.5" style="stroke:#181818;stroke-width:0.5;" width="110" x="823.5" y="565.7969"/><ellipse cx="838.5" cy="581.7969" fill="#ADD1B2" rx="11" ry="11" style="stroke:#181818;stroke-width:1.0;"/><path d="M840.8438,577.4688 C839.9063,577.0313 839.3125,576.8906 838.4375,576.8906 C835.8125,576.8906 833.8125,578.9688 833.8125,581.6875 L833.8125,582.8125 C833.8125,585.3906 835.9219,587.2813 838.8125,587.2813 C840.0313,587.2813 841.1875,586.9844 841.9375,586.4375 C842.5156,586.0313 842.8438,585.5781 842.8438,585.1875 C842.8438,584.7344 842.4531,584.3438 841.9844,584.3438 C841.7656,584.3438 841.5625,584.4219 841.375,584.6094 C840.9219,585.0938 840.9219,585.0938 840.7344,585.1875 C840.3125,585.4531 839.625,585.5781 838.8594,585.5781 C836.8125,585.5781 835.5156,584.4844 835.5156,582.7813 L835.5156,581.6875 C835.5156,579.9063 836.7656,578.5938 838.5,578.5938 C839.0781,578.5938 839.6875,578.75 840.1563,579 C840.6406,579.2813 840.8125,579.5 840.9063,579.9063 C840.9688,580.3125 841,580.4375 841.1406,580.5625 C841.2813,580.7031 841.5156,580.8125 841.7344,580.8125 C842,580.8125 842.2656,580.6719 842.4375,580.4531 C842.5469,580.2969 842.5781,580.1094 842.5781,579.6875 L842.5781,578.2656 C842.5781,577.8281 842.5625,577.7031 842.4688,577.5469 C842.3125,577.2813 842.0313,577.1406 841.7344,577.1406 C841.4375,577.1406 841.2344,577.2344 841.0156,577.5469 L840.8438,577.4688 Z " fill="#000000"/><text fill="#000000" font-family="sans-serif" font-size="14" lengthAdjust="spacing" textLength="78" x="852.5" y="586.6436">Acelerador</text><line style="stroke:#181818;stroke-width:0.5;" x1="824.5" x2="932.5" y1="597.7969" y2="597.7969"/><line style="stroke:#181818;stroke-width:0.5;" x1="824.5" x2="932.5" y1="605.7969" y2="605.7969"/></g><!--MD5=[a7189f8489820b635b336f5d305d7cec]
class Volante--><g id="elem_Volante"><rect codeLine="29" fill="#F1F1F1" height="48" id="Volante" rx="2.5" ry="2.5" style="stroke:#181818;stroke-width:0.5;" width="88" x="1587.5" y="400.7969"/><ellipse cx="1602.5" cy="416.7969" fill="#ADD1B2" rx="11" ry="11" style="stroke:#181818;stroke-width:1.0;"/><path d="M1604.8438,412.4688 C1603.9063,412.0313 1603.3125,411.8906 1602.4375,411.8906 C1599.8125,411.8906 1597.8125,413.9688 1597.8125,416.6875 L1597.8125,417.8125 C1597.8125,420.3906 1599.9219,422.2813 1602.8125,422.2813 C1604.0313,422.2813 1605.1875,421.9844 1605.9375,421.4375 C1606.5156,421.0313 1606.8438,420.5781 1606.8438,420.1875 C1606.8438,419.7344 1606.4531,419.3438 1605.9844,419.3438 C1605.7656,419.3438 1605.5625,419.4219 1605.375,419.6094 C1604.9219,420.0938 1604.9219,420.0938 1604.7344,420.1875 C1604.3125,420.4531 1603.625,420.5781 1602.8594,420.5781 C1600.8125,420.5781 1599.5156,419.4844 1599.5156,417.7813 L1599.5156,416.6875 C1599.5156,414.9063 1600.7656,413.5938 1602.5,413.5938 C1603.0781,413.5938 1603.6875,413.75 1604.1563,414 C1604.6406,414.2813 1604.8125,414.5 1604.9063,414.9063 C1604.9688,415.3125 1605,415.4375 1605.1406,415.5625 C1605.2813,415.7031 1605.5156,415.8125 1605.7344,415.8125 C1606,415.8125 1606.2656,415.6719 1606.4375,415.4531 C1606.5469,415.2969 1606.5781,415.1094 1606.5781,414.6875 L1606.5781,413.2656 C1606.5781,412.8281 1606.5625,412.7031 1606.4688,412.5469 C1606.3125,412.2813 1606.0313,412.1406 1605.7344,412.1406 C1605.4375,412.1406 1605.2344,412.2344 1605.0156,412.5469 L1604.8438,412.4688 Z " fill="#000000"/><text fill="#000000" font-family="sans-serif" font-size="14" lengthAdjust="spacing" textLength="56" x="1616.5" y="421.6436">Volante</text><line style="stroke:#181818;stroke-width:0.5;" x1="1588.5" x2="1674.5" y1="432.7969" y2="432.7969"/><line style="stroke:#181818;stroke-width:0.5;" x1="1588.5" x2="1674.5" y1="440.7969" y2="440.7969"/></g><!--MD5=[3d8f69f2b0fb20a804d6ba6ae905abfe]
class Pieza--><g id="elem_Pieza"><rect codeLine="30" fill="#F1F1F1" height="113.1875" id="Pieza" rx="2.5" ry="2.5" style="stroke:#181818;stroke-width:0.5;" width="70" x="1070.5" y="368.2969"/><ellipse cx="1085.5" cy="384.2969" fill="#EB937F" rx="11" ry="11" style="stroke:#181818;stroke-width:1.0;"/><path d="M1084.2969,385.1719 L1085.75,385.1719 L1085.75,385.2813 C1085.75,385.6875 1085.7813,385.8438 1085.8594,386 C1086.0156,386.25 1086.2969,386.4063 1086.5938,386.4063 C1086.8438,386.4063 1087.1094,386.2656 1087.2656,386.0469 C1087.3906,385.8906 1087.4219,385.7344 1087.4219,385.2813 L1087.4219,383.3594 C1087.4219,383.2031 1087.4219,383.1563 1087.4063,383 C1087.3438,382.5313 1087.0313,382.2188 1086.5781,382.2188 C1086.3281,382.2188 1086.0625,382.3594 1085.8906,382.5781 C1085.7813,382.75 1085.75,382.9063 1085.75,383.3594 L1085.75,383.4844 L1084.2969,383.4844 L1084.2969,381.0781 L1088.2813,381.0781 L1088.2813,381.9375 C1088.2813,382.3438 1088.3125,382.5156 1088.3906,382.6719 C1088.5625,382.9219 1088.8438,383.0781 1089.125,383.0781 C1089.3906,383.0781 1089.6563,382.9375 1089.8281,382.7188 C1089.9375,382.5469 1089.9688,382.4063 1089.9688,381.9375 L1089.9688,379.3906 L1082.3438,379.3906 C1081.9063,379.3906 1081.7813,379.4063 1081.625,379.5 C1081.375,379.6563 1081.2188,379.9531 1081.2188,380.2344 C1081.2188,380.5156 1081.3594,380.7656 1081.5781,380.9375 C1081.7344,381.0469 1081.9219,381.0781 1082.3438,381.0781 L1082.5938,381.0781 L1082.5938,387.5938 L1082.3438,387.5938 C1081.9375,387.5938 1081.7813,387.6094 1081.625,387.7188 C1081.375,387.8906 1081.2188,388.1563 1081.2188,388.4531 C1081.2188,388.7188 1081.3594,388.9688 1081.5781,389.125 C1081.7188,389.25 1081.9531,389.2969 1082.3438,389.2969 L1090.3438,389.2969 L1090.3438,386.7188 C1090.3438,386.2813 1090.3125,386.1406 1090.2344,385.9844 C1090.0625,385.7344 1089.7813,385.5781 1089.5,385.5781 C1089.2344,385.5781 1088.9688,385.6875 1088.7969,385.9375 C1088.6875,386.0938 1088.6563,386.2344 1088.6563,386.7188 L1088.6563,387.5938 L1084.2969,387.5938 L1084.2969,385.1719 Z " fill="#000000"/><text fill="#000000" font-family="sans-serif" font-size="14" lengthAdjust="spacing" textLength="38" x="1099.5" y="389.1436">Pieza</text><line style="stroke:#181818;stroke-width:0.5;" x1="1071.5" x2="1139.5" y1="400.2969" y2="400.2969"/><text fill="#000000" font-family="sans-serif" font-size="14" lengthAdjust="spacing" textLength="41" x="1076.5" y="417.292">Rotor</text><text fill="#000000" font-family="sans-serif" font-size="14" lengthAdjust="spacing" textLength="53" x="1076.5" y="433.5889">Estator</text><text fill="#000000" font-family="sans-serif" font-size="14" lengthAdjust="spacing" textLength="39" x="1076.5" y="449.8857">Polea</text><text fill="#000000" font-family="sans-serif" font-size="14" lengthAdjust="spacing" textLength="55" x="1076.5" y="466.1826">Carcasa</text><line style="stroke:#181818;stroke-width:0.5;" x1="1071.5" x2="1139.5" y1="473.4844" y2="473.4844"/></g><!--MD5=[ccf0612cc300e37bd0de08f77b299594]
class Consola--><g id="elem_Consola"><rect codeLine="36" fill="#F1F1F1" height="48" id="Consola" rx="2.5" ry="2.5" style="stroke:#181818;stroke-width:0.5;" width="88" x="1096.5" y="703.7969"/><ellipse cx="1111.5" cy="719.7969" fill="#ADD1B2" rx="11" ry="11" style="stroke:#181818;stroke-width:1.0;"/><path d="M1113.8438,715.4688 C1112.9063,715.0313 1112.3125,714.8906 1111.4375,714.8906 C1108.8125,714.8906 1106.8125,716.9688 1106.8125,719.6875 L1106.8125,720.8125 C1106.8125,723.3906 1108.9219,725.2813 1111.8125,725.2813 C1113.0313,725.2813 1114.1875,724.9844 1114.9375,724.4375 C1115.5156,724.0313 1115.8438,723.5781 1115.8438,723.1875 C1115.8438,722.7344 1115.4531,722.3438 1114.9844,722.3438 C1114.7656,722.3438 1114.5625,722.4219 1114.375,722.6094 C1113.9219,723.0938 1113.9219,723.0938 1113.7344,723.1875 C1113.3125,723.4531 1112.625,723.5781 1111.8594,723.5781 C1109.8125,723.5781 1108.5156,722.4844 1108.5156,720.7813 L1108.5156,719.6875 C1108.5156,717.9063 1109.7656,716.5938 1111.5,716.5938 C1112.0781,716.5938 1112.6875,716.75 1113.1563,717 C1113.6406,717.2813 1113.8125,717.5 1113.9063,717.9063 C1113.9688,718.3125 1114,718.4375 1114.1406,718.5625 C1114.2813,718.7031 1114.5156,718.8125 1114.7344,718.8125 C1115,718.8125 1115.2656,718.6719 1115.4375,718.4531 C1115.5469,718.2969 1115.5781,718.1094 1115.5781,717.6875 L1115.5781,716.2656 C1115.5781,715.8281 1115.5625,715.7031 1115.4688,715.5469 C1115.3125,715.2813 1115.0313,715.1406 1114.7344,715.1406 C1114.4375,715.1406 1114.2344,715.2344 1114.0156,715.5469 L1113.8438,715.4688 Z " fill="#000000"/><text fill="#000000" font-family="sans-serif" font-size="14" lengthAdjust="spacing" textLength="56" x="1125.5" y="724.6436">Consola</text><line style="stroke:#181818;stroke-width:0.5;" x1="1097.5" x2="1183.5" y1="735.7969" y2="735.7969"/><line style="stroke:#181818;stroke-width:0.5;" x1="1097.5" x2="1183.5" y1="743.7969" y2="743.7969"/></g><!--MD5=[292033ffe4750640675b59034298e578]
class Display--><g id="elem_Display"><rect codeLine="37" fill="#F1F1F1" height="48" id="Display" rx="2.5" ry="2.5" style="stroke:#181818;stroke-width:0.5;" width="84" x="1157.5" y="817.2969"/><ellipse cx="1172.5" cy="833.2969" fill="#ADD1B2" rx="11" ry="11" style="stroke:#181818;stroke-width:1.0;"/><path d="M1174.8438,828.9688 C1173.9063,828.5313 1173.3125,828.3906 1172.4375,828.3906 C1169.8125,828.3906 1167.8125,830.4688 1167.8125,833.1875 L1167.8125,834.3125 C1167.8125,836.8906 1169.9219,838.7813 1172.8125,838.7813 C1174.0313,838.7813 1175.1875,838.4844 1175.9375,837.9375 C1176.5156,837.5313 1176.8438,837.0781 1176.8438,836.6875 C1176.8438,836.2344 1176.4531,835.8438 1175.9844,835.8438 C1175.7656,835.8438 1175.5625,835.9219 1175.375,836.1094 C1174.9219,836.5938 1174.9219,836.5938 1174.7344,836.6875 C1174.3125,836.9531 1173.625,837.0781 1172.8594,837.0781 C1170.8125,837.0781 1169.5156,835.9844 1169.5156,834.2813 L1169.5156,833.1875 C1169.5156,831.4063 1170.7656,830.0938 1172.5,830.0938 C1173.0781,830.0938 1173.6875,830.25 1174.1563,830.5 C1174.6406,830.7813 1174.8125,831 1174.9063,831.4063 C1174.9688,831.8125 1175,831.9375 1175.1406,832.0625 C1175.2813,832.2031 1175.5156,832.3125 1175.7344,832.3125 C1176,832.3125 1176.2656,832.1719 1176.4375,831.9531 C1176.5469,831.7969 1176.5781,831.6094 1176.5781,831.1875 L1176.5781,829.7656 C1176.5781,829.3281 1176.5625,829.2031 1176.4688,829.0469 C1176.3125,828.7813 1176.0313,828.6406 1175.7344,828.6406 C1175.4375,828.6406 1175.2344,828.7344 1175.0156,829.0469 L1174.8438,828.9688 Z " fill="#000000"/><text fill="#000000" font-family="sans-serif" font-size="14" lengthAdjust="spacing" textLength="52" x="1186.5" y="838.1436">Display</text><line style="stroke:#181818;stroke-width:0.5;" x1="1158.5" x2="1240.5" y1="849.2969" y2="849.2969"/><line style="stroke:#181818;stroke-width:0.5;" x1="1158.5" x2="1240.5" y1="857.2969" y2="857.2969"/></g><!--MD5=[d6176c5216765500b53c18f94c356735]
class Asiento--><g id="elem_Asiento"><rect codeLine="38" fill="#F1F1F1" height="48" id="Asiento" rx="2.5" ry="2.5" style="stroke:#181818;stroke-width:0.5;" width="87" x="395" y="400.7969"/><ellipse cx="410" cy="416.7969" fill="#ADD1B2" rx="11" ry="11" style="stroke:#181818;stroke-width:1.0;"/><path d="M412.3438,412.4688 C411.4063,412.0313 410.8125,411.8906 409.9375,411.8906 C407.3125,411.8906 405.3125,413.9688 405.3125,416.6875 L405.3125,417.8125 C405.3125,420.3906 407.4219,422.2813 410.3125,422.2813 C411.5313,422.2813 412.6875,421.9844 413.4375,421.4375 C414.0156,421.0313 414.3438,420.5781 414.3438,420.1875 C414.3438,419.7344 413.9531,419.3438 413.4844,419.3438 C413.2656,419.3438 413.0625,419.4219 412.875,419.6094 C412.4219,420.0938 412.4219,420.0938 412.2344,420.1875 C411.8125,420.4531 411.125,420.5781 410.3594,420.5781 C408.3125,420.5781 407.0156,419.4844 407.0156,417.7813 L407.0156,416.6875 C407.0156,414.9063 408.2656,413.5938 410,413.5938 C410.5781,413.5938 411.1875,413.75 411.6563,414 C412.1406,414.2813 412.3125,414.5 412.4063,414.9063 C412.4688,415.3125 412.5,415.4375 412.6406,415.5625 C412.7813,415.7031 413.0156,415.8125 413.2344,415.8125 C413.5,415.8125 413.7656,415.6719 413.9375,415.4531 C414.0469,415.2969 414.0781,415.1094 414.0781,414.6875 L414.0781,413.2656 C414.0781,412.8281 414.0625,412.7031 413.9688,412.5469 C413.8125,412.2813 413.5313,412.1406 413.2344,412.1406 C412.9375,412.1406 412.7344,412.2344 412.5156,412.5469 L412.3438,412.4688 Z " fill="#000000"/><text fill="#000000" font-family="sans-serif" font-size="14" lengthAdjust="spacing" textLength="55" x="424" y="421.6436">Asiento</text><line style="stroke:#181818;stroke-width:0.5;" x1="396" x2="481" y1="432.7969" y2="432.7969"/><line style="stroke:#181818;stroke-width:0.5;" x1="396" x2="481" y1="440.7969" y2="440.7969"/></g><!--MD5=[e5635e9d7b6a1e882a85c3ef5f19f6d3]
class Delantero--><g id="elem_Delantero"><rect codeLine="39" fill="#F1F1F1" height="48" id="Delantero" rx="2.5" ry="2.5" style="stroke:#181818;stroke-width:0.5;" width="104" x="386.5" y="565.7969"/><ellipse cx="401.5" cy="581.7969" fill="#ADD1B2" rx="11" ry="11" style="stroke:#181818;stroke-width:1.0;"/><path d="M403.8438,577.4688 C402.9063,577.0313 402.3125,576.8906 401.4375,576.8906 C398.8125,576.8906 396.8125,578.9688 396.8125,581.6875 L396.8125,582.8125 C396.8125,585.3906 398.9219,587.2813 401.8125,587.2813 C403.0313,587.2813 404.1875,586.9844 404.9375,586.4375 C405.5156,586.0313 405.8438,585.5781 405.8438,585.1875 C405.8438,584.7344 405.4531,584.3438 404.9844,584.3438 C404.7656,584.3438 404.5625,584.4219 404.375,584.6094 C403.9219,585.0938 403.9219,585.0938 403.7344,585.1875 C403.3125,585.4531 402.625,585.5781 401.8594,585.5781 C399.8125,585.5781 398.5156,584.4844 398.5156,582.7813 L398.5156,581.6875 C398.5156,579.9063 399.7656,578.5938 401.5,578.5938 C402.0781,578.5938 402.6875,578.75 403.1563,579 C403.6406,579.2813 403.8125,579.5 403.9063,579.9063 C403.9688,580.3125 404,580.4375 404.1406,580.5625 C404.2813,580.7031 404.5156,580.8125 404.7344,580.8125 C405,580.8125 405.2656,580.6719 405.4375,580.4531 C405.5469,580.2969 405.5781,580.1094 405.5781,579.6875 L405.5781,578.2656 C405.5781,577.8281 405.5625,577.7031 405.4688,577.5469 C405.3125,577.2813 405.0313,577.1406 404.7344,577.1406 C404.4375,577.1406 404.2344,577.2344 404.0156,577.5469 L403.8438,577.4688 Z " fill="#000000"/><text fill="#000000" font-family="sans-serif" font-size="14" lengthAdjust="spacing" textLength="72" x="415.5" y="586.6436">Delantero</text><line style="stroke:#181818;stroke-width:0.5;" x1="387.5" x2="489.5" y1="597.7969" y2="597.7969"/><line style="stroke:#181818;stroke-width:0.5;" x1="387.5" x2="489.5" y1="605.7969" y2="605.7969"/></g><!--MD5=[f18195068f9903cda232f61608e47bad]
class Trasero--><g id="elem_Trasero"><rect codeLine="40" fill="#F1F1F1" height="48" id="Trasero" rx="2.5" ry="2.5" style="stroke:#181818;stroke-width:0.5;" width="86" x="265.5" y="565.7969"/><ellipse cx="280.5" cy="581.7969" fill="#ADD1B2" rx="11" ry="11" style="stroke:#181818;stroke-width:1.0;"/><path d="M282.8438,577.4688 C281.9063,577.0313 281.3125,576.8906 280.4375,576.8906 C277.8125,576.8906 275.8125,578.9688 275.8125,581.6875 L275.8125,582.8125 C275.8125,585.3906 277.9219,587.2813 280.8125,587.2813 C282.0313,587.2813 283.1875,586.9844 283.9375,586.4375 C284.5156,586.0313 284.8438,585.5781 284.8438,585.1875 C284.8438,584.7344 284.4531,584.3438 283.9844,584.3438 C283.7656,584.3438 283.5625,584.4219 283.375,584.6094 C282.9219,585.0938 282.9219,585.0938 282.7344,585.1875 C282.3125,585.4531 281.625,585.5781 280.8594,585.5781 C278.8125,585.5781 277.5156,584.4844 277.5156,582.7813 L277.5156,581.6875 C277.5156,579.9063 278.7656,578.5938 280.5,578.5938 C281.0781,578.5938 281.6875,578.75 282.1563,579 C282.6406,579.2813 282.8125,579.5 282.9063,579.9063 C282.9688,580.3125 283,580.4375 283.1406,580.5625 C283.2813,580.7031 283.5156,580.8125 283.7344,580.8125 C284,580.8125 284.2656,580.6719 284.4375,580.4531 C284.5469,580.2969 284.5781,580.1094 284.5781,579.6875 L284.5781,578.2656 C284.5781,577.8281 284.5625,577.7031 284.4688,577.5469 C284.3125,577.2813 284.0313,577.1406 283.7344,577.1406 C283.4375,577.1406 283.2344,577.2344 283.0156,577.5469 L282.8438,577.4688 Z " fill="#000000"/><text fill="#000000" font-family="sans-serif" font-size="14" lengthAdjust="spacing" textLength="54" x="294.5" y="586.6436">Trasero</text><line style="stroke:#181818;stroke-width:0.5;" x1="266.5" x2="350.5" y1="597.7969" y2="597.7969"/><line style="stroke:#181818;stroke-width:0.5;" x1="266.5" x2="350.5" y1="605.7969" y2="605.7969"/></g><!--MD5=[fcc35e6eb81a0cc56e167c50bc8b6645]
class Maletero--><g id="elem_Maletero"><rect codeLine="41" fill="#F1F1F1" height="48" id="Maletero" rx="2.5" ry="2.5" style="stroke:#181818;stroke-width:0.5;" width="96" x="705.5" y="260.2969"/><ellipse cx="720.5" cy="276.2969" fill="#ADD1B2" rx="11" ry="11" style="stroke:#181818;stroke-width:1.0;"/><path d="M722.8438,271.9688 C721.9063,271.5313 721.3125,271.3906 720.4375,271.3906 C717.8125,271.3906 715.8125,273.4688 715.8125,276.1875 L715.8125,277.3125 C715.8125,279.8906 717.9219,281.7813 720.8125,281.7813 C722.0313,281.7813 723.1875,281.4844 723.9375,280.9375 C724.5156,280.5313 724.8438,280.0781 724.8438,279.6875 C724.8438,279.2344 724.4531,278.8438 723.9844,278.8438 C723.7656,278.8438 723.5625,278.9219 723.375,279.1094 C722.9219,279.5938 722.9219,279.5938 722.7344,279.6875 C722.3125,279.9531 721.625,280.0781 720.8594,280.0781 C718.8125,280.0781 717.5156,278.9844 717.5156,277.2813 L717.5156,276.1875 C717.5156,274.4063 718.7656,273.0938 720.5,273.0938 C721.0781,273.0938 721.6875,273.25 722.1563,273.5 C722.6406,273.7813 722.8125,274 722.9063,274.4063 C722.9688,274.8125 723,274.9375 723.1406,275.0625 C723.2813,275.2031 723.5156,275.3125 723.7344,275.3125 C724,275.3125 724.2656,275.1719 724.4375,274.9531 C724.5469,274.7969 724.5781,274.6094 724.5781,274.1875 L724.5781,272.7656 C724.5781,272.3281 724.5625,272.2031 724.4688,272.0469 C724.3125,271.7813 724.0313,271.6406 723.7344,271.6406 C723.4375,271.6406 723.2344,271.7344 723.0156,272.0469 L722.8438,271.9688 Z " fill="#000000"/><text fill="#000000" font-family="sans-serif" font-size="14" lengthAdjust="spacing" textLength="64" x="734.5" y="281.1436">Maletero</text><line style="stroke:#181818;stroke-width:0.5;" x1="706.5" x2="800.5" y1="292.2969" y2="292.2969"/><line style="stroke:#181818;stroke-width:0.5;" x1="706.5" x2="800.5" y1="300.2969" y2="300.2969"/></g><!--MD5=[dcf81be017a481265b59c6bb6da9f94c]
class PlacaSolar--><g id="elem_PlacaSolar"><rect codeLine="42" fill="#F1F1F1" height="48" id="PlacaSolar" rx="2.5" ry="2.5" style="stroke:#181818;stroke-width:0.5;" width="109" x="898" y="703.7969"/><ellipse cx="913" cy="719.7969" fill="#ADD1B2" rx="11" ry="11" style="stroke:#181818;stroke-width:1.0;"/><path d="M915.3438,715.4688 C914.4063,715.0313 913.8125,714.8906 912.9375,714.8906 C910.3125,714.8906 908.3125,716.9688 908.3125,719.6875 L908.3125,720.8125 C908.3125,723.3906 910.4219,725.2813 913.3125,725.2813 C914.5313,725.2813 915.6875,724.9844 916.4375,724.4375 C917.0156,724.0313 917.3438,723.5781 917.3438,723.1875 C917.3438,722.7344 916.9531,722.3438 916.4844,722.3438 C916.2656,722.3438 916.0625,722.4219 915.875,722.6094 C915.4219,723.0938 915.4219,723.0938 915.2344,723.1875 C914.8125,723.4531 914.125,723.5781 913.3594,723.5781 C911.3125,723.5781 910.0156,722.4844 910.0156,720.7813 L910.0156,719.6875 C910.0156,717.9063 911.2656,716.5938 913,716.5938 C913.5781,716.5938 914.1875,716.75 914.6563,717 C915.1406,717.2813 915.3125,717.5 915.4063,717.9063 C915.4688,718.3125 915.5,718.4375 915.6406,718.5625 C915.7813,718.7031 916.0156,718.8125 916.2344,718.8125 C916.5,718.8125 916.7656,718.6719 916.9375,718.4531 C917.0469,718.2969 917.0781,718.1094 917.0781,717.6875 L917.0781,716.2656 C917.0781,715.8281 917.0625,715.7031 916.9688,715.5469 C916.8125,715.2813 916.5313,715.1406 916.2344,715.1406 C915.9375,715.1406 915.7344,715.2344 915.5156,715.5469 L915.3438,715.4688 Z " fill="#000000"/><text fill="#000000" font-family="sans-serif" font-size="14" lengthAdjust="spacing" textLength="77" x="927" y="724.6436">Placa Solar</text><line style="stroke:#181818;stroke-width:0.5;" x1="899" x2="1006" y1="735.7969" y2="735.7969"/><line style="stroke:#181818;stroke-width:0.5;" x1="899" x2="1006" y1="743.7969" y2="743.7969"/></g><!--MD5=[a4335236d3ec1f68725474ebba8c4aad]
class Izq--><g id="elem_Izq"><rect fill="#F1F1F1" height="48" id="Izq" rx="2.5" ry="2.5" style="stroke:#181818;stroke-width:0.5;" width="53" x="49" y="400.7969"/><ellipse cx="64" cy="416.7969" fill="#ADD1B2" rx="11" ry="11" style="stroke:#181818;stroke-width:1.0;"/><path d="M66.3438,412.4688 C65.4063,412.0313 64.8125,411.8906 63.9375,411.8906 C61.3125,411.8906 59.3125,413.9688 59.3125,416.6875 L59.3125,417.8125 C59.3125,420.3906 61.4219,422.2813 64.3125,422.2813 C65.5313,422.2813 66.6875,421.9844 67.4375,421.4375 C68.0156,421.0313 68.3438,420.5781 68.3438,420.1875 C68.3438,419.7344 67.9531,419.3438 67.4844,419.3438 C67.2656,419.3438 67.0625,419.4219 66.875,419.6094 C66.4219,420.0938 66.4219,420.0938 66.2344,420.1875 C65.8125,420.4531 65.125,420.5781 64.3594,420.5781 C62.3125,420.5781 61.0156,419.4844 61.0156,417.7813 L61.0156,416.6875 C61.0156,414.9063 62.2656,413.5938 64,413.5938 C64.5781,413.5938 65.1875,413.75 65.6563,414 C66.1406,414.2813 66.3125,414.5 66.4063,414.9063 C66.4688,415.3125 66.5,415.4375 66.6406,415.5625 C66.7813,415.7031 67.0156,415.8125 67.2344,415.8125 C67.5,415.8125 67.7656,415.6719 67.9375,415.4531 C68.0469,415.2969 68.0781,415.1094 68.0781,414.6875 L68.0781,413.2656 C68.0781,412.8281 68.0625,412.7031 67.9688,412.5469 C67.8125,412.2813 67.5313,412.1406 67.2344,412.1406 C66.9375,412.1406 66.7344,412.2344 66.5156,412.5469 L66.3438,412.4688 Z " fill="#000000"/><text fill="#000000" font-family="sans-serif" font-size="14" lengthAdjust="spacing" textLength="21" x="78" y="421.6436">Izq</text><line style="stroke:#181818;stroke-width:0.5;" x1="50" x2="101" y1="432.7969" y2="432.7969"/><line style="stroke:#181818;stroke-width:0.5;" x1="50" x2="101" y1="440.7969" y2="440.7969"/></g><!--MD5=[5cf93c86429df766aa4672abf922535b]
class Dcha--><g id="elem_Dcha"><rect fill="#F1F1F1" height="48" id="Dcha" rx="2.5" ry="2.5" style="stroke:#181818;stroke-width:0.5;" width="68" x="153.5" y="400.7969"/><ellipse cx="168.5" cy="416.7969" fill="#ADD1B2" rx="11" ry="11" style="stroke:#181818;stroke-width:1.0;"/><path d="M170.8438,412.4688 C169.9063,412.0313 169.3125,411.8906 168.4375,411.8906 C165.8125,411.8906 163.8125,413.9688 163.8125,416.6875 L163.8125,417.8125 C163.8125,420.3906 165.9219,422.2813 168.8125,422.2813 C170.0313,422.2813 171.1875,421.9844 171.9375,421.4375 C172.5156,421.0313 172.8438,420.5781 172.8438,420.1875 C172.8438,419.7344 172.4531,419.3438 171.9844,419.3438 C171.7656,419.3438 171.5625,419.4219 171.375,419.6094 C170.9219,420.0938 170.9219,420.0938 170.7344,420.1875 C170.3125,420.4531 169.625,420.5781 168.8594,420.5781 C166.8125,420.5781 165.5156,419.4844 165.5156,417.7813 L165.5156,416.6875 C165.5156,414.9063 166.7656,413.5938 168.5,413.5938 C169.0781,413.5938 169.6875,413.75 170.1563,414 C170.6406,414.2813 170.8125,414.5 170.9063,414.9063 C170.9688,415.3125 171,415.4375 171.1406,415.5625 C171.2813,415.7031 171.5156,415.8125 171.7344,415.8125 C172,415.8125 172.2656,415.6719 172.4375,415.4531 C172.5469,415.2969 172.5781,415.1094 172.5781,414.6875 L172.5781,413.2656 C172.5781,412.8281 172.5625,412.7031 172.4688,412.5469 C172.3125,412.2813 172.0313,412.1406 171.7344,412.1406 C171.4375,412.1406 171.2344,412.2344 171.0156,412.5469 L170.8438,412.4688 Z " fill="#000000"/><text fill="#000000" font-family="sans-serif" font-size="14" lengthAdjust="spacing" textLength="36" x="182.5" y="421.6436">Dcha</text><line style="stroke:#181818;stroke-width:0.5;" x1="154.5" x2="220.5" y1="432.7969" y2="432.7969"/><line style="stroke:#181818;stroke-width:0.5;" x1="154.5" x2="220.5" y1="440.7969" y2="440.7969"/></g><!--MD5=[cab8645b4ded8962da19c0b6863d831b]
class Delantera--><g id="elem_Delantera"><rect fill="#F1F1F1" height="48" id="Delantera" rx="2.5" ry="2.5" style="stroke:#181818;stroke-width:0.5;" width="103" x="7" y="565.7969"/><ellipse cx="22" cy="581.7969" fill="#ADD1B2" rx="11" ry="11" style="stroke:#181818;stroke-width:1.0;"/><path d="M24.3438,577.4688 C23.4063,577.0313 22.8125,576.8906 21.9375,576.8906 C19.3125,576.8906 17.3125,578.9688 17.3125,581.6875 L17.3125,582.8125 C17.3125,585.3906 19.4219,587.2813 22.3125,587.2813 C23.5313,587.2813 24.6875,586.9844 25.4375,586.4375 C26.0156,586.0313 26.3438,585.5781 26.3438,585.1875 C26.3438,584.7344 25.9531,584.3438 25.4844,584.3438 C25.2656,584.3438 25.0625,584.4219 24.875,584.6094 C24.4219,585.0938 24.4219,585.0938 24.2344,585.1875 C23.8125,585.4531 23.125,585.5781 22.3594,585.5781 C20.3125,585.5781 19.0156,584.4844 19.0156,582.7813 L19.0156,581.6875 C19.0156,579.9063 20.2656,578.5938 22,578.5938 C22.5781,578.5938 23.1875,578.75 23.6563,579 C24.1406,579.2813 24.3125,579.5 24.4063,579.9063 C24.4688,580.3125 24.5,580.4375 24.6406,580.5625 C24.7813,580.7031 25.0156,580.8125 25.2344,580.8125 C25.5,580.8125 25.7656,580.6719 25.9375,580.4531 C26.0469,580.2969 26.0781,580.1094 26.0781,579.6875 L26.0781,578.2656 C26.0781,577.8281 26.0625,577.7031 25.9688,577.5469 C25.8125,577.2813 25.5313,577.1406 25.2344,577.1406 C24.9375,577.1406 24.7344,577.2344 24.5156,577.5469 L24.3438,577.4688 Z " fill="#000000"/><text fill="#000000" font-family="sans-serif" font-size="14" lengthAdjust="spacing" textLength="71" x="36" y="586.6436">Delantera</text><line style="stroke:#181818;stroke-width:0.5;" x1="8" x2="109" y1="597.7969" y2="597.7969"/><line style="stroke:#181818;stroke-width:0.5;" x1="8" x2="109" y1="605.7969" y2="605.7969"/></g><!--MD5=[2b53dce02babd48625d30e894936faa0]
class Trasera--><g id="elem_Trasera"><rect fill="#F1F1F1" height="48" id="Trasera" rx="2.5" ry="2.5" style="stroke:#181818;stroke-width:0.5;" width="85" x="145" y="565.7969"/><ellipse cx="160" cy="581.7969" fill="#ADD1B2" rx="11" ry="11" style="stroke:#181818;stroke-width:1.0;"/><path d="M162.3438,577.4688 C161.4063,577.0313 160.8125,576.8906 159.9375,576.8906 C157.3125,576.8906 155.3125,578.9688 155.3125,581.6875 L155.3125,582.8125 C155.3125,585.3906 157.4219,587.2813 160.3125,587.2813 C161.5313,587.2813 162.6875,586.9844 163.4375,586.4375 C164.0156,586.0313 164.3438,585.5781 164.3438,585.1875 C164.3438,584.7344 163.9531,584.3438 163.4844,584.3438 C163.2656,584.3438 163.0625,584.4219 162.875,584.6094 C162.4219,585.0938 162.4219,585.0938 162.2344,585.1875 C161.8125,585.4531 161.125,585.5781 160.3594,585.5781 C158.3125,585.5781 157.0156,584.4844 157.0156,582.7813 L157.0156,581.6875 C157.0156,579.9063 158.2656,578.5938 160,578.5938 C160.5781,578.5938 161.1875,578.75 161.6563,579 C162.1406,579.2813 162.3125,579.5 162.4063,579.9063 C162.4688,580.3125 162.5,580.4375 162.6406,580.5625 C162.7813,580.7031 163.0156,580.8125 163.2344,580.8125 C163.5,580.8125 163.7656,580.6719 163.9375,580.4531 C164.0469,580.2969 164.0781,580.1094 164.0781,579.6875 L164.0781,578.2656 C164.0781,577.8281 164.0625,577.7031 163.9688,577.5469 C163.8125,577.2813 163.5313,577.1406 163.2344,577.1406 C162.9375,577.1406 162.7344,577.2344 162.5156,577.5469 L162.3438,577.4688 Z " fill="#000000"/><text fill="#000000" font-family="sans-serif" font-size="14" lengthAdjust="spacing" textLength="53" x="174" y="586.6436">Trasera</text><line style="stroke:#181818;stroke-width:0.5;" x1="146" x2="229" y1="597.7969" y2="597.7969"/><line style="stroke:#181818;stroke-width:0.5;" x1="146" x2="229" y1="605.7969" y2="605.7969"/></g><!--MD5=[97aad5eb83636a03f5b91daee2ec54e6]
link CocheElectrico to Chasis--><g id="link_CocheElectrico_Chasis"><path codeLine="44" d="M992.0802,97.3371 C992.0802,97.3371 1075.38,135.8959 1109.76,151.8129 " fill="none" id="CocheElectrico-Chasis" style="stroke:#181818;stroke-width:1.0;"/><polygon fill="#181818" points="1121.89,157.4229,1115.401,150.0139,1117.352,155.3237,1112.0423,157.2747,1121.89,157.4229" style="stroke:#181818;stroke-width:1.0;"/><line style="stroke:#181818;stroke-width:1.0;" x1="1117.352" x2="1110.09" y1="155.3237" y2="151.9619"/><polygon fill="#181818" points="981.19,92.2969,984.955,98.4471,992.0802,97.3371,988.3152,91.1869,981.19,92.2969" style="stroke:#181818;stroke-width:1.0;"/></g><!--MD5=[f890465bdce8c17832d481da91a70f4a]
link CocheElectrico to Carroceria--><g id="link_CocheElectrico_Carroceria"><path codeLine="45" d="M870.9198,97.3371 C870.9198,97.3371 797.256,131.4359 764.613,146.5459 " fill="none" id="CocheElectrico-Carroceria" style="stroke:#181818;stroke-width:1.0;"/><polygon fill="#181818" points="752.488,152.1589,762.3357,152.0088,757.0256,150.0588,758.9756,144.7486,752.488,152.1589" style="stroke:#181818;stroke-width:1.0;"/><line style="stroke:#181818;stroke-width:1.0;" x1="757.0256" x2="764.285" y1="150.0588" y2="146.6979"/><polygon fill="#181818" points="881.81,92.2969,874.6848,91.1869,870.9198,97.3371,878.045,98.4471,881.81,92.2969" style="stroke:#181818;stroke-width:1.0;"/></g><!--MD5=[2245bc77a0effb0d5a002a28d935ff5c]
link Carroceria to Chasis--><g id="link_Carroceria_Chasis"><path codeLine="46" d="M755.725,176.2969 C876.069,176.2969 996.413,176.2969 1116.76,176.2969 " fill="none" id="Carroceria-to-Chasis" style="stroke:#181818;stroke-width:1.0;"/><polygon fill="#181818" points="1121.76,176.2969,1112.76,172.2969,1116.76,176.2969,1112.76,180.2969,1121.76,176.2969" style="stroke:#181818;stroke-width:1.0;"/></g><!--MD5=[c855b10fe3bf625c56fe7ba5bdcf1301]
link Chasis to Motor--><g id="link_Chasis_Motor"><path codeLine="47" d="M1140.1284,210.5276 C1140.1284,210.5276 1123.98,236.8519 1116.72,248.6989 " fill="none" id="Chasis-Motor" style="stroke:#181818;stroke-width:1.0;"/><polygon fill="#181818" points="1109.8,259.9749,1117.9139,254.3924,1112.4132,255.7121,1111.0935,250.2113,1109.8,259.9749" style="stroke:#181818;stroke-width:1.0;"/><line style="stroke:#181818;stroke-width:1.0;" x1="1112.4132" x2="1116.6" y1="255.7121" y2="248.8934"/><polygon fill="none" points="1146.4,200.2969,1139.854,203.3217,1140.1284,210.5276,1146.6744,207.5028,1146.4,200.2969" style="stroke:#181818;stroke-width:1.0;"/></g><!--MD5=[84265cb0e2e881c80d9643f6ca5e416f]
link Motor to Pieza--><g id="link_Motor_Pieza"><path codeLine="48" d="M1098.0347,320.4477 C1098.0347,320.4477 1099.72,343.6899 1100.55,355.2559 " fill="none" id="Motor-Pieza" style="stroke:#181818;stroke-width:1.0;"/><polygon fill="#181818" points="1101.49,368.2339,1104.8321,358.9694,1101.1303,363.2468,1096.8528,359.545,1101.49,368.2339" style="stroke:#181818;stroke-width:1.0;"/><line style="stroke:#181818;stroke-width:1.0;" x1="1101.1303" x2="1100.55" y1="363.2468" y2="355.2674"/><polygon fill="#181818" points="1097.17,308.4789,1093.6128,314.7515,1098.0347,320.4477,1101.592,314.175,1097.17,308.4789" style="stroke:#181818;stroke-width:1.0;"/></g><!--MD5=[050cfc45426cfcedb7950d2b3e516584]
link Motor to Acelerador--><g id="link_Motor_Acelerador"><path codeLine="49" d="M1064.5349,317.1081 C1064.5349,317.1081 1033.74,351.0069 1020.5,368.2969 C972.449,431.0509 924.274,510.0819 898.235,554.4639 " fill="none" id="Motor-Acelerador" style="stroke:#181818;stroke-width:1.0;"/><polygon fill="#181818" points="891.649,565.7589,899.6386,559.9999,894.1681,561.4398,892.7282,555.9693,891.649,565.7589" style="stroke:#181818;stroke-width:1.0;"/><line style="stroke:#181818;stroke-width:1.0;" x1="894.1681" x2="898.1975" y1="561.4398" y2="554.5284"/><polygon fill="#181818" points="1072.77,308.3799,1065.743,309.999,1064.5349,317.1081,1071.5618,315.489,1072.77,308.3799" style="stroke:#181818;stroke-width:1.0;"/></g><!--MD5=[9232b0abafca6906e93ff56a6051be9f]
link Motor to Bateria--><g id="link_Motor_Bateria"><path codeLine="50" d="M1115.92,308.4789 C1137.3,332.7469 1170.84,370.8289 1193.48,396.5259 " fill="none" id="Motor-to-Bateria" style="stroke:#181818;stroke-width:1.0;"/><polygon fill="#181818" points="1197.01,400.5399,1194.0523,391.1456,1193.7009,396.7916,1188.055,396.4402,1197.01,400.5399" style="stroke:#181818;stroke-width:1.0;"/></g><!--MD5=[bc9584e563ad1f3f11e5da8fe9fdebad]
link Motor to Cargador--><g id="link_Motor_Cargador"><path codeLine="51" d="M1080.97,308.3829 C1071.44,324.5649 1059.5,347.0219 1052.5,368.2969 C1030.55,435.0339 1022.14,517.7999 1019.1,560.4449 " fill="none" id="Motor-to-Cargador" style="stroke:#181818;stroke-width:1.0;"/><polygon fill="#181818" points="1018.73,565.6919,1023.3405,556.9888,1019.0745,560.7038,1015.3595,556.4377,1018.73,565.6919" style="stroke:#181818;stroke-width:1.0;"/></g><!--MD5=[8d4067a81de34b9c3d4e486cae1a7ca4]
link Carroceria to Habitaculo--><g id="link_Carroceria_Habitaculo"><path codeLine="52" d="M658.4875,207.0116 C658.4875,207.0116 611.647,238.6379 590.662,252.8059 " fill="none" id="Carroceria-Habitaculo" style="stroke:#181818;stroke-width:1.0;"/><polygon fill="#181818" points="579.771,260.1589,589.4683,258.438,583.915,257.3611,584.9919,251.8077,579.771,260.1589" style="stroke:#181818;stroke-width:1.0;"/><line style="stroke:#181818;stroke-width:1.0;" x1="583.915" x2="590.545" y1="257.3611" y2="252.8839"/><polygon fill="#181818" points="668.433,200.2969,661.222,200.3391,658.4875,207.0116,665.6985,206.9694,668.433,200.2969" style="stroke:#181818;stroke-width:1.0;"/></g><!--MD5=[e9470c5f7d0495b4ce76157ef54638da]
link Habitaculo to Pedal--><g id="link_Habitaculo_Pedal"><path codeLine="53" d="M549.8061,320.3896 C549.8061,320.3896 555.531,367.0229 558.028,387.3639 " fill="none" id="Habitaculo-Pedal" style="stroke:#181818;stroke-width:1.0;"/><polygon fill="#181818" points="559.645,400.5399,562.5185,391.1195,559.0357,395.5771,554.5781,392.0944,559.645,400.5399" style="stroke:#181818;stroke-width:1.0;"/><line style="stroke:#181818;stroke-width:1.0;" x1="559.0357" x2="558.0615" y1="395.5771" y2="387.6364"/><polygon fill="none" points="548.345,308.4789,545.1053,314.9213,549.8061,320.3896,553.0458,313.9472,548.345,308.4789" style="stroke:#181818;stroke-width:1.0;"/></g><!--MD5=[f1e3b5d43d80d5dfc0b180a1078c9f9a]
reverse link Pedal to Acelerador--><g id="link_Pedal_Acelerador"><path codeLine="54" d="M616.232,453.5129 C677.533,485.1329 776.661,536.2659 833.878,565.7799 " fill="none" id="Pedal-backto-Acelerador" style="stroke:#181818;stroke-width:1.0;"/><polygon fill="none" points="612.701,459.5679,598.135,444.1779,619.119,447.1259,612.701,459.5679" style="stroke:#181818;stroke-width:1.0;"/></g><!--MD5=[61fd342aaf4b9cd3fe41b9eeadbf31a9]
reverse link Pedal to Freno--><g id="link_Pedal_Freno"><path codeLine="55" d="M562.5,468.8789 C562.5,499.8939 562.5,540.5339 562.5,565.6429 " fill="none" id="Pedal-backto-Freno" style="stroke:#181818;stroke-width:1.0;"/><polygon fill="none" points="555.5,468.8049,562.5,448.8049,569.5,468.8049,555.5,468.8049" style="stroke:#181818;stroke-width:1.0;"/></g><!--MD5=[ee9600598718fdc2e0ab1306b460a783]
link Habitaculo to Asiento--><g id="link_Habitaculo_Asiento"><path codeLine="56" d="M520.2548,317.9752 C520.2548,317.9752 481.126,368.6219 464.452,390.2049 " fill="none" id="Habitaculo-Asiento" style="stroke:#181818;stroke-width:1.0;"/><polygon fill="#181818" points="456.468,400.5399,465.136,395.8638,459.5251,396.5833,458.8055,390.9724,456.468,400.5399" style="stroke:#181818;stroke-width:1.0;"/><line style="stroke:#181818;stroke-width:1.0;" x1="459.5251" x2="464.4155" y1="396.5833" y2="390.2519"/><polygon fill="#181818" points="527.591,308.4789,520.7575,310.7816,520.2548,317.9752,527.0883,315.6724,527.591,308.4789" style="stroke:#181818;stroke-width:1.0;"/></g><!--MD5=[0cae9c9c7730156c100c37668f5c4078]
reverse link Asiento to Delantero--><g id="link_Asiento_Delantero"><path codeLine="57" d="M438.5,468.8789 C438.5,499.8939 438.5,540.5339 438.5,565.6429 " fill="none" id="Asiento-backto-Delantero" style="stroke:#181818;stroke-width:1.0;"/><polygon fill="none" points="431.5,468.8049,438.5,448.8049,445.5,468.8049,431.5,468.8049" style="stroke:#181818;stroke-width:1.0;"/></g><!--MD5=[67b4f92ebbe7b7d39b47be59c24e0970]
reverse link Asiento to Trasero--><g id="link_Asiento_Trasero"><path codeLine="58" d="M407.669,464.4539 C382.565,495.9309 347.96,539.3209 326.967,565.6429 " fill="none" id="Asiento-backto-Trasero" style="stroke:#181818;stroke-width:1.0;"/><polygon fill="none" points="402.207,460.0769,420.15,448.8049,413.152,468.8059,402.207,460.0769" style="stroke:#181818;stroke-width:1.0;"/></g><!--MD5=[fb128a5308db0abea0b0ba83ff509524]
link Chasis to Bateria--><g id="link_Chasis_Bateria"><path codeLine="59" d="M1174.5393,211.7348 C1174.5393,211.7348 1186.38,244.5189 1190.5,260.2969 C1201.75,303.4109 1209.27,354.1999 1213.46,387.5979 " fill="none" id="Chasis-Bateria" style="stroke:#181818;stroke-width:1.0;"/><polygon fill="#181818" points="1215.05,400.7729,1217.9428,391.3584,1214.4509,395.8089,1210.0005,392.317,1215.05,400.7729" style="stroke:#181818;stroke-width:1.0;"/><line style="stroke:#181818;stroke-width:1.0;" x1="1214.4509" x2="1213.49" y1="395.8089" y2="387.8664"/><polygon fill="none" points="1170.2,200.5469,1168.6403,207.5873,1174.5393,211.7348,1176.099,204.6944,1170.2,200.5469" style="stroke:#181818;stroke-width:1.0;"/></g><!--MD5=[c67bae1fa90dfcc9adb00c2492f10bca]
link Chasis to Transmision--><g id="link_Chasis_Transmision"><path codeLine="60" d="M1186.061,209.9328 C1186.061,209.9328 1290.34,343.1349 1327.21,390.2159 " fill="none" id="Chasis-Transmision" style="stroke:#181818;stroke-width:1.0;"/><polygon fill="#181818" points="1335.25,400.4889,1332.8543,390.9358,1332.1689,396.551,1326.5537,395.8656,1335.25,400.4889" style="stroke:#181818;stroke-width:1.0;"/><line style="stroke:#181818;stroke-width:1.0;" x1="1332.1689" x2="1327.235" y1="396.551" y2="390.2529"/><polygon fill="none" points="1178.66,200.4869,1179.2119,207.6768,1186.061,209.9328,1185.5091,202.7428,1178.66,200.4869" style="stroke:#181818;stroke-width:1.0;"/></g><!--MD5=[0e4a7ca5b059eccd9589d426a018d846]
link Motor to Transmision--><g id="link_Motor_Transmision"><path codeLine="61" d="M1153.97,308.3869 C1190.42,323.6449 1237.78,345.0629 1277.5,368.2969 C1292.2,376.8949 1307.52,387.6899 1320.53,397.4689 " fill="none" id="Motor-to-Transmision" style="stroke:#181818;stroke-width:1.0;"/><polygon fill="#181818" points="1324.85,400.7419,1320.0845,392.1227,1320.862,397.7259,1315.2589,398.5035,1324.85,400.7419" style="stroke:#181818;stroke-width:1.0;"/></g><!--MD5=[bd5270f032345bd7a32f447b92e5fe73]
link Transmision to Rueda--><g id="link_Transmision_Rueda"><path codeLine="62" d="M1344.89,448.8049 C1333.89,478.2099 1314.85,529.0849 1303,560.7339 " fill="none" id="Transmision-to-Rueda" style="stroke:#181818;stroke-width:1.0;"/><polygon fill="#181818" points="1301.17,565.6429,1308.0698,558.6149,1302.9219,560.9598,1300.5769,555.8119,1301.17,565.6429" style="stroke:#181818;stroke-width:1.0;"/></g><!--MD5=[152f60cb8ac180bf58b6971f196df044]
link Rueda to Cubierta--><g id="link_Rueda_Cubierta"><path codeLine="63" d="M1285.8368,625.6544 C1285.8368,625.6544 1277.16,671.0599 1273.38,690.8039 " fill="none" id="Rueda-Cubierta" style="stroke:#181818;stroke-width:1.0;"/><polygon fill="#181818" points="1270.93,703.6129,1276.5487,695.524,1271.8688,698.7018,1268.691,694.0219,1270.93,703.6129" style="stroke:#181818;stroke-width:1.0;"/><line style="stroke:#181818;stroke-width:1.0;" x1="1271.8688" x2="1273.37" y1="698.7018" y2="690.8444"/><polygon fill="#181818" points="1288.09,613.8679,1283.0346,619.0101,1285.8368,625.6544,1290.8923,620.5122,1288.09,613.8679" style="stroke:#181818;stroke-width:1.0;"/></g><!--MD5=[eda2bad5f4a676c2a24587b1942c178b]
link Rueda to Llanta--><g id="link_Rueda_Llanta"><path codeLine="64" d="M1315.2704,623.7412 C1315.2704,623.7412 1348.63,672.0139 1362.97,692.7489 " fill="none" id="Rueda-Llanta" style="stroke:#181818;stroke-width:1.0;"/><polygon fill="#181818" points="1370.48,703.6129,1368.6558,693.9344,1367.6382,699.499,1362.0736,698.4813,1370.48,703.6129" style="stroke:#181818;stroke-width:1.0;"/><line style="stroke:#181818;stroke-width:1.0;" x1="1367.6382" x2="1363.085" y1="699.499" y2="692.9189"/><polygon fill="#181818" points="1308.45,613.8679,1308.5691,621.078,1315.2704,623.7412,1315.1513,616.5311,1308.45,613.8679" style="stroke:#181818;stroke-width:1.0;"/></g><!--MD5=[ff27d717a03e7f5707a0736a0c46a31f]
link Rueda to Amortiguacion--><g id="link_Rueda_Amortiguacion"><path codeLine="65" d="M1317.11,613.9449 C1326.53,622.1799 1337.62,631.1679 1348.5,638.2969 C1386.27,663.0519 1431.96,685.4369 1467.86,701.4999 " fill="none" id="Rueda-to-Amortiguacion" style="stroke:#181818;stroke-width:1.0;"/><polygon fill="#181818" points="1472.63,703.6249,1466.0476,696.2987,1468.0658,701.5833,1462.7812,703.6015,1472.63,703.6249" style="stroke:#181818;stroke-width:1.0;"/></g><!--MD5=[8e6816e49007a57e2b027c1cf70fdf5b]
link Chasis to Amortiguacion--><g id="link_Chasis_Amortiguacion"><path codeLine="66" d="M1210.0234,200.4549 C1210.0234,200.4549 1371.36,290.4449 1430.5,368.2969 C1505.9,467.5599 1523.31,621.1699 1527.31,690.5709 " fill="none" id="Chasis-Amortiguacion" style="stroke:#181818;stroke-width:1.0;"/><polygon fill="#181818" points="1527.96,703.6699,1531.5091,694.4827,1527.7122,698.676,1523.5189,694.8791,1527.96,703.6699" style="stroke:#181818;stroke-width:1.0;"/><line style="stroke:#181818;stroke-width:1.0;" x1="1527.7122" x2="1527.315" y1="698.676" y2="690.6864"/><polygon fill="none" points="1199.29,195.0889,1202.868,201.3497,1210.0234,200.4549,1206.4454,194.1941,1199.29,195.0889" style="stroke:#181818;stroke-width:1.0;"/></g><!--MD5=[0cea660da7d178e5cdbea385ca16c666]
link Transmision to Cambio--><g id="link_Transmision_Cambio"><path codeLine="67" d="M1367.521,459.9043 C1367.521,459.9043 1386.53,506.1519 1395.94,529.0359 " fill="none" id="Transmision-Cambio" style="stroke:#181818;stroke-width:1.0;"/><polygon fill="#181818" points="1400.89,541.0889,1401.169,531.244,1398.9896,536.4641,1393.7694,534.2847,1400.89,541.0889" style="stroke:#181818;stroke-width:1.0;"/><line style="stroke:#181818;stroke-width:1.0;" x1="1398.9896" x2="1395.95" y1="536.4641" y2="529.0649"/><polygon fill="#181818" points="1362.96,448.8049,1361.5407,455.8749,1367.521,459.9043,1368.9403,452.8342,1362.96,448.8049" style="stroke:#181818;stroke-width:1.0;"/></g><!--MD5=[9a8eaae9a295b98a6e2294d68dc6fca5]
link Chasis to Cargador--><g id="link_Chasis_Cargador"><path codeLine="70" d="M1110.1369,188.3932 C1110.1369,188.3932 1023.15,221.5049 999.5,260.2969 C943.022,352.9549 980.286,489.0089 1003.26,553.0159 " fill="none" id="Chasis-Cargador" style="stroke:#181818;stroke-width:1.0;"/><polygon fill="#181818" points="1007.91,565.5389,1008.5301,555.7096,1006.171,560.851,1001.0295,558.4919,1007.91,565.5389" style="stroke:#181818;stroke-width:1.0;"/><line style="stroke:#181818;stroke-width:1.0;" x1="1006.171" x2="1003.384" y1="560.851" y2="553.3504"/><polygon fill="none" points="1121.69,185.1489,1114.832,182.92,1110.1369,188.3932,1116.9949,190.6221,1121.69,185.1489" style="stroke:#181818;stroke-width:1.0;"/></g><!--MD5=[800620aff1db524761351b209f642c0c]
link Cargador to TomaCorriente--><g id="link_Cargador_TomaCorriente"><path codeLine="71" d="M978.8176,620.8512 C978.8176,620.8512 959.74,633.4669 950.5,638.2969 C891.693,669.0379 819.813,693.6129 769.164,708.9919 " fill="none" id="Cargador-TomaCorriente" style="stroke:#181818;stroke-width:1.0;"/><polygon fill="#181818" points="756.443,712.7969,766.2117,714.051,761.2334,711.3645,763.9199,706.3863,756.443,712.7969" style="stroke:#181818;stroke-width:1.0;"/><line style="stroke:#181818;stroke-width:1.0;" x1="761.2334" x2="768.8975" y1="711.3645" y2="709.0714"/><polygon fill="#181818" points="988.587,613.8829,981.3795,614.1106,978.8176,620.8512,986.0251,620.6235,988.587,613.8829" style="stroke:#181818;stroke-width:1.0;"/></g><!--MD5=[24e6c91c3b8cbf94d83a5e36674e4d19]
link Cargador to PlacaSolar--><g id="link_Cargador_PlacaSolar"><path codeLine="72" d="M1001.2998,624.695 C1001.2998,624.695 978.919,671.5199 969.243,691.7639 " fill="none" id="Cargador-PlacaSolar" style="stroke:#181818;stroke-width:1.0;"/><polygon fill="#181818" points="963.58,703.6129,971.0697,697.2173,965.7359,699.1016,963.8516,693.7678,963.58,703.6129" style="stroke:#181818;stroke-width:1.0;"/><line style="stroke:#181818;stroke-width:1.0;" x1="965.7359" x2="969.1865" y1="699.1016" y2="691.8839"/><polygon fill="#181818" points="1006.474,613.8679,1000.2778,617.5567,1001.2998,624.695,1007.4959,621.0062,1006.474,613.8679" style="stroke:#181818;stroke-width:1.0;"/></g><!--MD5=[35bf238c5219f68bce95efb4f1e35d6b]
link Carroceria to TomaCorriente--><g id="link_Carroceria_TomaCorriente"><path codeLine="73" d="M694.7805,212.1587 C694.7805,212.1587 688.887,244.8239 687.5,260.2969 C685.595,281.5449 687.042,286.9689 687.5,308.2969 C690.468,446.3879 698.94,609.9309 703.115,685.1509 " fill="none" id="Carroceria-TomaCorriente" style="stroke:#181818;stroke-width:1.0;"/><polygon fill="#181818" points="703.842,698.1429,707.3334,688.9336,703.5629,693.1507,699.3458,689.3802,703.842,698.1429" style="stroke:#181818;stroke-width:1.0;"/><line style="stroke:#181818;stroke-width:1.0;" x1="703.5629" x2="703.116" y1="693.1507" y2="685.1629"/><polygon fill="none" points="697.179,200.4009,692.0605,205.4803,694.7805,212.1587,699.899,207.0793,697.179,200.4009" style="stroke:#181818;stroke-width:1.0;"/></g><!--MD5=[22467af8770045da158068c86c012f0f]
link Bateria to Cargador--><g id="link_Bateria_Cargador"><path codeLine="74" d="M1193.44,448.9969 C1182.65,459.1469 1169.65,471.0509 1157.5,481.2969 C1123.12,510.2959 1082.14,541.3809 1053.43,562.6269 " fill="none" id="Bateria-to-Cargador" style="stroke:#181818;stroke-width:1.0;"/><polygon fill="#181818" points="1049.28,565.6889,1058.8955,563.5575,1053.3013,562.7175,1054.1413,557.1234,1049.28,565.6889" style="stroke:#181818;stroke-width:1.0;"/></g><!--MD5=[a448068276a86295f51189ecd9329ccc]
link Bateria to Convertidor--><g id="link_Bateria_Convertidor"><path codeLine="75" d="M1209.45,448.8049 C1199.17,478.2099 1181.38,529.0849 1170.31,560.7339 " fill="none" id="Bateria-to-Convertidor" style="stroke:#181818;stroke-width:1.0;"/><polygon fill="#181818" points="1168.6,565.6429,1175.3486,558.4696,1170.2518,560.9236,1167.7977,555.8267,1168.6,565.6429" style="stroke:#181818;stroke-width:1.0;"/></g><!--MD5=[b77977f28e1cbafcf10ace9cf87088cb]
link Convertidor to Consola--><g id="link_Convertidor_Consola"><path codeLine="76" d="M1157.11,613.8679 C1153.67,637.2159 1148.36,673.3549 1144.67,698.4369 " fill="none" id="Convertidor-to-Consola" style="stroke:#181818;stroke-width:1.0;"/><polygon fill="#181818" points="1143.91,703.6129,1149.1773,695.2909,1144.6377,698.6661,1141.2625,694.1265,1143.91,703.6129" style="stroke:#181818;stroke-width:1.0;"/></g><!--MD5=[adabf1b24d1ea85a7496257a6f66bce4]
link Chasis to Direccion--><g id="link_Chasis_Direccion"><path codeLine="77" d="M1210.8462,186.5239 C1210.8462,186.5239 1432.59,229.3049 1554.5,260.2969 C1559.1,261.4659 1563.83,262.7299 1568.59,264.0429 " fill="none" id="Chasis-Direccion" style="stroke:#181818;stroke-width:1.0;"/><polygon fill="#181818" points="1581.13,267.6029,1573.5611,261.3012,1576.3193,266.24,1571.3805,268.9983,1581.13,267.6029" style="stroke:#181818;stroke-width:1.0;"/><line style="stroke:#181818;stroke-width:1.0;" x1="1576.3193" x2="1568.63" y1="266.24" y2="264.0549"/><polygon fill="none" points="1199.05,184.3219,1204.2141,189.355,1210.8462,186.5239,1205.6821,181.4908,1199.05,184.3219" style="stroke:#181818;stroke-width:1.0;"/></g><!--MD5=[6cdf72291ff7b7010202e7c7b306a3f8]
link Direccion to Volante--><g id="link_Direccion_Volante"><path codeLine="78" d="M1631.5,308.4789 C1631.5,332.3469 1631.5,369.5789 1631.5,395.2469 " fill="none" id="Direccion-to-Volante" style="stroke:#181818;stroke-width:1.0;"/><polygon fill="#181818" points="1631.5,400.5399,1635.5,391.5399,1631.5,395.5399,1627.5,391.5399,1631.5,400.5399" style="stroke:#181818;stroke-width:1.0;"/></g><!--MD5=[8ca38aeb34359ffc317dc2e1e3208c93]
link Carroceria to Puerta--><g id="link_Carroceria_Puerta"><path codeLine="79" d="M637.5725,190.6617 C637.5725,190.6617 334.71,252.9969 240.198,272.4499 " fill="none" id="Carroceria-Puerta" style="stroke:#181818;stroke-width:1.0;"/><polygon fill="#181818" points="227.299,275.1049,236.9207,277.2079,232.1963,274.0966,235.3075,269.3722,227.299,275.1049" style="stroke:#181818;stroke-width:1.0;"/><line style="stroke:#181818;stroke-width:1.0;" x1="232.1963" x2="240.0325" y1="274.0966" y2="272.4844"/><polygon fill="none" points="649.326,188.2419,642.6427,185.5339,637.5725,190.6617,644.2559,193.3696,649.326,188.2419" style="stroke:#181818;stroke-width:1.0;"/></g><!--MD5=[26820378ccc167e76b1e02665d71a670]
link Carroceria to Capo--><g id="link_Carroceria_Capo"><path codeLine="80" d="M638.0222,199.3386 C638.0222,199.3386 528.017,238.3909 473.5,260.2969 C471.725,261.0099 469.921,261.7469 468.103,262.4999 " fill="none" id="Carroceria-Capo" style="stroke:#181818;stroke-width:1.0;"/><polygon fill="#181818" points="456.043,267.6219,465.8905,267.7857,460.6452,265.6675,462.7635,260.4222,456.043,267.6219" style="stroke:#181818;stroke-width:1.0;"/><line style="stroke:#181818;stroke-width:1.0;" x1="460.6452" x2="468.0085" y1="265.6675" y2="262.5399"/><polygon fill="none" points="649.356,195.3959,642.3749,193.5893,638.0222,199.3386,645.0034,201.1452,649.356,195.3959" style="stroke:#181818;stroke-width:1.0;"/></g><!--MD5=[1b6d149f5faa060734e49d4fedc32b7c]
link Carroceria to Maletero--><g id="link_Carroceria_Maletero"><path codeLine="81" d="M718.769,211.1102 C718.769,211.1102 731.008,236.5479 736.556,248.0809 " fill="none" id="Carroceria-Maletero" style="stroke:#181818;stroke-width:1.0;"/><polygon fill="#181818" points="742.279,259.9749,741.9808,250.1305,740.1109,255.4694,734.772,253.5995,742.279,259.9749" style="stroke:#181818;stroke-width:1.0;"/><line style="stroke:#181818;stroke-width:1.0;" x1="740.1109" x2="736.643" y1="255.4694" y2="248.2609"/><polygon fill="none" points="713.566,200.2969,712.563,207.4379,718.769,211.1102,719.7719,203.9692,713.566,200.2969" style="stroke:#181818;stroke-width:1.0;"/></g><!--MD5=[9fc05091d634177488f803e501f65c07]
link Carroceria to PlacaSolar--><g id="link_Carroceria_PlacaSolar"><path codeLine="82" d="M764.7123,206.4886 C764.7123,206.4886 807.036,237.9979 818.5,260.2969 C895.358,409.7969 722.787,491.9549 805.5,638.2969 C822.827,668.9539 855.497,690.1689 885.645,704.1249 " fill="none" id="Carroceria-PlacaSolar" style="stroke:#181818;stroke-width:1.0;"/><polygon fill="#181818" points="897.916,709.4859,891.27,702.2174,893.3341,707.4842,888.0673,709.5484,897.916,709.4859" style="stroke:#181818;stroke-width:1.0;"/><line style="stroke:#181818;stroke-width:1.0;" x1="893.3341" x2="886.0035" y1="707.4842" y2="704.2814"/><polygon fill="none" points="754.427,200.3069,757.5091,206.8261,764.7123,206.4886,761.6302,199.9693,754.427,200.3069" style="stroke:#181818;stroke-width:1.0;"/></g><!--MD5=[3ea398abbff947bce6c67b0463d64582]
reverse link Puerta to Izq--><g id="link_Puerta_Izq"><path codeLine="83" d="M155.98,324.2749 C136.112,348.8439 111.125,379.7419 94.3074,400.5399 " fill="none" id="Puerta-backto-Izq" style="stroke:#181818;stroke-width:1.0;"/><polygon fill="none" points="150.735,319.6289,168.754,308.4789,161.621,328.4319,150.735,319.6289" style="stroke:#181818;stroke-width:1.0;"/></g><!--MD5=[a310843979dfb31708978939c2570e67]
reverse link Puerta to Dcha--><g id="link_Puerta_Dcha"><path codeLine="84" d="M187.5,328.5869 C187.5,352.3749 187.5,380.9419 187.5,400.5399 " fill="none" id="Puerta-backto-Dcha" style="stroke:#181818;stroke-width:1.0;"/><polygon fill="none" points="180.5,328.4789,187.5,308.4789,194.5,328.4789,180.5,328.4789" style="stroke:#181818;stroke-width:1.0;"/></g><!--MD5=[8edfe6d377f82944c50fe652e3ee15f0]
reverse link Izq to Delantera--><g id="link_Izq_Delantera"><path codeLine="85" d="M71.0068,468.8789 C67.7721,499.8939 63.5336,540.5339 60.9149,565.6429 " fill="none" id="Izq-backto-Delantera" style="stroke:#181818;stroke-width:1.0;"/><polygon fill="none" points="64.0634,467.9709,73.1004,448.8049,77.9879,469.4229,64.0634,467.9709" style="stroke:#181818;stroke-width:1.0;"/></g><!--MD5=[dd7639b353416c9198ea101d626cad37]
reverse link Dcha to Trasera--><g id="link_Dcha_Trasera"><path codeLine="86" d="M187.5,468.8789 C187.5,499.8939 187.5,540.5339 187.5,565.6429 " fill="none" id="Dcha-backto-Trasera" style="stroke:#181818;stroke-width:1.0;"/><polygon fill="none" points="180.5,468.8049,187.5,448.8049,194.5,468.8049,180.5,468.8049" style="stroke:#181818;stroke-width:1.0;"/></g><!--MD5=[81c4cbe5554d353a4363ef0c1b368eae]
link Consola to Sensor--><g id="link_Consola_Sensor"><path codeLine="87" d="M1128.28,751.8999 C1118.94,769.5409 1106.04,793.9159 1096.15,812.6028 " fill="none" id="Consola-to-Sensor" style="stroke:#181818;stroke-width:1.0;stroke-dasharray:7.0,7.0;"/><polygon fill="#181818" points="1093.71,817.2236,1101.4579,811.1432,1096.0507,812.8053,1094.3886,807.3981,1093.71,817.2236" style="stroke:#181818;stroke-width:1.0;"/></g><!--MD5=[f879245d0963d3ab673e464fd0ac2b05]
link Consola to Display--><g id="link_Consola_Display"><path codeLine="88" d="M1152.72,751.8999 C1162.06,769.5409 1174.96,793.9159 1184.85,812.6028 " fill="none" id="Consola-to-Display" style="stroke:#181818;stroke-width:1.0;stroke-dasharray:7.0,7.0;"/><polygon fill="#181818" points="1187.29,817.2236,1186.6114,807.3981,1184.9493,812.8053,1179.5421,811.1432,1187.29,817.2236" style="stroke:#181818;stroke-width:1.0;"/></g><!--MD5=[0e4ef9a8054e84575a34456c060f179e]
@startuml
title Coche eléctrico

class CocheElectrico as "Coche eléctrico"
class Chasis
class Carroceria as "Carrocería"
class Puerta
class Capo as "Capó"
class Sensor
class Habitaculo as "Habitáculo"
class Motor as "Motor/Generador"
class Bateria as "Batería"
class Cargador
class Convertidor
class TomaCorriente as "Toma\nCorriente"
class Transmision as "Transmisión"
class Rueda
class Cubierta
class Llanta
class Amortiguacion as "Amortiguación"
enum Cambio{
Directa
Retroceso
Punto Muerto
}
class Direccion as "Dirección"
class Pedal
class Freno
class Acelerador
class Volante
enum Pieza{
Rotor
Estator
Polea
Carcasa
}
class Consola
class Display
class Asiento
class Delantero
class Trasero
class Maletero
class PlacaSolar as "Placa Solar"

CocheElectrico *-down-> Chasis
CocheElectrico *-down-> Carroceria
Chasis <-left- Carroceria
Chasis o-down-> Motor
Motor *- -> Pieza
Motor *- -> Acelerador
Motor - -> Bateria
Motor - -> Cargador
Carroceria *- -> Habitaculo
Habitaculo o- -> Pedal
Pedal <|- - Acelerador
Pedal <|- - Freno
Habitaculo *- -> Asiento
Asiento <|- - Delantero
Asiento <|- - Trasero
Chasis o-down-> Bateria
Chasis o-down-> Transmision
Motor - -> Transmision
Transmision - -> Rueda
Rueda *- -> Cubierta
Rueda *- -> Llanta
Rueda - -> Amortiguacion
Chasis o- -> Amortiguacion
Transmision *- -> Cambio


Chasis o-down-> Cargador
Cargador *- -> TomaCorriente
Cargador *- -> PlacaSolar
Carroceria o- -> TomaCorriente
Bateria - -> Cargador
Bateria - -> Convertidor
Convertidor - ->Consola
Chasis o-down-> Direccion
Direccion - -> Volante
Carroceria o- -> Puerta
Carroceria o- -> Capo
Carroceria o- -> Maletero
Carroceria o- -> PlacaSolar
Puerta <|- - Izq
Puerta <|- - Dcha
Izq <|- - Delantera
Dcha <|- - Trasera
Consola ..> Sensor
Consola ..> Display
@enduml

PlantUML version 1.2022.3beta2(Unknown compile time)
(GPL source distribution)
Java Runtime: Java(TM) SE Runtime Environment
JVM: Java HotSpot(TM) 64-Bit Server VM
Default Encoding: UTF-8
Language: en
Country: US
--></g></svg>