<?xml version="1.0" encoding="UTF-8" standalone="no"?><svg xmlns="http://www.w3.org/2000/svg" xmlns:xlink="http://www.w3.org/1999/xlink" contentStyleType="text/css" height="345px" preserveAspectRatio="none" style="width:714px;height:345px;background:#FFFFFF;" version="1.1" viewBox="0 0 714 345" width="714px" zoomAndPan="magnify"><defs/><g><rect fill="#F1F1F1" height="40.5938" rx="5" ry="5" style="stroke:#F1F1F1;stroke-width:1.5;" width="105" x="10" y="147"/><text fill="#000000" font-family="sans-serif" font-size="14" font-weight="bold" lengthAdjust="spacing" textLength="60" x="15" y="161.9951">classes</text><text fill="#000000" font-family="sans-serif" font-size="14" lengthAdjust="spacing" textLength="12" x="98" y="161.9951">   </text><line style="stroke:#000000;stroke-width:1.0;" x1="93" x2="93" y1="147" y2="167.2969"/><line style="stroke:#000000;stroke-width:1.0;" x1="10" x2="115" y1="167.2969" y2="167.2969"/><text fill="#000000" font-family="sans-serif" font-size="14" font-weight="bold" lengthAdjust="spacing" textLength="73" x="15" y="182.292">relations</text><text fill="#000000" font-family="sans-serif" font-size="14" lengthAdjust="spacing" textLength="12" x="98" y="182.292">   </text><line style="stroke:#000000;stroke-width:1.0;" x1="93" x2="93" y1="167.2969" y2="187.5938"/><rect fill="none" height="40.5938" rx="5" ry="5" style="stroke:#000000;stroke-width:1.5;" width="105" x="10" y="147"/><rect fill="#F1F1F1" height="60.8906" rx="5" ry="5" style="stroke:#F1F1F1;stroke-width:1.5;" width="22" x="152" y="78"/><text fill="#000000" font-family="sans-serif" font-size="14" lengthAdjust="spacing" textLength="12" x="157" y="92.9951">   </text><line style="stroke:#000000;stroke-width:1.0;" x1="152" x2="174" y1="98.2969" y2="98.2969"/><text fill="#000000" font-family="sans-serif" font-size="14" lengthAdjust="spacing" textLength="12" x="157" y="113.292">   </text><line style="stroke:#000000;stroke-width:1.0;" x1="152" x2="174" y1="118.5938" y2="118.5938"/><text fill="#000000" font-family="sans-serif" font-size="14" lengthAdjust="spacing" textLength="12" x="157" y="133.5889">   </text><rect fill="none" height="60.8906" rx="5" ry="5" style="stroke:#000000;stroke-width:1.5;" width="22" x="152" y="78"/><rect fill="#F1F1F1" height="40.5938" rx="5" ry="5" style="stroke:#F1F1F1;stroke-width:1.5;" width="116" x="257.5" y="30"/><text fill="#000000" font-family="sans-serif" font-size="14" font-weight="bold" lengthAdjust="spacing" textLength="15" x="262.5" y="44.9951">id</text><text fill="#000000" font-family="sans-serif" font-size="14" lengthAdjust="spacing" textLength="10" x="356.5" y="44.9951">X</text><line style="stroke:#000000;stroke-width:1.0;" x1="351.5" x2="351.5" y1="30" y2="50.2969"/><line style="stroke:#000000;stroke-width:1.0;" x1="257.5" x2="373.5" y1="50.2969" y2="50.2969"/><text fill="#000000" font-family="sans-serif" font-size="14" font-weight="bold" lengthAdjust="spacing" textLength="84" x="262.5" y="65.292">attributes</text><text fill="#000000" font-family="sans-serif" font-size="14" lengthAdjust="spacing" textLength="12" x="356.5" y="65.292">   </text><line style="stroke:#000000;stroke-width:1.0;" x1="351.5" x2="351.5" y1="50.2969" y2="70.5938"/><rect fill="none" height="40.5938" rx="5" ry="5" style="stroke:#000000;stroke-width:1.5;" width="116" x="257.5" y="30"/><rect fill="#F1F1F1" height="40.5938" rx="5" ry="5" style="stroke:#F1F1F1;stroke-width:1.5;" width="22" x="486.5" y="40"/><text fill="#000000" font-family="sans-serif" font-size="14" lengthAdjust="spacing" textLength="12" x="491.5" y="54.9951">   </text><line style="stroke:#000000;stroke-width:1.0;" x1="486.5" x2="508.5" y1="60.2969" y2="60.2969"/><text fill="#000000" font-family="sans-serif" font-size="14" lengthAdjust="spacing" textLength="12" x="491.5" y="75.292">   </text><rect fill="none" height="40.5938" rx="5" ry="5" style="stroke:#000000;stroke-width:1.5;" width="22" x="486.5" y="40"/><rect fill="#F1F1F1" height="40.5938" rx="5" ry="5" style="stroke:#F1F1F1;stroke-width:1.5;" width="115" x="583" y="10"/><text fill="#000000" font-family="sans-serif" font-size="14" font-weight="bold" lengthAdjust="spacing" textLength="15" x="588" y="24.9951">id</text><text fill="#000000" font-family="sans-serif" font-size="14" lengthAdjust="spacing" textLength="59" x="634" y="24.9951">atributo</text><line style="stroke:#000000;stroke-width:1.0;" x1="629" x2="629" y1="10" y2="30.2969"/><line style="stroke:#000000;stroke-width:1.0;" x1="583" x2="698" y1="30.2969" y2="30.2969"/><text fill="#000000" font-family="sans-serif" font-size="14" font-weight="bold" lengthAdjust="spacing" textLength="36" x="588" y="45.292">type</text><text fill="#000000" font-family="sans-serif" font-size="14" lengthAdjust="spacing" textLength="20" x="634" y="45.292">int</text><line style="stroke:#000000;stroke-width:1.0;" x1="629" x2="629" y1="30.2969" y2="50.5938"/><rect fill="none" height="40.5938" rx="5" ry="5" style="stroke:#000000;stroke-width:1.5;" width="115" x="583" y="10"/><rect fill="#F1F1F1" height="40.5938" rx="5" ry="5" style="stroke:#F1F1F1;stroke-width:1.5;" width="123" x="579" y="69"/><text fill="#000000" font-family="sans-serif" font-size="14" font-weight="bold" lengthAdjust="spacing" textLength="15" x="584" y="83.9951">id</text><text fill="#000000" font-family="sans-serif" font-size="14" lengthAdjust="spacing" textLength="67" x="630" y="83.9951">atributo2</text><line style="stroke:#000000;stroke-width:1.0;" x1="625" x2="625" y1="69" y2="89.2969"/><line style="stroke:#000000;stroke-width:1.0;" x1="579" x2="702" y1="89.2969" y2="89.2969"/><text fill="#000000" font-family="sans-serif" font-size="14" font-weight="bold" lengthAdjust="spacing" textLength="36" x="584" y="104.292">type</text><text fill="#000000" font-family="sans-serif" font-size="14" lengthAdjust="spacing" textLength="58" x="630" y="104.292">boolean</text><line style="stroke:#000000;stroke-width:1.0;" x1="625" x2="625" y1="89.2969" y2="109.5938"/><rect fill="none" height="40.5938" rx="5" ry="5" style="stroke:#000000;stroke-width:1.5;" width="123" x="579" y="69"/><rect fill="#F1F1F1" height="20.2969" rx="5" ry="5" style="stroke:#F1F1F1;stroke-width:1.5;" width="44" x="293.5" y="89.5"/><text fill="#000000" font-family="sans-serif" font-size="14" font-weight="bold" lengthAdjust="spacing" textLength="15" x="298.5" y="104.4951">id</text><text fill="#000000" font-family="sans-serif" font-size="14" lengthAdjust="spacing" textLength="9" x="323.5" y="104.4951">Y</text><line style="stroke:#000000;stroke-width:1.0;" x1="318.5" x2="318.5" y1="89.5" y2="109.7969"/><rect fill="none" height="20.2969" rx="5" ry="5" style="stroke:#000000;stroke-width:1.5;" width="44" x="293.5" y="89.5"/><rect fill="#F1F1F1" height="20.2969" rx="5" ry="5" style="stroke:#F1F1F1;stroke-width:1.5;" width="45" x="293" y="127.5"/><text fill="#000000" font-family="sans-serif" font-size="14" font-weight="bold" lengthAdjust="spacing" textLength="15" x="298" y="142.4951">id</text><text fill="#000000" font-family="sans-serif" font-size="14" lengthAdjust="spacing" textLength="10" x="323" y="142.4951">Z</text><line style="stroke:#000000;stroke-width:1.0;" x1="318" x2="318" y1="127.5" y2="147.7969"/><rect fill="none" height="20.2969" rx="5" ry="5" style="stroke:#000000;stroke-width:1.5;" width="45" x="293" y="127.5"/><rect fill="#F1F1F1" height="40.5938" rx="5" ry="5" style="stroke:#F1F1F1;stroke-width:1.5;" width="22" x="152" y="197"/><text fill="#000000" font-family="sans-serif" font-size="14" lengthAdjust="spacing" textLength="12" x="157" y="211.9951">   </text><line style="stroke:#000000;stroke-width:1.0;" x1="152" x2="174" y1="217.2969" y2="217.2969"/><text fill="#000000" font-family="sans-serif" font-size="14" lengthAdjust="spacing" textLength="12" x="157" y="232.292">   </text><rect fill="none" height="40.5938" rx="5" ry="5" style="stroke:#000000;stroke-width:1.5;" width="22" x="152" y="197"/><rect fill="#F1F1F1" height="81.1875" rx="5" ry="5" style="stroke:#F1F1F1;stroke-width:1.5;" width="205" x="213" y="166"/><text fill="#000000" font-family="sans-serif" font-size="14" font-weight="bold" lengthAdjust="spacing" textLength="36" x="218" y="180.9951">type</text><text fill="#000000" font-family="sans-serif" font-size="14" lengthAdjust="spacing" textLength="90" x="320" y="180.9951">composition</text><line style="stroke:#000000;stroke-width:1.0;" x1="315" x2="315" y1="166" y2="186.2969"/><line style="stroke:#000000;stroke-width:1.0;" x1="213" x2="418" y1="186.2969" y2="186.2969"/><text fill="#000000" font-family="sans-serif" font-size="14" font-weight="bold" lengthAdjust="spacing" textLength="47" x="218" y="201.292">origin</text><text fill="#000000" font-family="sans-serif" font-size="14" lengthAdjust="spacing" textLength="12" x="320" y="201.292">   </text><line style="stroke:#000000;stroke-width:1.0;" x1="315" x2="315" y1="186.2969" y2="206.5938"/><line style="stroke:#000000;stroke-width:1.0;" x1="213" x2="418" y1="206.5938" y2="206.5938"/><text fill="#000000" font-family="sans-serif" font-size="14" font-weight="bold" lengthAdjust="spacing" textLength="52" x="218" y="221.5889">target</text><text fill="#000000" font-family="sans-serif" font-size="14" lengthAdjust="spacing" textLength="12" x="320" y="221.5889">   </text><line style="stroke:#000000;stroke-width:1.0;" x1="315" x2="315" y1="206.5938" y2="226.8906"/><line style="stroke:#000000;stroke-width:1.0;" x1="213" x2="418" y1="226.8906" y2="226.8906"/><text fill="#000000" font-family="sans-serif" font-size="14" font-weight="bold" lengthAdjust="spacing" textLength="92" x="218" y="241.8857">description</text><text fill="#000000" font-family="sans-serif" font-size="14" lengthAdjust="spacing" textLength="93" x="320" y="241.8857">Colaboration</text><line style="stroke:#000000;stroke-width:1.0;" x1="315" x2="315" y1="226.8906" y2="247.1875"/><rect fill="none" height="81.1875" rx="5" ry="5" style="stroke:#000000;stroke-width:1.5;" width="205" x="213" y="166"/><rect fill="#F1F1F1" height="20.2969" rx="5" ry="5" style="stroke:#F1F1F1;stroke-width:1.5;" width="87" x="455" y="176.5"/><text fill="#000000" font-family="sans-serif" font-size="14" font-weight="bold" lengthAdjust="spacing" textLength="57" x="460" y="191.4951">classId</text><text fill="#000000" font-family="sans-serif" font-size="14" lengthAdjust="spacing" textLength="10" x="527" y="191.4951">X</text><line style="stroke:#000000;stroke-width:1.0;" x1="522" x2="522" y1="176.5" y2="196.7969"/><rect fill="none" height="20.2969" rx="5" ry="5" style="stroke:#000000;stroke-width:1.5;" width="87" x="455" y="176.5"/><rect fill="#F1F1F1" height="20.2969" rx="5" ry="5" style="stroke:#F1F1F1;stroke-width:1.5;" width="86" x="455.5" y="214.5"/><text fill="#000000" font-family="sans-serif" font-size="14" font-weight="bold" lengthAdjust="spacing" textLength="57" x="460.5" y="229.4951">classId</text><text fill="#000000" font-family="sans-serif" font-size="14" lengthAdjust="spacing" textLength="9" x="527.5" y="229.4951">Y</text><line style="stroke:#000000;stroke-width:1.0;" x1="522.5" x2="522.5" y1="214.5" y2="234.7969"/><rect fill="none" height="20.2969" rx="5" ry="5" style="stroke:#000000;stroke-width:1.5;" width="86" x="455.5" y="214.5"/><rect fill="#F1F1F1" height="60.8906" rx="5" ry="5" style="stroke:#F1F1F1;stroke-width:1.5;" width="154" x="238.5" y="265"/><text fill="#000000" font-family="sans-serif" font-size="14" font-weight="bold" lengthAdjust="spacing" textLength="36" x="243.5" y="279.9951">type</text><text fill="#000000" font-family="sans-serif" font-size="14" lengthAdjust="spacing" textLength="82" x="305.5" y="279.9951">inheritance</text><line style="stroke:#000000;stroke-width:1.0;" x1="300.5" x2="300.5" y1="265" y2="285.2969"/><line style="stroke:#000000;stroke-width:1.0;" x1="238.5" x2="392.5" y1="285.2969" y2="285.2969"/><text fill="#000000" font-family="sans-serif" font-size="14" font-weight="bold" lengthAdjust="spacing" textLength="47" x="243.5" y="300.292">origin</text><text fill="#000000" font-family="sans-serif" font-size="14" lengthAdjust="spacing" textLength="12" x="305.5" y="300.292">   </text><line style="stroke:#000000;stroke-width:1.0;" x1="300.5" x2="300.5" y1="285.2969" y2="305.5938"/><line style="stroke:#000000;stroke-width:1.0;" x1="238.5" x2="392.5" y1="305.5938" y2="305.5938"/><text fill="#000000" font-family="sans-serif" font-size="14" font-weight="bold" lengthAdjust="spacing" textLength="52" x="243.5" y="320.5889">target</text><text fill="#000000" font-family="sans-serif" font-size="14" lengthAdjust="spacing" textLength="12" x="305.5" y="320.5889">   </text><line style="stroke:#000000;stroke-width:1.0;" x1="300.5" x2="300.5" y1="305.5938" y2="325.8906"/><rect fill="none" height="60.8906" rx="5" ry="5" style="stroke:#000000;stroke-width:1.5;" width="154" x="238.5" y="265"/><rect fill="#F1F1F1" height="20.2969" rx="5" ry="5" style="stroke:#F1F1F1;stroke-width:1.5;" width="87" x="455" y="275.5"/><text fill="#000000" font-family="sans-serif" font-size="14" font-weight="bold" lengthAdjust="spacing" textLength="57" x="460" y="290.4951">classId</text><text fill="#000000" font-family="sans-serif" font-size="14" lengthAdjust="spacing" textLength="10" x="527" y="290.4951">Z</text><line style="stroke:#000000;stroke-width:1.0;" x1="522" x2="522" y1="275.5" y2="295.7969"/><rect fill="none" height="20.2969" rx="5" ry="5" style="stroke:#000000;stroke-width:1.5;" width="87" x="455" y="275.5"/><rect fill="#F1F1F1" height="20.2969" rx="5" ry="5" style="stroke:#F1F1F1;stroke-width:1.5;" width="87" x="455" y="313.5"/><text fill="#000000" font-family="sans-serif" font-size="14" font-weight="bold" lengthAdjust="spacing" textLength="57" x="460" y="328.4951">classId</text><text fill="#000000" font-family="sans-serif" font-size="14" lengthAdjust="spacing" textLength="10" x="527" y="328.4951">X</text><line style="stroke:#000000;stroke-width:1.0;" x1="522" x2="522" y1="313.5" y2="333.7969"/><rect fill="none" height="20.2969" rx="5" ry="5" style="stroke:#000000;stroke-width:1.5;" width="87" x="455" y="313.5"/><path d="M499,49.5 L512,49.5 C532.8172,49.5 555.3344,47.0107 575.5936,43.8342 " fill="none" style="stroke:#000000;stroke-width:1.0;stroke-dasharray:3.0,3.0;"/><path d="M576.0925,46.8924 L577.8873,43.46 L575.0946,40.7759 L583.2393,42.5868 L576.0925,46.8924 " fill="#000000" style="stroke:#000000;stroke-width:1.0;"/><ellipse cx="499" cy="49.5" fill="#000000" rx="3" ry="3" style="stroke:#000000;stroke-width:1.0;"/><path d="M499,70.5 L512,70.5 C531.5355,70.5 552.5681,72.6922 571.8268,75.5874 " fill="none" style="stroke:#000000;stroke-width:1.0;stroke-dasharray:3.0,3.0;"/><path d="M571.3522,78.6145 L574.0972,75.9433 L572.3015,72.5602 L579.3948,76.774 L571.3522,78.6145 " fill="#000000" style="stroke:#000000;stroke-width:1.0;"/><ellipse cx="499" cy="70.5" fill="#000000" rx="3" ry="3" style="stroke:#000000;stroke-width:1.0;"/><path d="M362,60.5 L375,60.5 C411.8668,60.5 454.9493,60.5 479.0966,60.5 " fill="none" style="stroke:#000000;stroke-width:1.0;stroke-dasharray:3.0,3.0;"/><path d="M479.0966,63.5841 L481.4097,60.5 L479.0966,57.4159 L486.8069,60.5 L479.0966,63.5841 " fill="#000000" style="stroke:#000000;stroke-width:1.0;"/><ellipse cx="362" cy="60.5" fill="#000000" rx="3" ry="3" style="stroke:#000000;stroke-width:1.0;"/><path d="M164,87.5 L177,87.5 C184.8117,87.5 218.3512,78.5407 250.4067,69.4395 " fill="none" style="stroke:#000000;stroke-width:1.0;stroke-dasharray:3.0,3.0;"/><path d="M251.2321,72.3338 L252.5775,68.8204 L249.5813,66.5451 L257.6425,67.3759 L251.2321,72.3338 " fill="#000000" style="stroke:#000000;stroke-width:1.0;"/><ellipse cx="164" cy="87.5" fill="#000000" rx="3" ry="3" style="stroke:#000000;stroke-width:1.0;"/><path d="M164,107.5 L177,107.5 C214.7874,107.5 258.2976,104.4735 286.1956,102.1436 " fill="none" style="stroke:#000000;stroke-width:1.0;stroke-dasharray:3.0,3.0;"/><path d="M286.462,105.2575 L288.531,101.9438 L285.9292,99.0297 L293.9803,101.4775 L286.462,105.2575 " fill="#000000" style="stroke:#000000;stroke-width:1.0;"/><ellipse cx="164" cy="107.5" fill="#000000" rx="3" ry="3" style="stroke:#000000;stroke-width:1.0;"/><path d="M164,128.5 L177,128.5 C214.3672,128.5 257.3054,131.8265 285.2295,134.4348 " fill="none" style="stroke:#000000;stroke-width:1.0;stroke-dasharray:3.0,3.0;"/><path d="M284.9305,137.559 L287.5727,134.659 L285.5285,131.3105 L293.0401,135.1823 L284.9305,137.559 " fill="#000000" style="stroke:#000000;stroke-width:1.0;"/><ellipse cx="164" cy="128.5" fill="#000000" rx="3" ry="3" style="stroke:#000000;stroke-width:1.0;"/><path d="M103,156.5 L116,156.5 C129.3286,156.5 140.1868,147.0336 148.1401,136.5086 " fill="none" style="stroke:#000000;stroke-width:1.0;stroke-dasharray:3.0,3.0;"/><path d="M150.6424,138.2461 L149.4433,134.6319 L145.6378,134.7711 L152.484,130.2529 L150.6424,138.2461 " fill="#000000" style="stroke:#000000;stroke-width:1.0;"/><ellipse cx="103" cy="156.5" fill="#000000" rx="3" ry="3" style="stroke:#000000;stroke-width:1.0;"/><path d="M406,195.5 L419,195.5 C428.3673,195.5 438.3195,194.8676 447.8882,193.9381 " fill="none" style="stroke:#000000;stroke-width:1.0;stroke-dasharray:3.0,3.0;"/><path d="M448.2093,196.9674 L450.1602,193.6973 L447.5671,190.9088 L455.4615,193.1354 L448.2093,196.9674 " fill="#000000" style="stroke:#000000;stroke-width:1.0;"/><ellipse cx="406" cy="195.5" fill="#000000" rx="3" ry="3" style="stroke:#000000;stroke-width:1.0;"/><path d="M406,216.5 L419,216.5 C428.4635,216.5 438.5323,217.0753 448.2014,217.9173 " fill="none" style="stroke:#000000;stroke-width:1.0;stroke-dasharray:3.0,3.0;"/><path d="M447.9107,220.9771 L450.4962,218.1353 L448.492,214.8575 L455.8508,218.6439 L447.9107,220.9771 " fill="#000000" style="stroke:#000000;stroke-width:1.0;"/><ellipse cx="406" cy="216.5" fill="#000000" rx="3" ry="3" style="stroke:#000000;stroke-width:1.0;"/><path d="M164,206.5 L177,206.5 C186.2633,206.5 195.8763,206.5 205.5221,206.5 " fill="none" style="stroke:#000000;stroke-width:1.0;stroke-dasharray:3.0,3.0;"/><path d="M205.5221,209.5947 L207.8432,206.5 L205.5221,203.4053 L213.2589,206.5 L205.5221,209.5947 " fill="#000000" style="stroke:#000000;stroke-width:1.0;"/><ellipse cx="164" cy="206.5" fill="#000000" rx="3" ry="3" style="stroke:#000000;stroke-width:1.0;"/><path d="M381,294.5 L394,294.5 C411.5234,294.5 430.646,293.2161 447.66,291.6181 " fill="none" style="stroke:#000000;stroke-width:1.0;stroke-dasharray:3.0,3.0;"/><path d="M447.9611,294.6803 L449.9566,291.3923 L447.3588,288.5559 L455.3155,290.8653 L447.9611,294.6803 " fill="#000000" style="stroke:#000000;stroke-width:1.0;"/><ellipse cx="381" cy="294.5" fill="#000000" rx="3" ry="3" style="stroke:#000000;stroke-width:1.0;"/><path d="M381,315.5 L394,315.5 C411.5097,315.5 430.629,316.6413 447.6441,318.0617 " fill="none" style="stroke:#000000;stroke-width:1.0;stroke-dasharray:3.0,3.0;"/><path d="M447.3764,321.1242 L449.941,318.2624 L447.9118,314.9991 L455.3004,318.7308 L447.3764,321.1242 " fill="#000000" style="stroke:#000000;stroke-width:1.0;"/><ellipse cx="381" cy="315.5" fill="#000000" rx="3" ry="3" style="stroke:#000000;stroke-width:1.0;"/><path d="M164,227.5 L177,227.5 C197.2698,227.5 195.3832,245.4744 213,255.5 C219.0095,258.92 225.3691,262.1753 231.858,265.2436 " fill="none" style="stroke:#000000;stroke-width:1.0;stroke-dasharray:3.0,3.0;"/><path d="M230.556,268.0763 L233.9825,266.2202 L233.1601,262.411 L238.9396,268.4987 L230.556,268.0763 " fill="#000000" style="stroke:#000000;stroke-width:1.0;"/><ellipse cx="164" cy="227.5" fill="#000000" rx="3" ry="3" style="stroke:#000000;stroke-width:1.0;"/><path d="M103,177.5 L116,177.5 C128.3813,177.5 139.2133,185.55 147.3942,194.4274 " fill="none" style="stroke:#000000;stroke-width:1.0;stroke-dasharray:3.0,3.0;"/><path d="M145.0435,196.4205 L148.8891,196.1904 L149.745,192.4342 L152.3771,200.3043 L145.0435,196.4205 " fill="#000000" style="stroke:#000000;stroke-width:1.0;"/><ellipse cx="103" cy="177.5" fill="#000000" rx="3" ry="3" style="stroke:#000000;stroke-width:1.0;"/><!--MD5=[7c0915d1fdf77c4124407982828918f6]
@startyaml

classes:
 -id: X
  attributes:
   -id: atributo
    type: int
   -id: atributo2
    type: boolean
 -id: Y
 -id: Z
relations:
 -type: composition
  origin: 
   classId: X
  target:
   classId: Y
  description: "Colaboration"
 -type: inheritance
  origin: 
   classId: Z
  target:
   classId: X

@endyaml

PlantUML version 1.2022.3(Tue Mar 29 16:10:57 UTC 2022)
(GPL source distribution)
Java Runtime: Java(TM) SE Runtime Environment
JVM: Java HotSpot(TM) 64-Bit Server VM
Default Encoding: UTF-8
Language: en
Country: US
--></g></svg>