<?xml version="1.0" encoding="UTF-8" standalone="no"?><svg xmlns="http://www.w3.org/2000/svg" xmlns:xlink="http://www.w3.org/1999/xlink" contentStyleType="text/css" height="894px" preserveAspectRatio="none" style="width:994px;height:894px;background:#FFFFFF;" version="1.1" viewBox="0 0 994 894" width="994px" zoomAndPan="magnify"><defs/><g><rect height="26.2969" style="stroke:#00000000;stroke-width:1.0;fill:none;" width="327" x="326.5841" y="5"/><text fill="#000000" font-family="sans-serif" font-size="14" font-weight="bold" lengthAdjust="spacing" textLength="317" x="331.5841" y="22.9951">Card location with StateChart diagram</text><ellipse cx="672.1681" cy="53.2969" fill="#222222" rx="10" ry="10" style="stroke:none;stroke-width:1.0;"/><g id="suffle"><rect fill="#F1F1F1" height="50" rx="12.5" ry="12.5" style="stroke:#181818;stroke-width:0.5;" width="60" x="642.1681" y="124.2969"/><line style="stroke:#181818;stroke-width:0.5;" x1="642.1681" x2="702.1681" y1="150.5938" y2="150.5938"/><text fill="#000000" font-family="sans-serif" font-size="14" lengthAdjust="spacing" textLength="40" x="652.1681" y="142.292">suffle</text></g><g id="stock"><rect fill="#F1F1F1" height="52.5938" rx="12.5" ry="12.5" style="stroke:#181818;stroke-width:0.5;" width="78" x="458.1681" y="251.2969"/><line style="stroke:#181818;stroke-width:0.5;" x1="458.1681" x2="536.1681" y1="277.5938" y2="277.5938"/><text fill="#000000" font-family="sans-serif" font-size="14" lengthAdjust="spacing" textLength="40" x="477.1681" y="269.292">stock</text><text fill="#000000" font-family="sans-serif" font-size="14" lengthAdjust="spacing" textLength="58" x="463.1681" y="295.5889">24 cards</text></g><g id="tableau"><rect fill="#F1F1F1" height="68.8906" rx="12.5" ry="12.5" style="stroke:#181818;stroke-width:0.5;" width="95" x="224.6681" y="705.7969"/><line style="stroke:#181818;stroke-width:0.5;" x1="224.6681" x2="319.6681" y1="732.0938" y2="732.0938"/><text fill="#000000" font-family="sans-serif" font-size="14" lengthAdjust="spacing" textLength="54" x="245.1681" y="723.792">tableau</text><text fill="#000000" font-family="sans-serif" font-size="14" lengthAdjust="spacing" textLength="75" x="229.6681" y="750.0889">7 tableaux</text><text fill="#000000" font-family="sans-serif" font-size="14" lengthAdjust="spacing" textLength="58" x="229.6681" y="766.3857">28 cards</text></g><g id="waste"><rect fill="#F1F1F1" height="85.1875" rx="12.5" ry="12.5" style="stroke:#181818;stroke-width:0.5;" width="100" x="372.1681" y="381.2969"/><line style="stroke:#181818;stroke-width:0.5;" x1="372.1681" x2="472.1681" y1="407.5938" y2="407.5938"/><text fill="#000000" font-family="sans-serif" font-size="14" lengthAdjust="spacing" textLength="42" x="401.1681" y="399.292">waste</text><text fill="#000000" font-family="sans-serif" font-size="14" lengthAdjust="spacing" textLength="80" x="377.1681" y="425.5889">one by one</text><text fill="#000000" font-family="sans-serif" font-size="14" lengthAdjust="spacing" textLength="52" x="377.1681" y="441.8857">in pairs</text><text fill="#000000" font-family="sans-serif" font-size="14" lengthAdjust="spacing" textLength="64" x="377.1681" y="458.1826">in threes</text></g><g id="foundation"><rect fill="#F1F1F1" height="68.8906" rx="12.5" ry="12.5" style="stroke:#181818;stroke-width:0.5;" width="125" x="34.6677" y="558.2969"/><line style="stroke:#181818;stroke-width:0.5;" x1="34.6677" x2="159.6677" y1="584.5938" y2="584.5938"/><text fill="#000000" font-family="sans-serif" font-size="14" lengthAdjust="spacing" textLength="78" x="58.1677" y="576.292">foundation</text><text fill="#000000" font-family="sans-serif" font-size="14" lengthAdjust="spacing" textLength="97" x="39.6677" y="602.5889">4 foundations</text><text fill="#000000" font-family="sans-serif" font-size="14" lengthAdjust="spacing" textLength="105" x="39.6677" y="618.8857">order ace-king</text></g><ellipse cx="78.1677" cy="878.2969" fill="none" rx="10" ry="10" style="stroke:#222222;stroke-width:1.0;"/><ellipse cx="78.6677" cy="878.7969" fill="#222222" rx="6" ry="6" style="stroke:none;stroke-width:1.0;"/><!--MD5=[f4be447489ba3a22894a200368e02edd]
link *start to suffle--><g id="link_*start_suffle"><path d="M672.1681,63.3099 C672.1681,75.9949 672.1681,99.7059 672.1681,118.8669 " fill="none" id="*start-to-suffle" style="stroke:#181818;stroke-width:1.0;"/><polygon fill="#181818" points="672.1681,124.1369,676.1681,115.1369,672.1681,119.1369,668.1681,115.1369,672.1681,124.1369" style="stroke:#181818;stroke-width:1.0;"/></g><!--MD5=[f897dae8ab47a0705144cd1322e52ba6]
link suffle to stock--><g id="link_suffle_stock"><path d="M642.1371,171.4859 C628.1331,181.4039 611.2641,193.4069 596.1681,204.2969 C576.2501,218.6649 554.1951,234.7939 535.9671,248.1859 " fill="none" id="suffle-to-stock" style="stroke:#181818;stroke-width:1.0;"/><polygon fill="#181818" points="531.8991,251.1749,541.5198,249.0671,535.9277,248.2134,536.7814,242.6214,531.8991,251.1749" style="stroke:#181818;stroke-width:1.0;"/><text fill="#000000" font-family="sans-serif" font-size="13" lengthAdjust="spacing" textLength="173" x="597.1681" y="217.3638">the rest of cards facedown</text></g><!--MD5=[36522b3a0d668527d24277a4afdd7aa1]
link suffle to tableau--><g id="link_suffle_tableau"><path d="M702.4671,159.0599 C725.5161,167.2159 756.3751,181.5859 775.1681,204.2969 C796.6351,230.2399 797.1681,243.1239 797.1681,276.7969 C797.1681,276.7969 797.1681,276.7969 797.1681,593.7969 C797.1681,691.1459 457.7031,726.0159 324.7101,735.9409 " fill="none" id="suffle-to-tableau" style="stroke:#181818;stroke-width:1.0;"/><polygon fill="#181818" points="319.6841,736.3119,328.9535,739.6403,324.6706,735.9448,328.3661,731.6619,319.6841,736.3119" style="stroke:#181818;stroke-width:1.0;"/><text fill="#000000" font-family="sans-serif" font-size="13" lengthAdjust="spacing" textLength="188" x="798.1681" y="420.8638">put one face up each tableau</text><text fill="#000000" font-family="sans-serif" font-size="13" lengthAdjust="spacing" textLength="91" x="846.6681" y="435.9966">0..6 facedown</text></g><!--MD5=[b2b520be0f44ce655e906d0af0379a83]
link stock to waste--><g id="link_stock_waste"><path d="M483.7591,304.5409 C473.3701,324.4879 458.7041,352.6469 446.2891,376.4839 " fill="none" id="stock-to-waste" style="stroke:#181818;stroke-width:1.0;"/><polygon fill="#181818" points="443.8381,381.1899,451.5437,375.056,446.1481,376.7555,444.4487,371.36,443.8381,381.1899" style="stroke:#181818;stroke-width:1.0;"/><text fill="#000000" font-family="sans-serif" font-size="13" lengthAdjust="spacing" textLength="189" x="468.1681" y="347.3638">turn faceup one, two or three</text></g><!--MD5=[8b3d11cfe271e40592014241312d1275]
link waste to stock--><g id="link_waste_stock"><path d="M411.1241,381.2449 C409.1801,365.7419 409.7471,348.4769 417.1681,334.2969 C425.1231,319.0949 439.3461,307.2239 453.6161,298.4309 " fill="none" id="waste-to-stock" style="stroke:#181818;stroke-width:1.0;"/><polygon fill="#181818" points="458.0391,295.8009,448.2591,296.9635,453.7417,298.3567,452.3485,303.8393,458.0391,295.8009" style="stroke:#181818;stroke-width:1.0;"/><text fill="#000000" font-family="sans-serif" font-size="13" lengthAdjust="spacing" textLength="33" x="418.1681" y="347.3638">reset</text></g><!--MD5=[6c1a676170340e39f983c0899ad7780a]
link waste to foundation--><g id="link_waste_foundation"><path d="M372.0761,439.3999 C332.3861,451.9169 276.1551,471.7909 230.1681,496.2969 C199.1011,512.8519 166.9691,535.7369 142.0711,554.9549 " fill="none" id="waste-to-foundation" style="stroke:#181818;stroke-width:1.0;"/><polygon fill="#181818" points="137.8241,558.2509,147.3865,555.8926,141.774,555.1852,142.4814,549.5728,137.8241,558.2509" style="stroke:#181818;stroke-width:1.0;"/><text fill="#000000" font-family="sans-serif" font-size="13" lengthAdjust="spacing" textLength="164" x="231.1681" y="509.3638">move in order ace to king</text><text fill="#000000" font-family="sans-serif" font-size="13" lengthAdjust="spacing" textLength="72" x="277.1681" y="524.4966">one by one</text></g><!--MD5=[bfe1981a3320b58e493db2ff109a895a]
link tableau to foundation--><g id="link_tableau_foundation"><path d="M224.6661,732.2009 C165.6751,722.3049 70.2205,702.3619 49.1677,674.2969 C39.1687,660.9669 44.8503,645.4209 55.2673,631.5629 " fill="none" id="tableau-to-foundation" style="stroke:#181818;stroke-width:1.0;"/><polygon fill="#181818" points="58.6401,627.3209,49.9082,631.8766,55.5286,631.2347,56.1704,636.8551,58.6401,627.3209" style="stroke:#181818;stroke-width:1.0;"/><text fill="#000000" font-family="sans-serif" font-size="13" lengthAdjust="spacing" textLength="178" x="50.1677" y="670.3638">[n+1 same suit same color]</text></g><!--MD5=[41de20ae049cc0d7ec122b870188cd1e]
link foundation to tableau--><g id="link_foundation_tableau"><path d="M159.9141,612.6309 C185.1111,622.6689 212.9201,637.1929 233.1681,657.2969 C245.2281,669.2719 254.0471,685.7039 260.2161,700.7159 " fill="none" id="foundation-to-tableau" style="stroke:#181818;stroke-width:1.0;"/><polygon fill="#181818" points="262.2081,705.7429,262.6124,695.9023,260.3667,701.0943,255.1747,698.8486,262.2081,705.7429" style="stroke:#181818;stroke-width:1.0;"/><text fill="#000000" font-family="sans-serif" font-size="13" lengthAdjust="spacing" textLength="125" x="247.1681" y="670.3638">[n-1 different color]</text></g><!--MD5=[463ea388dbbb69508a0b194d8cfe30e1]
link waste to tableau--><g id="link_waste_tableau"><path d="M425.5151,466.6779 C427.6141,519.6569 423.9211,611.5329 381.1681,674.2969 C367.4451,694.4429 345.2261,709.3159 324.4171,719.7109 " fill="none" id="waste-to-tableau" style="stroke:#181818;stroke-width:1.0;"/><polygon fill="#181818" points="319.7241,721.9929,329.5671,721.6538,324.2205,719.8061,326.0682,714.4595,319.7241,721.9929" style="stroke:#181818;stroke-width:1.0;"/><text fill="#000000" font-family="sans-serif" font-size="13" lengthAdjust="spacing" textLength="320" x="422.1681" y="589.8638">[is king? only to empty tableau or the faceup card</text><text fill="#000000" font-family="sans-serif" font-size="13" lengthAdjust="spacing" textLength="287" x="438.6681" y="604.9966">of destiny tableau is n+1 and different color]</text></g><!--MD5=[6b68ab8b02a166a0610764de0f9f0745]
link tableau to tableau--><g id="link_tableau_tableau"><path d="M320.0571,726.4909 C338.9161,725.7939 354.6681,730.3969 354.6681,740.2969 C354.6681,749.2689 341.7311,753.8899 325.2691,754.1589 " fill="none" id="tableau-to-tableau" style="stroke:#181818;stroke-width:1.0;"/><polygon fill="#181818" points="320.0571,754.1029,329.0131,758.2003,325.0568,754.1572,329.1,750.2008,320.0571,754.1029" style="stroke:#181818;stroke-width:1.0;"/><text fill="#000000" font-family="sans-serif" font-size="13" lengthAdjust="spacing" textLength="293" x="376.6681" y="722.3638">[the top one is king? only to empty tableau or</text><text fill="#000000" font-family="sans-serif" font-size="13" lengthAdjust="spacing" textLength="264" x="391.1681" y="737.4966">the bottom one of destiny tableau is n+1</text><text fill="#000000" font-family="sans-serif" font-size="13" lengthAdjust="spacing" textLength="325" x="360.6681" y="752.6294">and different color tham the top one origin tableau</text><text fill="#000000" font-family="sans-serif" font-size="13" lengthAdjust="spacing" textLength="264" x="391.1681" y="767.7622">one or more cards or turnup the top one]</text></g><!--MD5=[9253538b81a07a4463b6d3a91ccd5062]
link foundation to *end--><g id="link_foundation_*end"><path d="M55.8502,627.5019 C47.8326,636.2819 40.5628,646.3769 36.1677,657.2969 C6,732.2479 52.4715,830.4606 71.048,864.7992 " fill="none" id="foundation-to-*end" style="stroke:#181818;stroke-width:1.0;"/><polygon fill="#181818" points="73.574,869.3917,72.7417,859.578,71.1645,865.0106,65.7319,863.4333,73.574,869.3917" style="stroke:#181818;stroke-width:1.0;"/><text fill="#000000" font-family="sans-serif" font-size="13" lengthAdjust="spacing" textLength="94" x="36.1677" y="737.3638">[is completed?</text><text fill="#000000" font-family="sans-serif" font-size="13" lengthAdjust="spacing" textLength="34" x="66.1677" y="752.4966">Goal]</text></g><!--MD5=[8436c06adc4628d2d4768b3288648356]
link tableau to *end--><g id="link_tableau_*end"><path d="M224.2131,774.9149 C179.6641,806.145 116.3853,850.5051 90.2135,868.8524 " fill="none" id="tableau-to-*end" style="stroke:#181818;stroke-width:1.0;"/><polygon fill="#181818" points="86.0546,871.7679,95.7202,869.8769,90.1488,868.8977,91.128,863.3263,86.0546,871.7679" style="stroke:#181818;stroke-width:1.0;"/><text fill="#000000" font-family="sans-serif" font-size="13" lengthAdjust="spacing" textLength="75" x="176.1681" y="819.3638">[is blocked?</text><text fill="#000000" font-family="sans-serif" font-size="13" lengthAdjust="spacing" textLength="75" x="176.1681" y="834.4966">game over]</text></g><!--MD5=[9345c2f11c4c48d553f8be6416b3dd40]
@startuml
title Card location with StateChart diagram


[*]- -> suffle
suffle - -> stock :the rest of cards facedown
suffle - -> tableau :put one face up each tableau\n0..6 facedown
tableau:7 tableaux
tableau: 28 cards
stock - -> waste :turn faceup one, two or three
stock: 24 cards
waste - -> stock :reset
waste - -> foundation :move in order ace to king\none by one
waste: one by one
waste: in pairs
waste: in threes
foundation: 4 foundations
foundation: order ace-king
tableau - ->foundation :[n+1 same suit same color]
foundation - -> tableau : [n-1 different color]
waste - -> tableau :[is king? only to empty tableau or the faceup card\nof destiny tableau is n+1 and different color]
tableau - -> tableau :[the top one is king? only to empty tableau or\nthe bottom one of destiny tableau is n+1\nand different color tham the top one origin tableau\none or more cards or turnup the top one]
foundation - ->[*] :[is completed?\nGoal]
tableau - ->[*] :[is blocked?\ngame over]
@enduml

PlantUML version 1.2022.4beta2(Unknown compile time)
(GPL source distribution)
Java Runtime: Java(TM) SE Runtime Environment
JVM: Java HotSpot(TM) 64-Bit Server VM
Default Encoding: UTF-8
Language: en
Country: US
--></g></svg>