<?xml version="1.0" encoding="UTF-8" standalone="no"?><svg xmlns="http://www.w3.org/2000/svg" xmlns:xlink="http://www.w3.org/1999/xlink" contentStyleType="text/css" height="404px" preserveAspectRatio="none" style="width:589px;height:404px;background:#FFFFFF;" version="1.1" viewBox="0 0 589 404" width="589px" zoomAndPan="magnify"><defs/><g><rect height="26.2969" style="stroke:#00000000;stroke-width:1.0;fill:none;" width="155" x="210.3091" y="5"/><text fill="#000000" font-family="sans-serif" font-size="14" font-weight="bold" lengthAdjust="spacing" textLength="145" x="215.3091" y="22.9951">Activity Connect4</text><g id="A"><rect fill="#F1F1F1" height="50" rx="12.5" ry="12.5" style="stroke:#181818;stroke-width:0.5;" width="50" x="134.6183" y="124.2969"/><line style="stroke:#181818;stroke-width:0.5;" x1="134.6183" x2="184.6183" y1="150.5938" y2="150.5938"/><text fill="#000000" font-family="sans-serif" font-size="14" lengthAdjust="spacing" textLength="4" x="157.6183" y="142.292"> </text></g><g id="B"><rect fill="#F1F1F1" height="50" rx="12.5" ry="12.5" style="stroke:#181818;stroke-width:0.5;" width="50" x="26.6179" y="251.2969"/><line style="stroke:#181818;stroke-width:0.5;" x1="26.6179" x2="76.6179" y1="277.5938" y2="277.5938"/><text fill="#000000" font-family="sans-serif" font-size="14" lengthAdjust="spacing" textLength="4" x="49.6179" y="269.292"> </text></g><ellipse cx="159.6183" cy="53.2969" fill="#222222" rx="10" ry="10" style="stroke:none;stroke-width:1.0;"/><ellipse cx="143.6183" cy="388.2969" fill="none" rx="10" ry="10" style="stroke:#222222;stroke-width:1.0;"/><ellipse cx="144.1183" cy="388.7969" fill="#222222" rx="6" ry="6" style="stroke:none;stroke-width:1.0;"/><!--MD5=[ba0fdac9700f9825b754e67fda8ee1b2]
link *start to A--><g id="link_*start_A"><path d="M159.6183,63.3099 C159.6183,75.9949 159.6183,99.7059 159.6183,118.8669 " fill="none" id="*start-to-A" style="stroke:#181818;stroke-width:1.0;"/><polygon fill="#181818" points="159.6183,124.1369,163.6183,115.1369,159.6183,119.1369,155.6183,115.1369,159.6183,124.1369" style="stroke:#181818;stroke-width:1.0;"/></g><!--MD5=[6b8dc95a046e31f2dba110a903aa35ee]
link A to *end--><g id="link_A_*end"><path d="M184.8643,174.3599 C222.5103,213.2149 284.9263,291.1829 245.6183,348.2969 C225.9153,376.924 182.1323,384.5506 158.8553,386.5736 " fill="none" id="A-to-*end" style="stroke:#181818;stroke-width:1.0;"/><polygon fill="#181818" points="153.6753,386.9601,162.9476,390.2804,158.6615,386.5886,162.3533,382.3025,153.6753,386.9601" style="stroke:#181818;stroke-width:1.0;"/><text fill="#000000" font-family="sans-serif" font-size="13" lengthAdjust="spacing" textLength="323" x="258.6183" y="280.8638">[There are four red tiles on line||Is the last red tile]</text></g><!--MD5=[5e2eec62a50b26b6b0db6c12e4ee289c]
link A to B--><g id="link_A_B"><path d="M134.1363,154.6619 C107.5694,160.7199 67.2573,174.5009 48.6179,204.2969 C40.9257,216.5929 40.9311,232.5689 43.1865,246.2519 " fill="none" id="A-to-B" style="stroke:#181818;stroke-width:1.0;"/><polygon fill="#181818" points="44.1091,251.1779,46.3848,241.5955,43.1891,246.2632,38.5214,243.0676,44.1091,251.1779" style="stroke:#181818;stroke-width:1.0;"/><text fill="#000000" font-family="sans-serif" font-size="13" lengthAdjust="spacing" textLength="66" x="49.6179" y="217.3638">Put Yellow</text></g><!--MD5=[2c777c0c38089c390787dfc0786ecb92]
link B to A--><g id="link_B_A"><path d="M76.6599,259.4229 C90.7572,249.6319 108.0072,236.1319 120.6183,221.2969 C131.3383,208.6859 140.4443,192.6629 147.1553,179.0319 " fill="none" id="B-to-A" style="stroke:#181818;stroke-width:1.0;"/><polygon fill="#181818" points="149.3383,174.5089,141.8228,180.8742,147.1641,179.0114,149.0269,184.3528,149.3383,174.5089" style="stroke:#181818;stroke-width:1.0;"/><text fill="#000000" font-family="sans-serif" font-size="13" lengthAdjust="spacing" textLength="50" x="133.6183" y="217.3638">Put Red</text></g><!--MD5=[0c9beda43035afb57879f51f871461ea]
link B to *end--><g id="link_B_*end"><path d="M26.8115,301.5231 C15.1915,315.8445 6,333.929 16.6179,348.2969 C42.8345,383.7724 100.7603,388.009 128.3853,387.8826 " fill="none" id="B-to-*end" style="stroke:#181818;stroke-width:1.0;"/><polygon fill="#181818" points="133.4883,387.8071,124.4299,383.9412,128.4888,387.8814,124.5487,391.9403,133.4883,387.8071" style="stroke:#181818;stroke-width:1.0;"/><text fill="#000000" font-family="sans-serif" font-size="13" lengthAdjust="spacing" textLength="223" x="17.6179" y="344.3638">[There are four yellow tiles on line]</text></g><!--MD5=[0a42c6751f925fde0bc7205b0bc567c0]
@startuml
title Activity Connect4
State A as " "
State B as " "
[*] - -> A
A - -> [*] : [There are four red tiles on line||Is the last red tile]
A - -> B :Put Yellow
B - -> A : Put Red
B - -> [*] : [There are four yellow tiles on line]
@enduml

PlantUML version 1.2022.4beta2(Unknown compile time)
(GPL source distribution)
Java Runtime: Java(TM) SE Runtime Environment
JVM: Java HotSpot(TM) 64-Bit Server VM
Default Encoding: UTF-8
Language: en
Country: US
--></g></svg>