<?xml version="1.0" encoding="UTF-8" standalone="no"?><svg xmlns="http://www.w3.org/2000/svg" xmlns:xlink="http://www.w3.org/1999/xlink" contentStyleType="text/css" height="769px" preserveAspectRatio="none" style="width:387px;height:769px;background:#FFFFFF;" version="1.1" viewBox="0 0 387 769" width="387px" zoomAndPan="magnify"><defs/><g><rect height="26.2969" style="stroke:#00000000;stroke-width:1.0;fill:none;" width="145" x="119.5" y="15"/><text fill="#000000" font-family="sans-serif" font-size="14" font-weight="bold" lengthAdjust="spacing" textLength="135" x="124.5" y="32.9951">Activity Conect4</text><ellipse cx="184.5" cy="57.2969" fill="#222222" rx="10" ry="10" style="stroke:#222222;stroke-width:1.0;"/><rect fill="#FFFF00" height="33.9688" rx="12.5" ry="12.5" style="stroke:#181818;stroke-width:0.5;" width="80" x="144.5" y="131.2969"/><text fill="#000000" font-family="sans-serif" font-size="12" lengthAdjust="spacing" textLength="60" x="154.5" y="152.4355">Put Yellow</text><rect fill="#FF0000" height="33.9688" rx="12.5" ry="12.5" style="stroke:#181818;stroke-width:0.5;" width="64" x="152.5" y="192.7656"/><text fill="#000000" font-family="sans-serif" font-size="12" lengthAdjust="spacing" textLength="44" x="162.5" y="213.9043">Put Red</text><polygon fill="#F1F1F1" points="184.5,87.2969,196.5,99.2969,184.5,111.2969,172.5,99.2969,184.5,87.2969" style="stroke:#181818;stroke-width:0.5;"/><polygon fill="#F1F1F1" points="74,246.7344,295,246.7344,307,258.7344,295,270.7344,74,270.7344,62,258.7344,74,246.7344" style="stroke:#181818;stroke-width:0.5;"/><text fill="#000000" font-family="sans-serif" font-size="11" lengthAdjust="spacing" textLength="221" x="74" y="262.5425">There are less than three yellow disk?</text><rect fill="#FFFF00" height="33.9688" rx="12.5" ry="12.5" style="stroke:#181818;stroke-width:0.5;" width="80" x="144.5" y="334.7344"/><text fill="#000000" font-family="sans-serif" font-size="12" lengthAdjust="spacing" textLength="60" x="154.5" y="355.873">Put Yellow</text><polygon fill="#F1F1F1" points="106.5,388.7031,262.5,388.7031,274.5,400.7031,262.5,412.7031,106.5,412.7031,94.5,400.7031,106.5,388.7031" style="stroke:#181818;stroke-width:0.5;"/><text fill="#000000" font-family="sans-serif" font-size="11" lengthAdjust="spacing" textLength="60" x="188.5" y="422.9136">Yellow win</text><text fill="#000000" font-family="sans-serif" font-size="11" lengthAdjust="spacing" textLength="156" x="106.5" y="404.5112">There are four yellow disk?</text><rect fill="#FF0000" height="33.9688" rx="12.5" ry="12.5" style="stroke:#181818;stroke-width:0.5;" width="64" x="152.5" y="507.9067"/><text fill="#000000" font-family="sans-serif" font-size="12" lengthAdjust="spacing" textLength="44" x="162.5" y="529.0454">Put Red</text><polygon fill="#F1F1F1" points="184.5,290.7344,196.5,302.7344,184.5,314.7344,172.5,302.7344,184.5,290.7344" style="stroke:#181818;stroke-width:0.5;"/><polygon fill="#F1F1F1" points="32,561.8755,337,561.8755,349,573.8755,337,585.8755,32,585.8755,20,573.8755,32,561.8755" style="stroke:#181818;stroke-width:0.5;"/><text fill="#000000" font-family="sans-serif" font-size="11" lengthAdjust="spacing" textLength="84" x="188.5" y="596.0859">Red Win or Tie</text><text fill="#000000" font-family="sans-serif" font-size="11" lengthAdjust="spacing" textLength="305" x="32" y="577.6836">There are four red disk? || there was the last red disk</text><text fill="#000000" font-family="sans-serif" font-size="11" lengthAdjust="spacing" textLength="24" x="349" y="571.2813">NOK</text><polygon fill="#F1F1F1" points="184.5,617.5859,196.5,629.5859,184.5,641.5859,172.5,629.5859,184.5,617.5859" style="stroke:#181818;stroke-width:0.5;"/><rect fill="#F1F1F1" height="33.9688" rx="12.5" ry="12.5" style="stroke:#181818;stroke-width:0.5;" width="113" x="128" y="682.9849"/><text fill="#000000" font-family="sans-serif" font-size="12" lengthAdjust="spacing" textLength="93" x="138" y="704.1235">Alert "Success"</text><ellipse cx="184.5" cy="747.9536" rx="11" ry="11" style="stroke:#222222;stroke-width:1.0;fill:none;"/><ellipse cx="184.5" cy="747.9536" fill="#222222" rx="6" ry="6" style="stroke:#111111;stroke-width:1.0;"/><line style="stroke:#181818;stroke-width:1.0;" x1="184.5" x2="184.5" y1="165.2656" y2="192.7656"/><polygon fill="#181818" points="180.5,182.7656,184.5,192.7656,188.5,182.7656,184.5,186.7656" style="stroke:#181818;stroke-width:1.0;"/><line style="stroke:#181818;stroke-width:1.0;" x1="184.5" x2="184.5" y1="111.2969" y2="131.2969"/><polygon fill="#181818" points="180.5,121.2969,184.5,131.2969,188.5,121.2969,184.5,125.2969" style="stroke:#181818;stroke-width:1.0;"/><line style="stroke:#181818;stroke-width:1.0;" x1="307" x2="319" y1="258.7344" y2="258.7344"/><polygon fill="#181818" points="315,185.2656,319,175.2656,323,185.2656,319,181.2656" style="stroke:#181818;stroke-width:1.0;"/><line style="stroke:#181818;stroke-width:1.0;" x1="319" x2="319" y1="99.2969" y2="258.7344"/><line style="stroke:#181818;stroke-width:1.0;" x1="319" x2="196.5" y1="99.2969" y2="99.2969"/><polygon fill="#181818" points="206.5,95.2969,196.5,99.2969,206.5,103.2969,202.5,99.2969" style="stroke:#181818;stroke-width:1.0;"/><line style="stroke:#181818;stroke-width:1.0;" x1="184.5" x2="184.5" y1="226.7344" y2="246.7344"/><polygon fill="#181818" points="180.5,236.7344,184.5,246.7344,188.5,236.7344,184.5,240.7344" style="stroke:#181818;stroke-width:1.0;"/><line style="stroke:#181818;stroke-width:1.0;" x1="184.5" x2="184.5" y1="67.2969" y2="87.2969"/><polygon fill="#181818" points="180.5,77.2969,184.5,87.2969,188.5,77.2969,184.5,81.2969" style="stroke:#181818;stroke-width:1.0;"/><line style="stroke:#181818;stroke-width:1.0;" x1="184.5" x2="184.5" y1="412.7031" y2="437.1055"/><line style="stroke:#181818;stroke-width:1.0;" x1="184.5" x2="10" y1="437.1055" y2="437.1055"/><line style="stroke:#181818;stroke-width:1.0;" x1="10" x2="10" y1="437.1055" y2="629.5859"/><line style="stroke:#181818;stroke-width:1.0;" x1="10" x2="172.5" y1="629.5859" y2="629.5859"/><polygon fill="#181818" points="162.5,625.5859,172.5,629.5859,162.5,633.5859,166.5,629.5859" style="stroke:#181818;stroke-width:1.0;"/><line style="stroke:#181818;stroke-width:1.0;" x1="274.5" x2="286.5" y1="400.7031" y2="400.7031"/><polygon fill="#181818" points="282.5,424.1055,286.5,434.1055,290.5,424.1055,286.5,428.1055" style="stroke:#181818;stroke-width:1.0;"/><line style="stroke:#181818;stroke-width:1.0;" x1="286.5" x2="286.5" y1="400.7031" y2="466.5078"/><line style="stroke:#181818;stroke-width:1.0;" x1="286.5" x2="184.5" y1="466.5078" y2="466.5078"/><line style="stroke:#181818;stroke-width:1.0;" x1="184.5" x2="184.5" y1="368.7031" y2="388.7031"/><polygon fill="#181818" points="180.5,378.7031,184.5,388.7031,188.5,378.7031,184.5,382.7031" style="stroke:#181818;stroke-width:1.0;"/><line style="stroke:#181818;stroke-width:1.0;" x1="184.5" x2="184.5" y1="466.5078" y2="507.9067"/><polygon fill="#181818" points="180.5,497.9067,184.5,507.9067,188.5,497.9067,184.5,501.9067" style="stroke:#181818;stroke-width:1.0;"/><text fill="#000000" font-family="sans-serif" font-size="11" lengthAdjust="spacing" textLength="24" x="188.5" y="487.8125">NOK</text><line style="stroke:#181818;stroke-width:1.0;" x1="184.5" x2="184.5" y1="314.7344" y2="334.7344"/><polygon fill="#181818" points="180.5,324.7344,184.5,334.7344,188.5,324.7344,184.5,328.7344" style="stroke:#181818;stroke-width:1.0;"/><line style="stroke:#181818;stroke-width:1.0;" x1="349" x2="361" y1="573.8755" y2="573.8755"/><polygon fill="#181818" points="357,444.5078,361,434.5078,365,444.5078,361,440.5078" style="stroke:#181818;stroke-width:1.0;"/><line style="stroke:#181818;stroke-width:1.0;" x1="361" x2="361" y1="302.7344" y2="573.8755"/><line style="stroke:#181818;stroke-width:1.0;" x1="361" x2="196.5" y1="302.7344" y2="302.7344"/><polygon fill="#181818" points="206.5,298.7344,196.5,302.7344,206.5,306.7344,202.5,302.7344" style="stroke:#181818;stroke-width:1.0;"/><line style="stroke:#181818;stroke-width:1.0;" x1="184.5" x2="184.5" y1="541.8755" y2="561.8755"/><polygon fill="#181818" points="180.5,551.8755,184.5,561.8755,188.5,551.8755,184.5,555.8755" style="stroke:#181818;stroke-width:1.0;"/><line style="stroke:#181818;stroke-width:1.0;" x1="184.5" x2="184.5" y1="585.8755" y2="617.5859"/><polygon fill="#181818" points="180.5,607.5859,184.5,617.5859,188.5,607.5859,184.5,611.5859" style="stroke:#181818;stroke-width:1.0;"/><line style="stroke:#181818;stroke-width:1.0;" x1="184.5" x2="184.5" y1="270.7344" y2="290.7344"/><polygon fill="#181818" points="180.5,280.7344,184.5,290.7344,188.5,280.7344,184.5,284.7344" style="stroke:#181818;stroke-width:1.0;"/><line style="stroke:#181818;stroke-width:1.0;" x1="184.5" x2="184.5" y1="641.5859" y2="682.9849"/><polygon fill="#181818" points="180.5,672.9849,184.5,682.9849,188.5,672.9849,184.5,676.9849" style="stroke:#181818;stroke-width:1.0;"/><text fill="#000000" font-family="sans-serif" font-size="11" font-style="italic" lengthAdjust="spacing" textLength="62" x="188.5" y="662.8906">game over</text><line style="stroke:#181818;stroke-width:1.0;" x1="184.5" x2="184.5" y1="716.9536" y2="736.9536"/><polygon fill="#181818" points="180.5,726.9536,184.5,736.9536,188.5,726.9536,184.5,730.9536" style="stroke:#181818;stroke-width:1.0;"/><!--MD5=[d15c5a0b8a1130d7360245c2f72a641a]
@startuml
title Activity Conect4
start

repeat
  #yellow:Put Yellow;
  #red:Put Red;
repeat while (There are less than three yellow disk?)
repeat
  #yellow:Put Yellow;
    if (There are four yellow disk?) then (Yellow win)
      break
    endif
    ->NOK;
    #red:Put Red;
repeat while (There are four red disk? || there was the last red disk) is (NOK) not (Red Win or Tie)
->//game over//;
:Alert "Success";
stop
@enduml

PlantUML version 1.2022.4beta2(Unknown compile time)
(GPL source distribution)
Java Runtime: Java(TM) SE Runtime Environment
JVM: Java HotSpot(TM) 64-Bit Server VM
Default Encoding: UTF-8
Language: en
Country: US
--></g></svg>