<?xml version="1.0" encoding="UTF-8" standalone="no"?><svg xmlns="http://www.w3.org/2000/svg" xmlns:xlink="http://www.w3.org/1999/xlink" contentScriptType="application/ecmascript" contentStyleType="text/css" height="304px" preserveAspectRatio="none" style="width:1250px;height:304px;background:#FFFFFF;" version="1.1" viewBox="0 0 1250 304" width="1250px" zoomAndPan="magnify"><defs><filter height="300%" id="f2623xsajjz7l" width="300%" x="-1" y="-1"><feGaussianBlur result="blurOut" stdDeviation="2.0"/><feColorMatrix in="blurOut" result="blurOut2" type="matrix" values="0 0 0 0 0 0 0 0 0 0 0 0 0 0 0 0 0 0 .4 0"/><feOffset dx="4.0" dy="4.0" in="blurOut2" result="blurOut3"/><feBlend in="SourceGraphic" in2="blurOut3" mode="normal"/></filter></defs><g><text fill="#000000" font-family="sans-serif" font-size="18" lengthAdjust="spacing" textLength="229" x="501" y="16.708">Las Meninas de Velázquez</text><text fill="#000000" font-family="sans-serif" font-size="18" lengthAdjust="spacing" textLength="0" x="621.5" y="37.6611"/><rect fill="#FEFECE" filter="url(#f2623xsajjz7l)" height="37.6094" style="stroke:#A80036;stroke-width:1.5;" width="149" x="713" y="48.9063"/><text fill="#000000" font-family="sans-serif" font-size="12" lengthAdjust="spacing" textLength="90" x="742.5" y="62.0449">plane_Of_Light</text><line style="stroke:#A80036;stroke-width:1.5;" x1="714" x2="861" y1="66.875" y2="66.875"/><text fill="#000000" font-family="sans-serif" font-size="10" lengthAdjust="spacing" textLength="137" x="719" y="80.1572">"Las Meninas de Velázquez"</text><rect fill="#FEFECE" filter="url(#f2623xsajjz7l)" height="33.9688" style="stroke:#A80036;stroke-width:1.5;" width="79" x="236" y="146.9063"/><text fill="#000000" font-family="sans-serif" font-size="12" lengthAdjust="spacing" textLength="65" x="243" y="160.0449">first_Plane</text><line style="stroke:#A80036;stroke-width:1.5;" x1="237" x2="314" y1="164.875" y2="164.875"/><rect fill="#FEFECE" filter="url(#f2623xsajjz7l)" height="33.9688" style="stroke:#A80036;stroke-width:1.5;" width="101" x="540" y="146.9063"/><text fill="#000000" font-family="sans-serif" font-size="12" lengthAdjust="spacing" textLength="87" x="547" y="160.0449">second_Plane</text><line style="stroke:#A80036;stroke-width:1.5;" x1="541" x2="640" y1="164.875" y2="164.875"/><rect fill="#FEFECE" filter="url(#f2623xsajjz7l)" height="33.9688" style="stroke:#A80036;stroke-width:1.5;" width="84" x="680.5" y="146.9063"/><text fill="#000000" font-family="sans-serif" font-size="12" lengthAdjust="spacing" textLength="70" x="687.5" y="160.0449">third_Plane</text><line style="stroke:#A80036;stroke-width:1.5;" x1="681.5" x2="763.5" y1="164.875" y2="164.875"/><rect fill="#FEFECE" filter="url(#f2623xsajjz7l)" height="33.9688" style="stroke:#A80036;stroke-width:1.5;" width="106" x="799.5" y="146.9063"/><text fill="#000000" font-family="sans-serif" font-size="12" lengthAdjust="spacing" textLength="92" x="806.5" y="160.0449">vanising_Plane</text><line style="stroke:#A80036;stroke-width:1.5;" x1="800.5" x2="904.5" y1="164.875" y2="164.875"/><rect fill="#FEFECE" filter="url(#f2623xsajjz7l)" height="33.9688" style="stroke:#A80036;stroke-width:1.5;" width="94" x="1093.5" y="146.9063"/><text fill="#000000" font-family="sans-serif" font-size="12" lengthAdjust="spacing" textLength="80" x="1100.5" y="160.0449">out_of_Plane</text><line style="stroke:#A80036;stroke-width:1.5;" x1="1094.5" x2="1186.5" y1="164.875" y2="164.875"/><rect fill="#FEFECE" filter="url(#f2623xsajjz7l)" height="37.6094" style="stroke:#A80036;stroke-width:1.5;" width="59" x="7" y="246.4063"/><text fill="#000000" font-family="sans-serif" font-size="12" lengthAdjust="spacing" textLength="44" x="14.5" y="259.5449">infanta</text><line style="stroke:#A80036;stroke-width:1.5;" x1="8" x2="65" y1="264.375" y2="264.375"/><text fill="#000000" font-family="sans-serif" font-size="10" lengthAdjust="spacing" textLength="47" x="13" y="277.6572">Margarita</text><rect fill="#FEFECE" filter="url(#f2623xsajjz7l)" height="49.25" style="stroke:#A80036;stroke-width:1.5;" width="97" x="101" y="240.9063"/><text fill="#000000" font-family="sans-serif" font-size="12" lengthAdjust="spacing" textLength="25" x="137" y="254.0449">girly</text><line style="stroke:#A80036;stroke-width:1.5;" x1="102" x2="197" y1="258.875" y2="258.875"/><text fill="#000000" font-family="sans-serif" font-size="10" lengthAdjust="spacing" textLength="41" x="107" y="272.1572">1.-Isabel</text><text fill="#000000" font-family="sans-serif" font-size="10" lengthAdjust="spacing" textLength="85" x="107" y="283.7979">2.-María Agustina</text><rect fill="#FEFECE" filter="url(#f2623xsajjz7l)" height="49.25" style="stroke:#A80036;stroke-width:1.5;" width="84" x="233.5" y="240.9063"/><text fill="#000000" font-family="sans-serif" font-size="12" lengthAdjust="spacing" textLength="34" x="258.5" y="254.0449">dwarf</text><line style="stroke:#A80036;stroke-width:1.5;" x1="234.5" x2="316.5" y1="258.875" y2="258.875"/><text fill="#000000" font-family="sans-serif" font-size="10" lengthAdjust="spacing" textLength="72" x="239.5" y="272.1572">1.-Mari Barboa</text><text fill="#000000" font-family="sans-serif" font-size="10" lengthAdjust="spacing" textLength="59" x="239.5" y="283.7979">2.-Nicolasito</text><rect fill="#FEFECE" filter="url(#f2623xsajjz7l)" height="37.6094" style="stroke:#A80036;stroke-width:1.5;" width="85" x="353" y="246.4063"/><text fill="#000000" font-family="sans-serif" font-size="12" lengthAdjust="spacing" textLength="52" x="369.5" y="259.5449">the_Dog</text><line style="stroke:#A80036;stroke-width:1.5;" x1="354" x2="437" y1="264.375" y2="264.375"/><text fill="#000000" font-family="sans-serif" font-size="10" lengthAdjust="spacing" textLength="73" x="359" y="277.6572">Mastín Español</text><rect fill="#FEFECE" filter="url(#f2623xsajjz7l)" height="37.6094" style="stroke:#A80036;stroke-width:1.5;" width="107" x="473" y="246.4063"/><text fill="#000000" font-family="sans-serif" font-size="12" lengthAdjust="spacing" textLength="72" x="490.5" y="259.5449">the_Painter</text><line style="stroke:#A80036;stroke-width:1.5;" x1="474" x2="579" y1="264.375" y2="264.375"/><text fill="#000000" font-family="sans-serif" font-size="10" lengthAdjust="spacing" textLength="95" x="479" y="277.6572">Diego de Velázquez</text><rect fill="#FEFECE" filter="url(#f2623xsajjz7l)" height="37.6094" style="stroke:#A80036;stroke-width:1.5;" width="92" x="615.5" y="246.4063"/><text fill="#000000" font-family="sans-serif" font-size="12" lengthAdjust="spacing" textLength="56" x="633.5" y="259.5449">the_Maid</text><line style="stroke:#A80036;stroke-width:1.5;" x1="616.5" x2="706.5" y1="264.375" y2="264.375"/><text fill="#000000" font-family="sans-serif" font-size="10" lengthAdjust="spacing" textLength="80" x="621.5" y="277.6572">Marcela de Ulloa</text><rect fill="#FEFECE" filter="url(#f2623xsajjz7l)" height="37.6094" style="stroke:#A80036;stroke-width:1.5;" width="103" x="743" y="246.4063"/><text fill="#000000" font-family="sans-serif" font-size="12" lengthAdjust="spacing" textLength="69" x="760" y="259.5449">ladyKeeper</text><line style="stroke:#A80036;stroke-width:1.5;" x1="744" x2="845" y1="264.375" y2="264.375"/><text fill="#000000" font-family="sans-serif" font-size="10" lengthAdjust="spacing" textLength="91" x="749" y="277.6572">Azcona "unknown"</text><rect fill="#FEFECE" filter="url(#f2623xsajjz7l)" height="37.6094" style="stroke:#A80036;stroke-width:1.5;" width="113" x="881" y="246.4063"/><text fill="#000000" font-family="sans-serif" font-size="12" lengthAdjust="spacing" textLength="45" x="915" y="259.5449">roomer</text><line style="stroke:#A80036;stroke-width:1.5;" x1="882" x2="993" y1="264.375" y2="264.375"/><text fill="#000000" font-family="sans-serif" font-size="10" lengthAdjust="spacing" textLength="101" x="887" y="277.6572">José Nieto Velázquez</text><rect fill="#FEFECE" filter="url(#f2623xsajjz7l)" height="49.25" style="stroke:#A80036;stroke-width:1.5;" width="103" x="1029" y="240.9063"/><text fill="#000000" font-family="sans-serif" font-size="12" lengthAdjust="spacing" textLength="60" x="1050.5" y="254.0449">the_Kings</text><line style="stroke:#A80036;stroke-width:1.5;" x1="1030" x2="1131" y1="258.875" y2="258.875"/><text fill="#000000" font-family="sans-serif" font-size="10" lengthAdjust="spacing" textLength="41" x="1035" y="272.1572">Felipe IV</text><text fill="#000000" font-family="sans-serif" font-size="10" lengthAdjust="spacing" textLength="91" x="1035" y="283.7979">Mariana de Austria</text><rect fill="#FEFECE" filter="url(#f2623xsajjz7l)" height="33.9688" style="stroke:#A80036;stroke-width:1.5;" width="118" x="940.5" y="146.9063"/><text fill="#000000" font-family="sans-serif" font-size="12" lengthAdjust="spacing" textLength="104" x="947.5" y="160.0449">the_Mirror_Plane</text><line style="stroke:#A80036;stroke-width:1.5;" x1="941.5" x2="1057.5" y1="164.875" y2="164.875"/><rect fill="#FEFECE" filter="url(#f2623xsajjz7l)" height="37.6094" style="stroke:#A80036;stroke-width:1.5;" width="69" x="1167" y="246.4063"/><text fill="#000000" font-family="sans-serif" font-size="12" lengthAdjust="spacing" textLength="55" x="1174" y="259.5449">observer</text><line style="stroke:#A80036;stroke-width:1.5;" x1="1168" x2="1235" y1="264.375" y2="264.375"/><text fill="#000000" font-family="sans-serif" font-size="10" lengthAdjust="spacing" textLength="32" x="1173" y="277.6572">Myself</text><!--MD5=[f0c8bb7122788c65fe54fc0456bbae18]
link plane_Of_Light to first_Plane--><path codeLine="34" d="M700.9765,84.7891 C700.9765,84.7891 415.88,137.1363 328.13,153.2463 " fill="none" id="plane_Of_Light-first_Plane" style="stroke:#A80036;stroke-width:1.0;"/><polygon fill="#A80036" points="315.09,155.6363,324.6636,157.9486,320.0081,154.7351,323.2216,150.0796,315.09,155.6363" style="stroke:#A80036;stroke-width:1.0;"/><line style="stroke:#A80036;stroke-width:1.0;" x1="320.0081" x2="327.88" y1="154.7351" y2="153.2913"/><polygon fill="#A80036" points="712.78,82.6263,706.1573,79.7732,700.9765,84.7891,707.5992,87.6422,712.78,82.6263" style="stroke:#A80036;stroke-width:1.0;"/><!--MD5=[24f9de88b8df7f13fb9755899d1eb37c]
link plane_Of_Light to second_Plane--><path codeLine="35" d="M738.691,92.1967 C738.691,92.1967 666.38,126.6962 636.05,141.1763 " fill="none" id="plane_Of_Light-second_Plane" style="stroke:#A80036;stroke-width:1.0;"/><polygon fill="#A80036" points="624.1,146.8763,633.9453,146.6127,628.6131,144.724,630.5018,139.3918,624.1,146.8763" style="stroke:#A80036;stroke-width:1.0;"/><line style="stroke:#A80036;stroke-width:1.0;" x1="628.6131" x2="635.83" y1="144.724" y2="141.2763"/><polygon fill="#A80036" points="749.52,87.0263,742.382,86.0018,738.691,92.1967,745.829,93.2211,749.52,87.0263" style="stroke:#A80036;stroke-width:1.0;"/><!--MD5=[84c611b7f5ab6a268f8d2f540e072d62]
link plane_Of_Light to third_Plane--><path codeLine="36" d="M768.1532,96.902 C768.1532,96.902 749.47,123.9063 741.3,135.7263 " fill="none" id="plane_Of_Light-third_Plane" style="stroke:#A80036;stroke-width:1.0;"/><polygon fill="#A80036" points="733.69,146.7163,742.0992,141.5893,736.5341,142.6039,735.5194,137.0388,733.69,146.7163" style="stroke:#A80036;stroke-width:1.0;"/><line style="stroke:#A80036;stroke-width:1.0;" x1="736.5341" x2="741.085" y1="142.6039" y2="136.0263"/><polygon fill="#A80036" points="774.97,87.0263,768.2697,89.6919,768.1532,96.902,774.8535,94.2364,774.97,87.0263" style="stroke:#A80036;stroke-width:1.0;"/><!--MD5=[ce0ebad59159b53b38ed48e2f961dbe4]
link plane_Of_Light to vanising_Plane--><path codeLine="37" d="M806.8468,96.902 C806.8468,96.902 825.53,123.9063 833.7,135.7263 " fill="none" id="plane_Of_Light-vanising_Plane" style="stroke:#A80036;stroke-width:1.0;"/><polygon fill="#A80036" points="841.31,146.7163,839.4806,137.0388,838.4659,142.6039,832.9008,141.5893,841.31,146.7163" style="stroke:#A80036;stroke-width:1.0;"/><line style="stroke:#A80036;stroke-width:1.0;" x1="838.4659" x2="833.915" y1="142.6039" y2="136.0263"/><polygon fill="#A80036" points="800.03,87.0263,800.1465,94.2364,806.8468,96.902,806.7303,89.6919,800.03,87.0263" style="stroke:#A80036;stroke-width:1.0;"/><!--MD5=[8f5ba043068e1f808057bab8ca5bba2b]
link plane_Of_Light to out_of_Plane--><path codeLine="38" d="M866.7361,90.0033 C866.7361,90.0033 1022.11,131.3763 1080.66,146.9763 " fill="none" id="plane_Of_Light-out_of_Plane" style="stroke:#A80036;stroke-width:1.0;"/><polygon fill="#A80036" points="1093.39,150.3663,1085.7202,144.1878,1088.5579,149.0814,1083.6643,151.9191,1093.39,150.3663" style="stroke:#A80036;stroke-width:1.0;"/><line style="stroke:#A80036;stroke-width:1.0;" x1="1088.5579" x2="1080.83" y1="149.0814" y2="147.0163"/><polygon fill="#A80036" points="855.14,86.9162,859.9091,92.3251,866.7361,90.0033,861.9671,84.5944,855.14,86.9162" style="stroke:#A80036;stroke-width:1.0;"/><!--MD5=[2f59c4453bdcc8a91245f9c414a70e1f]
link plane_Of_Light to the_Mirror_Plane--><path codeLine="39" d="M839.3544,91.8803 C839.3544,91.8803 918.19,126.8562 951.24,141.5063 " fill="none" id="plane_Of_Light-the_Mirror_Plane" style="stroke:#A80036;stroke-width:1.0;"/><polygon fill="#A80036" points="963.34,146.8763,956.7345,139.5709,958.7694,144.8491,953.4911,146.8839,963.34,146.8763" style="stroke:#A80036;stroke-width:1.0;"/><line style="stroke:#A80036;stroke-width:1.0;" x1="958.7694" x2="951.455" y1="144.8491" y2="141.6063"/><polygon fill="#A80036" points="828.38,87.0263,832.2492,93.1114,839.3544,91.8803,835.4852,85.7951,828.38,87.0263" style="stroke:#A80036;stroke-width:1.0;"/><!--MD5=[f07a0de54db1a0394931147d0f1dbaca]
link first_Plane to infanta--><path codeLine="41" d="M224.5062,183.7155 C224.5062,183.7155 130.21,220.0363 83.5,240.9063 C81.73,241.6963 79.93,242.5163 78.12,243.3563 " fill="none" id="first_Plane-infanta" style="stroke:#A80036;stroke-width:1.0;"/><polygon fill="#A80036" points="66.15,249.0963,75.9948,248.8136,70.6589,246.9353,72.5372,241.5994,66.15,249.0963" style="stroke:#A80036;stroke-width:1.0;"/><line style="stroke:#A80036;stroke-width:1.0;" x1="70.6589" x2="77.875" y1="246.9353" y2="243.4763"/><polygon fill="#A80036" points="235.74,179.4963,228.7167,177.8613,224.5062,183.7155,231.5295,185.3505,235.74,179.4963" style="stroke:#A80036;stroke-width:1.0;"/><!--MD5=[74f181a6d29367d233dd00ee9a1ffd6f]
link first_Plane to girly--><path codeLine="42" d="M245.5584,188.5481 C245.5584,188.5481 207.56,218.5563 189.79,232.5863 " fill="none" id="first_Plane-girly" style="stroke:#A80036;stroke-width:1.0;"/><polygon fill="#A80036" points="179.43,240.7663,188.9719,238.3264,183.3536,237.667,184.013,232.0487,179.43,240.7663" style="stroke:#A80036;stroke-width:1.0;"/><line style="stroke:#A80036;stroke-width:1.0;" x1="183.3536" x2="189.63" y1="237.667" y2="232.7163"/><polygon fill="#A80036" points="254.98,181.1162,247.7919,181.6917,245.5584,188.5481,252.7465,187.9727,254.98,181.1162" style="stroke:#A80036;stroke-width:1.0;"/><!--MD5=[20f25bc932f21750b792b5f6b182ef11]
link first_Plane to dwarf--><path codeLine="43" d="M275.5,193.3363 C275.5,193.3363 275.5,216.7263 275.5,227.6663 " fill="none" id="first_Plane-dwarf" style="stroke:#A80036;stroke-width:1.0;"/><polygon fill="#A80036" points="275.5,240.8763,279.5,231.8763,275.5,235.8763,271.5,231.8763,275.5,240.8763" style="stroke:#A80036;stroke-width:1.0;"/><line style="stroke:#A80036;stroke-width:1.0;" x1="275.5" x2="275.5" y1="235.8763" y2="227.8763"/><polygon fill="#A80036" points="275.5,181.3363,271.5,187.3363,275.5,193.3363,279.5,187.3363,275.5,181.3363" style="stroke:#A80036;stroke-width:1.0;"/><!--MD5=[1b3a59c5ffc17939c5fd6a0c283d2032]
link first_Plane to the_Dog--><path codeLine="44" d="M304.2891,188.7738 C304.2891,188.7738 345.31,222.7863 363.43,237.8063 " fill="none" id="first_Plane-the_Dog" style="stroke:#A80036;stroke-width:1.0;"/><polygon fill="#A80036" points="373.52,246.1763,369.1432,237.3534,369.6704,242.9856,364.0381,243.5128,373.52,246.1763" style="stroke:#A80036;stroke-width:1.0;"/><line style="stroke:#A80036;stroke-width:1.0;" x1="369.6704" x2="363.515" y1="242.9856" y2="237.8813"/><polygon fill="#A80036" points="295.05,181.1162,297.1171,188.0247,304.2891,188.7738,302.2221,181.8653,295.05,181.1162" style="stroke:#A80036;stroke-width:1.0;"/><!--MD5=[6ef6170ac4f7d7a4a7c730d8325fe789]
link second_Plane to the_Painter--><path codeLine="45" d="M573.4356,191.427 C573.4356,191.427 554.01,221.6263 545.32,235.1463 " fill="none" id="second_Plane-the_Painter" style="stroke:#A80036;stroke-width:1.0;"/><polygon fill="#A80036" points="538.17,246.2663,546.4044,240.863,540.876,242.0618,539.6772,236.5334,538.17,246.2663" style="stroke:#A80036;stroke-width:1.0;"/><line style="stroke:#A80036;stroke-width:1.0;" x1="540.876" x2="545.2" y1="242.0618" y2="235.3313"/><polygon fill="#A80036" points="579.93,181.3363,573.3192,184.2168,573.4356,191.427,580.0464,188.5464,579.93,181.3363" style="stroke:#A80036;stroke-width:1.0;"/><!--MD5=[fcc7eac298ed1756f056a440b4e6212d]
link third_Plane to the_Maid--><path codeLine="46" d="M706.1651,191.5711 C706.1651,191.5711 687.76,221.5663 679.62,234.8563 " fill="none" id="third_Plane-the_Maid" style="stroke:#A80036;stroke-width:1.0;"/><polygon fill="#A80036" points="672.62,246.2663,680.7303,240.6784,675.2304,242.0017,673.907,236.5018,672.62,246.2663" style="stroke:#A80036;stroke-width:1.0;"/><line style="stroke:#A80036;stroke-width:1.0;" x1="675.2304" x2="679.42" y1="242.0017" y2="235.1813"/><polygon fill="#A80036" points="712.43,181.3363,705.886,184.3654,706.1651,191.5711,712.7092,188.5419,712.43,181.3363" style="stroke:#A80036;stroke-width:1.0;"/><!--MD5=[5bb24c085bef3ddf257835578d3e9e5e]
link third_Plane to ladyKeeper--><path codeLine="47" d="M741.4245,191.0581 C741.4245,191.0581 763.6,221.6963 773.54,235.4463 " fill="none" id="third_Plane-ladyKeeper" style="stroke:#A80036;stroke-width:1.0;"/><polygon fill="#A80036" points="781.37,246.2663,779.3371,236.6295,778.4399,242.2147,772.8547,241.3176,781.37,246.2663" style="stroke:#A80036;stroke-width:1.0;"/><line style="stroke:#A80036;stroke-width:1.0;" x1="778.4399" x2="773.755" y1="242.2147" y2="235.7313"/><polygon fill="#A80036" points="734.39,181.3363,734.6666,188.542,741.4245,191.0581,741.1479,183.8524,734.39,181.3363" style="stroke:#A80036;stroke-width:1.0;"/><!--MD5=[0c30b88149d0659ed52b8793e02285b8]
link vanising_Plane to roomer--><path codeLine="48" d="M874.3332,190.4613 C874.3332,190.4613 901.36,222.1063 913.37,236.1663 " fill="none" id="vanising_Plane-roomer" style="stroke:#A80036;stroke-width:1.0;"/><polygon fill="#A80036" points="922,246.2663,919.1968,236.8247,918.7528,242.4642,913.1134,242.0202,922,246.2663" style="stroke:#A80036;stroke-width:1.0;"/><line style="stroke:#A80036;stroke-width:1.0;" x1="918.7528" x2="913.56" y1="242.4642" y2="236.3813"/><polygon fill="#A80036" points="866.54,181.3363,867.3949,188.4965,874.3332,190.4613,873.4783,183.301,866.54,181.3363" style="stroke:#A80036;stroke-width:1.0;"/><!--MD5=[28ade5288ce6cfae44ef86c07213066e]
reverse link out_of_Plane to the_Kings--><path codeLine="49" d="M1123.78,192.6263 C1114.63,207.8063 1103.41,226.4163 1094.69,240.8763 " fill="none" id="out_of_Plane-backto-the_Kings" style="stroke:#A80036;stroke-width:1.0;"/><polygon fill="#A80036" points="1130.59,181.3363,1124.0673,184.4109,1124.3967,191.6145,1130.9194,188.5398,1130.59,181.3363" style="stroke:#A80036;stroke-width:1.0;"/><!--MD5=[7239fc8661707aa36e0af4c913252131]
reverse link out_of_Plane to observer--><path codeLine="50" d="M1157.65,192.8763 C1168.13,209.9763 1181.24,231.3563 1190.38,246.2663 " fill="none" id="out_of_Plane-backto-observer" style="stroke:#A80036;stroke-width:1.0;"/><polygon fill="#A80036" points="1150.57,181.3363,1150.2908,188.5419,1156.8349,191.5711,1157.114,184.3654,1150.57,181.3363" style="stroke:#A80036;stroke-width:1.0;"/><!--MD5=[54cc6024f959257e90265afdc99ec233]
reverse link the_Mirror_Plane to the_Kings--><path codeLine="51" d="M1021.34,191.7362 C1033.82,207.0663 1049.34,226.1263 1061.35,240.8763 " fill="none" id="the_Mirror_Plane-backto-the_Kings" style="stroke:#A80036;stroke-width:1.0;"/><polygon fill="#A80036" points="1012.88,181.3363,1013.5614,188.5151,1020.4501,190.6472,1019.7687,183.4684,1012.88,181.3363" style="stroke:#A80036;stroke-width:1.0;"/><!--MD5=[b564f6b7c3b26d75dd6b6d452dc3e541]
@startuml
title Las Meninas de Velázquez \n
object plane_Of_Light
plane_Of_Light : "Las Meninas de Velázquez"
object first_Plane
object second_Plane
object third_Plane
object vanising_Plane
object out_of_Plane
object infanta
infanta : Margarita
object girly
girly : 1.-Isabel
girly : 2.-María Agustina
object dwarf
dwarf : 1.-Mari Barboa
dwarf : 2.-Nicolasito
object the_Dog
the_Dog : Mastín Español
object the_Painter
the_Painter : Diego de Velázquez
object the_Maid
the_Maid : Marcela de Ulloa
object ladyKeeper
ladyKeeper : Azcona "unknown"
object roomer
roomer : José Nieto Velázquez
object the_Kings
object the_Mirror_Plane
the_Kings : Felipe IV
the_Kings : Mariana de Austria
object observer
observer : Myself

plane_Of_Light *- -> first_Plane
plane_Of_Light *- -> second_Plane
plane_Of_Light *- -> third_Plane
plane_Of_Light *- -> vanising_Plane
plane_Of_Light *- -> out_of_Plane
plane_Of_Light *- -> the_Mirror_Plane

first_Plane *- -> infanta
first_Plane *- -> girly
first_Plane *- -> dwarf
first_Plane *- -> the_Dog
second_Plane *- -> the_Painter
third_Plane *- -> the_Maid
third_Plane *- -> ladyKeeper
vanising_Plane *- -> roomer
out_of_Plane *- - the_Kings
out_of_Plane *- - observer
the_Mirror_Plane *- - the_Kings
@enduml

PlantUML version 1.2022.1(Tue Feb 01 18:19:58 UTC 2022)
(GPL source distribution)
Java Runtime: OpenJDK Runtime Environment
JVM: OpenJDK 64-Bit Server VM
Default Encoding: UTF-8
Language: en
Country: null
--></g></svg>