<?xml version="1.0" encoding="UTF-8" standalone="no"?><svg xmlns="http://www.w3.org/2000/svg" xmlns:xlink="http://www.w3.org/1999/xlink" contentStyleType="text/css" height="278px" preserveAspectRatio="none" style="width:396px;height:278px;background:#FFFFFF;" version="1.1" viewBox="0 0 396 278" width="396px" zoomAndPan="magnify"><defs/><g><!--MD5=[aa59756dc79e8d85807db368a1c1c891]
class Peopleware--><g id="elem_Peopleware"><rect codeLine="1" fill="#F1F1F1" height="48" id="Peopleware" rx="2.5" ry="2.5" style="stroke:#181818;stroke-width:0.5;" width="116" x="68" y="7"/><ellipse cx="83" cy="23" fill="#ADD1B2" rx="11" ry="11" style="stroke:#181818;stroke-width:1.0;"/><path d="M85.3438,18.6719 C84.4063,18.2344 83.8125,18.0938 82.9375,18.0938 C80.3125,18.0938 78.3125,20.1719 78.3125,22.8906 L78.3125,24.0156 C78.3125,26.5938 80.4219,28.4844 83.3125,28.4844 C84.5313,28.4844 85.6875,28.1875 86.4375,27.6406 C87.0156,27.2344 87.3438,26.7813 87.3438,26.3906 C87.3438,25.9375 86.9531,25.5469 86.4844,25.5469 C86.2656,25.5469 86.0625,25.625 85.875,25.8125 C85.4219,26.2969 85.4219,26.2969 85.2344,26.3906 C84.8125,26.6563 84.125,26.7813 83.3594,26.7813 C81.3125,26.7813 80.0156,25.6875 80.0156,23.9844 L80.0156,22.8906 C80.0156,21.1094 81.2656,19.7969 83,19.7969 C83.5781,19.7969 84.1875,19.9531 84.6563,20.2031 C85.1406,20.4844 85.3125,20.7031 85.4063,21.1094 C85.4688,21.5156 85.5,21.6406 85.6406,21.7656 C85.7813,21.9063 86.0156,22.0156 86.2344,22.0156 C86.5,22.0156 86.7656,21.875 86.9375,21.6563 C87.0469,21.5 87.0781,21.3125 87.0781,20.8906 L87.0781,19.4688 C87.0781,19.0313 87.0625,18.9063 86.9688,18.75 C86.8125,18.4844 86.5313,18.3438 86.2344,18.3438 C85.9375,18.3438 85.7344,18.4375 85.5156,18.75 L85.3438,18.6719 Z " fill="#000000"/><text fill="#000000" font-family="sans-serif" font-size="14" lengthAdjust="spacing" textLength="84" x="97" y="27.8467">Peopleware</text><line style="stroke:#181818;stroke-width:0.5;" x1="69" x2="183" y1="39" y2="39"/><line style="stroke:#181818;stroke-width:0.5;" x1="69" x2="183" y1="47" y2="47"/></g><!--MD5=[2d22c547bfe7267814a0b6e9c8ad476f]
class Hardware--><g id="elem_Hardware"><rect codeLine="2" fill="#F1F1F1" height="48" id="Hardware" rx="2.5" ry="2.5" style="stroke:#181818;stroke-width:0.5;" width="99" x="10.5" y="115"/><ellipse cx="25.5" cy="131" fill="#ADD1B2" rx="11" ry="11" style="stroke:#181818;stroke-width:1.0;"/><path d="M27.8438,126.6719 C26.9063,126.2344 26.3125,126.0938 25.4375,126.0938 C22.8125,126.0938 20.8125,128.1719 20.8125,130.8906 L20.8125,132.0156 C20.8125,134.5938 22.9219,136.4844 25.8125,136.4844 C27.0313,136.4844 28.1875,136.1875 28.9375,135.6406 C29.5156,135.2344 29.8438,134.7813 29.8438,134.3906 C29.8438,133.9375 29.4531,133.5469 28.9844,133.5469 C28.7656,133.5469 28.5625,133.625 28.375,133.8125 C27.9219,134.2969 27.9219,134.2969 27.7344,134.3906 C27.3125,134.6563 26.625,134.7813 25.8594,134.7813 C23.8125,134.7813 22.5156,133.6875 22.5156,131.9844 L22.5156,130.8906 C22.5156,129.1094 23.7656,127.7969 25.5,127.7969 C26.0781,127.7969 26.6875,127.9531 27.1563,128.2031 C27.6406,128.4844 27.8125,128.7031 27.9063,129.1094 C27.9688,129.5156 28,129.6406 28.1406,129.7656 C28.2813,129.9063 28.5156,130.0156 28.7344,130.0156 C29,130.0156 29.2656,129.875 29.4375,129.6563 C29.5469,129.5 29.5781,129.3125 29.5781,128.8906 L29.5781,127.4688 C29.5781,127.0313 29.5625,126.9063 29.4688,126.75 C29.3125,126.4844 29.0313,126.3438 28.7344,126.3438 C28.4375,126.3438 28.2344,126.4375 28.0156,126.75 L27.8438,126.6719 Z " fill="#000000"/><text fill="#000000" font-family="sans-serif" font-size="14" lengthAdjust="spacing" textLength="67" x="39.5" y="135.8467">Hardware</text><line style="stroke:#181818;stroke-width:0.5;" x1="11.5" x2="108.5" y1="147" y2="147"/><line style="stroke:#181818;stroke-width:0.5;" x1="11.5" x2="108.5" y1="155" y2="155"/></g><!--MD5=[ec93e680e5c079a1bb6337ff2b922fa4]
class Software--><g id="elem_Software"><rect codeLine="3" fill="#F1F1F1" height="48" id="Software" rx="2.5" ry="2.5" style="stroke:#181818;stroke-width:0.5;" width="97" x="144.5" y="115"/><ellipse cx="159.5" cy="131" fill="#ADD1B2" rx="11" ry="11" style="stroke:#181818;stroke-width:1.0;"/><path d="M161.8438,126.6719 C160.9063,126.2344 160.3125,126.0938 159.4375,126.0938 C156.8125,126.0938 154.8125,128.1719 154.8125,130.8906 L154.8125,132.0156 C154.8125,134.5938 156.9219,136.4844 159.8125,136.4844 C161.0313,136.4844 162.1875,136.1875 162.9375,135.6406 C163.5156,135.2344 163.8438,134.7813 163.8438,134.3906 C163.8438,133.9375 163.4531,133.5469 162.9844,133.5469 C162.7656,133.5469 162.5625,133.625 162.375,133.8125 C161.9219,134.2969 161.9219,134.2969 161.7344,134.3906 C161.3125,134.6563 160.625,134.7813 159.8594,134.7813 C157.8125,134.7813 156.5156,133.6875 156.5156,131.9844 L156.5156,130.8906 C156.5156,129.1094 157.7656,127.7969 159.5,127.7969 C160.0781,127.7969 160.6875,127.9531 161.1563,128.2031 C161.6406,128.4844 161.8125,128.7031 161.9063,129.1094 C161.9688,129.5156 162,129.6406 162.1406,129.7656 C162.2813,129.9063 162.5156,130.0156 162.7344,130.0156 C163,130.0156 163.2656,129.875 163.4375,129.6563 C163.5469,129.5 163.5781,129.3125 163.5781,128.8906 L163.5781,127.4688 C163.5781,127.0313 163.5625,126.9063 163.4688,126.75 C163.3125,126.4844 163.0313,126.3438 162.7344,126.3438 C162.4375,126.3438 162.2344,126.4375 162.0156,126.75 L161.8438,126.6719 Z " fill="#000000"/><text fill="#000000" font-family="sans-serif" font-size="14" lengthAdjust="spacing" textLength="65" x="173.5" y="135.8467">Software</text><line style="stroke:#181818;stroke-width:0.5;" x1="145.5" x2="240.5" y1="147" y2="147"/><line style="stroke:#181818;stroke-width:0.5;" x1="145.5" x2="240.5" y1="155" y2="155"/></g><!--MD5=[931ec41c47d2faaeac20fbe4d4246be7]
class Firmware--><g id="elem_Firmware"><rect codeLine="4" fill="#F1F1F1" height="48" id="Firmware" rx="2.5" ry="2.5" style="stroke:#181818;stroke-width:0.5;" width="98" x="7" y="223"/><ellipse cx="22" cy="239" fill="#ADD1B2" rx="11" ry="11" style="stroke:#181818;stroke-width:1.0;"/><path d="M24.3438,234.6719 C23.4063,234.2344 22.8125,234.0938 21.9375,234.0938 C19.3125,234.0938 17.3125,236.1719 17.3125,238.8906 L17.3125,240.0156 C17.3125,242.5938 19.4219,244.4844 22.3125,244.4844 C23.5313,244.4844 24.6875,244.1875 25.4375,243.6406 C26.0156,243.2344 26.3438,242.7813 26.3438,242.3906 C26.3438,241.9375 25.9531,241.5469 25.4844,241.5469 C25.2656,241.5469 25.0625,241.625 24.875,241.8125 C24.4219,242.2969 24.4219,242.2969 24.2344,242.3906 C23.8125,242.6563 23.125,242.7813 22.3594,242.7813 C20.3125,242.7813 19.0156,241.6875 19.0156,239.9844 L19.0156,238.8906 C19.0156,237.1094 20.2656,235.7969 22,235.7969 C22.5781,235.7969 23.1875,235.9531 23.6563,236.2031 C24.1406,236.4844 24.3125,236.7031 24.4063,237.1094 C24.4688,237.5156 24.5,237.6406 24.6406,237.7656 C24.7813,237.9063 25.0156,238.0156 25.2344,238.0156 C25.5,238.0156 25.7656,237.875 25.9375,237.6563 C26.0469,237.5 26.0781,237.3125 26.0781,236.8906 L26.0781,235.4688 C26.0781,235.0313 26.0625,234.9063 25.9688,234.75 C25.8125,234.4844 25.5313,234.3438 25.2344,234.3438 C24.9375,234.3438 24.7344,234.4375 24.5156,234.75 L24.3438,234.6719 Z " fill="#000000"/><text fill="#000000" font-family="sans-serif" font-size="14" lengthAdjust="spacing" textLength="66" x="36" y="243.8467">Firmware</text><line style="stroke:#181818;stroke-width:0.5;" x1="8" x2="104" y1="255" y2="255"/><line style="stroke:#181818;stroke-width:0.5;" x1="8" x2="104" y1="263" y2="263"/></g><!--MD5=[e7164125e6631aa5fad182c6654e22fe]
class Middleware--><g id="elem_Middleware"><rect codeLine="5" fill="#F1F1F1" height="48" id="Middleware" rx="2.5" ry="2.5" style="stroke:#181818;stroke-width:0.5;" width="113" x="140.5" y="223"/><ellipse cx="155.5" cy="239" fill="#ADD1B2" rx="11" ry="11" style="stroke:#181818;stroke-width:1.0;"/><path d="M157.8438,234.6719 C156.9063,234.2344 156.3125,234.0938 155.4375,234.0938 C152.8125,234.0938 150.8125,236.1719 150.8125,238.8906 L150.8125,240.0156 C150.8125,242.5938 152.9219,244.4844 155.8125,244.4844 C157.0313,244.4844 158.1875,244.1875 158.9375,243.6406 C159.5156,243.2344 159.8438,242.7813 159.8438,242.3906 C159.8438,241.9375 159.4531,241.5469 158.9844,241.5469 C158.7656,241.5469 158.5625,241.625 158.375,241.8125 C157.9219,242.2969 157.9219,242.2969 157.7344,242.3906 C157.3125,242.6563 156.625,242.7813 155.8594,242.7813 C153.8125,242.7813 152.5156,241.6875 152.5156,239.9844 L152.5156,238.8906 C152.5156,237.1094 153.7656,235.7969 155.5,235.7969 C156.0781,235.7969 156.6875,235.9531 157.1563,236.2031 C157.6406,236.4844 157.8125,236.7031 157.9063,237.1094 C157.9688,237.5156 158,237.6406 158.1406,237.7656 C158.2813,237.9063 158.5156,238.0156 158.7344,238.0156 C159,238.0156 159.2656,237.875 159.4375,237.6563 C159.5469,237.5 159.5781,237.3125 159.5781,236.8906 L159.5781,235.4688 C159.5781,235.0313 159.5625,234.9063 159.4688,234.75 C159.3125,234.4844 159.0313,234.3438 158.7344,234.3438 C158.4375,234.3438 158.2344,234.4375 158.0156,234.75 L157.8438,234.6719 Z " fill="#000000"/><text fill="#000000" font-family="sans-serif" font-size="14" lengthAdjust="spacing" textLength="81" x="169.5" y="243.8467">Middleware</text><line style="stroke:#181818;stroke-width:0.5;" x1="141.5" x2="252.5" y1="255" y2="255"/><line style="stroke:#181818;stroke-width:0.5;" x1="141.5" x2="252.5" y1="263" y2="263"/></g><!--MD5=[1d843b2552fd168e9bee2cad87455b0e]
class Dataware--><g id="elem_Dataware"><rect codeLine="6" fill="#F1F1F1" height="48" id="Dataware" rx="2.5" ry="2.5" style="stroke:#181818;stroke-width:0.5;" width="100" x="289" y="223"/><ellipse cx="304" cy="239" fill="#ADD1B2" rx="11" ry="11" style="stroke:#181818;stroke-width:1.0;"/><path d="M306.3438,234.6719 C305.4063,234.2344 304.8125,234.0938 303.9375,234.0938 C301.3125,234.0938 299.3125,236.1719 299.3125,238.8906 L299.3125,240.0156 C299.3125,242.5938 301.4219,244.4844 304.3125,244.4844 C305.5313,244.4844 306.6875,244.1875 307.4375,243.6406 C308.0156,243.2344 308.3438,242.7813 308.3438,242.3906 C308.3438,241.9375 307.9531,241.5469 307.4844,241.5469 C307.2656,241.5469 307.0625,241.625 306.875,241.8125 C306.4219,242.2969 306.4219,242.2969 306.2344,242.3906 C305.8125,242.6563 305.125,242.7813 304.3594,242.7813 C302.3125,242.7813 301.0156,241.6875 301.0156,239.9844 L301.0156,238.8906 C301.0156,237.1094 302.2656,235.7969 304,235.7969 C304.5781,235.7969 305.1875,235.9531 305.6563,236.2031 C306.1406,236.4844 306.3125,236.7031 306.4063,237.1094 C306.4688,237.5156 306.5,237.6406 306.6406,237.7656 C306.7813,237.9063 307.0156,238.0156 307.2344,238.0156 C307.5,238.0156 307.7656,237.875 307.9375,237.6563 C308.0469,237.5 308.0781,237.3125 308.0781,236.8906 L308.0781,235.4688 C308.0781,235.0313 308.0625,234.9063 307.9688,234.75 C307.8125,234.4844 307.5313,234.3438 307.2344,234.3438 C306.9375,234.3438 306.7344,234.4375 306.5156,234.75 L306.3438,234.6719 Z " fill="#000000"/><text fill="#000000" font-family="sans-serif" font-size="14" lengthAdjust="spacing" textLength="68" x="318" y="243.8467">Dataware</text><line style="stroke:#181818;stroke-width:0.5;" x1="290" x2="388" y1="255" y2="255"/><line style="stroke:#181818;stroke-width:0.5;" x1="290" x2="388" y1="263" y2="263"/></g><!--MD5=[0fe7b224b1e921dec886add6161e7b02]
link Peopleware to Software--><g id="link_Peopleware_Software"><path codeLine="8" d="M140.538,55 C150.827,71.279 164.675,93.187 175.56,110.408 " fill="none" id="Peopleware-to-Software" style="stroke:#181818;stroke-width:1.0;"/><polygon fill="#181818" points="178.259,114.678,176.8323,104.933,175.5879,110.4513,170.0696,109.2069,178.259,114.678" style="stroke:#181818;stroke-width:1.0;"/></g><!--MD5=[502e0e3ebb22d99adb89ab134fe0540a]
link Peopleware to Hardware--><g id="link_Peopleware_Hardware"><path codeLine="9" d="M111.679,55 C101.5433,71.279 87.9024,93.187 77.1802,110.408 " fill="none" id="Peopleware-to-Hardware" style="stroke:#181818;stroke-width:1.0;"/><polygon fill="#181818" points="74.521,114.678,82.6736,109.1522,77.1638,110.4335,75.8825,104.9237,74.521,114.678" style="stroke:#181818;stroke-width:1.0;"/></g><!--MD5=[749e4fd7ece572ca45fa82c747346b75]
reverse link Software to Firmware--><g id="link_Software_Firmware"><path codeLine="10" d="M147.245,175.4016 C127.125,190.9688 104.0522,208.8209 86.142,222.6784 " fill="none" id="Software-backto-Firmware" style="stroke:#181818;stroke-width:1.0;"/><polygon fill="none" points="143.171,169.703,163.273,163,151.739,180.7756,143.171,169.703" style="stroke:#181818;stroke-width:1.0;"/></g><!--MD5=[0b59e370e98305ddc4985fcfe74d50e5]
reverse link Software to Middleware--><g id="link_Software_Middleware"><path codeLine="11" d="M194.624,183.0236 C195.135,196.5792 195.681,211.0381 196.12,222.6784 " fill="none" id="Software-backto-Middleware" style="stroke:#181818;stroke-width:1.0;"/><polygon fill="none" points="187.627,183.2502,193.868,163,201.617,182.7222,187.627,183.2502" style="stroke:#181818;stroke-width:1.0;"/></g><!--MD5=[13dace3781b7574165bcda69db470fa0]
reverse link Software to Dataware--><g id="link_Software_Dataware"><path codeLine="12" d="M241.178,174.9786 C262.85,190.7132 287.836,208.8532 307.13,222.8617 " fill="none" id="Software-backto-Dataware" style="stroke:#181818;stroke-width:1.0;"/><polygon fill="none" points="236.752,180.4152,224.68,163,244.977,169.086,236.752,180.4152" style="stroke:#181818;stroke-width:1.0;"/></g><!--MD5=[7a71b5e50f739937cf93b972d8fff389]
link Hardware to Firmware--><g id="link_Hardware_Firmware"><path codeLine="13" d="M58.6795,174.9915 C58.6795,174.9915 57.7858,198.6772 57.3825,209.3638 " fill="none" id="Hardware-Firmware" style="stroke:#181818;stroke-width:1.0;"/><polygon fill="#181818" points="56.8801,222.6784,61.2167,213.8357,57.0687,217.682,53.2224,213.5339,56.8801,222.6784" style="stroke:#181818;stroke-width:1.0;"/><line style="stroke:#181818;stroke-width:1.0;" x1="57.0687" x2="57.3704" y1="217.682" y2="209.6877"/><polygon fill="#181818" points="59.1321,163,54.9087,168.8449,58.6795,174.9915,62.903,169.1466,59.1321,163" style="stroke:#181818;stroke-width:1.0;"/></g><!--MD5=[27303d572bce8c8b49a49c71c7766901]
link Hardware to Software--><g id="link_Hardware_Software"><path codeLine="14" d="M121.615,139 C121.615,139 128.357,139 131.194,139 " fill="none" id="Hardware-Software" style="stroke:#181818;stroke-width:1.0;"/><polygon fill="#181818" points="144.467,139,135.467,135,139.467,139,135.467,143,144.467,139" style="stroke:#181818;stroke-width:1.0;"/><line style="stroke:#181818;stroke-width:1.0;" x1="139.467" x2="131.467" y1="139" y2="139"/><polygon fill="none" points="109.615,139,115.615,143,121.615,139,115.615,135,109.615,139" style="stroke:#181818;stroke-width:1.0;"/></g><!--MD5=[ff3fd2b95f378b77557ae9ff740d326b]
@startuml
class Peopleware
class Hardware
class Software
class Firmware
class Middleware
class Dataware

Peopleware - -> Software
Peopleware - -> Hardware
Software <|- - Firmware
Software <|- - Middleware
Software <|- - Dataware
Hardware *- -> Firmware
Hardware o-right-> Software
@enduml

PlantUML version 1.2022.3(Tue Mar 29 16:10:57 UTC 2022)
(GPL source distribution)
Java Runtime: Java(TM) SE Runtime Environment
JVM: Java HotSpot(TM) 64-Bit Server VM
Default Encoding: UTF-8
Language: en
Country: US
--></g></svg>